<svg xmlns="http://www.w3.org/2000/svg" xmlns:xlink="http://www.w3.org/1999/xlink" fill="none" stroke="none" stroke-linecap="square" stroke-miterlimit="10" version="1.1" viewBox="0 0 960 540"><clipPath id="gdfe1767869_0_104.0"><path d="m0 0l960.0 0l0 540.0l-960.0 0l0 -540.0z" clip-rule="nonzero"/></clipPath><g clip-path="url(#gdfe1767869_0_104.0)"><path fill="#fff" fill-rule="evenodd" d="m0 0l960.0 0l0 540.0l-960.0 0z"/><path fill="#d9ead3" fill-rule="nonzero" d="m31.874016 238.1811l448.12598 0l0 47.99736l-448.12598 0l0 -47.99736z" shape-rendering="crispEdges"/><path fill="#d9ead3" fill-rule="nonzero" d="m480.0 238.1811l448.12598 0l0 47.99736l-448.12598 0l0 -47.99736z" shape-rendering="crispEdges"/><path fill-rule="nonzero" stroke="#f3f3f3" stroke-linecap="butt" stroke-width="1" d="m31.874016 237.68242l0 125.79265"/><path fill-rule="nonzero" stroke="#f3f3f3" stroke-linecap="butt" stroke-width="1" d="m480.0 237.68242l0 125.79265"/><path fill-rule="nonzero" stroke="#f3f3f3" stroke-linecap="butt" stroke-width="1" d="m928.126 237.68242l0 125.79265"/><path fill-rule="nonzero" stroke="#f3f3f3" stroke-linecap="butt" stroke-width="1" d="m31.375328 238.1811l897.2494 0"/><path fill-rule="nonzero" stroke="#f3f3f3" stroke-linecap="butt" stroke-width="1" d="m31.375328 286.17847l897.2494 0"/><path fill-rule="nonzero" stroke="#f3f3f3" stroke-linecap="butt" stroke-width="1" d="m31.375328 362.97638l897.2494 0"/><path fill="#000" fill-rule="nonzero" d="m94.09911 268.0336q1.28125 0.921875 2.78125 1.453125l-1.28125 2.453125q-0.78125 -0.234375 -1.53125 -0.640625q-0.171875 -0.078125 -2.3125 -1.53125q-1.6875 0.75 -3.734375 0.75q-3.96875 0 -6.21875 -2.328125q-2.234375 -2.34375 -2.234375 -6.5625q0 -4.203125 2.25 -6.53125q2.25 -2.34375 6.109375 -2.34375q3.8125 0 6.046875 2.34375q2.25 2.328125 2.25 6.53125q0 2.234375 -0.625 3.921875q-0.46875 1.28125 -1.5 2.484375zm-2.796875 -1.953125q0.671875 -0.78125 1.0 -1.890625q0.34375 -1.125 0.34375 -2.5625q0 -2.96875 -1.3125 -4.4375q-1.3125 -1.484375 -3.4375 -1.484375q-2.125 0 -3.4375 1.484375q-1.3125 1.46875 -1.3125 4.4375q0 3.015625 1.3125 4.515625q1.3125 1.484375 3.328125 1.484375q0.75 0 1.421875 -0.25q-1.046875 -0.6875 -2.140625 -1.078125l0.96875 -1.96875q1.71875 0.578125 3.265625 1.75zm15.808594 4.140625l0 -1.859375q-0.6875 0.984375 -1.796875 1.5625q-1.109375 0.578125 -2.328125 0.578125q-1.265625 0 -2.265625 -0.546875q-0.984375 -0.5625 -1.4375 -1.546875q-0.4375 -1.0 -0.4375 -2.765625l0 -7.875l3.296875 0l0 5.71875q0 2.625 0.171875 3.21875q0.1875 0.59375 0.65625 0.9375q0.484375 0.34375 1.234375 0.34375q0.84375 0 1.5 -0.453125q0.671875 -0.46875 0.921875 -1.15625q0.25 -0.6875 0.25 -3.359375l0 -5.25l3.28125 0l0 12.453125l-3.046875 0zm8.925781 -8.65625l-2.984375 -0.53125q0.5 -1.8125 1.71875 -2.671875q1.234375 -0.875 3.671875 -0.875q2.203125 0 3.28125 0.53125q1.078125 0.515625 1.515625 1.328125q0.4375 0.796875 0.4375 2.9375l-0.03125 3.84375q0 1.640625 0.15625 2.421875q0.15625 0.78125 0.59375 1.671875l-3.265625 0q-0.125 -0.328125 -0.3125 -0.96875q-0.078125 -0.296875 -0.125 -0.390625q-0.84375 0.8125 -1.8125 1.234375q-0.953125 0.40625 -2.03125 0.40625q-1.921875 0 -3.03125 -1.046875q-1.109375 -1.046875 -1.109375 -2.640625q0 -1.046875 0.5 -1.875q0.5 -0.828125 1.40625 -1.265625q0.921875 -0.4375 2.625 -0.765625q2.3125 -0.4375 3.203125 -0.8125l0 -0.328125q0 -0.953125 -0.46875 -1.34375q-0.46875 -0.40625 -1.765625 -0.40625q-0.890625 0 -1.390625 0.34375q-0.484375 0.34375 -0.78125 1.203125zm4.40625 2.671875q-0.640625 0.21875 -2.015625 0.515625q-1.359375 0.28125 -1.78125 0.5625q-0.640625 0.46875 -0.640625 1.171875q0 0.6875 0.515625 1.1875q0.515625 0.5 1.3125 0.5q0.890625 0 1.6875 -0.578125q0.609375 -0.453125 0.796875 -1.09375q0.125 -0.421875 0.125 -1.609375l0 -0.65625z"/><path fill="#000" fill-rule="nonzero" d="m126.72802 270.2211l0 -17.1875l2.1093674 0l0 17.1875l-2.1093674 0zm5.3945236 -14.75l0 -2.4375l2.109375 0l0 2.4375l-2.109375 0zm0 14.75l0 -12.453125l2.109375 0l0 12.453125l-2.109375 0zm9.925781 -1.890625l0.3125 1.859375q-0.890625 0.203125 -1.59375 0.203125q-1.15625 0 -1.796875 -0.359375q-0.625 -0.375 -0.890625 -0.96875q-0.25 -0.59375 -0.25 -2.484375l0 -7.171875l-1.546875 0l0 -1.640625l1.546875 0l0 -3.078125l2.09375 -1.265625l0 4.34375l2.125 0l0 1.640625l-2.125 0l0 7.28125q0 0.90625 0.109375 1.171875q0.125 0.25 0.375 0.40625q0.25 0.140625 0.71875 0.140625q0.34375 0 0.921875 -0.078125zm10.183594 0.359375q-1.171875 0.984375 -2.265625 1.40625q-1.078125 0.40625 -2.3125 0.40625q-2.046875 0 -3.15625 -1.0q-1.09375 -1.0 -1.09375 -2.5625q0 -0.921875 0.40625 -1.671875q0.421875 -0.75 1.09375 -1.203125q0.671875 -0.46875 1.515625 -0.703125q0.625 -0.15625 1.875 -0.3125q2.5625 -0.3125 3.765625 -0.734375q0.015625 -0.421875 0.015625 -0.546875q0 -1.28125 -0.609375 -1.8125q-0.796875 -0.71875 -2.390625 -0.71875q-1.5 0 -2.203125 0.53125q-0.703125 0.515625 -1.046875 1.84375l-2.0625 -0.28125q0.28125 -1.328125 0.921875 -2.140625q0.640625 -0.8125 1.859375 -1.25q1.21875 -0.453125 2.828125 -0.453125q1.59375 0 2.59375 0.375q1.0 0.375 1.46875 0.953125q0.46875 0.5625 0.65625 1.4375q0.09375 0.53125 0.09375 1.9375l0 2.8125q0 2.9375 0.140625 3.71875q0.140625 0.78125 0.53125 1.5l-2.203125 0q-0.328125 -0.65625 -0.421875 -1.53125zm-0.171875 -4.71875q-1.15625 0.46875 -3.453125 0.796875q-1.296875 0.1875 -1.84375 0.421875q-0.53125 0.234375 -0.828125 0.6875q-0.28125 0.453125 -0.28125 1.0q0 0.84375 0.625 1.40625q0.640625 0.5625 1.875 0.5625q1.21875 0 2.171875 -0.53125q0.953125 -0.53125 1.390625 -1.453125q0.34375 -0.71875 0.34375 -2.109375l0 -0.78125zm10.003906 4.359375l0.3125 1.859375q-0.890625 0.203125 -1.59375 0.203125q-1.15625 0 -1.796875 -0.359375q-0.625 -0.375 -0.890625 -0.96875q-0.25 -0.59375 -0.25 -2.484375l0 -7.171875l-1.546875 0l0 -1.640625l1.546875 0l0 -3.078125l2.09375 -1.265625l0 4.34375l2.125 0l0 1.640625l-2.125 0l0 7.28125q0 0.90625 0.109375 1.171875q0.125 0.25 0.375 0.40625q0.25 0.140625 0.71875 0.140625q0.34375 0 0.921875 -0.078125zm2.0742188 -12.859375l0 -2.4375l2.109375 0l0 2.4375l-2.109375 0zm0 14.75l0 -12.453125l2.109375 0l0 12.453125l-2.109375 0zm8.785156 0l-4.734375 -12.453125l2.21875 0l2.671875 7.453125q0.4375 1.21875 0.796875 2.515625q0.28125 -0.984375 0.78125 -2.375l2.765625 -7.59375l2.171875 0l-4.703125 12.453125l-1.96875 0zm17.0625 -4.015625l2.171875 0.28125q-0.515625 1.90625 -1.90625 2.96875q-1.390625 1.046875 -3.5625 1.046875q-2.734375 0 -4.34375 -1.671875q-1.59375 -1.6875 -1.59375 -4.734375q0 -3.140625 1.609375 -4.875q1.625 -1.734375 4.203125 -1.734375q2.5 0 4.078125 1.703125q1.59375 1.703125 1.59375 4.78125q0 0.1875 -0.015625 0.5625l-9.28125 0q0.109375 2.046875 1.15625 3.140625q1.046875 1.09375 2.609375 1.09375q1.15625 0 1.96875 -0.609375q0.828125 -0.609375 1.3125 -1.953125zm-6.9375 -3.40625l6.953125 0q-0.140625 -1.5625 -0.796875 -2.359375q-1.0 -1.21875 -2.609375 -1.21875q-1.453125 0 -2.453125 0.984375q-0.984375 0.96875 -1.09375 2.59375z"/><path fill="#000" fill-rule="nonzero" d="m201.68895 270.2211l0 -17.1875l3.46875 0l0 7.640625l7.0 -7.640625l4.671875 0l-6.46875 6.703125l6.8125 10.484375l-4.484375 0l-4.71875 -8.0625l-2.8125 2.875l0 5.1875l-3.46875 0z"/><path fill="#000" fill-rule="nonzero" d="m218.80223 270.2211l0 -12.453125l1.90625 0l0 1.78125q1.375 -2.0625 3.953125 -2.0625q1.125 0 2.0625 0.40625q0.953125 0.40625 1.421875 1.0625q0.46875 0.65625 0.65625 1.5625q0.125 0.578125 0.125 2.046875l0 7.65625l-2.109375 0l0 -7.578125q0 -1.28125 -0.25 -1.921875q-0.25 -0.640625 -0.875 -1.015625q-0.625 -0.390625 -1.46875 -0.390625q-1.34375 0 -2.328125 0.859375q-0.984375 0.859375 -0.984375 3.25l0 6.796875l-2.109375 0zm12.566406 -6.21875q0 -3.46875 1.921875 -5.125q1.609375 -1.390625 3.921875 -1.390625q2.5625 0 4.1875 1.6875q1.625 1.6875 1.625 4.640625q0 2.40625 -0.71875 3.78125q-0.71875 1.375 -2.09375 2.140625q-1.375 0.765625 -3.0 0.765625q-2.625 0 -4.234375 -1.671875q-1.609375 -1.6875 -1.609375 -4.828125zm2.171875 0q0 2.390625 1.03125 3.578125q1.046875 1.1875 2.640625 1.1875q1.5625 0 2.609375 -1.1875q1.046875 -1.203125 1.046875 -3.65625q0 -2.3125 -1.0625 -3.5q-1.046875 -1.1875 -2.59375 -1.1875q-1.59375 0 -2.640625 1.1875q-1.03125 1.1875 -1.03125 3.578125zm14.253906 6.21875l-3.796875 -12.453125l2.171875 0l1.984375 7.1875l0.734375 2.671875q0.046875 -0.203125 0.640625 -2.5625l1.984375 -7.296875l2.171875 0l1.859375 7.21875l0.62501526 2.390625l0.71875 -2.40625l2.125 -7.203125l2.046875 0l-3.890625 12.453125l-2.1875153 0l-1.984375 -7.453125l-0.46875 -2.125l-2.53125 9.578125l-2.203125 0zm14.9882965 0l0 -17.1875l2.109375 0l0 17.1875l-2.109375 0zm13.910156 -4.015625l2.171875 0.28125q-0.515625 1.90625 -1.90625 2.96875q-1.390625 1.046875 -3.5625 1.046875q-2.734375 0 -4.34375 -1.671875q-1.59375 -1.6875 -1.59375 -4.734375q0 -3.140625 1.609375 -4.875q1.625 -1.734375 4.203125 -1.734375q2.5 0 4.078125 1.703125q1.59375 1.703125 1.59375 4.78125q0 0.1875 -0.015625 0.5625l-9.28125 0q0.109375 2.046875 1.15625 3.140625q1.046875 1.09375 2.609375 1.09375q1.15625 0 1.96875 -0.609375q0.828125 -0.609375 1.3125 -1.953125zm-6.9375 -3.40625l6.953125 0q-0.140625 -1.5625 -0.796875 -2.359375q-1.0 -1.21875 -2.609375 -1.21875q-1.453125 0 -2.453125 0.984375q-0.984375 0.96875 -1.09375 2.59375zm19.832031 7.421875l0 -1.578125q-1.1875 1.859375 -3.484375 1.859375q-1.484375 0 -2.734375 -0.8125q-1.25 -0.828125 -1.9375 -2.296875q-0.671875 -1.46875 -0.671875 -3.390625q0 -1.859375 0.609375 -3.375q0.625 -1.515625 1.859375 -2.328125q1.25 -0.8125 2.78125 -0.8125q1.125 0 2.0 0.484375q0.890625 0.46875 1.4375 1.234375l0 -6.171875l2.09375 0l0 17.1875l-1.953125 0zm-6.671875 -6.21875q0 2.390625 1.0 3.578125q1.015625 1.1875 2.390625 1.1875q1.390625 0 2.34375 -1.125q0.96875 -1.140625 0.96875 -3.453125q0 -2.5625 -0.984375 -3.75q-0.984375 -1.203125 -2.421875 -1.203125q-1.40625 0 -2.359375 1.15625q-0.9375 1.140625 -0.9375 3.609375zm11.566406 7.25l2.046875 0.3125q0.125 0.9375 0.71875 1.375q0.78125 0.59375 2.140625 0.59375q1.46875 0 2.265625 -0.59375q0.796875 -0.578125 1.078125 -1.640625q0.15625 -0.640625 0.140625 -2.703125q-1.375 1.625 -3.4375 1.625q-2.5625 0 -3.96875 -1.84375q-1.40625 -1.859375 -1.40625 -4.453125q0 -1.78125 0.640625 -3.28125q0.640625 -1.515625 1.859375 -2.328125q1.234375 -0.828125 2.890625 -0.828125q2.203125 0 3.625 1.78125l0 -1.5l1.953125 0l0 10.765625q0 2.90625 -0.59375 4.109375q-0.59375 1.21875 -1.875 1.921875q-1.28125 0.703125 -3.15625 0.703125q-2.234375 0 -3.609375 -1.0q-1.359375 -1.0 -1.3125 -3.015625zm1.734375 -7.484375q0 2.453125 0.96875 3.578125q0.984375 1.125 2.453125 1.125q1.453125 0 2.4375 -1.109375q0.984375 -1.125 0.984375 -3.515625q0 -2.28125 -1.015625 -3.4375q-1.015625 -1.171875 -2.453125 -1.171875q-1.40625 0 -2.390625 1.140625q-0.984375 1.140625 -0.984375 3.390625zm20.519531 2.4375l2.171875 0.28125q-0.515625 1.90625 -1.90625 2.96875q-1.390625 1.046875 -3.5625 1.046875q-2.734375 0 -4.34375 -1.671875q-1.59375 -1.6875 -1.59375 -4.734375q0 -3.140625 1.609375 -4.875q1.625 -1.734375 4.203125 -1.734375q2.5 0 4.078125 1.703125q1.59375 1.703125 1.59375 4.78125q0 0.1875 -0.015625 0.5625l-9.28125 0q0.109375 2.046875 1.15625 3.140625q1.046875 1.09375 2.609375 1.09375q1.15625 0 1.96875 -0.609375q0.828125 -0.609375 1.3125 -1.953125zm-6.9375 -3.40625l6.953125 0q-0.140625 -1.5625 -0.796875 -2.359375q-1.0 -1.21875 -2.609375 -1.21875q-1.453125 0 -2.453125 0.984375q-0.984375 0.96875 -1.09375 2.59375z"/><path fill="#000" fill-rule="nonzero" d="m328.3921 270.2211l0 -17.1875l12.734375 0l0 2.90625l-9.265625 0l0 3.8125l8.625 0l0 2.890625l-8.625 0l0 4.6875l9.59375 0l0 2.890625l-13.0625 0z"/><path fill="#000" fill-rule="nonzero" d="m342.82178 270.2211l4.546875 -6.46875l-4.203125 -5.984375l2.640625 0l1.90625 2.921875q0.546875 0.828125 0.875 1.390625q0.515625 -0.765625 0.9375 -1.359375l2.109375 -2.953125l2.515625 0l-4.296875 5.859375l4.625 6.59375l-2.59375 0l-2.546875 -3.875l-0.6875 -1.03125l-3.265625 4.90625l-2.5625 0zm18.015625 -1.890625l0.3125 1.859375q-0.890625 0.203125 -1.59375 0.203125q-1.15625 0 -1.796875 -0.359375q-0.625 -0.375 -0.890625 -0.96875q-0.25 -0.59375 -0.25 -2.484375l0 -7.171875l-1.546875 0l0 -1.640625l1.546875 0l0 -3.078125l2.09375 -1.265625l0 4.34375l2.125 0l0 1.640625l-2.125 0l0 7.28125q0 0.90625 0.109375 1.171875q0.125 0.25 0.375 0.40625q0.25 0.140625 0.71875 0.140625q0.34375 0 0.921875 -0.078125zm2.0429688 1.890625l0 -12.453125l1.890625 0l0 1.890625q0.734375 -1.328125 1.34375 -1.75q0.625 -0.421875 1.359375 -0.421875q1.0625 0 2.171875 0.6875l-0.734375 1.953125q-0.765625 -0.453125 -1.546875 -0.453125q-0.6875 0 -1.25 0.421875q-0.546875 0.40625 -0.78125 1.140625q-0.34375 1.125 -0.34375 2.46875l0 6.515625l-2.109375 0zm16.132812 -1.53125q-1.171875 0.984375 -2.265625 1.40625q-1.078125 0.40625 -2.3125 0.40625q-2.046875 0 -3.15625 -1.0q-1.09375 -1.0 -1.09375 -2.5625q0 -0.921875 0.40625 -1.671875q0.421875 -0.75 1.09375 -1.203125q0.671875 -0.46875 1.515625 -0.703125q0.625 -0.15625 1.875 -0.3125q2.5625 -0.3125 3.765625 -0.734375q0.015625 -0.421875 0.015625 -0.546875q0 -1.28125 -0.609375 -1.8125q-0.796875 -0.71875 -2.390625 -0.71875q-1.5 0 -2.203125 0.53125q-0.703125 0.515625 -1.046875 1.84375l-2.0625 -0.28125q0.28125 -1.328125 0.921875 -2.140625q0.640625 -0.8125 1.859375 -1.25q1.21875 -0.453125 2.828125 -0.453125q1.59375 0 2.59375 0.375q1.0 0.375 1.46875 0.953125q0.46875 0.5625 0.65625 1.4375q0.09375 0.53125 0.09375 1.9375l0 2.8125q0 2.9375 0.140625 3.71875q0.140625 0.78125 0.53125 1.5l-2.203125 0q-0.328125 -0.65625 -0.421875 -1.53125zm-0.171875 -4.71875q-1.15625 0.46875 -3.453125 0.796875q-1.296875 0.1875 -1.84375 0.421875q-0.53125 0.234375 -0.828125 0.6875q-0.28125 0.453125 -0.28125 1.0q0 0.84375 0.625 1.40625q0.640625 0.5625 1.875 0.5625q1.21875 0 2.171875 -0.53125q0.953125 -0.53125 1.390625 -1.453125q0.34375 -0.71875 0.34375 -2.109375l0 -0.78125zm13.519531 1.6875l2.078125 0.265625q-0.34375 2.15625 -1.75 3.375q-1.390625 1.203125 -3.4375 1.203125q-2.546875 0 -4.109375 -1.671875q-1.546875 -1.671875 -1.546875 -4.78125q0 -2.015625 0.671875 -3.53125q0.671875 -1.515625 2.03125 -2.265625q1.359375 -0.765625 2.96875 -0.765625q2.03125 0 3.3125 1.03125q1.296875 1.03125 1.65625 2.90625l-2.046875 0.328125q-0.296875 -1.265625 -1.046875 -1.890625q-0.734375 -0.640625 -1.796875 -0.640625q-1.59375 0 -2.59375 1.15625q-0.984375 1.140625 -0.984375 3.609375q0 2.5 0.953125 3.640625q0.96875 1.140625 2.515625 1.140625q1.234375 0 2.0625 -0.765625q0.84375 -0.765625 1.0625 -2.34375zm8.484375 2.671875l0.3125 1.859375q-0.890625 0.203125 -1.59375 0.203125q-1.15625 0 -1.796875 -0.359375q-0.625 -0.375 -0.890625 -0.96875q-0.25 -0.59375 -0.25 -2.484375l0 -7.171875l-1.546875 0l0 -1.640625l1.546875 0l0 -3.078125l2.09375 -1.265625l0 4.34375l2.125 0l0 1.640625l-2.125 0l0 7.28125q0 0.90625 0.109375 1.171875q0.125 0.25 0.375 0.40625q0.25 0.140625 0.71875 0.140625q0.34375 0 0.921875 -0.078125zm2.0742188 -12.859375l0 -2.4375l2.109375 0l0 2.4375l-2.109375 0zm0 14.75l0 -12.453125l2.109375 0l0 12.453125l-2.109375 0zm4.5351562 -6.21875q0 -3.46875 1.921875 -5.125q1.609375 -1.390625 3.921875 -1.390625q2.5625 0 4.1875 1.6875q1.625 1.6875 1.625 4.640625q0 2.40625 -0.71875 3.78125q-0.71875 1.375 -2.09375 2.140625q-1.375 0.765625 -3.0 0.765625q-2.625 0 -4.234375 -1.671875q-1.609375 -1.6875 -1.609375 -4.828125zm2.171875 0q0 2.390625 1.03125 3.578125q1.046875 1.1875 2.640625 1.1875q1.5625 0 2.609375 -1.1875q1.046875 -1.203125 1.046875 -3.65625q0 -2.3125 -1.0625 -3.5q-1.046875 -1.1875 -2.59375 -1.1875q-1.59375 0 -2.640625 1.1875q-1.03125 1.1875 -1.03125 3.578125zm11.957031 6.21875l0 -12.453125l1.90625 0l0 1.78125q1.375 -2.0625 3.953125 -2.0625q1.125 0 2.0625 0.40625q0.953125 0.40625 1.421875 1.0625q0.46875 0.65625 0.65625 1.5625q0.125 0.578125 0.125 2.046875l0 7.65625l-2.109375 0l0 -7.578125q0 -1.28125 -0.25 -1.921875q-0.25 -0.640625 -0.875 -1.015625q-0.625 -0.390625 -1.46875 -0.390625q-1.34375 0 -2.328125 0.859375q-0.984375 0.859375 -0.984375 3.25l0 6.796875l-2.109375 0z"/><path fill="#000" fill-rule="nonzero" d="m591.229 255.92422l0 2.453125l-2.265625 0l0 -1.9375q0 -1.578125 0.375 -2.28125q0.5 -0.9375 1.5625 -1.40625l0.515625 0.8125q-0.640625 0.265625 -0.953125 0.8125q-0.296875 0.53125 -0.328125 1.546875l1.09375 0zm3.640625 0l0 2.453125l-2.265625 0l0 -1.9375q0 -1.578125 0.375 -2.28125q0.484375 -0.9375 1.5625 -1.40625l0.515625 0.8125q-0.65625 0.265625 -0.96875 0.8125q-0.296875 0.53125 -0.328125 1.546875l1.109375 0zm2.9765625 14.296875l0 -17.1875l5.90625 0q2.015625 0 3.0625 0.25q1.484375 0.34375 2.515625 1.234375q1.359375 1.140625 2.03125 2.9375q0.6875 1.78125 0.6875 4.078125q0 1.953125 -0.46875 3.46875q-0.453125 1.515625 -1.171875 2.515625q-0.703125 0.984375 -1.5625 1.546875q-0.84375 0.5625 -2.046875 0.859375q-1.203125 0.296875 -2.765625 0.296875l-6.1875 0zm2.265625 -2.03125l3.671875 0q1.703125 0 2.65625 -0.3125q0.96875 -0.3125 1.546875 -0.890625q0.8125 -0.8125 1.265625 -2.171875q0.453125 -1.375 0.453125 -3.3125q0 -2.703125 -0.890625 -4.140625q-0.890625 -1.453125 -2.15625 -1.9375q-0.90625 -0.359375 -2.9375 -0.359375l-3.609375 0l0 13.125zm22.910156 0.5q-1.171875 0.984375 -2.265625 1.40625q-1.078125 0.40625 -2.3125 0.40625q-2.046875 0 -3.15625 -1.0q-1.09375 -1.0 -1.09375 -2.5625q0 -0.921875 0.40625 -1.671875q0.421875 -0.75 1.09375 -1.203125q0.671875 -0.46875 1.515625 -0.703125q0.625 -0.15625 1.875 -0.3125q2.5625 -0.3125 3.765625 -0.734375q0.015625 -0.421875 0.015625 -0.546875q0 -1.28125 -0.609375 -1.8125q-0.796875 -0.71875 -2.390625 -0.71875q-1.5 0 -2.203125 0.53125q-0.703125 0.515625 -1.046875 1.84375l-2.0625 -0.28125q0.28125 -1.328125 0.921875 -2.140625q0.640625 -0.8125 1.859375 -1.25q1.21875 -0.453125 2.828125 -0.453125q1.59375 0 2.59375 0.375q1.0 0.375 1.46875 0.953125q0.46875 0.5625 0.65625 1.4375q0.09375 0.53125 0.09375 1.9375l0 2.8125q0 2.9375 0.140625 3.71875q0.140625 0.78125 0.53125 1.5l-2.203125 0q-0.328125 -0.65625 -0.421875 -1.53125zm-0.171875 -4.71875q-1.15625 0.46875 -3.453125 0.796875q-1.296875 0.1875 -1.84375 0.421875q-0.53125 0.234375 -0.828125 0.6875q-0.28125 0.453125 -0.28125 1.0q0 0.84375 0.625 1.40625q0.640625 0.5625 1.875 0.5625q1.21875 0 2.171875 -0.53125q0.953125 -0.53125 1.390625 -1.453125q0.34375 -0.71875 0.34375 -2.109375l0 -0.78125zm10.003906 4.359375l0.3125 1.859375q-0.890625 0.203125 -1.59375 0.203125q-1.15625 0 -1.796875 -0.359375q-0.625 -0.375 -0.890625 -0.96875q-0.25 -0.59375 -0.25 -2.484375l0 -7.171875l-1.546875 0l0 -1.640625l1.546875 0l0 -3.078125l2.09375 -1.265625l0 4.34375l2.125 0l0 1.640625l-2.125 0l0 7.28125q0 0.90625 0.109375 1.171875q0.125 0.25 0.375 0.40625q0.25 0.140625 0.71875 0.140625q0.34375 0 0.921875 -0.078125zm10.183594 0.359375q-1.171875 0.984375 -2.265625 1.40625q-1.078125 0.40625 -2.3125 0.40625q-2.046875 0 -3.15625 -1.0q-1.09375 -1.0 -1.09375 -2.5625q0 -0.921875 0.40625 -1.671875q0.421875 -0.75 1.09375 -1.203125q0.671875 -0.46875 1.515625 -0.703125q0.625 -0.15625 1.875 -0.3125q2.5625 -0.3125 3.765625 -0.734375q0.015625 -0.421875 0.015625 -0.546875q0 -1.28125 -0.609375 -1.8125q-0.796875 -0.71875 -2.390625 -0.71875q-1.5 0 -2.203125 0.53125q-0.703125 0.515625 -1.046875 1.84375l-2.0625 -0.28125q0.28125 -1.328125 0.921875 -2.140625q0.640625 -0.8125 1.859375 -1.25q1.21875 -0.453125 2.828125 -0.453125q1.59375 0 2.59375 0.375q1.0 0.375 1.46875 0.953125q0.46875 0.5625 0.65625 1.4375q0.09375 0.53125 0.09375 1.9375l0 2.8125q0 2.9375 0.140625 3.71875q0.140625 0.78125 0.53125 1.5l-2.203125 0q-0.328125 -0.65625 -0.421875 -1.53125zm-0.171875 -4.71875q-1.15625 0.46875 -3.453125 0.796875q-1.296875 0.1875 -1.84375 0.421875q-0.53125 0.234375 -0.828125 0.6875q-0.28125 0.453125 -0.28125 1.0q0 0.84375 0.625 1.40625q0.640625 0.5625 1.875 0.5625q1.21875 0 2.171875 -0.53125q0.953125 -0.53125 1.390625 -1.453125q0.34375 -0.71875 0.34375 -2.109375l0 -0.78125zm9.128906 6.25l6.59375 -17.1875l2.453125 0l7.03125 17.1875l-2.59375 0l-2.0 -5.203125l-7.1875 0l-1.890625 5.203125l-2.40625 0zm4.953125 -7.0625l5.828125 0l-1.796875 -4.75q-0.8125 -2.171875 -1.21875 -3.5625q-0.328125 1.65625 -0.921875 3.28125l-1.890625 5.03125zm12.6171875 7.0625l0 -17.1875l2.109375 0l0 17.1875l-2.109375 0zm4.5976562 -6.21875q0 -3.46875 1.921875 -5.125q1.609375 -1.390625 3.921875 -1.390625q2.5625 0 4.1875 1.6875q1.625 1.6875 1.625 4.640625q0 2.40625 -0.71875 3.78125q-0.71875 1.375 -2.09375 2.140625q-1.375 0.765625 -3.0 0.765625q-2.625 0 -4.234375 -1.671875q-1.609375 -1.6875 -1.609375 -4.828125zm2.171875 0q0 2.390625 1.03125 3.578125q1.046875 1.1875 2.640625 1.1875q1.5625 0 2.609375 -1.1875q1.046875 -1.203125 1.046875 -3.65625q0 -2.3125 -1.0625 -3.5q-1.046875 -1.1875 -2.59375 -1.1875q-1.59375 0 -2.640625 1.1875q-1.03125 1.1875 -1.03125 3.578125zm11.957031 6.21875l0 -12.453125l1.90625 0l0 1.78125q1.375 -2.0625 3.953125 -2.0625q1.125 0 2.0625 0.40625q0.953125 0.40625 1.421875 1.0625q0.46875 0.65625 0.65625 1.5625q0.125 0.578125 0.125 2.046875l0 7.65625l-2.109375 0l0 -7.578125q0 -1.28125 -0.25 -1.921875q-0.25 -0.640625 -0.875 -1.015625q-0.625 -0.390625 -1.46875 -0.390625q-1.34375 0 -2.328125 0.859375q-0.984375 0.859375 -0.984375 3.25l0 6.796875l-2.109375 0zm21.878906 -4.015625l2.171875 0.28125q-0.515625 1.90625 -1.90625 2.96875q-1.390625 1.046875 -3.5625 1.046875q-2.734375 0 -4.34375 -1.671875q-1.59375 -1.6875 -1.59375 -4.734375q0 -3.140625 1.609375 -4.875q1.625 -1.734375 4.203125 -1.734375q2.5 0 4.078125 1.703125q1.59375 1.703125 1.59375 4.78125q0 0.1875 -0.015625 0.5625l-9.28125 0q0.109375 2.046875 1.15625 3.140625q1.046875 1.09375 2.609375 1.09375q1.15625 0 1.96875 -0.609375q0.828125 -0.609375 1.3125 -1.953125zm-6.9375 -3.40625l6.953125 0q-0.140625 -1.5625 -0.796875 -2.359375q-1.0 -1.21875 -2.609375 -1.21875q-1.453125 0 -2.453125 0.984375q-0.984375 0.96875 -1.09375 2.59375zm11.191406 -7.484375l0 -2.453125l2.265625 0l0 1.9375q0 1.5625 -0.359375 2.265625q-0.5 0.9375 -1.578125 1.421875l-0.515625 -0.828125q0.640625 -0.265625 0.953125 -0.8125q0.3125 -0.5625 0.34375 -1.53125l-1.109375 0zm3.640625 0l0 -2.453125l2.265625 0l0 1.9375q0 1.5625 -0.375 2.265625q-0.5 0.9375 -1.5625 1.421875l-0.515625 -0.828125q0.625 -0.265625 0.9375 -0.8125q0.3125 -0.5625 0.34375 -1.53125l-1.09375 0zm11.769531 14.90625l0 -17.1875l6.4375 0q1.96875 0 3.15625 0.53125q1.1875 0.515625 1.859375 1.609375q0.6875 1.078125 0.6875 2.265625q0 1.09375 -0.609375 2.078125q-0.59375 0.96875 -1.796875 1.5625q1.5625 0.453125 2.390625 1.5625q0.84375 1.09375 0.84375 2.59375q0 1.203125 -0.515625 2.25q-0.5 1.03125 -1.25 1.59375q-0.75 0.5625 -1.890625 0.859375q-1.125 0.28125 -2.765625 0.28125l-6.546875 0zm2.265625 -9.96875l3.71875 0q1.515625 0 2.171875 -0.1875q0.859375 -0.265625 1.296875 -0.859375q0.4375 -0.59375 0.4375 -1.5q0 -0.859375 -0.40625 -1.5q-0.40625 -0.65625 -1.171875 -0.890625q-0.765625 -0.25 -2.609375 -0.25l-3.4375 0l0 5.1875zm0 7.9375l4.28125 0q1.09375 0 1.546875 -0.078125q0.78125 -0.140625 1.3125 -0.46875q0.53125 -0.328125 0.859375 -0.953125q0.34375 -0.625 0.34375 -1.453125q0 -0.953125 -0.5 -1.65625q-0.484375 -0.71875 -1.359375 -1.0q-0.875 -0.296875 -2.515625 -0.296875l-3.96875 0l0 5.90625zm21.679688 0.5q-1.171875 0.984375 -2.265625 1.40625q-1.078125 0.40625 -2.3125 0.40625q-2.046875 0 -3.15625 -1.0q-1.09375 -1.0 -1.09375 -2.5625q0 -0.921875 0.40625 -1.671875q0.421875 -0.75 1.09375 -1.203125q0.671875 -0.46875 1.515625 -0.703125q0.625 -0.15625 1.875 -0.3125q2.5625 -0.3125 3.765625 -0.734375q0.015625 -0.421875 0.015625 -0.546875q0 -1.28125 -0.609375 -1.8125q-0.796875 -0.71875 -2.390625 -0.71875q-1.5 0 -2.203125 0.53125q-0.703125 0.515625 -1.046875 1.84375l-2.0625 -0.28125q0.28125 -1.328125 0.921875 -2.140625q0.640625 -0.8125 1.859375 -1.25q1.21875 -0.453125 2.828125 -0.453125q1.59375 0 2.59375 0.375q1.0 0.375 1.46875 0.953125q0.46875 0.5625 0.65625 1.4375q0.09375 0.53125 0.09375 1.9375l0 2.8125q0 2.9375 0.140625 3.71875q0.140625 0.78125 0.53125 1.5l-2.203125 0q-0.328125 -0.65625 -0.421875 -1.53125zm-0.171875 -4.71875q-1.15625 0.46875 -3.453125 0.796875q-1.296875 0.1875 -1.84375 0.421875q-0.53125 0.234375 -0.828125 0.6875q-0.28125 0.453125 -0.28125 1.0q0 0.84375 0.625 1.40625q0.640625 0.5625 1.875 0.5625q1.21875 0 2.171875 -0.53125q0.953125 -0.53125 1.390625 -1.453125q0.34375 -0.71875 0.34375 -2.109375l0 -0.78125zm4.5507812 2.53125l2.09375 -0.328125q0.171875 1.25 0.96875 1.921875q0.8125 0.671875 2.25 0.671875q1.453125 0 2.15625 -0.59375q0.703125 -0.59375 0.703125 -1.390625q0 -0.71875 -0.625 -1.125q-0.421875 -0.28125 -2.15625 -0.71875q-2.3125 -0.578125 -3.21875 -1.0q-0.890625 -0.4375 -1.359375 -1.1875q-0.453125 -0.765625 -0.453125 -1.671875q0 -0.828125 0.375 -1.53125q0.390625 -0.71875 1.046875 -1.1875q0.484375 -0.359375 1.328125 -0.609375q0.859375 -0.265625 1.828125 -0.265625q1.46875 0 2.578125 0.421875q1.109375 0.421875 1.625 1.15625q0.53125 0.71875 0.734375 1.921875l-2.0625 0.28125q-0.140625 -0.96875 -0.8125 -1.5q-0.671875 -0.546875 -1.90625 -0.546875q-1.453125 0 -2.078125 0.484375q-0.625 0.484375 -0.625 1.125q0 0.40625 0.265625 0.734375q0.25 0.34375 0.8125 0.5625q0.3125 0.125 1.859375 0.546875q2.234375 0.59375 3.109375 0.984375q0.890625 0.375 1.390625 1.109375q0.515625 0.71875 0.515625 1.796875q0 1.046875 -0.625 1.984375q-0.609375 0.9375 -1.765625 1.453125q-1.15625 0.5 -2.625 0.5q-2.421875 0 -3.703125 -1.0q-1.265625 -1.015625 -1.625 -3.0zm21.375 -0.296875l2.171875 0.28125q-0.515625 1.90625 -1.90625 2.96875q-1.390625 1.046875 -3.5625 1.046875q-2.734375 0 -4.34375 -1.671875q-1.59375 -1.6875 -1.59375 -4.734375q0 -3.140625 1.609375 -4.875q1.625 -1.734375 4.203125 -1.734375q2.5 0 4.078125 1.703125q1.59375 1.703125 1.59375 4.78125q0 0.1875 -0.015625 0.5625l-9.28125 0q0.109375 2.046875 1.15625 3.140625q1.046875 1.09375 2.609375 1.09375q1.15625 0 1.96875 -0.609375q0.828125 -0.609375 1.3125 -1.953125zm-6.9375 -3.40625l6.953125 0q-0.140625 -1.5625 -0.796875 -2.359375q-1.0 -1.21875 -2.609375 -1.21875q-1.453125 0 -2.453125 0.984375q-0.984375 0.96875 -1.09375 2.59375zm11.707031 7.421875l0 -17.1875l2.109375 0l0 17.1875l-2.109375 0zm5.3945312 -14.75l0 -2.4375l2.109375 0l0 2.4375l-2.109375 0zm0 14.75l0 -12.453125l2.109375 0l0 12.453125l-2.109375 0zm5.3164062 0l0 -12.453125l1.90625 0l0 1.78125q1.375 -2.0625 3.953125 -2.0625q1.125 0 2.0625 0.40625q0.953125 0.40625 1.421875 1.0625q0.46875 0.65625 0.65625 1.5625q0.125 0.578125 0.125 2.046875l0 7.65625l-2.109375 0l0 -7.578125q0 -1.28125 -0.25 -1.921875q-0.25 -0.640625 -0.875 -1.015625q-0.625 -0.390625 -1.46875 -0.390625q-1.34375 0 -2.328125 0.859375q-0.984375 0.859375 -0.984375 3.25l0 6.796875l-2.109375 0zm21.878906 -4.015625l2.171875 0.28125q-0.515625 1.90625 -1.90625 2.96875q-1.390625 1.046875 -3.5625 1.046875q-2.734375 0 -4.34375 -1.671875q-1.59375 -1.6875 -1.59375 -4.734375q0 -3.140625 1.609375 -4.875q1.625 -1.734375 4.203125 -1.734375q2.5 0 4.078125 1.703125q1.59375 1.703125 1.59375 4.78125q0 0.1875 -0.015625 0.5625l-9.28125 0q0.109375 2.046875 1.15625 3.140625q1.046875 1.09375 2.609375 1.09375q1.15625 0 1.96875 -0.609375q0.828125 -0.609375 1.3125 -1.953125zm-6.9375 -3.40625l6.953125 0q-0.140625 -1.5625 -0.796875 -2.359375q-1.0 -1.21875 -2.609375 -1.21875q-1.453125 0 -2.453125 0.984375q-0.984375 0.96875 -1.09375 2.59375z"/><path fill="#000" fill-rule="nonzero" d="m40.38964 318.21848l9.75 -17.1875l2.703125 0l2.828125 17.1875l-2.21875 0l-0.828125 -4.953125l-6.953125 0l-2.75 4.953125l-2.53125 0zm6.265625 -6.71875l5.6875 0l-0.671875 -4.3125q-0.390625 -2.5625 -0.484375 -4.28125q-0.578125 1.484375 -1.703125 3.515625l-2.828125 5.078125zm13.730469 6.71875l-2.03125 -12.453125l2.0625 0l1.0625 6.859375q0.171875 1.125 0.4375 3.671875q0.609375 -1.328125 1.546875 -3.03125l4.171875 -7.5l2.234375 0l-7.125 12.453125l-2.359375 0zm18.0 -4.234375l2.0625 0.21875q-0.4375 1.53125 -2.046875 2.921875q-1.59375 1.375 -3.8125 1.375q-1.375 0 -2.53125 -0.640625q-1.15625 -0.640625 -1.765625 -1.859375q-0.59375 -1.21875 -0.59375 -2.78125q0 -2.03125 0.9375 -3.9375q0.9375 -1.921875 2.4375 -2.859375q1.5 -0.9375 3.25 -0.9375q2.234375 0 3.5625 1.390625q1.328125 1.375 1.328125 3.765625q0 0.921875 -0.171875 1.875l-9.15625 0q-0.046875 0.375 -0.046875 0.65625q0 1.75 0.796875 2.671875q0.8125 0.921875 1.96875 0.921875q1.09375 0 2.140625 -0.71875q1.0625 -0.71875 1.640625 -2.0625zm-6.15625 -3.078125l6.984375 0q0 -0.328125 0 -0.46875q0 -1.59375 -0.796875 -2.4375q-0.796875 -0.859375 -2.046875 -0.859375q-1.359375 0 -2.484375 0.9375q-1.109375 0.9375 -1.65625 2.828125zm10.363281 7.3125l2.609375 -12.453125l1.875 0l-0.53125 2.546875q0.953125 -1.4375 1.875 -2.125q0.921875 -0.703125 1.890625 -0.703125q0.625 0 1.546875 0.46875l-0.859375 1.96875q-0.546875 -0.40625 -1.203125 -0.40625q-1.125 0 -2.296875 1.25q-1.171875 1.234375 -1.828125 4.453125l-1.0625 5.0l-2.015625 0zm16.382812 -1.546875q-1.09375 0.953125 -2.125 1.390625q-1.015625 0.4375 -2.171875 0.4375q-1.71875 0 -2.78125 -1.015625q-1.046875 -1.015625 -1.046875 -2.59375q0 -1.046875 0.46875 -1.84375q0.46875 -0.8125 1.25 -1.296875q0.796875 -0.484375 1.9375 -0.6875q0.703125 -0.140625 2.703125 -0.21875q2.0 -0.09375 2.875 -0.4375q0.234375 -0.859375 0.234375 -1.4375q0 -0.734375 -0.53125 -1.15625q-0.734375 -0.59375 -2.15625 -0.59375q-1.34375 0 -2.1875 0.59375q-0.84375 0.59375 -1.234375 1.6875l-2.140625 -0.1875q0.65625 -1.859375 2.078125 -2.84375q1.421875 -0.984375 3.59375 -0.984375q2.296875 0 3.65625 1.109375q1.03125 0.8125 1.03125 2.125q0 1.0 -0.296875 2.3125l-0.6875 3.09375q-0.328125 1.484375 -0.328125 2.40625q0 0.578125 0.25 1.6875l-2.140625 0q-0.171875 -0.609375 -0.25 -1.546875zm0.78125 -4.765625q-0.4375 0.1875 -0.953125 0.28125q-0.5 0.09375 -1.703125 0.1875q-1.84375 0.171875 -2.609375 0.421875q-0.765625 0.25 -1.15625 0.8125q-0.375 0.546875 -0.375 1.203125q0 0.890625 0.609375 1.46875q0.609375 0.578125 1.75 0.578125q1.0625 0 2.03125 -0.546875q0.96875 -0.5625 1.53125 -1.5625q0.5625 -1.0 0.875 -2.84375zm4.0664062 7.4375l2.140625 0.203125q-0.03125 0.71875 0.171875 1.078125q0.203125 0.375 0.640625 0.578125q0.5625 0.25 1.484375 0.25q1.921875 0 2.765625 -1.0q0.546875 -0.65625 1.015625 -2.90625l0.21875 -1.0q-1.65625 1.671875 -3.515625 1.671875q-1.890625 0 -3.171875 -1.390625q-1.265625 -1.390625 -1.265625 -3.9375q0 -2.09375 1.0 -3.84375q1.0 -1.765625 2.375 -2.65625q1.390625 -0.90625 2.859375 -0.90625q2.453125 0 3.78125 2.328125l0.421875 -2.046875l1.9375 0l-2.5 12.015625q-0.421875 1.984375 -1.09375 3.09375q-0.65625 1.109375 -1.84375 1.71875q-1.1875 0.609375 -2.75 0.609375q-1.5 0 -2.59375 -0.390625q-1.078125 -0.390625 -1.609375 -1.140625q-0.53125 -0.734375 -0.53125 -1.6875q0 -0.296875 0.0625 -0.640625zm2.640625 -6.640625q0 1.28125 0.25 1.921875q0.34375 0.90625 1.0 1.390625q0.65625 0.46875 1.453125 0.46875q1.03125 0 2.0625 -0.734375q1.03125 -0.734375 1.671875 -2.265625q0.640625 -1.53125 0.640625 -2.9375q0 -1.53125 -0.859375 -2.4375q-0.84375 -0.90625 -2.09375 -0.90625q-0.765625 0 -1.5 0.421875q-0.71875 0.40625 -1.359375 1.265625q-0.625 0.84375 -0.953125 2.03125q-0.3125 1.171875 -0.3125 1.78125zm19.957031 1.28125l2.0624924 0.21875q-0.4375 1.53125 -2.0468674 2.921875q-1.59375 1.375 -3.8125 1.375q-1.375 0 -2.53125 -0.640625q-1.15625 -0.640625 -1.765625 -1.859375q-0.59375 -1.21875 -0.59375 -2.78125q0 -2.03125 0.9375 -3.9375q0.9375 -1.921875 2.4375 -2.859375q1.5 -0.9375 3.25 -0.9375q2.234375 0 3.5625 1.390625q1.3281174 1.375 1.3281174 3.765625q0 0.921875 -0.171875 1.875l-9.156242 0q-0.046875 0.375 -0.046875 0.65625q0 1.75 0.796875 2.671875q0.8125 0.921875 1.96875 0.921875q1.09375 0 2.140625 -0.71875q1.0625 -0.71875 1.640625 -2.0625zm-6.15625 -3.078125l6.984375 0q0 -0.328125 0 -0.46875q0 -1.59375 -0.796875 -2.4375q-0.796875 -0.859375 -2.046875 -0.859375q-1.359375 0 -2.484375 0.9375q-1.109375 0.9375 -1.65625 2.828125zm17.906242 2.40625l2.15625 -0.21875q-0.015625 0.453125 -0.015625 0.546875q0 0.78125 0.390625 1.5625q0.390625 0.78125 1.0625 1.203125q0.671875 0.421875 1.421875 0.421875q0.984375 0 2.0 -0.671875q1.03125 -0.6875 1.65625 -1.984375q0.640625 -1.3125 0.640625 -2.59375q0 -1.4375 -0.859375 -2.296875q-0.84375 -0.875 -2.21875 -0.875q-0.9375 0 -1.765625 0.453125q-0.8125 0.4375 -1.53125 1.328125l-1.859375 -0.125l2.59375 -8.796875l8.390625 0l-0.40625 1.953125l-6.53125 0l-1.28125 4.375q0.71875 -0.53125 1.484375 -0.796875q0.765625 -0.265625 1.578125 -0.265625q1.96875 0 3.234375 1.3125q1.265625 1.296875 1.265625 3.546875q0 1.984375 -0.875 3.65625q-0.859375 1.671875 -2.375 2.578125q-1.515625 0.890625 -3.28125 0.890625q-1.46875 0 -2.609375 -0.671875q-1.140625 -0.671875 -1.703125 -1.84375q-0.5625 -1.171875 -0.5625 -2.34375q0 -0.109375 0 -0.34375zm12.785156 -0.25l0.453125 -2.125l6.46875 0l-0.4375 2.125l-6.484375 0zm7.9765625 5.15625l2.265625 -10.8125l-1.90625 0l0.34375 -1.640625l1.890625 0l0.375 -1.765625q0.28125 -1.328125 0.578125 -1.90625q0.296875 -0.59375 0.96875 -0.96875q0.671875 -0.375 1.828125 -0.375q0.8125 0 2.34375 0.328125l-0.375 1.859375q-1.078125 -0.28125 -1.8125 -0.28125q-0.625 0 -0.953125 0.3125q-0.3125 0.3125 -0.546875 1.46875l-0.28125 1.328125l2.375 0l-0.34375 1.640625l-2.375 0l-2.25 10.8125l-2.125 0zm6.7460938 -4.71875q0 -3.65625 2.140625 -6.046875q1.78125 -1.96875 4.640625 -1.96875q2.25 0 3.625 1.40625q1.390625 1.40625 1.390625 3.796875q0 2.15625 -0.875 4.0q-0.859375 1.84375 -2.46875 2.828125q-1.59375 0.984375 -3.359375 0.984375q-1.453125 0 -2.65625 -0.625q-1.1875 -0.625 -1.8125 -1.75q-0.625 -1.140625 -0.625 -2.625zm2.125 -0.21875q0 1.765625 0.84375 2.671875q0.84375 0.90625 2.140625 0.90625q0.6875 0 1.34375 -0.265625q0.671875 -0.28125 1.25 -0.84375q0.578125 -0.5625 0.96875 -1.28125q0.40625 -0.734375 0.65625 -1.5625q0.359375 -1.15625 0.359375 -2.21875q0 -1.6875 -0.84375 -2.625q-0.84375 -0.9375 -2.140625 -0.9375q-1.0 0 -1.828125 0.484375q-0.8125 0.46875 -1.46875 1.390625q-0.65625 0.90625 -0.96875 2.125q-0.3125 1.203125 -0.3125 2.15625zm10.691406 4.9375l3.578125 -17.1875l2.125 0l-3.59375 17.1875l-2.109375 0zm13.878906 -1.8125q-1.8125 2.09375 -3.796875 2.09375q-1.765625 0 -2.953125 -1.296875q-1.171875 -1.3125 -1.171875 -3.796875q0 -2.28125 0.921875 -4.15625q0.9375 -1.890625 2.34375 -2.828125q1.40625 -0.9375 2.8125 -0.9375q2.3125 0 3.5 2.25l1.40625 -6.703125l2.109375 0l-3.59375 17.1875l-1.953125 0l0.375 -1.8125zm-5.8125 -3.40625q0 1.296875 0.25 2.046875q0.265625 0.75 0.890625 1.25q0.625 0.5 1.484375 0.5q1.4375 0 2.609375 -1.5q1.578125 -1.984375 1.578125 -4.921875q0 -1.46875 -0.78125 -2.296875q-0.765625 -0.84375 -1.9375 -0.84375q-0.765625 0 -1.390625 0.34375q-0.625 0.34375 -1.25 1.15625q-0.609375 0.8125 -1.03125 2.0625q-0.421875 1.25 -0.421875 2.203125zm17.671875 5.21875l3.59375 -17.1875l7.171875 0q1.875 0 2.796875 0.4375q0.9375 0.421875 1.546875 1.46875q0.609375 1.03125 0.609375 2.3125q0 1.078125 -0.4375 2.1875q-0.4375 1.09375 -1.09375 1.8125q-0.65625 0.703125 -1.34375 1.078125q-0.671875 0.359375 -1.453125 0.53125q-1.65625 0.390625 -3.34375 0.390625l-4.296875 0l-1.453125 6.96875l-2.296875 0zm4.15625 -8.921875l3.796875 0q2.203125 0 3.234375 -0.46875q1.03125 -0.484375 1.640625 -1.453125q0.625 -0.96875 0.625 -2.0625q0 -0.84375 -0.328125 -1.375q-0.328125 -0.53125 -0.921875 -0.78125q-0.59375 -0.25 -2.296875 -0.25l-4.40625 0l-1.34375 6.390625zm11.6171875 8.921875l2.609375 -12.453125l1.875 0l-0.53125 2.546875q0.953125 -1.4375 1.875 -2.125q0.921875 -0.703125 1.890625 -0.703125q0.625 0 1.546875 0.46875l-0.859375 1.96875q-0.546875 -0.40625 -1.203125 -0.40625q-1.125 0 -2.296875 1.25q-1.171875 1.234375 -1.828125 4.453125l-1.0625 5.0l-2.015625 0zm17.132812 -4.234375l2.0625 0.21875q-0.4375 1.53125 -2.046875 2.921875q-1.59375 1.375 -3.8125 1.375q-1.375 0 -2.53125 -0.640625q-1.15625 -0.640625 -1.765625 -1.859375q-0.59375 -1.21875 -0.59375 -2.78125q0 -2.03125 0.9375 -3.9375q0.9375 -1.921875 2.4375 -2.859375q1.5 -0.9375 3.25 -0.9375q2.234375 0 3.5625 1.390625q1.328125 1.375 1.328125 3.765625q0 0.921875 -0.171875 1.875l-9.15625 0q-0.046875 0.375 -0.046875 0.65625q0 1.75 0.796875 2.671875q0.8125 0.921875 1.96875 0.921875q1.09375 0 2.140625 -0.71875q1.0625 -0.71875 1.640625 -2.0625zm-6.15625 -3.078125l6.984375 0q0 -0.328125 0 -0.46875q0 -1.59375 -0.796875 -2.4375q-0.796875 -0.859375 -2.046875 -0.859375q-1.359375 0 -2.484375 0.9375q-1.109375 0.9375 -1.65625 2.828125zm18.957031 2.78125l2.125 0.21875q-0.796875 2.328125 -2.28125 3.46875q-1.46875 1.125 -3.34375 1.125q-2.015625 0 -3.28125 -1.3125q-1.265625 -1.3125 -1.265625 -3.671875q0 -2.03125 0.8125 -4.0q0.8125 -1.96875 2.3125 -3.0q1.515625 -1.03125 3.4375 -1.03125q2.015625 0 3.1875 1.140625q1.171875 1.125 1.171875 2.984375l-2.09375 0.140625q-0.015625 -1.171875 -0.6875 -1.84375q-0.671875 -0.671875 -1.765625 -0.671875q-1.28125 0 -2.21875 0.8125q-0.9375 0.8125 -1.46875 2.453125q-0.53125 1.640625 -0.53125 3.171875q0 1.59375 0.703125 2.390625q0.703125 0.796875 1.734375 0.796875q1.03125 0 1.96875 -0.78125q0.9375 -0.796875 1.484375 -2.390625zm6.4218903 -10.25l0.5 -2.40625l2.109375 0l-0.5 2.40625l-2.109375 0zm-3.0937653 14.78125l2.59375 -12.453125l2.1250153 0l-2.5937653 12.453125l-2.125 0zm5.6132965 -4.25l2.125 -0.140625q0 0.921875 0.28125 1.5625q0.28125 0.640625 1.03125 1.0625q0.75 0.40625 1.765625 0.40625q1.40625 0 2.109375 -0.5625q0.703125 -0.5625 0.703125 -1.328125q0 -0.546875 -0.421875 -1.046875q-0.4375 -0.484375 -2.125 -1.203125q-1.671875 -0.71875 -2.140625 -1.015625q-0.78125 -0.484375 -1.1875 -1.125q-0.390625 -0.65625 -0.390625 -1.5q0 -1.484375 1.171875 -2.53125q1.171875 -1.0625 3.28125 -1.0625q2.34375 0 3.5625 1.09375q1.21875 1.078125 1.265625 2.84375l-2.0625 0.140625q-0.046875 -1.125 -0.796875 -1.78125q-0.75 -0.65625 -2.125 -0.65625q-1.109375 0 -1.71875 0.515625q-0.609375 0.5 -0.609375 1.078125q0 0.59375 0.53125 1.03125q0.359375 0.3125 1.8125 0.9375q2.4375 1.0625 3.078125 1.671875q1.0 0.96875 1.0 2.359375q0 0.9375 -0.5625 1.828125q-0.5625 0.890625 -1.734375 1.421875q-1.171875 0.53125 -2.75 0.53125q-2.15625 0 -3.671875 -1.0625q-1.5 -1.078125 -1.421875 -3.46875zm14.8125 -10.53125l0.5 -2.40625l2.109375 0l-0.5 2.40625l-2.109375 0zm-3.09375 14.78125l2.59375 -12.453125l2.125 0l-2.59375 12.453125l-2.125 0zm5.7851562 -4.71875q0 -3.65625 2.140625 -6.046875q1.78125 -1.96875 4.640625 -1.96875q2.25 0 3.625 1.40625q1.390625 1.40625 1.390625 3.796875q0 2.15625 -0.875 4.0q-0.859375 1.84375 -2.46875 2.828125q-1.59375 0.984375 -3.359375 0.984375q-1.453125 0 -2.65625 -0.625q-1.1875 -0.625 -1.8125 -1.75q-0.625 -1.140625 -0.625 -2.625zm2.125 -0.21875q0 1.765625 0.84375 2.671875q0.84375 0.90625 2.140625 0.90625q0.6875 0 1.34375 -0.265625q0.671875 -0.28125 1.25 -0.84375q0.578125 -0.5625 0.96875 -1.28125q0.40625 -0.734375 0.65625 -1.5625q0.359375 -1.15625 0.359375 -2.21875q0 -1.6875 -0.84375 -2.625q-0.84375 -0.9375 -2.140625 -0.9375q-1.0 0 -1.828125 0.484375q-0.8125 0.46875 -1.46875 1.390625q-0.65625 0.90625 -0.96875 2.125q-0.3125 1.203125 -0.3125 2.15625zm10.847656 4.9375l2.609375 -12.453125l1.921875 0l-0.46875 2.171875q1.265625 -1.28125 2.34375 -1.859375q1.09375 -0.59375 2.234375 -0.59375q1.515625 0 2.375 0.828125q0.859375 0.8125 0.859375 2.1875q0 0.6875 -0.3125 2.1875l-1.578125 7.53125l-2.125 0l1.65625 -7.890625q0.25 -1.140625 0.25 -1.703125q0 -0.609375 -0.4375 -1.0q-0.421875 -0.390625 -1.234375 -0.390625q-1.625 0 -2.90625 1.171875q-1.265625 1.171875 -1.859375 4.015625l-1.203125 5.796875l-2.125 0zm22.390625 0l-1.3125 -12.453125l2.046875 0l0.5625 5.59375l0.21875 3.140625q0.03125 0.359375 0.078125 1.421875q0.34375 -1.203125 0.59375 -1.828125q0.25 -0.640625 0.78125 -1.828125l2.96875 -6.5l2.3125 0l0.40625 6.234375q0.09375 1.40625 0.109375 3.78125q0.59375 -1.578125 1.921875 -4.359375l2.671875 -5.65625l2.109375 0l-6.078125 12.453125l-2.203125 0l-0.46875 -7.296875q-0.046875 -0.6875 -0.0625 -2.65625q-0.484375 1.25 -1.140625 2.703125l-3.296875 7.25l-2.21875 0zm17.972656 -14.78125l0.5 -2.40625l2.109375 0l-0.5 2.40625l-2.109375 0zm-3.09375 14.78125l2.59375 -12.453125l2.125 0l-2.59375 12.453125l-2.125 0zm10.363281 -1.71875l-0.34375 1.734375q-0.765625 0.203125 -1.484375 0.203125q-1.265625 0 -2.015625 -0.625q-0.5625 -0.46875 -0.5625 -1.28125q0 -0.40625 0.3125 -1.890625l1.515625 -7.234375l-1.6875 0l0.34375 -1.640625l1.671875 0l0.65625 -3.046875l2.421875 -1.46875l-0.953125 4.515625l2.09375 0l-0.359375 1.640625l-2.078125 0l-1.4375 6.890625q-0.265625 1.3125 -0.265625 1.5625q0 0.375 0.21875 0.578125q0.21875 0.203125 0.703125 0.203125q0.703125 0 1.25 -0.140625zm1.7148438 1.71875l3.59375 -17.1875l2.109375 0l-1.359375 6.609375q1.171875 -1.15625 2.1875 -1.65625q1.03125 -0.5 2.109375 -0.5q1.546875 0 2.390625 0.828125q0.859375 0.8125 0.859375 2.140625q0 0.65625 -0.375 2.421875l-1.53125 7.34375l-2.125 0l1.59375 -7.53125q0.328125 -1.640625 0.328125 -2.0625q0 -0.609375 -0.421875 -1.0q-0.421875 -0.390625 -1.21875 -0.390625q-1.140625 0 -2.1875 0.609375q-1.046875 0.59375 -1.640625 1.65625q-0.578125 1.046875 -1.078125 3.375l-1.109375 5.34375l-2.125 0zm20.296875 0l3.59375 -17.1875l12.40625 0l-0.40625 1.96875l-10.109375 0l-1.125 5.34375l9.84375 0l-0.40625 1.953125l-9.84375 0l-1.25 5.96875l10.828125 0l-0.421875 1.953125l-13.109375 0zm14.8984375 0l5.40625 -6.3125l-3.09375 -6.140625l2.34375 0l1.046875 2.21875q0.59375 1.25 1.0625 2.375l3.578125 -4.59375l2.59375 0l-5.234375 6.296875l3.140625 6.15625l-2.34375 0l-1.234375 -2.53125q-0.40625 -0.8125 -0.90625 -2.0l-3.703125 4.53125l-2.65625 0zm11.78125 4.765625l3.609375 -17.21875l1.953125 0l-0.359375 1.734375q1.078125 -1.125 1.9375 -1.5625q0.875 -0.453125 1.828125 -0.453125q1.78125 0 2.953125 1.296875q1.171875 1.296875 1.171875 3.71875q0 1.9375 -0.640625 3.546875q-0.640625 1.59375 -1.578125 2.5625q-0.9375 0.96875 -1.90625 1.4375q-0.953125 0.453125 -1.96875 0.453125q-2.234375 0 -3.46875 -2.28125l-1.40625 6.765625l-2.125 0zm4.203125 -9.859375q0 1.40625 0.203125 1.9375q0.28125 0.765625 0.953125 1.234375q0.671875 0.46875 1.546875 0.46875q1.828125 0 2.953125 -2.046875q1.125 -2.0625 1.125 -4.21875q0 -1.578125 -0.765625 -2.4375q-0.75 -0.859375 -1.875 -0.859375q-0.796875 0 -1.5 0.4375q-0.6875 0.421875 -1.28125 1.265625q-0.59375 0.84375 -0.984375 2.078125q-0.375 1.234375 -0.375 2.140625zm19.332031 0.859375l2.0625 0.21875q-0.4375 1.53125 -2.046875 2.921875q-1.59375 1.375 -3.8125 1.375q-1.375 0 -2.53125 -0.640625q-1.15625 -0.640625 -1.765625 -1.859375q-0.59375 -1.21875 -0.59375 -2.78125q0 -2.03125 0.9375 -3.9375q0.9375 -1.921875 2.4375 -2.859375q1.5 -0.9375 3.25 -0.9375q2.234375 0 3.5625 1.390625q1.328125 1.375 1.328125 3.765625q0 0.921875 -0.171875 1.875l-9.15625 0q-0.046875 0.375 -0.046875 0.65625q0 1.75 0.796875 2.671875q0.8125 0.921875 1.96875 0.921875q1.09375 0 2.140625 -0.71875q1.0625 -0.71875 1.640625 -2.0625zm-6.15625 -3.078125l6.984375 0q0 -0.328125 0 -0.46875q0 -1.59375 -0.796875 -2.4375q-0.796875 -0.859375 -2.046875 -0.859375q-1.359375 0 -2.484375 0.9375q-1.109375 0.9375 -1.65625 2.828125zm10.363281 7.3125l2.609375 -12.453125l1.875 0l-0.53125 2.546875q0.953125 -1.4375 1.875 -2.125q0.921875 -0.703125 1.890625 -0.703125q0.625 0 1.546875 0.46875l-0.859375 1.96875q-0.546875 -0.40625 -1.203125 -0.40625q-1.125 0 -2.296875 1.25q-1.171875 1.234375 -1.828125 4.453125l-1.0625 5.0l-2.015625 0zm12.9453125 -1.71875l-0.34375 1.734375q-0.765625 0.203125 -1.484375 0.203125q-1.265625 0 -2.015625 -0.625q-0.5625 -0.46875 -0.5625 -1.28125q0 -0.40625 0.3125 -1.890625l1.515625 -7.234375l-1.6875 0l0.34375 -1.640625l1.671875 0l0.65625 -3.046875l2.421875 -1.46875l-0.953125 4.515625l2.09375 0l-0.359375 1.640625l-2.078125 0l-1.4375 6.890625q-0.265625 1.3125 -0.265625 1.5625q0 0.375 0.21875 0.578125q0.21875 0.203125 0.703125 0.203125q0.703125 0 1.25 -0.140625z"/><path fill="#000" fill-rule="nonzero" d="m429.45996 308.1716l0 -2.40625l2.40625 0l0 2.40625l-2.40625 0zm0 10.046875l0 -2.40625l2.40625 0l0 2.40625l-2.40625 0z"/><path fill="#000" fill-rule="nonzero" d="m41.874016 338.54974q0 -3.046875 0.625 -4.90625q0.625 -1.859375 1.859375 -2.859375q1.234375 -1.015625 3.109375 -1.015625q1.390625 0 2.421875 0.5625q1.046875 0.546875 1.71875 1.59375q0.6875 1.046875 1.078125 2.5625q0.390625 1.5 0.390625 4.0625q0 3.015625 -0.625 4.875q-0.625 1.859375 -1.859375 2.875q-1.234375 1.015625 -3.125 1.015625q-2.484375 0 -3.890625 -1.78125q-1.703125 -2.15625 -1.703125 -6.984375zm2.171875 0q0 4.21875 0.984375 5.625q0.984375 1.40625 2.4375 1.40625q1.453125 0 2.4375 -1.40625q1.0 -1.40625 1.0 -5.625q0 -4.25 -1.0 -5.640625q-0.984375 -1.390625 -2.453125 -1.390625q-1.453125 0 -2.328125 1.21875q-1.078125 1.578125 -1.078125 5.8125zm12.363281 8.46875l0 -2.40625l2.390625 0l0 2.40625l-2.390625 0zm5.7929688 -3.96875l2.03125 -0.1875q0.25 1.421875 0.96875 2.078125q0.734375 0.640625 1.875 0.640625q0.96875 0 1.703125 -0.4375q0.734375 -0.453125 1.203125 -1.203125q0.46875 -0.75 0.78125 -2.015625q0.328125 -1.265625 0.328125 -2.578125q0 -0.140625 -0.015625 -0.421875q-0.640625 1.015625 -1.734375 1.640625q-1.09375 0.625 -2.375 0.625q-2.125 0 -3.609375 -1.546875q-1.46875 -1.546875 -1.46875 -4.078125q0 -2.609375 1.53125 -4.203125q1.546875 -1.59375 3.875 -1.59375q1.671875 0 3.0625 0.90625q1.390625 0.890625 2.109375 2.5625q0.71875 1.671875 0.71875 4.84375q0 3.28125 -0.71875 5.234375q-0.71875 1.953125 -2.125 2.984375q-1.40625 1.015625 -3.3125 1.015625q-2.015625 0 -3.296875 -1.125q-1.265625 -1.125 -1.53125 -3.140625zm8.640625 -7.59375q0 -1.8125 -0.96875 -2.875q-0.96875 -1.0625 -2.328125 -1.0625q-1.40625 0 -2.453125 1.15625q-1.03125 1.140625 -1.03125 2.96875q0 1.640625 0.984375 2.671875q0.984375 1.015625 2.4375 1.015625q1.46875 0 2.40625 -1.015625q0.953125 -1.03125 0.953125 -2.859375zm15.472656 9.53125l0 2.03125l-11.34375 0q-0.03125 -0.765625 0.234375 -1.46875q0.4375 -1.15625 1.390625 -2.28125q0.953125 -1.125 2.765625 -2.609375q2.796875 -2.296875 3.78125 -3.625q0.984375 -1.34375 0.984375 -2.546875q0 -1.25 -0.90625 -2.109375q-0.890625 -0.859375 -2.328125 -0.859375q-1.515625 0 -2.4375 0.921875q-0.90625 0.90625 -0.921875 2.515625l-2.171875 -0.21875q0.21875 -2.421875 1.671875 -3.6875q1.453125 -1.28125 3.90625 -1.28125q2.46875 0 3.90625 1.375q1.453125 1.359375 1.453125 3.390625q0 1.03125 -0.421875 2.03125q-0.421875 1.0 -1.40625 2.109375q-0.96875 1.09375 -3.25 3.015625q-1.890625 1.59375 -2.4375 2.15625q-0.53125 0.5625 -0.890625 1.140625l8.421875 0zm2.2851562 -2.5l2.109375 -0.28125q0.359375 1.78125 1.234375 2.578125q0.875 0.796875 2.125 0.796875q1.484375 0 2.5 -1.03125q1.03125 -1.03125 1.03125 -2.5625q0 -1.453125 -0.953125 -2.390625q-0.9375 -0.953125 -2.40625 -0.953125q-0.59375 0 -1.484375 0.234375l0.234375 -1.84375q0.203125 0.015625 0.34375 0.015625q1.34375 0 2.421875 -0.703125q1.078125 -0.703125 1.078125 -2.15625q0 -1.171875 -0.796875 -1.921875q-0.78125 -0.765625 -2.015625 -0.765625q-1.234375 0 -2.0625 0.78125q-0.8125 0.765625 -1.046875 2.3125l-2.109375 -0.375q0.390625 -2.125 1.75 -3.28125q1.375 -1.171875 3.421875 -1.171875q1.40625 0 2.578125 0.609375q1.1875 0.59375 1.8125 1.640625q0.640625 1.046875 0.640625 2.21875q0 1.109375 -0.609375 2.03125q-0.59375 0.90625 -1.765625 1.4375q1.53125 0.359375 2.375 1.46875q0.84375 1.109375 0.84375 2.765625q0 2.25 -1.640625 3.828125q-1.640625 1.5625 -4.15625 1.5625q-2.265625 0 -3.765625 -1.34375q-1.484375 -1.359375 -1.6875 -3.5z"/><path fill="#000" fill-rule="nonzero" d="m488.51562 318.21848l9.75 -17.1875l2.703125 0l2.828125 17.1875l-2.21875 0l-0.828125 -4.953125l-6.953125 0l-2.75 4.953125l-2.53125 0zm6.265625 -6.71875l5.6875 0l-0.671875 -4.3125q-0.390625 -2.5625 -0.484375 -4.28125q-0.578125 1.484375 -1.703125 3.515625l-2.828125 5.078125zm13.730469 6.71875l-2.03125 -12.453125l2.0625 0l1.0625 6.859375q0.171875 1.125 0.4375 3.671875q0.609375 -1.328125 1.546875 -3.03125l4.171875 -7.5l2.234375 0l-7.125 12.453125l-2.359375 0zm18.0 -4.234375l2.0625 0.21875q-0.4375 1.53125 -2.046875 2.921875q-1.59375 1.375 -3.8125 1.375q-1.375 0 -2.53125 -0.640625q-1.15625 -0.640625 -1.765625 -1.859375q-0.59375 -1.21875 -0.59375 -2.78125q0 -2.03125 0.9375 -3.9375q0.9375 -1.921875 2.4375 -2.859375q1.5 -0.9375 3.25 -0.9375q2.234375 0 3.5625 1.390625q1.328125 1.375 1.328125 3.765625q0 0.921875 -0.171875 1.875l-9.15625 0q-0.046875 0.375 -0.046875 0.65625q0 1.75 0.796875 2.671875q0.8125 0.921875 1.96875 0.921875q1.09375 0 2.140625 -0.71875q1.0625 -0.71875 1.640625 -2.0625zm-6.15625 -3.078125l6.984375 0q0 -0.328125 0 -0.46875q0 -1.59375 -0.796875 -2.4375q-0.796875 -0.859375 -2.046875 -0.859375q-1.359375 0 -2.484375 0.9375q-1.109375 0.9375 -1.65625 2.828125zm10.363281 7.3125l2.609375 -12.453125l1.875 0l-0.53125 2.546875q0.953125 -1.4375 1.875 -2.125q0.921875 -0.703125 1.890625 -0.703125q0.625 0 1.546875 0.46875l-0.859375 1.96875q-0.546875 -0.40625 -1.203125 -0.40625q-1.125 0 -2.296875 1.25q-1.171875 1.234375 -1.828125 4.453125l-1.0625 5.0l-2.015625 0zm16.382812 -1.546875q-1.09375 0.953125 -2.125 1.390625q-1.015625 0.4375 -2.171875 0.4375q-1.71875 0 -2.78125 -1.015625q-1.046875 -1.015625 -1.046875 -2.59375q0 -1.046875 0.46875 -1.84375q0.46875 -0.8125 1.25 -1.296875q0.796875 -0.484375 1.9375 -0.6875q0.703125 -0.140625 2.703125 -0.21875q2.0 -0.09375 2.875 -0.4375q0.234375 -0.859375 0.234375 -1.4375q0 -0.734375 -0.53125 -1.15625q-0.734375 -0.59375 -2.15625 -0.59375q-1.34375 0 -2.1875 0.59375q-0.84375 0.59375 -1.234375 1.6875l-2.140625 -0.1875q0.65625 -1.859375 2.078125 -2.84375q1.421875 -0.984375 3.59375 -0.984375q2.296875 0 3.65625 1.109375q1.03125 0.8125 1.03125 2.125q0 1.0 -0.296875 2.3125l-0.6875 3.09375q-0.328125 1.484375 -0.328125 2.40625q0 0.578125 0.25 1.6875l-2.140625 0q-0.171875 -0.609375 -0.25 -1.546875zm0.78125 -4.765625q-0.4375 0.1875 -0.953125 0.28125q-0.5 0.09375 -1.703125 0.1875q-1.84375 0.171875 -2.609375 0.421875q-0.765625 0.25 -1.15625 0.8125q-0.375 0.546875 -0.375 1.203125q0 0.890625 0.609375 1.46875q0.609375 0.578125 1.75 0.578125q1.0625 0 2.03125 -0.546875q0.96875 -0.5625 1.53125 -1.5625q0.5625 -1.0 0.875 -2.84375zm4.0664062 7.4375l2.140625 0.203125q-0.03125 0.71875 0.171875 1.078125q0.203125 0.375 0.640625 0.578125q0.5625 0.25 1.484375 0.25q1.921875 0 2.765625 -1.0q0.546875 -0.65625 1.015625 -2.90625l0.21875 -1.0q-1.65625 1.671875 -3.515625 1.671875q-1.890625 0 -3.171875 -1.390625q-1.265625 -1.390625 -1.265625 -3.9375q0 -2.09375 1.0 -3.84375q1.0 -1.765625 2.375 -2.65625q1.390625 -0.90625 2.859375 -0.90625q2.453125 0 3.78125 2.328125l0.421875 -2.046875l1.9375 0l-2.5 12.015625q-0.421875 1.984375 -1.09375 3.09375q-0.65625 1.109375 -1.84375 1.71875q-1.1875 0.609375 -2.75 0.609375q-1.5 0 -2.59375 -0.390625q-1.078125 -0.390625 -1.609375 -1.140625q-0.53125 -0.734375 -0.53125 -1.6875q0 -0.296875 0.0625 -0.640625zm2.640625 -6.640625q0 1.28125 0.25 1.921875q0.34375 0.90625 1.0 1.390625q0.65625 0.46875 1.453125 0.46875q1.03125 0 2.0625 -0.734375q1.03125 -0.734375 1.671875 -2.265625q0.640625 -1.53125 0.640625 -2.9375q0 -1.53125 -0.859375 -2.4375q-0.84375 -0.90625 -2.09375 -0.90625q-0.765625 0 -1.5 0.421875q-0.71875 0.40625 -1.359375 1.265625q-0.625 0.84375 -0.953125 2.03125q-0.3125 1.171875 -0.3125 1.78125zm19.957031 1.28125l2.0625 0.21875q-0.4375 1.53125 -2.046875 2.921875q-1.59375 1.375 -3.8125 1.375q-1.375 0 -2.53125 -0.640625q-1.15625 -0.640625 -1.765625 -1.859375q-0.59375 -1.21875 -0.59375 -2.78125q0 -2.03125 0.9375 -3.9375q0.9375 -1.921875 2.4375 -2.859375q1.5 -0.9375 3.25 -0.9375q2.234375 0 3.5625 1.390625q1.328125 1.375 1.328125 3.765625q0 0.921875 -0.171875 1.875l-9.15625 0q-0.046875 0.375 -0.046875 0.65625q0 1.75 0.796875 2.671875q0.8125 0.921875 1.96875 0.921875q1.09375 0 2.140625 -0.71875q1.0625 -0.71875 1.640625 -2.0625zm-6.15625 -3.078125l6.984375 0q0 -0.328125 0 -0.46875q0 -1.59375 -0.796875 -2.4375q-0.796875 -0.859375 -2.046875 -0.859375q-1.359375 0 -2.484375 0.9375q-1.109375 0.9375 -1.65625 2.828125zm17.90625 2.40625l2.15625 -0.21875q-0.015625 0.453125 -0.015625 0.546875q0 0.78125 0.390625 1.5625q0.390625 0.78125 1.0625 1.203125q0.671875 0.421875 1.421875 0.421875q0.984375 0 2.0 -0.671875q1.03125 -0.6875 1.65625 -1.984375q0.640625 -1.3125 0.640625 -2.59375q0 -1.4375 -0.859375 -2.296875q-0.84375 -0.875 -2.21875 -0.875q-0.9375 0 -1.765625 0.453125q-0.8125 0.4375 -1.53125 1.328125l-1.859375 -0.125l2.59375 -8.796875l8.390625 0l-0.40625 1.953125l-6.53125 0l-1.28125 4.375q0.71875 -0.53125 1.484375 -0.796875q0.765625 -0.265625 1.578125 -0.265625q1.96875 0 3.234375 1.3125q1.265625 1.296875 1.265625 3.546875q0 1.984375 -0.875 3.65625q-0.859375 1.671875 -2.375 2.578125q-1.515625 0.890625 -3.28125 0.890625q-1.46875 0 -2.609375 -0.671875q-1.140625 -0.671875 -1.703125 -1.84375q-0.5625 -1.171875 -0.5625 -2.34375q0 -0.109375 0 -0.34375zm12.785156 -0.25l0.453125 -2.125l6.46875 0l-0.4375 2.125l-6.484375 0zm7.9765625 5.15625l2.265625 -10.8125l-1.90625 0l0.34375 -1.640625l1.890625 0l0.375 -1.765625q0.28125 -1.328125 0.578125 -1.90625q0.296875 -0.59375 0.96875 -0.96875q0.671875 -0.375 1.828125 -0.375q0.8125 0 2.34375 0.328125l-0.375 1.859375q-1.078125 -0.28125 -1.8125 -0.28125q-0.625 0 -0.953125 0.3125q-0.3125 0.3125 -0.546875 1.46875l-0.28125 1.328125l2.375 0l-0.34375 1.640625l-2.375 0l-2.25 10.8125l-2.125 0zm6.7460938 -4.71875q0 -3.65625 2.140625 -6.046875q1.78125 -1.96875 4.640625 -1.96875q2.25 0 3.625 1.40625q1.390625 1.40625 1.390625 3.796875q0 2.15625 -0.875 4.0q-0.859375 1.84375 -2.46875 2.828125q-1.59375 0.984375 -3.359375 0.984375q-1.453125 0 -2.65625 -0.625q-1.1875 -0.625 -1.8125 -1.75q-0.625 -1.140625 -0.625 -2.625zm2.125 -0.21875q0 1.765625 0.84375 2.671875q0.84375 0.90625 2.140625 0.90625q0.6875 0 1.34375 -0.265625q0.671875 -0.28125 1.25 -0.84375q0.578125 -0.5625 0.96875 -1.28125q0.40625 -0.734375 0.65625 -1.5625q0.359375 -1.15625 0.359375 -2.21875q0 -1.6875 -0.84375 -2.625q-0.84375 -0.9375 -2.140625 -0.9375q-1.0 0 -1.828125 0.484375q-0.8125 0.46875 -1.46875 1.390625q-0.65625 0.90625 -0.96875 2.125q-0.3125 1.203125 -0.3125 2.15625zm10.691406 4.9375l3.578125 -17.1875l2.125 0l-3.59375 17.1875l-2.109375 0zm13.878906 -1.8125q-1.8125 2.09375 -3.796875 2.09375q-1.765625 0 -2.953125 -1.296875q-1.171875 -1.3125 -1.171875 -3.796875q0 -2.28125 0.921875 -4.15625q0.9375 -1.890625 2.34375 -2.828125q1.40625 -0.9375 2.8125 -0.9375q2.3125 0 3.5 2.25l1.40625 -6.703125l2.109375 0l-3.59375 17.1875l-1.953125 0l0.375 -1.8125zm-5.8125 -3.40625q0 1.296875 0.25 2.046875q0.265625 0.75 0.890625 1.25q0.625 0.5 1.484375 0.5q1.4375 0 2.609375 -1.5q1.578125 -1.984375 1.578125 -4.921875q0 -1.46875 -0.78125 -2.296875q-0.765625 -0.84375 -1.9375 -0.84375q-0.765625 0 -1.390625 0.34375q-0.625 0.34375 -1.25 1.15625q-0.609375 0.8125 -1.03125 2.0625q-0.421875 1.25 -0.421875 2.203125zm17.671875 5.21875l3.59375 -17.1875l7.171875 0q1.875 0 2.796875 0.4375q0.9375 0.421875 1.546875 1.46875q0.609375 1.03125 0.609375 2.3125q0 1.078125 -0.4375 2.1875q-0.4375 1.09375 -1.09375 1.8125q-0.65625 0.703125 -1.34375 1.078125q-0.671875 0.359375 -1.453125 0.53125q-1.65625 0.390625 -3.34375 0.390625l-4.296875 0l-1.453125 6.96875l-2.296875 0zm4.15625 -8.921875l3.796875 0q2.203125 0 3.234375 -0.46875q1.03125 -0.484375 1.640625 -1.453125q0.625 -0.96875 0.625 -2.0625q0 -0.84375 -0.328125 -1.375q-0.328125 -0.53125 -0.921875 -0.78125q-0.59375 -0.25 -2.296875 -0.25l-4.40625 0l-1.34375 6.390625zm11.6171875 8.921875l2.609375 -12.453125l1.875 0l-0.53125 2.546875q0.953125 -1.4375 1.875 -2.125q0.921875 -0.703125 1.890625 -0.703125q0.625 0 1.546875 0.46875l-0.859375 1.96875q-0.546875 -0.40625 -1.203125 -0.40625q-1.125 0 -2.296875 1.25q-1.171875 1.234375 -1.828125 4.453125l-1.0625 5.0l-2.015625 0zm17.132812 -4.234375l2.0625 0.21875q-0.4375 1.53125 -2.046875 2.921875q-1.59375 1.375 -3.8125 1.375q-1.375 0 -2.53125 -0.640625q-1.15625 -0.640625 -1.765625 -1.859375q-0.59375 -1.21875 -0.59375 -2.78125q0 -2.03125 0.9375 -3.9375q0.9375 -1.921875 2.4375 -2.859375q1.5 -0.9375 3.25 -0.9375q2.234375 0 3.5625 1.390625q1.328125 1.375 1.328125 3.765625q0 0.921875 -0.171875 1.875l-9.15625 0q-0.046875 0.375 -0.046875 0.65625q0 1.75 0.796875 2.671875q0.8125 0.921875 1.96875 0.921875q1.09375 0 2.140625 -0.71875q1.0625 -0.71875 1.640625 -2.0625zm-6.15625 -3.078125l6.984375 0q0 -0.328125 0 -0.46875q0 -1.59375 -0.796875 -2.4375q-0.796875 -0.859375 -2.046875 -0.859375q-1.359375 0 -2.484375 0.9375q-1.109375 0.9375 -1.65625 2.828125zm18.957031 2.78125l2.125 0.21875q-0.796875 2.328125 -2.28125 3.46875q-1.46875 1.125 -3.34375 1.125q-2.015625 0 -3.28125 -1.3125q-1.265625 -1.3125 -1.265625 -3.671875q0 -2.03125 0.8125 -4.0q0.8125 -1.96875 2.3125 -3.0q1.515625 -1.03125 3.4375 -1.03125q2.015625 0 3.1875 1.140625q1.171875 1.125 1.171875 2.984375l-2.09375 0.140625q-0.015625 -1.171875 -0.6875 -1.84375q-0.671875 -0.671875 -1.765625 -0.671875q-1.28125 0 -2.21875 0.8125q-0.9375 0.8125 -1.46875 2.453125q-0.53125 1.640625 -0.53125 3.171875q0 1.59375 0.703125 2.390625q0.703125 0.796875 1.734375 0.796875q1.03125 0 1.96875 -0.78125q0.9375 -0.796875 1.484375 -2.390625zm6.421875 -10.25l0.5 -2.40625l2.109375 0l-0.5 2.40625l-2.109375 0zm-3.09375 14.78125l2.59375 -12.453125l2.125 0l-2.59375 12.453125l-2.125 0zm5.6132812 -4.25l2.125 -0.140625q0 0.921875 0.28125 1.5625q0.28125 0.640625 1.03125 1.0625q0.75 0.40625 1.765625 0.40625q1.40625 0 2.109375 -0.5625q0.703125 -0.5625 0.703125 -1.328125q0 -0.546875 -0.421875 -1.046875q-0.4375 -0.484375 -2.125 -1.203125q-1.671875 -0.71875 -2.140625 -1.015625q-0.78125 -0.484375 -1.1875 -1.125q-0.390625 -0.65625 -0.390625 -1.5q0 -1.484375 1.171875 -2.53125q1.171875 -1.0625 3.28125 -1.0625q2.34375 0 3.5625 1.09375q1.21875 1.078125 1.265625 2.84375l-2.0625 0.140625q-0.046875 -1.125 -0.796875 -1.78125q-0.75 -0.65625 -2.125 -0.65625q-1.109375 0 -1.71875 0.515625q-0.609375 0.5 -0.609375 1.078125q0 0.59375 0.53125 1.03125q0.359375 0.3125 1.8125 0.9375q2.4375 1.0625 3.078125 1.671875q1.0 0.96875 1.0 2.359375q0 0.9375 -0.5625 1.828125q-0.5625 0.890625 -1.734375 1.421875q-1.171875 0.53125 -2.75 0.53125q-2.15625 0 -3.671875 -1.0625q-1.5 -1.078125 -1.421875 -3.46875zm14.8125 -10.53125l0.5 -2.40625l2.109375 0l-0.5 2.40625l-2.109375 0zm-3.09375 14.78125l2.59375 -12.453125l2.125 0l-2.59375 12.453125l-2.125 0zm5.7851562 -4.71875q0 -3.65625 2.140625 -6.046875q1.78125 -1.96875 4.640625 -1.96875q2.25 0 3.625 1.40625q1.390625 1.40625 1.390625 3.796875q0 2.15625 -0.875 4.0q-0.859375 1.84375 -2.46875 2.828125q-1.59375 0.984375 -3.359375 0.984375q-1.453125 0 -2.65625 -0.625q-1.1875 -0.625 -1.8125 -1.75q-0.625 -1.140625 -0.625 -2.625zm2.125 -0.21875q0 1.765625 0.84375 2.671875q0.84375 0.90625 2.140625 0.90625q0.6875 0 1.34375 -0.265625q0.671875 -0.28125 1.25 -0.84375q0.578125 -0.5625 0.96875 -1.28125q0.40625 -0.734375 0.65625 -1.5625q0.359375 -1.15625 0.359375 -2.21875q0 -1.6875 -0.84375 -2.625q-0.84375 -0.9375 -2.140625 -0.9375q-1.0 0 -1.828125 0.484375q-0.8125 0.46875 -1.46875 1.390625q-0.65625 0.90625 -0.96875 2.125q-0.3125 1.203125 -0.3125 2.15625zm10.847656 4.9375l2.609375 -12.453125l1.921875 0l-0.46875 2.171875q1.265625 -1.28125 2.34375 -1.859375q1.09375 -0.59375 2.234375 -0.59375q1.515625 0 2.375 0.828125q0.859375 0.8125 0.859375 2.1875q0 0.6875 -0.3125 2.1875l-1.578125 7.53125l-2.125 0l1.65625 -7.890625q0.25 -1.140625 0.25 -1.703125q0 -0.609375 -0.4375 -1.0q-0.421875 -0.390625 -1.234375 -0.390625q-1.625 0 -2.90625 1.171875q-1.265625 1.171875 -1.859375 4.015625l-1.203125 5.796875l-2.125 0zm22.390625 0l-1.3125 -12.453125l2.046875 0l0.5625 5.59375l0.21875 3.140625q0.03125 0.359375 0.078125 1.421875q0.34375 -1.203125 0.59375 -1.828125q0.25 -0.640625 0.78125 -1.828125l2.96875 -6.5l2.3125 0l0.40625 6.234375q0.09375 1.40625 0.109375 3.78125q0.59375 -1.578125 1.921875 -4.359375l2.671875 -5.65625l2.109375 0l-6.078125 12.453125l-2.203125 0l-0.46875 -7.296875q-0.046875 -0.6875 -0.0625 -2.65625q-0.484375 1.25 -1.140625 2.703125l-3.296875 7.25l-2.21875 0zm17.972656 -14.78125l0.5 -2.40625l2.109375 0l-0.5 2.40625l-2.109375 0zm-3.09375 14.78125l2.59375 -12.453125l2.125 0l-2.59375 12.453125l-2.125 0zm10.363281 -1.71875l-0.34375 1.734375q-0.765625 0.203125 -1.484375 0.203125q-1.265625 0 -2.015625 -0.625q-0.5625 -0.46875 -0.5625 -1.28125q0 -0.40625 0.3125 -1.890625l1.515625 -7.234375l-1.6875 0l0.34375 -1.640625l1.671875 0l0.65625 -3.046875l2.421875 -1.46875l-0.953125 4.515625l2.09375 0l-0.359375 1.640625l-2.078125 0l-1.4375 6.890625q-0.265625 1.3125 -0.265625 1.5625q0 0.375 0.21875 0.578125q0.21875 0.203125 0.703125 0.203125q0.703125 0 1.25 -0.140625zm1.7148438 1.71875l3.59375 -17.1875l2.109375 0l-1.359375 6.609375q1.171875 -1.15625 2.1875 -1.65625q1.03125 -0.5 2.109375 -0.5q1.546875 0 2.390625 0.828125q0.859375 0.8125 0.859375 2.140625q0 0.65625 -0.375 2.421875l-1.53125 7.34375l-2.125 0l1.59375 -7.53125q0.328125 -1.640625 0.328125 -2.0625q0 -0.609375 -0.421875 -1.0q-0.421875 -0.390625 -1.21875 -0.390625q-1.140625 0 -2.1875 0.609375q-1.046875 0.59375 -1.640625 1.65625q-0.578125 1.046875 -1.078125 3.375l-1.109375 5.34375l-2.125 0zm20.296875 0l3.59375 -17.1875l12.40625 0l-0.40625 1.96875l-10.109375 0l-1.125 5.34375l9.84375 0l-0.40625 1.953125l-9.84375 0l-1.25 5.96875l10.828125 0l-0.421875 1.953125l-13.109375 0zm14.8984375 0l5.40625 -6.3125l-3.09375 -6.140625l2.34375 0l1.046875 2.21875q0.59375 1.25 1.0625 2.375l3.578125 -4.59375l2.59375 0l-5.234375 6.296875l3.140625 6.15625l-2.34375 0l-1.234375 -2.53125q-0.40625 -0.8125 -0.90625 -2.0l-3.703125 4.53125l-2.65625 0zm11.78125 4.765625l3.609375 -17.21875l1.953125 0l-0.359375 1.734375q1.078125 -1.125 1.9375 -1.5625q0.875 -0.453125 1.828125 -0.453125q1.78125 0 2.953125 1.296875q1.171875 1.296875 1.171875 3.71875q0 1.9375 -0.640625 3.546875q-0.640625 1.59375 -1.578125 2.5625q-0.9375 0.96875 -1.90625 1.4375q-0.953125 0.453125 -1.96875 0.453125q-2.234375 0 -3.46875 -2.28125l-1.40625 6.765625l-2.125 0zm4.203125 -9.859375q0 1.40625 0.203125 1.9375q0.28125 0.765625 0.953125 1.234375q0.671875 0.46875 1.546875 0.46875q1.828125 0 2.953125 -2.046875q1.125 -2.0625 1.125 -4.21875q0 -1.578125 -0.765625 -2.4375q-0.75 -0.859375 -1.875 -0.859375q-0.796875 0 -1.5 0.4375q-0.6875 0.421875 -1.28125 1.265625q-0.59375 0.84375 -0.984375 2.078125q-0.375 1.234375 -0.375 2.140625zm19.332031 0.859375l2.0625 0.21875q-0.4375 1.53125 -2.046875 2.921875q-1.59375 1.375 -3.8125 1.375q-1.375 0 -2.53125 -0.640625q-1.15625 -0.640625 -1.765625 -1.859375q-0.59375 -1.21875 -0.59375 -2.78125q0 -2.03125 0.9375 -3.9375q0.9375 -1.921875 2.4375 -2.859375q1.5 -0.9375 3.25 -0.9375q2.234375 0 3.5625 1.390625q1.328125 1.375 1.328125 3.765625q0 0.921875 -0.171875 1.875l-9.15625 0q-0.046875 0.375 -0.046875 0.65625q0 1.75 0.796875 2.671875q0.8125 0.921875 1.96875 0.921875q1.09375 0 2.140625 -0.71875q1.0625 -0.71875 1.640625 -2.0625zm-6.15625 -3.078125l6.984375 0q0 -0.328125 0 -0.46875q0 -1.59375 -0.796875 -2.4375q-0.796875 -0.859375 -2.046875 -0.859375q-1.359375 0 -2.484375 0.9375q-1.109375 0.9375 -1.65625 2.828125zm10.363281 7.3125l2.609375 -12.453125l1.875 0l-0.53125 2.546875q0.953125 -1.4375 1.875 -2.125q0.921875 -0.703125 1.890625 -0.703125q0.625 0 1.546875 0.46875l-0.859375 1.96875q-0.546875 -0.40625 -1.203125 -0.40625q-1.125 0 -2.296875 1.25q-1.171875 1.234375 -1.828125 4.453125l-1.0625 5.0l-2.015625 0zm12.9453125 -1.71875l-0.34375 1.734375q-0.765625 0.203125 -1.484375 0.203125q-1.265625 0 -2.015625 -0.625q-0.5625 -0.46875 -0.5625 -1.28125q0 -0.40625 0.3125 -1.890625l1.515625 -7.234375l-1.6875 0l0.34375 -1.640625l1.671875 0l0.65625 -3.046875l2.421875 -1.46875l-0.953125 4.515625l2.09375 0l-0.359375 1.640625l-2.078125 0l-1.4375 6.890625q-0.265625 1.3125 -0.265625 1.5625q0 0.375 0.21875 0.578125q0.21875 0.203125 0.703125 0.203125q0.703125 0 1.25 -0.140625z"/><path fill="#000" fill-rule="nonzero" d="m877.58594 308.1716l0 -2.40625l2.40625 0l0 2.40625l-2.40625 0zm0 10.046875l0 -2.40625l2.40625 0l0 2.40625l-2.40625 0z"/><path fill="#000" fill-rule="nonzero" d="m490.0 338.54974q0 -3.046875 0.625 -4.90625q0.625 -1.859375 1.859375 -2.859375q1.234375 -1.015625 3.109375 -1.015625q1.390625 0 2.421875 0.5625q1.046875 0.546875 1.71875 1.59375q0.6875 1.046875 1.078125 2.5625q0.390625 1.5 0.390625 4.0625q0 3.015625 -0.625 4.875q-0.625 1.859375 -1.859375 2.875q-1.234375 1.015625 -3.125 1.015625q-2.484375 0 -3.890625 -1.78125q-1.703125 -2.15625 -1.703125 -6.984375zm2.171875 0q0 4.21875 0.984375 5.625q0.984375 1.40625 2.4375 1.40625q1.453125 0 2.4375 -1.40625q1.0 -1.40625 1.0 -5.625q0 -4.25 -1.0 -5.640625q-0.984375 -1.390625 -2.453125 -1.390625q-1.453125 0 -2.328125 1.21875q-1.078125 1.578125 -1.078125 5.8125zm12.363281 8.46875l0 -2.40625l2.390625 0l0 2.40625l-2.390625 0zm16.417969 -12.96875l-2.09375 0.15625q-0.28125 -1.234375 -0.796875 -1.796875q-0.859375 -0.90625 -2.109375 -0.90625q-1.0 0 -1.765625 0.5625q-1.0 0.71875 -1.578125 2.125q-0.5625 1.390625 -0.59375 3.96875q0.765625 -1.15625 1.859375 -1.71875q1.109375 -0.5625 2.3125 -0.5625q2.109375 0 3.59375 1.546875q1.484375 1.546875 1.484375 4.015625q0 1.609375 -0.703125 3.0q-0.6875 1.390625 -1.90625 2.140625q-1.21875 0.734375 -2.765625 0.734375q-2.640625 0 -4.3125 -1.9375q-1.65625 -1.953125 -1.65625 -6.40625q0 -4.96875 1.84375 -7.234375q1.59375 -1.96875 4.3125 -1.96875q2.03125 0 3.328125 1.140625q1.296875 1.125 1.546875 3.140625zm-8.609375 7.40625q0 1.078125 0.453125 2.078125q0.46875 1.0 1.296875 1.53125q0.84375 0.515625 1.75 0.515625q1.34375 0 2.296875 -1.078125q0.96875 -1.078125 0.96875 -2.9375q0 -1.78125 -0.953125 -2.796875q-0.953125 -1.03125 -2.390625 -1.03125q-1.421875 0 -2.421875 1.03125q-1.0 1.015625 -1.0 2.6875zm11.035156 1.03125l2.109375 -0.28125q0.359375 1.78125 1.234375 2.578125q0.875 0.796875 2.125 0.796875q1.484375 0 2.5 -1.03125q1.03125 -1.03125 1.03125 -2.5625q0 -1.453125 -0.953125 -2.390625q-0.9375 -0.953125 -2.40625 -0.953125q-0.59375 0 -1.484375 0.234375l0.234375 -1.84375q0.203125 0.015625 0.34375 0.015625q1.34375 0 2.421875 -0.703125q1.078125 -0.703125 1.078125 -2.15625q0 -1.171875 -0.796875 -1.921875q-0.78125 -0.765625 -2.015625 -0.765625q-1.234375 0 -2.0625 0.78125q-0.8125 0.765625 -1.046875 2.3125l-2.109375 -0.375q0.390625 -2.125 1.75 -3.28125q1.375 -1.171875 3.421875 -1.171875q1.40625 0 2.578125 0.609375q1.1875 0.59375 1.8125 1.640625q0.640625 1.046875 0.640625 2.21875q0 1.109375 -0.609375 2.03125q-0.59375 0.90625 -1.765625 1.4375q1.53125 0.359375 2.375 1.46875q0.84375 1.109375 0.84375 2.765625q0 2.25 -1.640625 3.828125q-1.640625 1.5625 -4.15625 1.5625q-2.265625 0 -3.765625 -1.34375q-1.484375 -1.359375 -1.6875 -3.5zm24.269531 -8.4375l-2.09375 0.15625q-0.28125 -1.234375 -0.796875 -1.796875q-0.859375 -0.90625 -2.109375 -0.90625q-1.0 0 -1.765625 0.5625q-1.0 0.71875 -1.578125 2.125q-0.5625 1.390625 -0.59375 3.96875q0.765625 -1.15625 1.859375 -1.71875q1.109375 -0.5625 2.3125 -0.5625q2.109375 0 3.59375 1.546875q1.484375 1.546875 1.484375 4.015625q0 1.609375 -0.703125 3.0q-0.6875 1.390625 -1.90625 2.140625q-1.21875 0.734375 -2.765625 0.734375q-2.640625 0 -4.3125 -1.9375q-1.65625 -1.953125 -1.65625 -6.40625q0 -4.96875 1.84375 -7.234375q1.59375 -1.96875 4.3125 -1.96875q2.03125 0 3.328125 1.140625q1.296875 1.125 1.546875 3.140625zm-8.609375 7.40625q0 1.078125 0.453125 2.078125q0.46875 1.0 1.296875 1.53125q0.84375 0.515625 1.75 0.515625q1.34375 0 2.296875 -1.078125q0.96875 -1.078125 0.96875 -2.9375q0 -1.78125 -0.953125 -2.796875q-0.953125 -1.03125 -2.390625 -1.03125q-1.421875 0 -2.421875 1.03125q-1.0 1.015625 -1.0 2.6875z"/><path fill="#000" fill-opacity="0" fill-rule="evenodd" d="m31.874016 50.74803l896.25195 0l0 129.29134l-896.25195 0z"/><path fill="#000" fill-rule="nonzero" d="m44.374016 103.26803l0 -32.453125l11.171875 0q3.78125 0 5.78125 0.46875q2.78125 0.640625 4.75 2.328125q2.578125 2.171875 3.84375 5.546875q1.28125 3.375 1.28125 7.703125q0 3.703125 -0.875 6.5625q-0.859375 2.84375 -2.21875 4.71875q-1.34375 1.875 -2.953125 2.953125q-1.59375 1.0625 -3.859375 1.625q-2.265625 0.546875 -5.21875 0.546875l-11.703125 0zm4.296875 -3.828125l6.921875 0q3.203125 0 5.03125 -0.59375q1.828125 -0.609375 2.921875 -1.6875q1.515625 -1.53125 2.359375 -4.109375q0.859375 -2.578125 0.859375 -6.25q0 -5.09375 -1.671875 -7.828125q-1.671875 -2.734375 -4.0625 -3.65625q-1.71875 -0.671875 -5.546875 -0.671875l-6.8125 0l0 24.796875zm26.437653 -7.921875q0 -6.53125 3.640625 -9.671875q3.03125 -2.609375 7.390625 -2.609375q4.84375 0 7.921875 3.171875q3.078125 3.171875 3.078125 8.78125q0 4.53125 -1.359375 7.140625q-1.359375 2.59375 -3.96875 4.03125q-2.59375 1.4375 -5.671875 1.4375q-4.9375 0 -7.984375 -3.15625q-3.046875 -3.171875 -3.046875 -9.125zm4.09375 0q0 4.515625 1.96875 6.765625q1.984375 2.234375 4.96875 2.234375q2.96875 0 4.9375 -2.25q1.96875 -2.265625 1.96875 -6.890625q0 -4.359375 -1.984375 -6.59375q-1.984375 -2.25 -4.921875 -2.25q-2.984375 0 -4.96875 2.234375q-1.96875 2.234375 -1.96875 6.75zm38.693726 4.1875l4.109375 0.5q-0.96875 3.609375 -3.609375 5.609375q-2.625 1.984375 -6.71875 1.984375q-5.15625 0 -8.1875 -3.171875q-3.015625 -3.1875 -3.015625 -8.90625q0 -5.9375 3.046875 -9.203125q3.0625 -3.28125 7.9375 -3.28125q4.71875 0 7.703125 3.203125q2.984375 3.203125 2.984375 9.03125q0 0.359375 -0.015625 1.0625l-17.53125 0q0.21875 3.875 2.1875 5.9375q1.96875 2.046875 4.90625 2.046875q2.203125 0 3.75 -1.140625q1.546875 -1.15625 2.453125 -3.671875zm-13.078125 -6.453125l13.125 0q-0.265625 -2.953125 -1.5 -4.4375q-1.90625 -2.3125 -4.9375 -2.3125q-2.75 0 -4.625 1.84375q-1.859375 1.828125 -2.0625 4.90625zm20.599976 7.0l3.9374924 -0.625q0.34375 2.375 1.859375 3.640625q1.515625 1.25 4.234375 1.25q2.75 0 4.078125 -1.109375q1.328125 -1.125 1.328125 -2.625q0 -1.34375 -1.1875 -2.125q-0.8125 -0.53125 -4.0625 -1.34375q-4.390625 -1.109375 -6.078125 -1.921875q-1.6874924 -0.8125 -2.5624924 -2.234375q-0.875 -1.421875 -0.875 -3.15625q0 -1.5625 0.71875 -2.90625q0.71875 -1.34375 1.9531174 -2.234375q0.9375 -0.671875 2.53125 -1.140625q1.609375 -0.484375 3.453125 -0.484375q2.765625 0 4.84375 0.796875q2.09375 0.796875 3.09375 2.15625q1.0 1.359375 1.375 3.640625l-3.890625 0.53125q-0.265625 -1.8125 -1.546875 -2.828125q-1.265625 -1.03125 -3.59375 -1.03125q-2.75 0 -3.921875 0.90625q-1.171875 0.90625 -1.171875 2.125q0 0.78125 0.484375 1.40625q0.5 0.640625 1.53125 1.0625q0.59375 0.21875 3.515625 1.015625q4.234375 1.125 5.90625 1.84375q1.671875 0.71875 2.625 2.09375q0.953125 1.375 0.953125 3.40625q0 2.0 -1.171875 3.765625q-1.15625 1.75 -3.359375 2.71875q-2.1875 0.953125 -4.953125 0.953125q-4.578125 0 -6.984375 -1.90625q-2.3906174 -1.90625 -3.0624924 -5.640625zm61.960793 3.546875q2.984375 2.046875 5.5 3.0l-1.25 2.984375q-3.5 -1.25 -6.984375 -3.96875q-3.609375 2.0 -7.96875 2.0q-4.40625 0 -7.984375 -2.125q-3.578125 -2.125 -5.515625 -5.96875q-1.9375 -3.84375 -1.9375 -8.671875q0 -4.8125 1.9375 -8.75q1.953125 -3.9375 5.546875 -5.984375q3.59375 -2.0625 8.046875 -2.0625q4.5 0 8.09375 2.140625q3.609375 2.125 5.5 5.96875q1.90625 3.828125 1.90625 8.65625q0 4.015625 -1.21875 7.21875q-1.21875 3.1875 -3.671875 5.5625zm-9.453125 -5.5q3.71875 1.046875 6.125 3.109375q3.78125 -3.453125 3.78125 -10.390625q0 -3.9375 -1.34375 -6.875q-1.328125 -2.953125 -3.90625 -4.578125q-2.578125 -1.625 -5.796875 -1.625q-4.796875 0 -7.96875 3.296875q-3.15625 3.28125 -3.15625 9.8125q0 6.328125 3.125 9.71875q3.140625 3.375 8.0 3.375q2.3125 0 4.34375 -0.859375q-2.015625 -1.3125 -4.25 -1.859375l1.046875 -3.125zm35.007675 8.96875l0 -3.453125q-2.75 3.984375 -7.453125 3.984375q-2.078125 0 -3.890625 -0.796875q-1.796875 -0.796875 -2.671875 -2.0q-0.875 -1.203125 -1.234375 -2.953125q-0.234375 -1.171875 -0.234375 -3.71875l0 -14.5625l3.984375 0l0 13.03125q0 3.125 0.234375 4.203125q0.375 1.578125 1.59375 2.46875q1.21875 0.890625 3.015625 0.890625q1.78125 0 3.359375 -0.90625q1.578125 -0.921875 2.21875 -2.5q0.65625 -1.59375 0.65625 -4.59375l0 -12.59375l3.984375 0l0 23.5l-3.5625 0zm25.14685 -2.90625q-2.21875 1.890625 -4.265625 2.671875q-2.046875 0.765625 -4.390625 0.765625q-3.875 0 -5.953125 -1.890625q-2.078125 -1.890625 -2.078125 -4.84375q0 -1.71875 0.78125 -3.140625q0.78125 -1.4375 2.046875 -2.296875q1.28125 -0.859375 2.875 -1.3125q1.171875 -0.296875 3.546875 -0.59375q4.828125 -0.578125 7.109375 -1.375q0.015625 -0.8125 0.015625 -1.03125q0 -2.4375 -1.125 -3.4375q-1.53125 -1.34375 -4.546875 -1.34375q-2.796875 0 -4.140625 0.984375q-1.34375 0.984375 -1.984375 3.484375l-3.890625 -0.53125q0.53125 -2.5 1.75 -4.03125q1.21875 -1.546875 3.515625 -2.375q2.296875 -0.828125 5.328125 -0.828125q3.015625 0 4.890625 0.703125q1.890625 0.703125 2.765625 1.78125q0.890625 1.078125 1.25 2.71875q0.1875 1.015625 0.1875 3.671875l0 5.3125q0 5.546875 0.25 7.03125q0.265625 1.46875 1.015625 2.8125l-4.15625 0q-0.625 -1.234375 -0.796875 -2.90625zm-0.328125 -8.890625q-2.171875 0.890625 -6.515625 1.5q-2.453125 0.359375 -3.46875 0.8125q-1.015625 0.4375 -1.578125 1.296875q-0.546875 0.84375 -0.546875 1.875q0 1.59375 1.203125 2.65625q1.203125 1.0625 3.53125 1.0625q2.296875 0 4.09375 -1.0q1.796875 -1.015625 2.640625 -2.765625q0.640625 -1.34375 0.640625 -3.984375l0 -1.453125zm10.521851 11.796875l0 -32.453125l4.296875 0l0 16.09375l16.10939 -16.09375l5.828125 0l-13.609375 13.15625l14.203125 19.296875l-5.65625 0l-11.5625 -16.421875l-5.3125153 5.171875l0 11.25l-4.296875 0zm30.49913 0l0 -32.453125l23.46878 0l0 3.828125l-19.171906 0l0 9.9375l17.953156 0l0 3.8125l-17.953156 0l0 11.046875l19.921906 0l0 3.828125l-24.21878 0zm42.233368 0l0 -32.453125l3.984375 0l0 11.640625q2.796875 -3.21875 7.046875 -3.21875q2.609375 0 4.53125 1.03125q1.921875 1.015625 2.75 2.84375q0.84375 1.8125 0.84375 5.265625l0 14.890625l-3.984375 0l0 -14.890625q0 -3.0 -1.296875 -4.359375q-1.296875 -1.359375 -3.671875 -1.359375q-1.765625 0 -3.328125 0.921875q-1.5625 0.921875 -2.234375 2.5q-0.65625 1.5625 -0.65625 4.328125l0 12.859375l-3.984375 0zm41.3031 -7.5625l4.109375 0.5q-0.96875 3.609375 -3.609375 5.609375q-2.625 1.984375 -6.71875 1.984375q-5.15625 0 -8.1875 -3.171875q-3.015625 -3.1875 -3.015625 -8.90625q0 -5.9375 3.046875 -9.203125q3.0625 -3.28125 7.9375 -3.28125q4.71875 0 7.703125 3.203125q2.984375 3.203125 2.984375 9.03125q0 0.359375 -0.015625 1.0625l-17.53125 0q0.21875 3.875 2.1875 5.9375q1.96875 2.046875 4.90625 2.046875q2.203125 0 3.75 -1.140625q1.546875 -1.15625 2.453125 -3.671875zm-13.078125 -6.453125l13.125 0q-0.265625 -2.953125 -1.5 -4.4375q-1.90625 -2.3125 -4.9375 -2.3125q-2.75 0 -4.625 1.84375q-1.859375 1.828125 -2.0625 4.90625zm22.1156 14.015625l0 -32.453125l3.984375 0l0 32.453125l-3.984375 0zm10.14859 9.015625l0 -32.515625l3.640625 0l0 3.046875q1.28125 -1.796875 2.890625 -2.6875q1.625 -0.890625 3.921875 -0.890625q3.0 0 5.296875 1.546875q2.3125 1.546875 3.484375 4.375q1.171875 2.8125 1.171875 6.1875q0 3.59375 -1.296875 6.484375q-1.28125 2.890625 -3.75 4.4375q-2.46875 1.53125 -5.203125 1.53125q-1.984375 0 -3.578125 -0.84375q-1.578125 -0.84375 -2.59375 -2.125l0 11.453125l-3.984375 0zm3.609375 -20.640625q0 4.546875 1.828125 6.71875q1.84375 2.15625 4.453125 2.15625q2.65625 0 4.546875 -2.234375q1.90625 -2.25 1.90625 -6.96875q0 -4.484375 -1.859375 -6.71875q-1.84375 -2.25 -4.40625 -2.25q-2.546875 0 -4.515625 2.390625q-1.953125 2.375 -1.953125 6.90625zm49.599823 11.625l0 -3.453125q-2.75 3.984375 -7.453125 3.984375q-2.078125 0 -3.890625 -0.796875q-1.796875 -0.796875 -2.671875 -2.0q-0.875 -1.203125 -1.234375 -2.953125q-0.234375 -1.171875 -0.234375 -3.71875l0 -14.5625l3.984375 0l0 13.03125q0 3.125 0.234375 4.203125q0.375 1.578125 1.59375 2.46875q1.21875 0.890625 3.015625 0.890625q1.78125 0 3.359375 -0.90625q1.578125 -0.921875 2.21875 -2.5q0.65625 -1.59375 0.65625 -4.59375l0 -12.59375l3.984375 0l0 23.5l-3.5625 0zm9.803101 0l0 -23.5l3.59375 0l0 3.34375q2.578125 -3.875 7.46875 -3.875q2.125 0 3.90625 0.765625q1.796875 0.75 2.671875 2.0q0.890625 1.234375 1.25 2.9375q0.21875 1.109375 0.21875 3.875l0 14.453125l-3.984375 0l0 -14.296875q0 -2.4375 -0.46875 -3.640625q-0.46875 -1.203125 -1.65625 -1.921875q-1.171875 -0.71875 -2.765625 -0.71875q-2.546875 0 -4.40625 1.609375q-1.84375 1.609375 -1.84375 6.125l0 12.84375l-3.984375 0zm40.5531 -8.609375l3.921875 0.515625q-0.640625 4.046875 -3.296875 6.34375q-2.640625 2.28125 -6.5 2.28125q-4.8125 0 -7.75 -3.15625q-2.9375 -3.15625 -2.9375 -9.03125q0 -3.8125 1.265625 -6.671875q1.265625 -2.859375 3.84375 -4.28125q2.578125 -1.421875 5.609375 -1.421875q3.828125 0 6.265625 1.9375q2.4375 1.9375 3.125 5.5l-3.875 0.59375q-0.5625 -2.375 -1.96875 -3.5625q-1.40625 -1.203125 -3.390625 -1.203125q-3.015625 0 -4.90625 2.171875q-1.875 2.15625 -1.875 6.8125q0 4.75 1.8125 6.890625q1.828125 2.140625 4.75 2.140625q2.34375 0 3.90625 -1.4375q1.578125 -1.4375 2.0 -4.421875zm5.8359375 -3.140625q0 -6.53125 3.640625 -9.671875q3.03125 -2.609375 7.390625 -2.609375q4.84375 0 7.921875 3.171875q3.078125 3.171875 3.078125 8.78125q0 4.53125 -1.359375 7.140625q-1.359375 2.59375 -3.96875 4.03125q-2.59375 1.4375 -5.671875 1.4375q-4.9375 0 -7.984375 -3.15625q-3.046875 -3.171875 -3.046875 -9.125zm4.09375 0q0 4.515625 1.96875 6.765625q1.984375 2.234375 4.96875 2.234375q2.96875 0 4.9375 -2.25q1.96875 -2.265625 1.96875 -6.890625q0 -4.359375 -1.984375 -6.59375q-1.984375 -2.25 -4.921875 -2.25q-2.984375 0 -4.96875 2.234375q-1.96875 2.234375 -1.96875 6.75zm29.131226 11.75l-8.9375 -23.5l4.203125 0l5.046875 14.078125q0.8125 2.265625 1.5 4.734375q0.53125 -1.859375 1.484375 -4.46875l5.21875 -14.34375l4.109375 0l-8.90625 23.5l-3.71875 0zm32.226562 -7.5625l4.109375 0.5q-0.96875 3.609375 -3.609375 5.609375q-2.625 1.984375 -6.71875 1.984375q-5.15625 0 -8.1875 -3.171875q-3.015625 -3.1875 -3.015625 -8.90625q0 -5.9375 3.046875 -9.203125q3.0625 -3.28125 7.9375 -3.28125q4.71875 0 7.703125 3.203125q2.984375 3.203125 2.984375 9.03125q0 0.359375 -0.015625 1.0625l-17.53125 0q0.21875 3.875 2.1875 5.9375q1.96875 2.046875 4.90625 2.046875q2.203125 0 3.75 -1.140625q1.546875 -1.15625 2.453125 -3.671875zm-13.078125 -6.453125l13.125 0q-0.265625 -2.953125 -1.5 -4.4375q-1.90625 -2.3125 -4.9375 -2.3125q-2.75 0 -4.625 1.84375q-1.859375 1.828125 -2.0625 4.90625zm22.14685 14.015625l0 -23.5l3.59375 0l0 3.5625q1.375 -2.5 2.53125 -3.296875q1.15625 -0.796875 2.5625 -0.796875q2.015625 0 4.09375 1.28125l-1.375 3.6875q-1.46875 -0.859375 -2.921875 -0.859375q-1.3125 0 -2.359375 0.796875q-1.03125 0.78125 -1.46875 2.171875q-0.671875 2.125 -0.671875 4.640625l0 12.3125l-3.984375 0zm27.688232 0l0 -23.5l3.59375 0l0 3.5625q1.375 -2.5 2.53125 -3.296875q1.15625 -0.796875 2.5625 -0.796875q2.015625 0 4.09375 1.28125l-1.375 3.6875q-1.46875 -0.859375 -2.921875 -0.859375q-1.3125 0 -2.359375 0.796875q-1.03125 0.78125 -1.46875 2.171875q-0.671875 2.125 -0.671875 4.640625l0 12.3125l-3.984375 0zm30.54773 0l0 -3.453125q-2.75 3.984375 -7.453125 3.984375q-2.078125 0 -3.890625 -0.796875q-1.796875 -0.796875 -2.671875 -2.0q-0.875 -1.203125 -1.234375 -2.953125q-0.234375 -1.171875 -0.234375 -3.71875l0 -14.5625l3.984375 0l0 13.03125q0 3.125 0.234375 4.203125q0.375 1.578125 1.59375 2.46875q1.21875 0.890625 3.015625 0.890625q1.78125 0 3.359375 -0.90625q1.578125 -0.921875 2.21875 -2.5q0.65625 -1.59375 0.65625 -4.59375l0 -12.59375l3.984375 0l0 23.5l-3.5625 0zm9.724976 0l0 -32.453125l3.984375 0l0 32.453125l-3.984375 0zm26.24237 -7.5625l4.109375 0.5q-0.96875 3.609375 -3.609375 5.609375q-2.625 1.984375 -6.71875 1.984375q-5.15625 0 -8.1875 -3.171875q-3.015625 -3.1875 -3.015625 -8.90625q0 -5.9375 3.046875 -9.203125q3.0625 -3.28125 7.9375 -3.28125q4.71875 0 7.703125 3.203125q2.984375 3.203125 2.984375 9.03125q0 0.359375 -0.015625 1.0625l-17.53125 0q0.21875 3.875 2.1875 5.9375q1.96875 2.046875 4.90625 2.046875q2.203125 0 3.75 -1.140625q1.546875 -1.15625 2.453125 -3.671875zm-13.078125 -6.453125l13.125 0q-0.265625 -2.953125 -1.5 -4.4375q-1.90625 -2.3125 -4.9375 -2.3125q-2.75 0 -4.625 1.84375q-1.859375 1.828125 -2.0625 4.90625zm20.599976 7.0l3.9375 -0.625q0.34375 2.375 1.859375 3.640625q1.515625 1.25 4.234375 1.25q2.75 0 4.078125 -1.109375q1.328125 -1.125 1.328125 -2.625q0 -1.34375 -1.1875 -2.125q-0.8125 -0.53125 -4.0625 -1.34375q-4.390625 -1.109375 -6.078125 -1.921875q-1.6875 -0.8125 -2.5625 -2.234375q-0.875 -1.421875 -0.875 -3.15625q0 -1.5625 0.71875 -2.90625q0.71875 -1.34375 1.953125 -2.234375q0.9375 -0.671875 2.53125 -1.140625q1.609375 -0.484375 3.453125 -0.484375q2.765625 0 4.84375 0.796875q2.09375 0.796875 3.09375 2.15625q1.0 1.359375 1.375 3.640625l-3.890625 0.53125q-0.265625 -1.8125 -1.546875 -2.828125q-1.265625 -1.03125 -3.59375 -1.03125q-2.75 0 -3.921875 0.90625q-1.171875 0.90625 -1.171875 2.125q0 0.78125 0.484375 1.40625q0.5 0.640625 1.53125 1.0625q0.59375 0.21875 3.515625 1.015625q4.234375 1.125 5.90625 1.84375q1.671875 0.71875 2.625 2.09375q0.953125 1.375 0.953125 3.40625q0 2.0 -1.171875 3.765625q-1.15625 1.75 -3.359375 2.71875q-2.1875 0.953125 -4.953125 0.953125q-4.578125 0 -6.984375 -1.90625q-2.390625 -1.90625 -3.0625 -5.640625zm45.554565 3.453125l0.578125 3.515625q-1.6875 0.359375 -3.015625 0.359375q-2.171875 0 -3.375 -0.6875q-1.1875 -0.6875 -1.671875 -1.796875q-0.484375 -1.125 -0.484375 -4.71875l0 -13.515625l-2.921875 0l0 -3.09375l2.921875 0l0 -5.828125l3.96875 -2.390625l0 8.21875l4.0 0l0 3.09375l-4.0 0l0 13.75q0 1.703125 0.203125 2.1875q0.203125 0.484375 0.671875 0.78125q0.484375 0.28125 1.375 0.28125q0.671875 0 1.75 -0.15625zm3.890503 3.5625l0 -32.453125l3.984375 0l0 11.640625q2.796875 -3.21875 7.046875 -3.21875q2.609375 0 4.53125 1.03125q1.921875 1.015625 2.75 2.84375q0.84375 1.8125 0.84375 5.265625l0 14.890625l-3.984375 0l0 -14.890625q0 -3.0 -1.296875 -4.359375q-1.296875 -1.359375 -3.671875 -1.359375q-1.765625 0 -3.328125 0.921875q-1.5625 0.921875 -2.234375 2.5q-0.65625 1.5625 -0.65625 4.328125l0 12.859375l-3.984375 0zm40.5531 -2.90625q-2.21875 1.890625 -4.265625 2.671875q-2.046875 0.765625 -4.390625 0.765625q-3.875 0 -5.953125 -1.890625q-2.078125 -1.890625 -2.078125 -4.84375q0 -1.71875 0.78125 -3.140625q0.78125 -1.4375 2.046875 -2.296875q1.28125 -0.859375 2.875 -1.3125q1.171875 -0.296875 3.546875 -0.59375q4.828125 -0.578125 7.109375 -1.375q0.015625 -0.8125 0.015625 -1.03125q0 -2.4375 -1.125 -3.4375q-1.53125 -1.34375 -4.546875 -1.34375q-2.796875 0 -4.140625 0.984375q-1.34375 0.984375 -1.984375 3.484375l-3.890625 -0.53125q0.53125 -2.5 1.75 -4.03125q1.21875 -1.546875 3.515625 -2.375q2.296875 -0.828125 5.328125 -0.828125q3.015625 0 4.890625 0.703125q1.890625 0.703125 2.765625 1.78125q0.890625 1.078125 1.25 2.71875q0.1875 1.015625 0.1875 3.671875l0 5.3125q0 5.546875 0.25 7.03125q0.265625 1.46875 1.015625 2.8125l-4.15625 0q-0.625 -1.234375 -0.796875 -2.90625zm-0.328125 -8.890625q-2.171875 0.890625 -6.515625 1.5q-2.453125 0.359375 -3.46875 0.8125q-1.015625 0.4375 -1.578125 1.296875q-0.546875 0.84375 -0.546875 1.875q0 1.59375 1.203125 2.65625q1.203125 1.0625 3.53125 1.0625q2.296875 0 4.09375 -1.0q1.796875 -1.015625 2.640625 -2.765625q0.640625 -1.34375 0.640625 -3.984375l0 -1.453125zm18.89685 8.234375l0.578125 3.515625q-1.6875 0.359375 -3.015625 0.359375q-2.171875 0 -3.375 -0.6875q-1.1875 -0.6875 -1.671875 -1.796875q-0.484375 -1.125 -0.484375 -4.71875l0 -13.515625l-2.921875 0l0 -3.09375l2.921875 0l0 -5.828125l3.96875 -2.390625l0 8.21875l4.0 0l0 3.09375l-4.0 0l0 13.75q0 1.703125 0.203125 2.1875q0.203125 0.484375 0.671875 0.78125q0.484375 0.28125 1.375 0.28125q0.671875 0 1.75 -0.15625zm31.82788 0.65625q-2.21875 1.890625 -4.265625 2.671875q-2.046875 0.765625 -4.390625 0.765625q-3.875 0 -5.953125 -1.890625q-2.078125 -1.890625 -2.078125 -4.84375q0 -1.71875 0.78125 -3.140625q0.78125 -1.4375 2.046875 -2.296875q1.28125 -0.859375 2.875 -1.3125q1.171875 -0.296875 3.546875 -0.59375q4.828125 -0.578125 7.109375 -1.375q0.015625 -0.8125 0.015625 -1.03125q0 -2.4375 -1.125 -3.4375q-1.53125 -1.34375 -4.546875 -1.34375q-2.796875 0 -4.140625 0.984375q-1.34375 0.984375 -1.984375 3.484375l-3.890625 -0.53125q0.53125 -2.5 1.75 -4.03125q1.21875 -1.546875 3.515625 -2.375q2.296875 -0.828125 5.328125 -0.828125q3.015625 0 4.890625 0.703125q1.890625 0.703125 2.765625 1.78125q0.890625 1.078125 1.25 2.71875q0.1875 1.015625 0.1875 3.671875l0 5.3125q0 5.546875 0.25 7.03125q0.265625 1.46875 1.015625 2.8125l-4.15625 0q-0.625 -1.234375 -0.796875 -2.90625zm-0.328125 -8.890625q-2.171875 0.890625 -6.515625 1.5q-2.453125 0.359375 -3.46875 0.8125q-1.015625 0.4375 -1.578125 1.296875q-0.546875 0.84375 -0.546875 1.875q0 1.59375 1.203125 2.65625q1.203125 1.0625 3.53125 1.0625q2.296875 0 4.09375 -1.0q1.796875 -1.015625 2.640625 -2.765625q0.640625 -1.34375 0.640625 -3.984375l0 -1.453125zm10.115601 11.796875l0 -32.453125l3.984375 0l0 32.453125l-3.984375 0zm10.17981 -27.859375l0 -4.59375l3.984375 0l0 4.59375l-3.984375 0zm0 27.859375l0 -23.5l3.984375 0l0 23.5l-3.984375 0zm9.30481 1.953125l3.875 0.5625q0.25 1.796875 1.359375 2.625q1.484375 1.09375 4.046875 1.09375q2.765625 0 4.265625 -1.109375q1.515625 -1.09375 2.046875 -3.09375q0.3125 -1.21875 0.28125 -5.109375q-2.609375 3.078125 -6.5 3.078125q-4.859375 0 -7.515625 -3.5q-2.65625 -3.5 -2.65625 -8.390625q0 -3.359375 1.21875 -6.203125q1.21875 -2.84375 3.53125 -4.390625q2.3125 -1.546875 5.4375 -1.546875q4.15625 0 6.859375 3.359375l0 -2.828125l3.671875 0l0 20.3125q0 5.484375 -1.125 7.78125q-1.109375 2.296875 -3.53125 3.625q-2.421875 1.328125 -5.96875 1.328125q-4.203125 0 -6.796875 -1.90625q-2.578125 -1.890625 -2.5 -5.6875zm3.3125 -14.125q0 4.625 1.828125 6.75q1.84375 2.125 4.609375 2.125q2.734375 0 4.59375 -2.109375q1.859375 -2.125 1.859375 -6.640625q0 -4.3125 -1.921875 -6.5q-1.90625 -2.1875 -4.609375 -2.1875q-2.640625 0 -4.5 2.15625q-1.859375 2.15625 -1.859375 6.40625zm22.631226 12.171875l0 -23.5l3.59375 0l0 3.34375q2.578125 -3.875 7.46875 -3.875q2.125 0 3.90625 0.765625q1.796875 0.75 2.671875 2.0q0.890625 1.234375 1.25 2.9375q0.21875 1.109375 0.21875 3.875l0 14.453125l-3.984375 0l0 -14.296875q0 -2.4375 -0.46875 -3.640625q-0.46875 -1.203125 -1.65625 -1.921875q-1.171875 -0.71875 -2.765625 -0.71875q-2.546875 0 -4.40625 1.609375q-1.84375 1.609375 -1.84375 6.125l0 12.84375l-3.984375 0z"/><path fill="#000" fill-rule="nonzero" d="m48.20214 157.66801l-7.203125 -23.5l4.125 0l3.734375 13.5625l1.40625 5.046875q0.078125 -0.375 1.21875 -4.84375l3.734375 -13.765625l4.09375 0l3.515625 13.625l1.171875 4.5l1.359375 -4.546875l4.015625 -13.578125l3.875 0l-7.34375 23.5l-4.140625 0l-3.734375 -14.078125l-0.90625 -4.0l-4.765625 18.078125l-4.15625 0zm28.422028 -27.859375l0 -4.5937424l3.984375 0l0 4.5937424l-3.984375 0zm0 27.859375l0 -23.5l3.984375 0l0 23.5l-3.984375 0zm18.74234 -3.5625l0.578125 3.515625q-1.6875 0.359375 -3.015625 0.359375q-2.171875 0 -3.375 -0.6875q-1.1875 -0.6875 -1.671875 -1.796875q-0.484375 -1.125 -0.484375 -4.71875l0 -13.515625l-2.921875 0l0 -3.09375l2.921875 0l0 -5.828125l3.96875 -2.3906174l0 8.218742l4.0 0l0 3.09375l-4.0 0l0 13.75q0 1.703125 0.203125 2.1875q0.203125 0.484375 0.671875 0.78125q0.484375 0.28125 1.375 0.28125q0.671875 0 1.75 -0.15625zm3.8904877 3.5625l0 -32.453117l3.984375 0l0 11.640617q2.796875 -3.21875 7.046875 -3.21875q2.609375 0 4.53125 1.03125q1.921875 1.015625 2.75 2.84375q0.84375 1.8125 0.84375 5.265625l0 14.890625l-3.984375 0l0 -14.890625q0 -3.0 -1.296875 -4.359375q-1.296875 -1.359375 -3.671875 -1.359375q-1.765625 0 -3.328125 0.921875q-1.5625 0.921875 -2.234375 2.5q-0.65625 1.5625 -0.65625 4.328125l0 12.859375l-3.984375 0zm37.802956 9.015625l0 -32.515625l3.640625 0l0 3.046875q1.28125 -1.796875 2.890625 -2.6875q1.625 -0.890625 3.921875 -0.890625q3.0 0 5.296875 1.546875q2.3125 1.546875 3.484375 4.375q1.171875 2.8125 1.171875 6.1875q0 3.59375 -1.296875 6.484375q-1.28125 2.890625 -3.75 4.4375q-2.46875 1.53125 -5.203125 1.53125q-1.984375 0 -3.578125 -0.84375q-1.578125 -0.84375 -2.59375 -2.125l0 11.453125l-3.984375 0zm3.609375 -20.640625q0 4.546875 1.828125 6.71875q1.84375 2.15625 4.453125 2.15625q2.65625 0 4.546875 -2.234375q1.90625 -2.25 1.90625 -6.96875q0 -4.484375 -1.859375 -6.71875q-1.84375 -2.25 -4.40625 -2.25q-2.546875 0 -4.515625 2.390625q-1.953125 2.375 -1.953125 6.90625zm21.5531 11.625l0 -23.5l3.59375 0l0 3.5625q1.375 -2.5 2.53125 -3.296875q1.15625 -0.796875 2.5625 -0.796875q2.015625 0 4.09375 1.28125l-1.375 3.6875q-1.46875 -0.859375 -2.921875 -0.859375q-1.3125 0 -2.359375 0.796875q-1.03125 0.78125 -1.46875 2.171875q-0.671875 2.125 -0.671875 4.640625l0 12.3125l-3.984375 0zm15.172745 -27.859375l0 -4.5937424l3.984375 0l0 4.5937424l-3.984375 0zm0 27.859375l0 -23.5l3.984375 0l0 23.5l-3.984375 0zm8.55484 -11.75q0 -6.53125 3.640625 -9.671875q3.03125 -2.609375 7.390625 -2.609375q4.84375 0 7.921875 3.171875q3.078125 3.171875 3.078125 8.78125q0 4.53125 -1.359375 7.140625q-1.359375 2.59375 -3.96875 4.03125q-2.59375 1.4375 -5.671875 1.4375q-4.9375 0 -7.984375 -3.15625q-3.046875 -3.171875 -3.046875 -9.125zm4.09375 0q0 4.515625 1.96875 6.765625q1.984375 2.234375 4.96875 2.234375q2.96875 0 4.9375 -2.25q1.96875 -2.265625 1.96875 -6.890625q0 -4.359375 -1.984375 -6.59375q-1.984375 -2.25 -4.921875 -2.25q-2.984375 0 -4.96875 2.234375q-1.96875 2.234375 -1.96875 6.75zm22.5531 11.75l0 -23.5l3.59375 0l0 3.5625q1.375 -2.5 2.53125 -3.296875q1.15625 -0.796875 2.5625 -0.796875q2.015625 0 4.09375 1.28125l-1.375 3.6875q-1.46875 -0.859375 -2.921875 -0.859375q-1.3125 0 -2.359375 0.796875q-1.03125 0.78125 -1.46875 2.171875q-0.671875 2.125 -0.671875 4.640625l0 12.3125l-3.984375 0zm27.766357 0l0 -32.453117l3.984375 0l0 18.515617l9.421875 -9.5625l5.15625 0l-8.984375 8.71875l9.890625 14.78125l-4.90625 0l-7.765625 -12.015625l-2.8125 2.703125l0 9.3125l-3.984375 0zm22.632812 0l0 -23.5l3.59375 0l0 3.34375q2.578125 -3.875 7.46875 -3.875q2.125 0 3.90625 0.765625q1.796875 0.75 2.671875 2.0q0.890625 1.234375 1.25 2.9375q0.21875 1.109375 0.21875 3.875l0 14.453125l-3.984375 0l0 -14.296875q0 -2.4375 -0.46875 -3.640625q-0.46875 -1.203125 -1.65625 -1.921875q-1.171875 -0.71875 -2.765625 -0.71875q-2.546875 0 -4.40625 1.609375q-1.84375 1.609375 -1.84375 6.125l0 12.84375l-3.984375 0zm23.724976 -11.75q0 -6.53125 3.640625 -9.671875q3.03125 -2.609375 7.390625 -2.609375q4.84375 0 7.921875 3.171875q3.078125 3.171875 3.078125 8.78125q0 4.53125 -1.359375 7.140625q-1.359375 2.59375 -3.96875 4.03125q-2.59375 1.4375 -5.671875 1.4375q-4.9375 0 -7.984375 -3.15625q-3.046875 -3.171875 -3.046875 -9.125zm4.09375 0q0 4.515625 1.96875 6.765625q1.984375 2.234375 4.96875 2.234375q2.96875 0 4.9375 -2.25q1.96875 -2.265625 1.96875 -6.890625q0 -4.359375 -1.984375 -6.59375q-1.984375 -2.25 -4.921875 -2.25q-2.984375 0 -4.96875 2.234375q-1.96875 2.234375 -1.96875 6.75zm26.943726 11.75l-7.203125 -23.5l4.125 0l3.734375 13.5625l1.40625 5.046875q0.078125 -0.375 1.21875 -4.84375l3.734375 -13.765625l4.09375 0l3.515625 13.625l1.171875 4.5l1.359375 -4.546875l4.015625 -13.578125l3.875 0l-7.34375 23.5l-4.140625 0l-3.734375 -14.078125l-0.90625 -4.0l-4.765625 18.078125l-4.15625 0zm28.312653 0l0 -32.453117l3.984375 0l0 32.453117l-3.984375 0zm26.24234 -7.5625l4.109375 0.5q-0.96875 3.609375 -3.609375 5.609375q-2.625 1.984375 -6.71875 1.984375q-5.15625 0 -8.1875 -3.171875q-3.015625 -3.1875 -3.015625 -8.90625q0 -5.9375 3.046875 -9.203125q3.0625 -3.28125 7.9375 -3.28125q4.71875 0 7.703125 3.203125q2.984375 3.203125 2.984375 9.03125q0 0.359375 -0.015625 1.0625l-17.53125 0q0.21875 3.875 2.1875 5.9375q1.96875 2.046875 4.90625 2.046875q2.203125 0 3.75 -1.140625q1.546875 -1.15625 2.453125 -3.671875zm-13.078125 -6.453125l13.125 0q-0.265625 -2.953125 -1.5 -4.4375q-1.90625 -2.3125 -4.9375 -2.3125q-2.75 0 -4.625 1.84375q-1.859375 1.828125 -2.0625 4.90625zm37.443726 14.015625l0 -2.96875q-2.234375 3.5 -6.578125 3.5q-2.796875 0 -5.15625 -1.546875q-2.359375 -1.546875 -3.65625 -4.328125q-1.296875 -2.78125 -1.296875 -6.390625q0 -3.515625 1.171875 -6.375q1.171875 -2.875 3.515625 -4.390625q2.359375 -1.53125 5.25 -1.53125q2.125 0 3.78125 0.890625q1.671875 0.890625 2.703125 2.328125l0 -11.640617l3.96875 0l0 32.453117l-3.703125 0zm-12.59375 -11.734375q0 4.515625 1.90625 6.75q1.90625 2.234375 4.5 2.234375q2.609375 0 4.421875 -2.125q1.828125 -2.140625 1.828125 -6.515625q0 -4.828125 -1.859375 -7.078125q-1.859375 -2.265625 -4.578125 -2.265625q-2.65625 0 -4.4375 2.171875q-1.78125 2.15625 -1.78125 6.828125zm21.818726 13.6875l3.875 0.5625q0.25 1.796875 1.359375 2.625q1.484375 1.09375 4.046875 1.09375q2.765625 0 4.265625 -1.109375q1.515625 -1.09375 2.046875 -3.09375q0.3125 -1.21875 0.28125 -5.109375q-2.609375 3.078125 -6.5 3.078125q-4.859375 0 -7.515625 -3.5q-2.65625 -3.5 -2.65625 -8.390625q0 -3.359375 1.21875 -6.203125q1.21875 -2.84375 3.53125 -4.390625q2.3125 -1.546875 5.4375 -1.546875q4.15625 0 6.859375 3.359375l0 -2.828125l3.671875 0l0 20.3125q0 5.484375 -1.125 7.78125q-1.109375 2.296875 -3.53125 3.625q-2.421875 1.328125 -5.96875 1.328125q-4.203125 0 -6.796875 -1.90625q-2.578125 -1.890625 -2.5 -5.6875zm3.3125 -14.125q0 4.625 1.828125 6.75q1.84375 2.125 4.609375 2.125q2.734375 0 4.59375 -2.109375q1.859375 -2.125 1.859375 -6.640625q0 -4.3125 -1.921875 -6.5q-1.90625 -2.1875 -4.609375 -2.1875q-2.640625 0 -4.5 2.15625q-1.859375 2.15625 -1.859375 6.40625zm38.724976 4.609375l4.109375 0.5q-0.96875 3.609375 -3.609375 5.609375q-2.625 1.984375 -6.71875 1.984375q-5.15625 0 -8.1875 -3.171875q-3.015625 -3.1875 -3.015625 -8.90625q0 -5.9375 3.046875 -9.203125q3.0625 -3.28125 7.9375 -3.28125q4.71875 0 7.703125 3.203125q2.984375 3.203125 2.984375 9.03125q0 0.359375 -0.015625 1.0625l-17.53125 0q0.21875 3.875 2.1875 5.9375q1.96875 2.046875 4.90625 2.046875q2.203125 0 3.75 -1.140625q1.546875 -1.15625 2.453125 -3.671875zm-13.078125 -6.453125l13.125 0q-0.265625 -2.953125 -1.5 -4.4375q-1.90625 -2.3125 -4.9375 -2.3125q-2.75 0 -4.625 1.84375q-1.859375 1.828125 -2.0625 4.90625zm29.662476 6.03125q-0.03125 -0.796875 -0.03125 -1.203125q0 -2.34375 0.671875 -4.046875q0.484375 -1.28125 1.5625 -2.59375q0.796875 -0.953125 2.859375 -2.765625q2.078125 -1.828125 2.6875 -2.90625q0.625 -1.09375 0.625 -2.375q0 -2.328125 -1.8125 -4.078125q-1.8125 -1.7656174 -4.4375 -1.7656174q-2.546875 0 -4.25 1.5937424q-1.703125 1.59375 -2.234375 4.96875l-4.109375 -0.484375q0.5625 -4.53125 3.296875 -6.9374924q2.734375 -2.421875 7.21875 -2.421875q4.765625 0 7.59375 2.59375q2.828125 2.5781174 2.828125 6.2656174q0 2.125 -1.0 3.921875q-0.984375 1.78125 -3.890625 4.34375q-1.9375 1.734375 -2.546875 2.5625q-0.59375 0.8125 -0.890625 1.875q-0.28125 1.0625 -0.3125 3.453125l-3.828125 0zm-0.25 7.984375l0 -4.53125l4.53125 0l0 4.53125l-4.53125 0z"/></g></svg>