<svg version="1.1" viewBox="0.0 0.0 960.0 540.0" fill="none" stroke="none" stroke-linecap="square" stroke-miterlimit="10" xmlns:xlink="http://www.w3.org/1999/xlink" xmlns="http://www.w3.org/2000/svg"><clipPath id="gdfe1767869_0_56.0"><path d="m0 0l960.0 0l0 540.0l-960.0 0l0 -540.0z" clip-rule="nonzero"/></clipPath><g clip-path="url(#gdfe1767869_0_56.0)"><path fill="#ffffff" d="m0 0l960.0 0l0 540.0l-960.0 0z" fill-rule="evenodd"/><path fill="#000000" fill-opacity="0.0" d="m33.716534 75.11811l892.5669 0l0 142.20471l-892.5669 0z" fill-rule="evenodd"/><path fill="#000000" d="m50.310284 111.38311q-1.96875 0 -3.078125 -1.625q-0.96875 -1.3125 -0.96875 -3.59375q0 -3.140625 1.5625 -5.953125q1.578125 -2.8125 3.8125 -4.4375l0.703125 0.8125q-1.875 1.421875 -3.0625 3.453125q-1.1875 2.015625 -1.1875 4.046875q0 0.5625 0.203125 0.890625q0.203125 0.328125 0.703125 0.625q0.359375 0.203125 1.71875 0.203125q1.125 0 1.828125 0.796875q0.703125 0.78125 0.703125 1.84375q0 1.359375 -0.90625 2.15625q-0.90625 0.78125 -2.03125 0.78125zm9.421875 0q-1.96875 0 -3.078125 -1.625q-0.96875 -1.3125 -0.96875 -3.59375q0 -3.140625 1.5625 -5.953125q1.578125 -2.8125 3.8125 -4.4375l0.703125 0.8125q-1.875 1.421875 -3.0625 3.453125q-1.1875 2.015625 -1.1875 4.046875q0 0.5625 0.203125 0.890625q0.203125 0.328125 0.703125 0.625q0.359375 0.203125 1.71875 0.203125q1.125 0 1.828125 0.796875q0.703125 0.78125 0.703125 1.84375q0 1.359375 -0.90625 2.15625q-0.90625 0.78125 -2.03125 0.78125zm35.96523 21.984367q-1.671875 0 -2.8125 -0.5625q-1.140625 -0.546875 -1.796875 -1.8125q-1.359375 -2.640625 -1.46875 -8.968742q-0.046875 -3.40625 -1.21875 -5.65625q-1.15625 -2.25 -3.734375 -2.25l-5.53125 0l0 15.656242q0 0.703125 0.296875 1.03125q0.3125 0.328125 1.078125 0.328125l4.5 0l0 1.625l-15.546875 0l0 -1.625l3.640625 0q1.375 0 1.375 -1.359375l0 -30.093742q0 -0.703125 -0.328125 -1.03125q-0.328125 -0.34375 -1.046875 -0.34375l-3.640625 0l0 -1.609375l16.609375 0q4.921875 0 8.0625 1.875q3.140625 1.875 3.140625 6.21875q0 3.75 -2.8125 6.03125q-2.8125 2.28125 -6.765625 2.6875l0 0.203125q2.890625 0.5625 4.734375 2.671875q1.859375 2.09375 2.453125 7.15625q0.359375 2.890625 0.640625 4.203125q0.28125 1.3124924 0.703125 1.8437424q0.4375 0.53125 1.296875 0.53125q2.171875 0 2.171875 -5.4687424l1.28125 0q0 3.296875 -0.96875 6.0156174q-0.96875 2.703125 -4.3125 2.703125zm-11.640625 -20.874992q4.25 0 6.046875 -2.046875q1.796875 -2.046875 1.796875 -5.65625q0 -3.078125 -1.65625 -4.78125q-1.640625 -1.703125 -4.46875 -1.703125l-5.265625 0q-0.71875 0 -1.046875 0.34375q-0.328125 0.328125 -0.328125 1.03125l0 12.8125l4.921875 0zm25.223053 -9.109375q-1.109375 0 -1.875 -0.765625q-0.765625 -0.765625 -0.765625 -1.875q0 -1.171875 0.765625 -1.90625q0.765625 -0.734375 1.875 -0.734375q1.171875 0 1.90625 0.734375q0.734375 0.734375 0.734375 1.90625q0 1.109375 -0.734375 1.875q-0.734375 0.765625 -1.90625 0.765625zm-4.765625 28.156242l2.125 0q0.609375 0 0.859375 -0.25q0.265625 -0.25 0.265625 -0.859375l0 -18.437492q0 -0.609375 -0.265625 -0.859375q-0.25 -0.265625 -0.859375 -0.265625l-2.125 0l0 -1.203125l6.890625 0l0 20.765617q0 0.609375 0.25 0.859375q0.265625 0.25 0.859375 0.25l2.140625 0l0 1.21875l-10.140625 0l0 -1.21875zm14.8022 -8.203117l0.90625 0l1.875 4.0q2.734375 4.8124924 7.09375 4.8124924q2.328125 0 3.46875 -1.140625q1.140625 -1.140625 1.140625 -3.1093674q0 -1.171875 -0.890625 -2.109375q-0.890625 -0.9375 -2.359375 -1.484375l-5.765625 -2.34375q-2.734375 -1.109375 -4.3125 -2.671875q-1.5625 -1.578125 -1.5625 -4.0q0 -3.09375 1.921875 -4.65625q1.921875 -1.578125 4.859375 -1.578125q1.46875 0 2.75 0.484375q1.296875 0.46875 2.15625 1.125q1.125 0.8125 1.671875 0.8125q0.671875 0 0.8125 -0.90625l0.109375 -1.015625l0.90625 0l0 7.703125l-0.90625 0l-0.71875 -1.78125q-1.15625 -2.875 -3.0625 -4.03125q-1.890625 -1.171875 -3.765625 -1.171875q-1.875 0 -3.09375 0.9375q-1.21875 0.9375 -1.21875 2.59375q0 1.484375 1.1875 2.421875q1.203125 0.921875 3.265625 1.796875l5.484375 2.265625q2.421875 1.015625 3.640625 2.46875q1.21875 1.4375 1.21875 4.015625q0 3.4062424 -1.9375 4.9999924q-1.921875 1.59375 -5.0625 1.59375q-1.859375 0 -3.03125 -0.515625q-1.171875 -0.5 -2.28125 -1.359375q-0.453125 -0.359375 -0.90625 -0.609375q-0.453125 -0.25 -0.8125 -0.25q-1.21875 0 -1.671875 1.71875l-0.203125 1.015625l-0.90625 0l0 -10.031242zm20.359848 8.203117l2.625 0q0.609375 0 0.859375 -0.25q0.265625 -0.25 0.265625 -0.859375l0 -31.406242q0 -0.609375 -0.265625 -0.859375q-0.25 -0.25 -0.859375 -0.25l-2.625 0l0 -1.21875l7.390625 0l0 25.78125l6.890625 -8.40625q0.5625 -0.609375 0.734375 -0.96875q0.171875 -0.359375 0.171875 -0.90625q0 -0.65625 -0.484375 -0.984375q-0.46875 -0.34375 -1.234375 -0.34375l-1.3125 0l0 -1.203125l10.328125 0l0 1.203125l-1.625 0q-1.359375 0 -2.421875 0.71875q-1.0625 0.703125 -2.4375 2.375l-3.84375 4.71875l7.90625 11.234367q0.609375 0.875 1.0625 1.25q0.453125 0.375 1.265625 0.375l1.015625 0l0 1.21875l-10.75 0l0 -1.21875l1.328125 0q0.65625 0 1.0 -0.21875q0.359375 -0.234375 0.359375 -0.796875q0 -0.546875 -0.15625 -0.90625q-0.140625 -0.359375 -0.5 -0.90625l-4.96875 -7.0937424l-2.328125 2.828125l0 5.9843674q0 0.609375 0.25 0.859375q0.265625 0.25 0.859375 0.25l1.625 0l0 1.21875l-10.125 0l0 -1.21875zm51.665695 1.828125q-2.78125 0 -5.125 -1.640625q-2.328125 -1.65625 -3.671875 -4.4374924q-1.328125 -2.78125 -1.328125 -6.078125q0 -3.296875 1.328125 -6.078125q1.34375 -2.796875 3.671875 -4.4375q2.34375 -1.640625 5.125 -1.640625q2.78125 0 5.109375 1.640625q2.34375 1.640625 3.671875 4.4375q1.34375 2.78125 1.34375 6.078125q0 3.296875 -1.34375 6.078125q-1.328125 2.7812424 -3.671875 4.4374924q-2.328125 1.640625 -5.109375 1.640625zm0 -1.21875q3.046875 0 4.359375 -2.859375q1.3125 -2.8593674 1.3125 -8.078117q0 -5.21875 -1.3125 -8.078125q-1.3125 -2.859375 -4.359375 -2.859375q-3.046875 0 -4.359375 2.859375q-1.3125 2.859375 -1.3125 8.078125q0 5.21875 1.3125 8.078117q1.3125 2.859375 4.359375 2.859375zm13.984909 -0.609375l2.625 0q0.609375 0 0.859375 -0.25q0.265625 -0.25 0.265625 -0.859375l0 -19.359367l-3.75 0l0 -1.40625l3.75 0l0 -3.5q0 -3.390625 1.140625 -5.625q1.140625 -2.234375 2.90625 -3.234375q1.78125 -1.015625 3.703125 -1.015625q2.171875 0 3.6875 1.34375q1.53125 1.34375 1.53125 3.8125q0 1.328125 -0.640625 2.09375q-0.625 0.75 -1.75 0.75q-0.90625 0 -1.5 -0.578125q-0.578125 -0.59375 -0.578125 -1.546875q0 -0.515625 0.25 -1.015625q0.265625 -0.5 0.671875 -0.8125q0.8125 -0.453125 0.8125 -1.21875q0 -0.859375 -0.796875 -1.234375q-0.78125 -0.375 -1.796875 -0.375q-1.671875 0 -2.84375 1.625q-1.15625 1.609375 -1.15625 5.609375l0 4.921875l4.765625 0l0 1.40625l-4.765625 0l0 19.359367q0 0.609375 0.25 0.859375q0.265625 0.25 0.859375 0.25l3.65625 0l0 1.21875l-12.15625 0l0 -1.21875zm47.21286 2.125q-4.359375 0 -7.578125 -2.546875q-3.21875 -2.5625 -4.921875 -6.9374924q-1.6875 -4.390625 -1.6875 -9.765625q0 -5.109375 1.71875 -9.359375q1.71875 -4.265625 4.90625 -6.765625q3.203125 -2.515625 7.453125 -2.515625q2.234375 0 4.203125 1.015625q1.984375 1.015625 3.25 2.1875q1.21875 1.109375 1.625 1.109375q0.390625 0 0.5625 -0.25q0.1875 -0.265625 0.390625 -0.8125l0.96875 -2.84375l1.265625 0l0.203125 15.703125l-1.421875 0q-1.109375 -4.8125 -2.890625 -8.078125q-1.765625 -3.265625 -3.875 -4.828125q-2.09375 -1.578125 -4.171875 -1.578125q-3.5 0 -5.421875 2.109375q-1.921875 2.09375 -2.65625 5.84375q-0.734375 3.75 -0.734375 9.375q0 5.625 0.734375 9.375q0.734375 3.75 2.65625 5.8593674q1.921875 2.09375 5.421875 2.09375q1.875 0 3.59375 -1.34375q1.71875 -1.34375 2.8125 -3.4218674q1.09375 -2.078125 1.09375 -4.109375l0 -4.5625q0 -0.703125 -0.34375 -1.03125q-0.328125 -0.328125 -1.03125 -0.328125l-5.625 0l0 -1.625l16.71875 0l0 1.625l-3.703125 0q-0.703125 0 -1.03125 0.328125q-0.328125 0.328125 -0.328125 1.03125l0 14.796867l-1.625 0l0 -4.609375q0 -0.8593674 -0.203125 -1.2812424q-0.203125 -0.4375 -0.65625 -0.4375q-0.5625 0 -0.96875 0.40625q-0.40625 0.40625 -0.8125 1.1093674q-1.15625 1.875 -3.28125 3.46875q-2.125 1.59375 -4.609375 1.59375zm31.597534 -0.296875q-4.703125 0 -7.5625 -3.1875q-2.859375 -3.2031174 -2.859375 -8.874992q0 -3.234375 1.265625 -6.046875q1.265625 -2.8125 3.515625 -4.5q2.25 -1.703125 5.046875 -1.703125q3.078125 0 5.046875 1.671875q1.984375 1.671875 2.875 4.234375q0.890625 2.546875 0.890625 5.234375q0 0.5625 -0.359375 0.734375q-0.359375 0.171875 -1.21875 0.171875l-12.609375 0q0 5.078125 1.4375 8.062492q1.453125 2.984375 4.734375 2.984375q2.34375 0 4.390625 -1.765625q2.046875 -1.78125 2.609375 -5.5312424l1.21875 0q-0.3125 3.7031174 -2.5625 6.1093674q-2.25 2.40625 -5.859375 2.40625zm3.859375 -13.468742q0 -4.0625 -1.0625 -6.84375q-1.0625 -2.78125 -3.5 -2.78125q-2.578125 0 -3.921875 2.8125q-1.34375 2.796875 -1.34375 6.8125l9.828125 0zm9.630035 3.4375l0.90625 0l1.875 4.0q2.734375 4.8124924 7.09375 4.8124924q2.328125 0 3.46875 -1.140625q1.140625 -1.140625 1.140625 -3.1093674q0 -1.171875 -0.890625 -2.109375q-0.890625 -0.9375 -2.359375 -1.484375l-5.765625 -2.34375q-2.734375 -1.109375 -4.3125 -2.671875q-1.5625 -1.578125 -1.5625 -4.0q0 -3.09375 1.921875 -4.65625q1.921875 -1.578125 4.859375 -1.578125q1.46875 0 2.75 0.484375q1.296875 0.46875 2.15625 1.125q1.125 0.8125 1.671875 0.8125q0.671875 0 0.8125 -0.90625l0.109375 -1.015625l0.90625 0l0 7.703125l-0.90625 0l-0.71875 -1.78125q-1.15625 -2.875 -3.0625 -4.03125q-1.890625 -1.171875 -3.765625 -1.171875q-1.875 0 -3.09375 0.9375q-1.21875 0.9375 -1.21875 2.59375q0 1.484375 1.1875 2.421875q1.203125 0.921875 3.265625 1.796875l5.484375 2.265625q2.421875 1.015625 3.640625 2.46875q1.21875 1.4375 1.21875 4.015625q0 3.4062424 -1.9375 4.9999924q-1.921875 1.59375 -5.0625 1.59375q-1.859375 0 -3.03125 -0.515625q-1.171875 -0.5 -2.28125 -1.359375q-0.453125 -0.359375 -0.90625 -0.609375q-0.453125 -0.25 -0.8125 -0.25q-1.21875 0 -1.671875 1.71875l-0.203125 1.015625l-0.90625 0l0 -10.031242zm29.375458 10.031242q-2.28125 0 -3.78125 -1.625q-1.484375 -1.625 -1.484375 -4.4062424l0 -16.265625l-3.75 0l0 -1.40625l1.109375 0q2.28125 0 3.5625 -2.453125q1.296875 -2.46875 1.296875 -5.453125l0 -1.828125l1.421875 0l0 9.734375l6.28125 0l0 1.40625l-6.28125 0l0 16.515625q0 1.5312424 0.609375 2.5468674q0.609375 1.0 2.078125 1.0q3.59375 0 3.59375 -6.0781174l0.90625 0q0 3.3906174 -0.984375 5.8593674q-0.984375 2.453125 -4.578125 2.453125zm16.21408 0q-2.6875 0 -4.640625 -1.3125q-1.953125 -1.328125 -1.953125 -4.6718674q0 -2.578125 1.3125 -4.046875q1.328125 -1.46875 3.0625 -2.09375q1.75 -0.640625 4.234375 -1.09375l4.671875 -0.859375l0 -4.3125q0 -4.703125 -4.71875 -4.703125q-1.71875 0 -3.140625 0.890625q-1.421875 0.875 -1.421875 1.984375q0 0.515625 0.15625 0.765625q0.09375 0.15625 0.328125 0.3125q0.234375 0.140625 0.4375 0.1875q0.90625 0.265625 1.390625 0.71875q0.484375 0.453125 0.484375 1.265625q0 1.0625 -0.640625 1.515625q-0.625 0.453125 -1.59375 0.453125q-1.109375 0 -2.03125 -0.859375q-0.90625 -0.859375 -0.90625 -2.484375q0 -1.875 1.03125 -3.234375q1.046875 -1.375 2.6875 -2.046875q1.65625 -0.6875 3.375 -0.6875q3.34375 0 5.765625 1.75q2.4375 1.734375 2.4375 5.4375l0 12.468742q0 2.53125 1.5625 2.53125q1.28125 0 1.828125 -1.46875q0.5625 -1.46875 0.5625 -3.5937424l0.90625 0q0 3.0312424 -0.890625 5.1093674q-0.875 2.078125 -3.15625 2.078125q-2.1875 0 -3.28125 -1.28125q-1.078125 -1.296875 -1.171875 -3.578125l-0.265625 -0.109375q-0.75 1.78125 -2.453125 3.375q-1.703125 1.59375 -3.96875 1.59375zm0.796875 -1.828125q2.28125 0 3.578125 -1.796875q1.296875 -1.7968674 2.3125 -4.5781174l0 -4.8125l-4.421875 0.953125q-2.421875 0.515625 -3.515625 2.015625q-1.09375 1.484375 -1.09375 4.21875q0 2.3281174 0.96875 3.1718674q0.96875 0.828125 2.171875 0.828125zm25.74295 1.828125q-2.28125 0 -3.78125 -1.625q-1.484375 -1.625 -1.484375 -4.4062424l0 -16.265625l-3.75 0l0 -1.40625l1.109375 0q2.28125 0 3.5625 -2.453125q1.296875 -2.46875 1.296875 -5.453125l0 -1.828125l1.421875 0l0 9.734375l6.28125 0l0 1.40625l-6.28125 0l0 16.515625q0 1.5312424 0.609375 2.5468674q0.609375 1.0 2.078125 1.0q3.59375 0 3.59375 -6.0781174l0.90625 0q0 3.3906174 -0.984375 5.8593674q-0.984375 2.453125 -4.578125 2.453125zm13.979706 -29.984367q-1.109375 0 -1.875 -0.765625q-0.765625 -0.765625 -0.765625 -1.875q0 -1.171875 0.765625 -1.90625q0.765625 -0.734375 1.875 -0.734375q1.171875 0 1.90625 0.734375q0.734375 0.734375 0.734375 1.90625q0 1.109375 -0.734375 1.875q-0.734375 0.765625 -1.90625 0.765625zm-4.765625 28.156242l2.125 0q0.609375 0 0.859375 -0.25q0.265625 -0.25 0.265625 -0.859375l0 -18.437492q0 -0.609375 -0.265625 -0.859375q-0.25 -0.265625 -0.859375 -0.265625l-2.125 0l0 -1.203125l6.890625 0l0 20.765617q0 0.609375 0.25 0.859375q0.265625 0.25 0.859375 0.25l2.140625 0l0 1.21875l-10.140625 0l0 -1.21875zm24.31784 1.828125q-2.78125 0 -5.125 -1.640625q-2.328125 -1.65625 -3.671875 -4.4374924q-1.328125 -2.78125 -1.328125 -6.078125q0 -3.296875 1.328125 -6.078125q1.34375 -2.796875 3.671875 -4.4375q2.34375 -1.640625 5.125 -1.640625q2.78125 0 5.109375 1.640625q2.34375 1.640625 3.671875 4.4375q1.34375 2.78125 1.34375 6.078125q0 3.296875 -1.34375 6.078125q-1.328125 2.7812424 -3.671875 4.4374924q-2.328125 1.640625 -5.109375 1.640625zm0 -1.21875q3.046875 0 4.359375 -2.859375q1.3125 -2.8593674 1.3125 -8.078117q0 -5.21875 -1.3125 -8.078125q-1.3125 -2.859375 -4.359375 -2.859375q-3.046875 0 -4.359375 2.859375q-1.3125 2.859375 -1.3125 8.078125q0 5.21875 1.3125 8.078117q1.3125 2.859375 4.359375 2.859375zm14.484924 -0.609375l2.125 0q0.609375 0 0.859375 -0.25q0.265625 -0.25 0.265625 -0.859375l0 -18.437492q0 -0.609375 -0.265625 -0.859375q-0.25 -0.265625 -0.859375 -0.265625l-2.125 0l0 -1.203125l6.890625 0l0 4.140625l0.203125 0.0625q1.171875 -2.4375 2.890625 -3.625q1.71875 -1.1875 3.796875 -1.1875q3.703125 0 5.234375 2.28125q1.546875 2.28125 1.546875 5.46875l0 13.624992q0 0.609375 0.25 0.859375q0.265625 0.25 0.875 0.25l2.125 0l0 1.21875l-10.125 0l0 -1.21875l2.125 0q0.609375 0 0.859375 -0.25q0.25 -0.25 0.25 -0.859375l0 -14.593742q0 -2.21875 -0.890625 -3.78125q-0.875 -1.578125 -3.015625 -1.578125q-1.765625 0 -3.15625 1.234375q-1.390625 1.234375 -2.1875 3.390625q-0.78125 2.15625 -0.78125 4.796875l0 10.531242q0 0.609375 0.25 0.859375q0.265625 0.25 0.859375 0.25l2.140625 0l0 1.21875l-10.140625 0l0 -1.21875zm34.35443 1.828125q-2.6875 0 -4.640625 -1.3125q-1.953125 -1.328125 -1.953125 -4.6718674q0 -2.578125 1.3125 -4.046875q1.328125 -1.46875 3.0625 -2.09375q1.75 -0.640625 4.234375 -1.09375l4.671875 -0.859375l0 -4.3125q0 -4.703125 -4.71875 -4.703125q-1.71875 0 -3.140625 0.890625q-1.421875 0.875 -1.421875 1.984375q0 0.515625 0.15625 0.765625q0.09375 0.15625 0.328125 0.3125q0.234375 0.140625 0.4375 0.1875q0.90625 0.265625 1.390625 0.71875q0.484375 0.453125 0.484375 1.265625q0 1.0625 -0.640625 1.515625q-0.625 0.453125 -1.59375 0.453125q-1.109375 0 -2.03125 -0.859375q-0.90625 -0.859375 -0.90625 -2.484375q0 -1.875 1.03125 -3.234375q1.046875 -1.375 2.6875 -2.046875q1.65625 -0.6875 3.375 -0.6875q3.34375 0 5.765625 1.75q2.4375 1.734375 2.4375 5.4375l0 12.468742q0 2.53125 1.5625 2.53125q1.28125 0 1.828125 -1.46875q0.5625 -1.46875 0.5625 -3.5937424l0.90625 0q0 3.0312424 -0.890625 5.1093674q-0.875 2.078125 -3.15625 2.078125q-2.1875 0 -3.28125 -1.28125q-1.078125 -1.296875 -1.171875 -3.578125l-0.265625 -0.109375q-0.75 1.78125 -2.453125 3.375q-1.703125 1.59375 -3.96875 1.59375zm0.796875 -1.828125q2.28125 0 3.578125 -1.796875q1.296875 -1.7968674 2.3125 -4.5781174l0 -4.8125l-4.421875 0.953125q-2.421875 0.515625 -3.515625 2.015625q-1.09375 1.484375 -1.09375 4.21875q0 2.3281174 0.96875 3.1718674q0.96875 0.828125 2.171875 0.828125zm16.727356 0l2.625 0q0.609375 0 0.859375 -0.25q0.265625 -0.25 0.265625 -0.859375l0 -31.406242q0 -0.609375 -0.265625 -0.859375q-0.25 -0.25 -0.859375 -0.25l-2.625 0l0 -1.21875l7.390625 0l0 33.734367q0 0.609375 0.25 0.859375q0.265625 0.25 0.859375 0.25l2.640625 0l0 1.21875l-11.140625 0l0 -1.21875zm29.579712 -0.40625l3.640625 0q1.375 0 1.375 -1.359375l0 -30.093742q0 -0.703125 -0.328125 -1.03125q-0.328125 -0.34375 -1.046875 -0.34375l-3.640625 0l0 -1.609375l18.546906 0q4.203125 0 7.6875 2.25q3.5 2.25 5.546875 6.28125q2.0625 4.03125 2.0625 9.1875q0 5.171875 -2.0625 9.375q-2.046875 4.203125 -5.578125 6.5937424q-3.515625 2.375 -7.65625 2.375l-18.546906 0l0 -1.625zm18.34378 0q3.546875 0 5.8125 -2.40625q2.28125 -2.4062424 3.296875 -6.1718674q1.015625 -3.78125 1.015625 -8.140625q0 -6.78125 -2.453125 -11.4375q-2.453125 -4.671875 -7.671875 -4.671875l-7.2969055 0q-0.71875 0 -1.046875 0.34375q-0.328125 0.328125 -0.328125 1.03125l0 30.093742q0 1.359375 1.375 1.359375l7.2969055 0zm24.715027 -27.749992q-1.109375 0 -1.875 -0.765625q-0.765625 -0.765625 -0.765625 -1.875q0 -1.171875 0.765625 -1.90625q0.765625 -0.734375 1.875 -0.734375q1.171875 0 1.90625 0.734375q0.734375 0.734375 0.734375 1.90625q0 1.109375 -0.734375 1.875q-0.734375 0.765625 -1.90625 0.765625zm-4.765625 28.156242l2.125 0q0.609375 0 0.859375 -0.25q0.265625 -0.25 0.265625 -0.859375l0 -18.437492q0 -0.609375 -0.265625 -0.859375q-0.25 -0.265625 -0.859375 -0.265625l-2.125 0l0 -1.203125l6.890625 0l0 20.765617q0 0.609375 0.25 0.859375q0.265625 0.25 0.859375 0.25l2.140625 0l0 1.21875l-10.140625 0l0 -1.21875zm20.677246 1.828125q-2.6875 0 -4.640625 -1.3125q-1.953125 -1.328125 -1.953125 -4.6718674q0 -2.578125 1.3125 -4.046875q1.328125 -1.46875 3.0625 -2.09375q1.75 -0.640625 4.234375 -1.09375l4.671875 -0.859375l0 -4.3125q0 -4.703125 -4.71875 -4.703125q-1.71875 0 -3.140625 0.890625q-1.421875 0.875 -1.421875 1.984375q0 0.515625 0.15625 0.765625q0.09375 0.15625 0.328125 0.3125q0.234375 0.140625 0.4375 0.1875q0.90625 0.265625 1.390625 0.71875q0.484375 0.453125 0.484375 1.265625q0 1.0625 -0.640625 1.515625q-0.625 0.453125 -1.59375 0.453125q-1.109375 0 -2.03125 -0.859375q-0.90625 -0.859375 -0.90625 -2.484375q0 -1.875 1.03125 -3.234375q1.046875 -1.375 2.6875 -2.046875q1.65625 -0.6875 3.375 -0.6875q3.34375 0 5.765625 1.75q2.4375 1.734375 2.4375 5.4375l0 12.468742q0 2.53125 1.5625 2.53125q1.28125 0 1.828125 -1.46875q0.5625 -1.46875 0.5625 -3.5937424l0.90625 0q0 3.0312424 -0.890625 5.1093674q-0.875 2.078125 -3.15625 2.078125q-2.1875 0 -3.28125 -1.28125q-1.078125 -1.296875 -1.171875 -3.578125l-0.265625 -0.109375q-0.75 1.78125 -2.453125 3.375q-1.703125 1.59375 -3.96875 1.59375zm0.796875 -1.828125q2.28125 0 3.578125 -1.796875q1.296875 -1.7968674 2.3125 -4.5781174l0 -4.8125l-4.421875 0.953125q-2.421875 0.515625 -3.515625 2.015625q-1.09375 1.484375 -1.09375 4.21875q0 2.3281174 0.96875 3.1718674q0.96875 0.828125 2.171875 0.828125zm29.899231 1.828125q-2.03125 0 -3.75 -1.359375q-1.71875 -1.375 -2.734375 -3.609375l-0.203125 0l-2.125 4.359375l-0.921875 0l0 -33.734367q0 -0.609375 -0.25 -0.859375q-0.25 -0.25 -0.859375 -0.25l-2.640625 0l0 -1.21875l7.40625 0l0 16.71875l0.203125 0.046875q0.75 -1.828125 2.3125 -3.109375q1.578125 -1.296875 3.5625 -1.296875q2.375 0 4.421875 1.59375q2.0625 1.59375 3.265625 4.390625q1.21875 2.78125 1.21875 6.171875q0 3.390625 -1.21875 6.1875q-1.203125 2.7812424 -3.265625 4.3749924q-2.046875 1.59375 -4.421875 1.59375zm-0.5625 -1.421875q2.484375 0 3.75 -2.78125q1.265625 -2.7812424 1.265625 -7.9531174q0 -5.171875 -1.265625 -7.953125q-1.265625 -2.78125 -3.75 -2.78125q-1.515625 0 -2.78125 1.109375q-1.265625 1.109375 -2.0 3.0625q-0.734375 1.953125 -0.734375 4.234375l0 4.65625q0 2.28125 0.734375 4.234375q0.734375 1.9374924 2.0 3.0624924q1.265625 1.109375 2.78125 1.109375zm24.76416 1.421875q-4.703125 0 -7.5625 -3.1875q-2.859375 -3.2031174 -2.859375 -8.874992q0 -3.234375 1.265625 -6.046875q1.265625 -2.8125 3.515625 -4.5q2.25 -1.703125 5.046875 -1.703125q3.078125 0 5.046875 1.671875q1.984375 1.671875 2.875 4.234375q0.890625 2.546875 0.890625 5.234375q0 0.5625 -0.359375 0.734375q-0.359375 0.171875 -1.21875 0.171875l-12.609375 0q0 5.078125 1.4375 8.062492q1.453125 2.984375 4.734375 2.984375q2.34375 0 4.390625 -1.765625q2.046875 -1.78125 2.609375 -5.5312424l1.21875 0q-0.3125 3.7031174 -2.5625 6.1093674q-2.25 2.40625 -5.859375 2.40625zm3.859375 -13.468742q0 -4.0625 -1.0625 -6.84375q-1.0625 -2.78125 -3.5 -2.78125q-2.578125 0 -3.921875 2.8125q-1.34375 2.796875 -1.34375 6.8125l9.828125 0zm17.02069 13.468742q-2.28125 0 -3.78125 -1.625q-1.484375 -1.625 -1.484375 -4.4062424l0 -16.265625l-3.75 0l0 -1.40625l1.109375 0q2.28125 0 3.5625 -2.453125q1.296875 -2.46875 1.296875 -5.453125l0 -1.828125l1.421875 0l0 9.734375l6.28125 0l0 1.40625l-6.28125 0l0 16.515625q0 1.5312424 0.609375 2.5468674q0.609375 1.0 2.078125 1.0q3.59375 0 3.59375 -6.0781174l0.90625 0q0 3.3906174 -0.984375 5.8593674q-0.984375 2.453125 -4.578125 2.453125zm20.151611 0q-4.703125 0 -7.5625 -3.1875q-2.859375 -3.2031174 -2.859375 -8.874992q0 -3.234375 1.265625 -6.046875q1.265625 -2.8125 3.515625 -4.5q2.25 -1.703125 5.046875 -1.703125q3.078125 0 5.046875 1.671875q1.984375 1.671875 2.875 4.234375q0.890625 2.546875 0.890625 5.234375q0 0.5625 -0.359375 0.734375q-0.359375 0.171875 -1.21875 0.171875l-12.609375 0q0 5.078125 1.4375 8.062492q1.453125 2.984375 4.734375 2.984375q2.34375 0 4.390625 -1.765625q2.046875 -1.78125 2.609375 -5.5312424l1.21875 0q-0.3125 3.7031174 -2.5625 6.1093674q-2.25 2.40625 -5.859375 2.40625zm3.859375 -13.468742q0 -4.0625 -1.0625 -6.84375q-1.0625 -2.78125 -3.5 -2.78125q-2.578125 0 -3.921875 2.8125q-1.34375 2.796875 -1.34375 6.8125l9.828125 0zm9.630005 3.4375l0.90625 0l1.875 4.0q2.734375 4.8124924 7.09375 4.8124924q2.328125 0 3.46875 -1.140625q1.140625 -1.140625 1.140625 -3.1093674q0 -1.171875 -0.890625 -2.109375q-0.890625 -0.9375 -2.359375 -1.484375l-5.765625 -2.34375q-2.734375 -1.109375 -4.3125 -2.671875q-1.5625 -1.578125 -1.5625 -4.0q0 -3.09375 1.921875 -4.65625q1.921875 -1.578125 4.859375 -1.578125q1.46875 0 2.75 0.484375q1.296875 0.46875 2.15625 1.125q1.125 0.8125 1.671875 0.8125q0.671875 0 0.8125 -0.90625l0.109375 -1.015625l0.90625 0l0 7.703125l-0.90625 0l-0.71875 -1.78125q-1.15625 -2.875 -3.0625 -4.03125q-1.890625 -1.171875 -3.765625 -1.171875q-1.875 0 -3.09375 0.9375q-1.21875 0.9375 -1.21875 2.59375q0 1.484375 1.1875 2.421875q1.203125 0.921875 3.265625 1.796875l5.484375 2.265625q2.421875 1.015625 3.640625 2.46875q1.21875 1.4375 1.21875 4.015625q0 3.4062424 -1.9375 4.9999924q-1.921875 1.59375 -5.0625 1.59375q-1.859375 0 -3.03125 -0.515625q-1.171875 -0.5 -2.28125 -1.359375q-0.453125 -0.359375 -0.90625 -0.609375q-0.453125 -0.25 -0.8125 -0.25q-1.21875 0 -1.671875 1.71875l-0.203125 1.015625l-0.90625 0l0 -10.031242z" fill-rule="nonzero"/><path fill="#000000" d="m714.3204 103.07061q-1.109375 0 -1.875 -0.75q-0.765625 -0.765625 -0.765625 -1.875q0 -1.171875 0.765625 -1.90625q0.765625 -0.734375 1.875 -0.734375q1.15625 0 1.890625 0.734375q0.734375 0.734375 0.734375 1.90625q0 1.109375 -0.734375 1.875q-0.734375 0.75 -1.890625 0.75zm-5.421875 30.296867q-1.375 0 -2.3125 -1.21875q-0.9375 -1.21875 -0.9375 -3.640625q0 -1.1249924 0.296875 -2.6562424q0.3125 -1.546875 0.71875 -2.515625l3.25 -7.546875q0.25 -0.5625 0.53125 -1.46875q0.28125 -0.90625 0.28125 -1.515625q0 -0.71875 -0.28125 -1.171875q-0.28125 -0.453125 -0.84375 -0.453125q-1.71875 0 -3.3125 2.640625q-1.59375 2.625 -2.703125 5.671875l-1.015625 -0.3125q1.359375 -4.046875 3.328125 -6.78125q1.984375 -2.734375 4.265625 -2.734375q1.3125 0 2.25 1.265625q0.9375 1.265625 0.9375 3.59375q0 1.109375 -0.3125 2.703125q-0.296875 1.59375 -0.703125 2.46875l-3.234375 7.546875q-0.25 0.546875 -0.53125 1.4687424q-0.28125 0.90625 -0.28125 1.515625q0 0.703125 0.296875 1.171875q0.3125 0.453125 0.875 0.453125q1.71875 0 3.28125 -2.640625q1.578125 -2.6406174 2.6875 -5.6718674l1.015625 0.296875q-1.375 4.109375 -3.328125 6.8281174q-1.9375 2.703125 -4.21875 2.703125zm28.98169 0q-1.375 0 -2.3125 -1.21875q-0.9375 -1.21875 -0.9375 -3.640625q0 -1.1249924 0.296875 -2.6562424q0.3125 -1.546875 0.71875 -2.515625l3.234375 -7.546875q0.265625 -0.5625 0.53125 -1.46875q0.28125 -0.90625 0.28125 -1.515625q0 -0.71875 -0.28125 -1.171875q-0.265625 -0.453125 -0.828125 -0.453125q-3.046875 0 -6.4375 5.71875q-2.015625 3.453125 -3.625 6.84375q-1.59375 3.390625 -2.25 5.6718674l-1.015625 3.34375l-3.34375 0l4.265625 -15.703117q0.75 -3.046875 0.75 -4.3125q0 -0.703125 -0.203125 -1.03125q-0.203125 -0.328125 -0.75 -0.328125q-1.421875 0 -2.875 2.359375q-1.4375 2.34375 -2.59375 5.75l-1.015625 -0.3125q3.34375 -9.515625 7.4375 -9.515625q2.9375 0 2.9375 5.15625q0 1.015625 -0.484375 3.125q-0.46875 2.09375 -0.828125 3.015625l0.15625 0.140625l0.703125 -1.265625q2.234375 -4.296875 4.53125 -7.234375q2.3125 -2.9375 5.09375 -2.9375q1.515625 0 2.40625 1.25q0.890625 1.234375 0.890625 3.609375q0 1.109375 -0.3125 2.703125q-0.296875 1.59375 -0.703125 2.46875l-3.234375 7.546875q-0.265625 0.546875 -0.546875 1.4687424q-0.265625 0.90625 -0.265625 1.515625q0 0.703125 0.296875 1.171875q0.3125 0.453125 0.859375 0.453125q1.71875 0 3.28125 -2.640625q1.578125 -2.6406174 2.703125 -5.6718674l1.015625 0.296875q-1.375 4.109375 -3.328125 6.8281174q-1.953125 2.703125 -4.21875 2.703125zm18.178528 0q-3.046875 0 -4.921875 -2.5q-1.859375 -2.515625 -1.859375 -6.1093674q0 -3.046875 1.109375 -6.0q1.109375 -2.96875 3.34375 -5.296875q1.765625 -1.875 3.5625 -2.828125q1.8125 -0.96875 4.03125 -0.96875q1.921875 0 3.390625 1.21875q1.46875 1.203125 1.46875 3.84375q0 1.515625 -0.84375 2.53125q-0.828125 1.015625 -2.03125 1.015625q-0.96875 0 -1.484375 -0.578125q-0.5 -0.59375 -0.5 -1.34375q0 -1.46875 1.625 -2.640625q0.5625 -0.453125 0.5625 -1.3125q0 -0.453125 -0.5625 -0.984375q-0.5625 -0.546875 -1.828125 -0.546875q-3.953125 0 -6.890625 8.828125q-0.546875 1.671875 -0.9375 4.1875q-0.375 2.5 -0.375 3.90625q0 2.2343674 0.984375 3.2968674q0.984375 1.0625 2.40625 1.0625q3.140625 0 5.109375 -2.53125q1.984375 -2.5312424 2.796875 -4.7187424l1.0625 0.359375q-1.21875 3.4531174 -3.703125 5.7812424q-2.46875 2.328125 -5.515625 2.328125zm20.572083 -16.312492q0.75 -3.046875 0.75 -4.3125q0 -0.703125 -0.203125 -1.03125q-0.203125 -0.328125 -0.75 -0.328125q-1.421875 0 -2.890625 2.40625q-1.46875 2.40625 -2.578125 5.703125l-1.015625 -0.3125q3.34375 -9.515625 7.4375 -9.515625q2.9375 0 2.9375 5.15625q0 0.65625 -0.15625 1.546875q-0.140625 0.890625 -0.296875 1.390625l0.359375 0.109375q1.71875 -3.59375 3.4375 -5.890625q1.734375 -2.3125 3.65625 -2.3125q1.671875 0 2.53125 1.046875q0.859375 1.03125 0.859375 2.4375q0 1.328125 -0.859375 2.375q-0.859375 1.03125 -2.28125 1.03125q-0.859375 0 -1.421875 -0.609375q-0.5625 -0.609375 -0.5625 -1.53125q0 -0.90625 0.609375 -1.609375q0.515625 -0.515625 0.515625 -0.765625q0 -0.296875 -0.125 -0.453125q-0.125 -0.15625 -0.53125 -0.15625q-1.171875 0 -3.03125 3.171875q-1.84375 3.15625 -3.625 7.5q-1.765625 4.328125 -2.71875 7.5156174l-0.96875 3.140625l-3.34375 0l4.265625 -15.703117zm22.688416 16.312492q-3.046875 0 -4.921875 -2.5q-1.859375 -2.515625 -1.859375 -6.1093674q0 -3.046875 1.109375 -6.0q1.109375 -2.96875 3.34375 -5.296875q3.640625 -3.796875 7.59375 -3.796875q2.03125 0 3.3125 0.984375q1.296875 0.984375 1.296875 3.265625q0 3.953125 -5.109375 6.328125q-1.71875 0.8125 -3.453125 1.140625q-1.71875 0.328125 -3.75 0.484375q-0.25 1.0625 -0.484375 2.765625q-0.21875 1.6875 -0.21875 3.15625q0 2.2343674 0.984375 3.2968674q0.984375 1.0625 2.40625 1.0625q3.140625 0 5.109375 -2.53125q1.984375 -2.5312424 2.796875 -4.7187424l1.0625 0.359375q-1.21875 3.4531174 -3.703125 5.7812424q-2.46875 2.328125 -5.515625 2.328125zm-2.125 -12.765617q3.703125 -0.25 5.921875 -1.265625q1.625 -0.71875 2.640625 -2.234375q1.015625 -1.515625 1.015625 -3.484375q0 -1.46875 -0.609375 -2.109375q-0.609375 -0.640625 -1.53125 -0.640625q-2.0625 0 -3.84375 1.90625q-1.765625 1.90625 -2.578125 4.125q-0.265625 0.8125 -0.5625 1.9375q-0.296875 1.109375 -0.453125 1.765625zm21.269104 12.765617q-2.6875 0 -4.1875 -1.890625q-1.484375 -1.90625 -1.484375 -5.0468674q0 -3.09375 0.90625 -5.953125q0.921875 -2.859375 2.078125 -4.6875q1.78125 -2.78125 4.125 -4.453125q2.359375 -1.671875 4.796875 -1.671875q1.578125 0 2.84375 1.09375q1.265625 1.078125 1.8125 3.359375l0.203125 0.09375l1.125 -3.9375l3.34375 0l-4.3125 15.953125q-0.703125 2.8281174 -0.703125 4.0468674q0 0.71875 0.203125 1.046875q0.203125 0.328125 0.703125 0.328125q1.359375 0 2.828125 -2.25q1.484375 -2.2656174 2.6875 -5.8593674l1.015625 0.296875q-1.3125 3.90625 -3.21875 6.7187424q-1.890625 2.8125 -4.21875 2.8125q-2.9375 0 -2.9375 -5.171875q0 -0.6562424 0.015625 -0.9843674q0.03125 -0.328125 0.03125 -0.375l-0.15625 -0.109375q-1.0625 2.2812424 -3.125 4.4687424q-2.046875 2.171875 -4.375 2.171875zm0.3125 -1.21875q1.875 0 3.59375 -1.890625q1.71875 -1.90625 3.1875 -5.0937424q1.015625 -2.28125 1.765625 -5.0625q0.765625 -2.796875 0.765625 -4.5625q0 -2.234375 -0.90625 -3.453125q-0.90625 -1.21875 -2.484375 -1.21875q-1.5625 0 -2.984375 1.734375q-1.421875 1.71875 -2.4375 3.953125q-1.265625 2.828125 -2.046875 6.03125q-0.78125 3.1875 -0.78125 5.8593674q0 1.53125 0.53125 2.625q0.53125 1.078125 1.796875 1.078125zm27.401794 1.21875q-2.328125 0 -3.921875 -0.859375q-1.59375 -0.859375 -2.40625 -2.21875q-0.8125 -1.375 -0.8125 -2.9062424q0 -1.15625 0.703125 -2.25q0.71875 -1.09375 2.078125 -1.09375q0.765625 0 1.3125 0.53125q0.5625 0.53125 0.5625 1.453125q0 1.265625 -1.0625 1.625q-0.609375 0.203125 -0.96875 0.5624924q-0.34375 0.34375 -0.34375 1.15625q0 1.46875 1.6875 2.125q1.703125 0.65625 3.46875 0.65625q2.6875 0 4.109375 -1.21875q1.421875 -1.21875 1.421875 -3.0312424q0 -1.015625 -0.40625 -1.90625q-0.40625 -0.890625 -1.21875 -1.484375l-4.203125 -3.203125q-2.375 -1.515625 -2.375 -4.609375q0 -2.21875 1.125 -3.8125q1.140625 -1.609375 2.9375 -2.40625q1.8125 -0.8125 3.734375 -0.8125q2.03125 0 3.46875 0.984375q1.4375 0.984375 2.171875 2.328125q0.734375 1.34375 0.734375 2.359375q0 1.15625 -0.65625 2.03125q-0.65625 0.859375 -1.96875 0.859375q-0.765625 0 -1.40625 -0.53125q-0.625 -0.546875 -0.625 -1.34375q0 -0.96875 0.65625 -1.53125q0.203125 -0.203125 0.71875 -0.5q0.59375 -0.359375 0.59375 -0.8125q0 -1.171875 -1.296875 -1.90625q-1.28125 -0.734375 -2.703125 -0.734375q-2.015625 0 -3.546875 1.171875q-1.515625 1.171875 -1.515625 3.25q0 1.265625 0.328125 1.765625q0.328125 0.5 1.140625 1.0625l4.71875 3.546875q1.109375 0.8125 1.765625 1.75q0.65625 0.9375 0.65625 2.453125q0 1.875 -1.046875 3.5937424q-1.03125 1.71875 -3.0 2.8125q-1.96875 1.09375 -4.609375 1.09375zm22.338135 0q-3.046875 0 -4.921875 -2.5q-1.859375 -2.515625 -1.859375 -6.1093674q0 -3.046875 1.109375 -6.0q1.109375 -2.96875 3.34375 -5.296875q3.640625 -3.796875 7.59375 -3.796875q2.03125 0 3.3125 0.984375q1.296875 0.984375 1.296875 3.265625q0 3.953125 -5.109375 6.328125q-1.71875 0.8125 -3.453125 1.140625q-1.71875 0.328125 -3.75 0.484375q-0.25 1.0625 -0.484375 2.765625q-0.21875 1.6875 -0.21875 3.15625q0 2.2343674 0.984375 3.2968674q0.984375 1.0625 2.40625 1.0625q3.140625 0 5.109375 -2.53125q1.984375 -2.5312424 2.796875 -4.7187424l1.0625 0.359375q-1.21875 3.4531174 -3.703125 5.7812424q-2.46875 2.328125 -5.515625 2.328125zm-2.125 -12.765617q3.703125 -0.25 5.921875 -1.265625q1.625 -0.71875 2.640625 -2.234375q1.015625 -1.515625 1.015625 -3.484375q0 -1.46875 -0.609375 -2.109375q-0.609375 -0.640625 -1.53125 -0.640625q-2.0625 0 -3.84375 1.90625q-1.765625 1.90625 -2.578125 4.125q-0.265625 0.8125 -0.5625 1.9375q-0.296875 1.109375 -0.453125 1.765625zm21.831604 12.765617q-2.328125 0 -3.921875 -0.859375q-1.59375 -0.859375 -2.40625 -2.21875q-0.8125 -1.375 -0.8125 -2.9062424q0 -1.15625 0.703125 -2.25q0.71875 -1.09375 2.078125 -1.09375q0.765625 0 1.3125 0.53125q0.5625 0.53125 0.5625 1.453125q0 1.265625 -1.0625 1.625q-0.609375 0.203125 -0.96875 0.5624924q-0.34375 0.34375 -0.34375 1.15625q0 1.46875 1.6875 2.125q1.703125 0.65625 3.46875 0.65625q2.6875 0 4.109375 -1.21875q1.421875 -1.21875 1.421875 -3.0312424q0 -1.015625 -0.40625 -1.90625q-0.40625 -0.890625 -1.21875 -1.484375l-4.203125 -3.203125q-2.375 -1.515625 -2.375 -4.609375q0 -2.21875 1.125 -3.8125q1.140625 -1.609375 2.9375 -2.40625q1.8125 -0.8125 3.734375 -0.8125q2.03125 0 3.46875 0.984375q1.4375 0.984375 2.171875 2.328125q0.734375 1.34375 0.734375 2.359375q0 1.15625 -0.65625 2.03125q-0.65625 0.859375 -1.96875 0.859375q-0.765625 0 -1.40625 -0.53125q-0.625 -0.546875 -0.625 -1.34375q0 -0.96875 0.65625 -1.53125q0.203125 -0.203125 0.71875 -0.5q0.59375 -0.359375 0.59375 -0.8125q0 -1.171875 -1.296875 -1.90625q-1.28125 -0.734375 -2.703125 -0.734375q-2.015625 0 -3.546875 1.171875q-1.515625 1.171875 -1.515625 3.25q0 1.265625 0.328125 1.765625q0.328125 0.5 1.140625 1.0625l4.71875 3.546875q1.109375 0.8125 1.765625 1.75q0.65625 0.9375 0.65625 2.453125q0 1.875 -1.046875 3.5937424q-1.03125 1.71875 -3.0 2.8125q-1.96875 1.09375 -4.609375 1.09375z" fill-rule="nonzero"/><path fill="#000000" d="m80.00597 194.16748q-2.6875 0 -4.640625 -1.3125q-1.953125 -1.328125 -1.953125 -4.671875q0 -2.578125 1.3125 -4.046875q1.328125 -1.46875 3.0625 -2.09375q1.75 -0.640625 4.234375 -1.09375l4.671875 -0.859375l0 -4.3125q0 -4.703125 -4.71875 -4.703125q-1.71875 0 -3.140625 0.890625q-1.421875 0.875 -1.421875 1.984375q0 0.515625 0.15625 0.765625q0.09375 0.15625 0.328125 0.3125q0.234375 0.140625 0.4375 0.1875q0.90625 0.265625 1.390625 0.71875q0.484375 0.453125 0.484375 1.265625q0 1.0625 -0.640625 1.515625q-0.625 0.453125 -1.59375 0.453125q-1.109375 0 -2.03125 -0.859375q-0.90625 -0.859375 -0.90625 -2.484375q0 -1.875 1.03125 -3.234375q1.046875 -1.375 2.6875 -2.046875q1.65625 -0.6875 3.375 -0.6875q3.34375 0 5.765625 1.75q2.4375 1.734375 2.4375 5.4375l0 12.46875q0 2.53125 1.5625 2.53125q1.28125 0 1.828125 -1.46875q0.5625 -1.46875 0.5625 -3.59375l0.90625 0q0 3.03125 -0.890625 5.109375q-0.875 2.078125 -3.15625 2.078125q-2.1875 0 -3.28125 -1.28125q-1.078125 -1.296875 -1.171875 -3.578125l-0.265625 -0.109375q-0.75 1.78125 -2.453125 3.375q-1.703125 1.59375 -3.96875 1.59375zm0.796875 -1.828125q2.28125 0 3.578125 -1.796875q1.296875 -1.796875 2.3125 -4.578125l0 -4.8125l-4.421875 0.953125q-2.421875 0.515625 -3.515625 2.015625q-1.09375 1.484375 -1.09375 4.21875q0 2.328125 0.96875 3.171875q0.96875 0.828125 2.171875 0.828125zm18.35234 -8.203125l0.90625 0l1.875 4.0q2.734375 4.8125 7.09375 4.8125q2.328125 0 3.46875 -1.140625q1.140625 -1.140625 1.140625 -3.109375q0 -1.171875 -0.890625 -2.109375q-0.890625 -0.9375 -2.359375 -1.484375l-5.765625 -2.34375q-2.734375 -1.109375 -4.3125 -2.671875q-1.5625 -1.578125 -1.5625 -4.0q0 -3.09375 1.921875 -4.65625q1.921875 -1.578125 4.859375 -1.578125q1.46875 0 2.75 0.484375q1.296875 0.46875 2.15625 1.125q1.125 0.8125 1.671875 0.8125q0.671875 0 0.8125 -0.90625l0.109375 -1.015625l0.90625 0l0 7.703125l-0.90625 0l-0.71875 -1.78125q-1.15625 -2.875 -3.0625 -4.03125q-1.890625 -1.171875 -3.765625 -1.171875q-1.875 0 -3.09375 0.9375q-1.21875 0.9375 -1.21875 2.59375q0 1.484375 1.1875 2.421875q1.203125 0.921875 3.265625 1.796875l5.484375 2.265625q2.421875 1.015625 3.640625 2.46875q1.21875 1.4375 1.21875 4.015625q0 3.40625 -1.9375 5.0q-1.921875 1.59375 -5.0625 1.59375q-1.859375 0 -3.03125 -0.515625q-1.171875 -0.5 -2.28125 -1.359375q-0.453125 -0.359375 -0.90625 -0.609375q-0.453125 -0.25 -0.8125 -0.25q-1.21875 0 -1.671875 1.71875l-0.203125 1.015625l-0.90625 0l0 -10.03125zm36.262375 7.796875l3.640625 0q1.375 0 1.375 -1.359375l0 -30.09375q0 -0.703125 -0.328125 -1.03125q-0.328125 -0.34375 -1.046875 -0.34375l-3.640625 0l0 -1.609375l16.515625 0q2.984375 0 5.59375 1.109375q2.609375 1.109375 4.171875 3.0625q1.578125 1.953125 1.578125 4.4375q0 3.4375 -2.328125 5.671875q-2.328125 2.234375 -5.421875 2.890625l0 0.203125q2.078125 0.140625 4.125 1.28125q2.0625 1.140625 3.390625 3.125q1.34375 1.96875 1.34375 4.453125q0 3.09375 -1.625 5.328125q-1.609375 2.21875 -4.328125 3.359375q-2.703125 1.140625 -5.9375 1.140625l-17.078125 0l0 -1.625zm16.3125 -18.03125q4.109375 0 5.59375 -2.09375q1.5 -2.109375 1.5 -5.703125q0 -3.046875 -1.9375 -5.015625q-1.921875 -1.984375 -4.75 -1.984375l-5.671875 0q-0.71875 0 -1.046875 0.34375q-0.328125 0.328125 -0.328125 1.03125l0 13.421875l6.640625 0zm0.203125 18.03125q3.09375 0 5.09375 -1.84375q2.0 -1.84375 2.0 -6.359375q0 -4.5 -2.0 -6.34375q-2.0 -1.859375 -5.09375 -1.859375l-6.84375 0l0 15.046875q0 1.359375 1.375 1.359375l5.46875 0zm27.859116 2.234375q-2.78125 0 -5.125 -1.640625q-2.328125 -1.65625 -3.671875 -4.4375q-1.328125 -2.78125 -1.328125 -6.078125q0 -3.296875 1.328125 -6.078125q1.34375 -2.796875 3.671875 -4.4375q2.34375 -1.640625 5.125 -1.640625q2.78125 0 5.109375 1.640625q2.34375 1.640625 3.671875 4.4375q1.34375 2.78125 1.34375 6.078125q0 3.296875 -1.34375 6.078125q-1.328125 2.78125 -3.671875 4.4375q-2.328125 1.640625 -5.109375 1.640625zm0 -1.21875q3.046875 0 4.359375 -2.859375q1.3125 -2.859375 1.3125 -8.078125q0 -5.21875 -1.3125 -8.078125q-1.3125 -2.859375 -4.359375 -2.859375q-3.046875 0 -4.359375 2.859375q-1.3125 2.859375 -1.3125 8.078125q0 5.21875 1.3125 8.078125q1.3125 2.859375 4.359375 2.859375zm23.906784 1.21875q-2.375 0 -4.4375 -1.59375q-2.046875 -1.59375 -3.265625 -4.375q-1.203125 -2.796875 -1.203125 -6.1875q0 -3.390625 1.203125 -6.171875q1.21875 -2.796875 3.265625 -4.390625q2.0625 -1.59375 4.4375 -1.59375q1.984375 0 3.546875 1.296875q1.578125 1.28125 2.328125 3.109375l0.203125 -0.046875l0 -14.390625q0 -0.609375 -0.25 -0.859375q-0.25 -0.25 -0.859375 -0.25l-3.640625 0l0 -1.21875l8.40625 0l0 33.734375q0 0.609375 0.25 0.859375q0.25 0.25 0.859375 0.25l2.640625 0l0 1.21875l-7.40625 0l0 -3.75l-0.203125 -0.046875q-0.953125 2.03125 -2.453125 3.21875q-1.5 1.1875 -3.421875 1.1875zm0.5625 -1.421875q1.515625 0 2.78125 -1.109375q1.265625 -1.125 2.0 -3.0625q0.734375 -1.953125 0.734375 -4.234375l0 -4.65625q0 -2.28125 -0.734375 -4.234375q-0.734375 -1.953125 -2.0 -3.0625q-1.265625 -1.109375 -2.78125 -1.109375q-2.484375 0 -3.75 2.78125q-1.265625 2.78125 -1.265625 7.953125q0 5.171875 1.265625 7.953125q1.265625 2.78125 3.75 2.78125zm21.317596 12.875q-1.96875 0 -3.234375 -1.265625q-0.65625 -0.609375 -1.046875 -1.453125q-0.375 -0.828125 -0.375 -1.75q0 -0.65625 0.21875 -1.234375q0.234375 -0.578125 0.59375 -0.890625q0.765625 -0.75 1.71875 -0.75q1.171875 0 1.75 0.734375q0.578125 0.734375 0.578125 1.84375q0 0.609375 -0.40625 1.421875q-0.296875 0.5 -0.296875 0.953125q0 0.765625 1.015625 0.765625q1.515625 0 2.546875 -1.203125q1.046875 -1.1875 1.546875 -2.796875l1.375 -4.40625l-7.1875 -20.921875q-0.609375 -1.625 -1.171875 -2.3125q-0.5625 -0.6875 -1.828125 -0.6875l-1.671875 0l0 -1.203125l11.453125 0l0 1.203125l-1.625 0q-0.609375 0 -1.109375 0.34375q-0.5 0.328125 -0.5 0.875q0 0.859375 0.296875 1.671875l5.265625 15.5625l4.203125 -13.890625q0.203125 -0.609375 0.375 -1.359375q0.1875 -0.765625 0.1875 -1.21875q0 -0.859375 -0.515625 -1.421875q-0.5 -0.5625 -1.3125 -0.5625l-1.21875 0l0 -1.203125l9.21875 0l0 1.203125l-1.15625 0q-1.109375 0 -2.046875 0.734375q-0.9375 0.734375 -1.453125 2.265625l-8.15625 25.9375q-0.546875 1.875 -2.125 3.4375q-1.5625 1.578125 -3.90625 1.578125zm44.734756 -43.578125l-0.296875 0l0 25.84375q0 1.875 0.875 2.96875q0.890625 1.078125 2.3125 1.078125l1.828125 0l0 1.625l-12.0625 0l0 -1.625l1.828125 0q1.40625 0 2.296875 -1.078125q0.890625 -1.09375 0.890625 -2.96875l0 -27.40625q0 -0.703125 -0.328125 -1.03125q-0.328125 -0.34375 -1.046875 -0.34375l-3.640625 0l0 -1.609375l10.734375 0l8.265625 27.90625l7.703125 -27.90625l10.484375 0l0 1.609375l-3.65625 0q-0.703125 0 -1.03125 0.34375q-0.328125 0.328125 -0.328125 1.03125l0 30.09375q0 1.359375 1.359375 1.359375l3.65625 0l0 1.625l-14.703125 0l0 -1.625l3.65625 0q1.359375 0 1.359375 -1.359375l0 -29.890625l-9.265625 33.484375l-1.21875 0l-9.671875 -32.125zm40.88748 32.125q-2.6875 0 -4.640625 -1.3125q-1.953125 -1.328125 -1.953125 -4.671875q0 -2.578125 1.3125 -4.046875q1.328125 -1.46875 3.0625 -2.09375q1.75 -0.640625 4.234375 -1.09375l4.671875 -0.859375l0 -4.3125q0 -4.703125 -4.71875 -4.703125q-1.71875 0 -3.140625 0.890625q-1.421875 0.875 -1.421875 1.984375q0 0.515625 0.15625 0.765625q0.09375 0.15625 0.328125 0.3125q0.234375 0.140625 0.4375 0.1875q0.90625 0.265625 1.390625 0.71875q0.484375 0.453125 0.484375 1.265625q0 1.0625 -0.640625 1.515625q-0.625 0.453125 -1.59375 0.453125q-1.109375 0 -2.03125 -0.859375q-0.90625 -0.859375 -0.90625 -2.484375q0 -1.875 1.03125 -3.234375q1.046875 -1.375 2.6875 -2.046875q1.65625 -0.6875 3.375 -0.6875q3.34375 0 5.765625 1.75q2.4375 1.734375 2.4375 5.4375l0 12.46875q0 2.53125 1.5625 2.53125q1.28125 0 1.828125 -1.46875q0.5625 -1.46875 0.5625 -3.59375l0.90625 0q0 3.03125 -0.890625 5.109375q-0.875 2.078125 -3.15625 2.078125q-2.1875 0 -3.28125 -1.28125q-1.078125 -1.296875 -1.171875 -3.578125l-0.265625 -0.109375q-0.75 1.78125 -2.453125 3.375q-1.703125 1.59375 -3.96875 1.59375zm0.796875 -1.828125q2.28125 0 3.578125 -1.796875q1.296875 -1.796875 2.3125 -4.578125l0 -4.8125l-4.421875 0.953125q-2.421875 0.515625 -3.515625 2.015625q-1.09375 1.484375 -1.09375 4.21875q0 2.328125 0.96875 3.171875q0.96875 0.828125 2.171875 0.828125zm18.352325 -8.203125l0.90625 0l1.875 4.0q2.734375 4.8125 7.09375 4.8125q2.328125 0 3.46875 -1.140625q1.140625 -1.140625 1.140625 -3.109375q0 -1.171875 -0.890625 -2.109375q-0.890625 -0.9375 -2.359375 -1.484375l-5.765625 -2.34375q-2.734375 -1.109375 -4.3125 -2.671875q-1.5625 -1.578125 -1.5625 -4.0q0 -3.09375 1.921875 -4.65625q1.921875 -1.578125 4.859375 -1.578125q1.46875 0 2.75 0.484375q1.296875 0.46875 2.15625 1.125q1.125 0.8125 1.671875 0.8125q0.671875 0 0.8125 -0.90625l0.109375 -1.015625l0.90625 0l0 7.703125l-0.90625 0l-0.71875 -1.78125q-1.15625 -2.875 -3.0625 -4.03125q-1.890625 -1.171875 -3.765625 -1.171875q-1.875 0 -3.09375 0.9375q-1.21875 0.9375 -1.21875 2.59375q0 1.484375 1.1875 2.421875q1.203125 0.921875 3.265625 1.796875l5.484375 2.265625q2.421875 1.015625 3.640625 2.46875q1.21875 1.4375 1.21875 4.015625q0 3.40625 -1.9375 5.0q-1.921875 1.59375 -5.0625 1.59375q-1.859375 0 -3.03125 -0.515625q-1.171875 -0.5 -2.28125 -1.359375q-0.453125 -0.359375 -0.90625 -0.609375q-0.453125 -0.25 -0.8125 -0.25q-1.21875 0 -1.671875 1.71875l-0.203125 1.015625l-0.90625 0l0 -10.03125zm21.984863 0l0.90625 0l1.875 4.0q2.734375 4.8125 7.09375 4.8125q2.328125 0 3.46875 -1.140625q1.140625 -1.140625 1.140625 -3.109375q0 -1.171875 -0.890625 -2.109375q-0.890625 -0.9375 -2.359375 -1.484375l-5.765625 -2.34375q-2.734375 -1.109375 -4.3125 -2.671875q-1.5625 -1.578125 -1.5625 -4.0q0 -3.09375 1.921875 -4.65625q1.921875 -1.578125 4.859375 -1.578125q1.46875 0 2.75 0.484375q1.296875 0.46875 2.15625 1.125q1.125 0.8125 1.671875 0.8125q0.671875 0 0.8125 -0.90625l0.109375 -1.015625l0.90625 0l0 7.703125l-0.90625 0l-0.71875 -1.78125q-1.15625 -2.875 -3.0625 -4.03125q-1.890625 -1.171875 -3.765625 -1.171875q-1.875 0 -3.09375 0.9375q-1.21875 0.9375 -1.21875 2.59375q0 1.484375 1.1875 2.421875q1.203125 0.921875 3.265625 1.796875l5.484375 2.265625q2.421875 1.015625 3.640625 2.46875q1.21875 1.4375 1.21875 4.015625q0 3.40625 -1.9375 5.0q-1.921875 1.59375 -5.0625 1.59375q-1.859375 0 -3.03125 -0.515625q-1.171875 -0.5 -2.28125 -1.359375q-0.453125 -0.359375 -0.90625 -0.609375q-0.453125 -0.25 -0.8125 -0.25q-1.21875 0 -1.671875 1.71875l-0.203125 1.015625l-0.90625 0l0 -10.03125zm36.26239 7.796875l3.640625 0q1.375 0 1.375 -1.359375l0 -30.09375q0 -0.703125 -0.328125 -1.03125q-0.328125 -0.34375 -1.046875 -0.34375l-3.640625 0l0 -1.609375l14.6875 0l0 1.609375l-3.640625 0q-0.71875 0 -1.046875 0.34375q-0.328125 0.328125 -0.328125 1.03125l0 30.09375q0 1.359375 1.375 1.359375l3.640625 0l0 1.625l-14.6875 0l0 -1.625zm18.739838 0.40625l2.125 0q0.609375 0 0.859375 -0.25q0.265625 -0.25 0.265625 -0.859375l0 -18.4375q0 -0.609375 -0.265625 -0.859375q-0.25 -0.265625 -0.859375 -0.265625l-2.125 0l0 -1.203125l6.890625 0l0 4.140625l0.203125 0.0625q1.171875 -2.4375 2.890625 -3.625q1.71875 -1.1875 3.796875 -1.1875q3.703125 0 5.234375 2.28125q1.546875 2.28125 1.546875 5.46875l0 13.625q0 0.609375 0.25 0.859375q0.265625 0.25 0.875 0.25l2.125 0l0 1.21875l-10.125 0l0 -1.21875l2.125 0q0.609375 0 0.859375 -0.25q0.25 -0.25 0.25 -0.859375l0 -14.59375q0 -2.21875 -0.890625 -3.78125q-0.875 -1.578125 -3.015625 -1.578125q-1.765625 0 -3.15625 1.234375q-1.390625 1.234375 -2.1875 3.390625q-0.78125 2.15625 -0.78125 4.796875l0 10.53125q0 0.609375 0.25 0.859375q0.265625 0.25 0.859375 0.25l2.140625 0l0 1.21875l-10.140625 0l0 -1.21875zm36.776276 1.828125q-2.375 0 -4.4375 -1.59375q-2.046875 -1.59375 -3.265625 -4.375q-1.203125 -2.796875 -1.203125 -6.1875q0 -3.390625 1.203125 -6.171875q1.21875 -2.796875 3.265625 -4.390625q2.0625 -1.59375 4.4375 -1.59375q1.984375 0 3.546875 1.296875q1.578125 1.28125 2.328125 3.109375l0.203125 -0.046875l0 -14.390625q0 -0.609375 -0.25 -0.859375q-0.25 -0.25 -0.859375 -0.25l-3.640625 0l0 -1.21875l8.40625 0l0 33.734375q0 0.609375 0.25 0.859375q0.25 0.25 0.859375 0.25l2.640625 0l0 1.21875l-7.40625 0l0 -3.75l-0.203125 -0.046875q-0.953125 2.03125 -2.453125 3.21875q-1.5 1.1875 -3.421875 1.1875zm0.5625 -1.421875q1.515625 0 2.78125 -1.109375q1.265625 -1.125 2.0 -3.0625q0.734375 -1.953125 0.734375 -4.234375l0 -4.65625q0 -2.28125 -0.734375 -4.234375q-0.734375 -1.953125 -2.0 -3.0625q-1.265625 -1.109375 -2.78125 -1.109375q-2.484375 0 -3.75 2.78125q-1.265625 2.78125 -1.265625 7.953125q0 5.171875 1.265625 7.953125q1.265625 2.78125 3.75 2.78125zm27.395721 1.421875q-4.703125 0 -7.5625 -3.1875q-2.859375 -3.203125 -2.859375 -8.875q0 -3.234375 1.265625 -6.046875q1.265625 -2.8125 3.515625 -4.5q2.25 -1.703125 5.046875 -1.703125q3.078125 0 5.046875 1.671875q1.984375 1.671875 2.875 4.234375q0.890625 2.546875 0.890625 5.234375q0 0.5625 -0.359375 0.734375q-0.359375 0.171875 -1.21875 0.171875l-12.609375 0q0 5.078125 1.4375 8.0625q1.453125 2.984375 4.734375 2.984375q2.34375 0 4.390625 -1.765625q2.046875 -1.78125 2.609375 -5.53125l1.21875 0q-0.3125 3.703125 -2.5625 6.109375q-2.25 2.40625 -5.859375 2.40625zm3.859375 -13.46875q0 -4.0625 -1.0625 -6.84375q-1.0625 -2.78125 -3.5 -2.78125q-2.578125 0 -3.921875 2.8125q-1.34375 2.796875 -1.34375 6.8125l9.828125 0zm8.30191 11.640625l1.328125 0q1.203125 0 2.015625 -0.734375q0.8125 -0.734375 1.671875 -2.046875l4.609375 -6.890625l-6.171875 -9.875q-0.40625 -0.609375 -0.796875 -0.859375q-0.375 -0.265625 -1.234375 -0.265625l-1.21875 0l0 -1.203125l10.03125 0l0 1.203125l-1.21875 0q-1.015625 0 -1.015625 1.015625q0 0.5625 0.3125 1.0625l3.5 5.671875l3.34375 -4.953125q0.453125 -0.65625 0.453125 -1.625q0 -0.5625 -0.390625 -0.859375q-0.375 -0.3125 -0.828125 -0.3125l-1.21875 0l0 -1.203125l8.8125 0l0 1.203125l-1.265625 0q-1.0625 0 -1.875 0.515625q-0.8125 0.5 -1.609375 1.71875l-4.625 6.796875l6.4375 10.328125q0.453125 0.703125 0.90625 1.015625q0.46875 0.296875 1.578125 0.296875l1.171875 0l0 1.21875l-10.546875 0l0 -1.21875l1.53125 0q0.546875 0 0.84375 -0.21875q0.3125 -0.234375 0.3125 -0.640625q0 -0.25 -0.109375 -0.53125q-0.09375 -0.28125 -0.25 -0.53125l-4.046875 -6.484375l-3.4375 5.109375q-0.765625 1.21875 -0.765625 1.78125q0 1.515625 1.265625 1.515625l0.90625 0l0 1.21875l-8.40625 0l0 -1.21875z" fill-rule="nonzero"/><path fill="#000000" d="m536.618 163.8706q-1.109375 0 -1.875 -0.75q-0.765625 -0.765625 -0.765625 -1.875q0 -1.171875 0.765625 -1.90625q0.765625 -0.734375 1.875 -0.734375q1.15625 0 1.890625 0.734375q0.734375 0.734375 0.734375 1.90625q0 1.109375 -0.734375 1.875q-0.734375 0.75 -1.890625 0.75zm-5.421875 30.296875q-1.375 0 -2.3125 -1.21875q-0.9375 -1.21875 -0.9375 -3.640625q0 -1.125 0.296875 -2.65625q0.3125 -1.546875 0.71875 -2.515625l3.25 -7.546875q0.25 -0.5625 0.53125 -1.46875q0.28125 -0.90625 0.28125 -1.515625q0 -0.71875 -0.28125 -1.171875q-0.28125 -0.453125 -0.84375 -0.453125q-1.71875 0 -3.3125 2.640625q-1.59375 2.625 -2.703125 5.671875l-1.015625 -0.3125q1.359375 -4.046875 3.328125 -6.78125q1.984375 -2.734375 4.265625 -2.734375q1.3125 0 2.25 1.265625q0.9375 1.265625 0.9375 3.59375q0 1.109375 -0.3125 2.703125q-0.296875 1.59375 -0.703125 2.46875l-3.234375 7.546875q-0.25 0.546875 -0.53125 1.46875q-0.28125 0.90625 -0.28125 1.515625q0 0.703125 0.296875 1.171875q0.3125 0.453125 0.875 0.453125q1.71875 0 3.28125 -2.640625q1.578125 -2.640625 2.6875 -5.671875l1.015625 0.296875q-1.375 4.109375 -3.328125 6.828125q-1.9375 2.703125 -4.21875 2.703125zm28.98169 0q-1.375 0 -2.3125 -1.21875q-0.9375 -1.21875 -0.9375 -3.640625q0 -1.125 0.296875 -2.65625q0.3125 -1.546875 0.71875 -2.515625l3.234375 -7.546875q0.265625 -0.5625 0.53125 -1.46875q0.28125 -0.90625 0.28125 -1.515625q0 -0.71875 -0.28125 -1.171875q-0.265625 -0.453125 -0.828125 -0.453125q-3.046875 0 -6.4375 5.71875q-2.015625 3.453125 -3.625 6.84375q-1.59375 3.390625 -2.25 5.671875l-1.015625 3.34375l-3.34375 0l4.265625 -15.703125q0.75 -3.046875 0.75 -4.3125q0 -0.703125 -0.203125 -1.03125q-0.203125 -0.328125 -0.75 -0.328125q-1.421875 0 -2.875 2.359375q-1.4375 2.34375 -2.59375 5.75l-1.015625 -0.3125q3.34375 -9.515625 7.4375 -9.515625q2.9375 0 2.9375 5.15625q0 1.015625 -0.484375 3.125q-0.46875 2.09375 -0.828125 3.015625l0.15625 0.140625l0.703125 -1.265625q2.234375 -4.296875 4.53125 -7.234375q2.3125 -2.9375 5.09375 -2.9375q1.515625 0 2.40625 1.25q0.890625 1.234375 0.890625 3.609375q0 1.109375 -0.3125 2.703125q-0.296875 1.59375 -0.703125 2.46875l-3.234375 7.546875q-0.265625 0.546875 -0.546875 1.46875q-0.265625 0.90625 -0.265625 1.515625q0 0.703125 0.296875 1.171875q0.3125 0.453125 0.859375 0.453125q1.71875 0 3.28125 -2.640625q1.578125 -2.640625 2.703125 -5.671875l1.015625 0.296875q-1.375 4.109375 -3.328125 6.828125q-1.953125 2.703125 -4.21875 2.703125zm18.178528 0q-3.046875 0 -4.921875 -2.5q-1.859375 -2.515625 -1.859375 -6.109375q0 -3.046875 1.109375 -6.0q1.109375 -2.96875 3.34375 -5.296875q1.765625 -1.875 3.5625 -2.828125q1.8125 -0.96875 4.03125 -0.96875q1.921875 0 3.390625 1.21875q1.46875 1.203125 1.46875 3.84375q0 1.515625 -0.84375 2.53125q-0.828125 1.015625 -2.03125 1.015625q-0.96875 0 -1.484375 -0.578125q-0.5 -0.59375 -0.5 -1.34375q0 -1.46875 1.625 -2.640625q0.5625 -0.453125 0.5625 -1.3125q0 -0.453125 -0.5625 -0.984375q-0.5625 -0.546875 -1.828125 -0.546875q-3.953125 0 -6.890625 8.828125q-0.546875 1.671875 -0.9375 4.1875q-0.375 2.5 -0.375 3.90625q0 2.234375 0.984375 3.296875q0.984375 1.0625 2.40625 1.0625q3.140625 0 5.109375 -2.53125q1.984375 -2.53125 2.796875 -4.71875l1.0625 0.359375q-1.21875 3.453125 -3.703125 5.78125q-2.46875 2.328125 -5.515625 2.328125zm20.572083 -16.3125q0.75 -3.046875 0.75 -4.3125q0 -0.703125 -0.203125 -1.03125q-0.203125 -0.328125 -0.75 -0.328125q-1.421875 0 -2.890625 2.40625q-1.46875 2.40625 -2.578125 5.703125l-1.015625 -0.3125q3.34375 -9.515625 7.4375 -9.515625q2.9375 0 2.9375 5.15625q0 0.65625 -0.15625 1.546875q-0.140625 0.890625 -0.296875 1.390625l0.359375 0.109375q1.71875 -3.59375 3.4375 -5.890625q1.734375 -2.3125 3.65625 -2.3125q1.671875 0 2.53125 1.046875q0.859375 1.03125 0.859375 2.4375q0 1.328125 -0.859375 2.375q-0.859375 1.03125 -2.28125 1.03125q-0.859375 0 -1.421875 -0.609375q-0.5625 -0.609375 -0.5625 -1.53125q0 -0.90625 0.609375 -1.609375q0.515625 -0.515625 0.515625 -0.765625q0 -0.296875 -0.125 -0.453125q-0.125 -0.15625 -0.53125 -0.15625q-1.171875 0 -3.03125 3.171875q-1.84375 3.15625 -3.625 7.5q-1.765625 4.328125 -2.71875 7.515625l-0.96875 3.140625l-3.34375 0l4.265625 -15.703125zm22.688416 16.3125q-3.046875 0 -4.921875 -2.5q-1.859375 -2.515625 -1.859375 -6.109375q0 -3.046875 1.109375 -6.0q1.109375 -2.96875 3.34375 -5.296875q3.640625 -3.796875 7.59375 -3.796875q2.03125 0 3.3125 0.984375q1.296875 0.984375 1.296875 3.265625q0 3.953125 -5.109375 6.328125q-1.71875 0.8125 -3.453125 1.140625q-1.71875 0.328125 -3.75 0.484375q-0.25 1.0625 -0.484375 2.765625q-0.21875 1.6875 -0.21875 3.15625q0 2.234375 0.984375 3.296875q0.984375 1.0625 2.40625 1.0625q3.140625 0 5.109375 -2.53125q1.984375 -2.53125 2.796875 -4.71875l1.0625 0.359375q-1.21875 3.453125 -3.703125 5.78125q-2.46875 2.328125 -5.515625 2.328125zm-2.125 -12.765625q3.703125 -0.25 5.921875 -1.265625q1.625 -0.71875 2.640625 -2.234375q1.015625 -1.515625 1.015625 -3.484375q0 -1.46875 -0.609375 -2.109375q-0.609375 -0.640625 -1.53125 -0.640625q-2.0625 0 -3.84375 1.90625q-1.765625 1.90625 -2.578125 4.125q-0.265625 0.8125 -0.5625 1.9375q-0.296875 1.109375 -0.453125 1.765625zm21.269104 12.765625q-2.6875 0 -4.1875 -1.890625q-1.484375 -1.90625 -1.484375 -5.046875q0 -3.09375 0.90625 -5.953125q0.921875 -2.859375 2.078125 -4.6875q1.78125 -2.78125 4.125 -4.453125q2.359375 -1.671875 4.796875 -1.671875q1.578125 0 2.84375 1.09375q1.265625 1.078125 1.8125 3.359375l0.203125 0.09375l1.125 -3.9375l3.34375 0l-4.3125 15.953125q-0.703125 2.828125 -0.703125 4.046875q0 0.71875 0.203125 1.046875q0.203125 0.328125 0.703125 0.328125q1.359375 0 2.828125 -2.25q1.484375 -2.265625 2.6875 -5.859375l1.015625 0.296875q-1.3125 3.90625 -3.21875 6.71875q-1.890625 2.8125 -4.21875 2.8125q-2.9375 0 -2.9375 -5.171875q0 -0.65625 0.015625 -0.984375q0.03125 -0.328125 0.03125 -0.375l-0.15625 -0.109375q-1.0625 2.28125 -3.125 4.46875q-2.046875 2.171875 -4.375 2.171875zm0.3125 -1.21875q1.875 0 3.59375 -1.890625q1.71875 -1.90625 3.1875 -5.09375q1.015625 -2.28125 1.765625 -5.0625q0.765625 -2.796875 0.765625 -4.5625q0 -2.234375 -0.90625 -3.453125q-0.90625 -1.21875 -2.484375 -1.21875q-1.5625 0 -2.984375 1.734375q-1.421875 1.71875 -2.4375 3.953125q-1.265625 2.828125 -2.046875 6.03125q-0.78125 3.1875 -0.78125 5.859375q0 1.53125 0.53125 2.625q0.53125 1.078125 1.796875 1.078125zm27.401794 1.21875q-2.328125 0 -3.921875 -0.859375q-1.59375 -0.859375 -2.40625 -2.21875q-0.8125 -1.375 -0.8125 -2.90625q0 -1.15625 0.703125 -2.25q0.71875 -1.09375 2.078125 -1.09375q0.765625 0 1.3125 0.53125q0.5625 0.53125 0.5625 1.453125q0 1.265625 -1.0625 1.625q-0.609375 0.203125 -0.96875 0.5625q-0.34375 0.34375 -0.34375 1.15625q0 1.46875 1.6875 2.125q1.703125 0.65625 3.46875 0.65625q2.6875 0 4.109375 -1.21875q1.421875 -1.21875 1.421875 -3.03125q0 -1.015625 -0.40625 -1.90625q-0.40625 -0.890625 -1.21875 -1.484375l-4.203125 -3.203125q-2.375 -1.515625 -2.375 -4.609375q0 -2.21875 1.125 -3.8125q1.140625 -1.609375 2.9375 -2.40625q1.8125 -0.8125 3.734375 -0.8125q2.03125 0 3.46875 0.984375q1.4375 0.984375 2.171875 2.328125q0.734375 1.34375 0.734375 2.359375q0 1.15625 -0.65625 2.03125q-0.65625 0.859375 -1.96875 0.859375q-0.765625 0 -1.40625 -0.53125q-0.625 -0.546875 -0.625 -1.34375q0 -0.96875 0.65625 -1.53125q0.203125 -0.203125 0.71875 -0.5q0.59375 -0.359375 0.59375 -0.8125q0 -1.171875 -1.296875 -1.90625q-1.28125 -0.734375 -2.703125 -0.734375q-2.015625 0 -3.546875 1.171875q-1.515625 1.171875 -1.515625 3.25q0 1.265625 0.328125 1.765625q0.328125 0.5 1.140625 1.0625l4.71875 3.546875q1.109375 0.8125 1.765625 1.75q0.65625 0.9375 0.65625 2.453125q0 1.875 -1.046875 3.59375q-1.03125 1.71875 -3.0 2.8125q-1.96875 1.09375 -4.609375 1.09375zm22.338135 0q-3.046875 0 -4.921875 -2.5q-1.859375 -2.515625 -1.859375 -6.109375q0 -3.046875 1.109375 -6.0q1.109375 -2.96875 3.34375 -5.296875q3.640625 -3.796875 7.59375 -3.796875q2.03125 0 3.3125 0.984375q1.296875 0.984375 1.296875 3.265625q0 3.953125 -5.109375 6.328125q-1.71875 0.8125 -3.453125 1.140625q-1.71875 0.328125 -3.75 0.484375q-0.25 1.0625 -0.484375 2.765625q-0.21875 1.6875 -0.21875 3.15625q0 2.234375 0.984375 3.296875q0.984375 1.0625 2.40625 1.0625q3.140625 0 5.109375 -2.53125q1.984375 -2.53125 2.796875 -4.71875l1.0625 0.359375q-1.21875 3.453125 -3.703125 5.78125q-2.46875 2.328125 -5.515625 2.328125zm-2.125 -12.765625q3.703125 -0.25 5.921875 -1.265625q1.625 -0.71875 2.640625 -2.234375q1.015625 -1.515625 1.015625 -3.484375q0 -1.46875 -0.609375 -2.109375q-0.609375 -0.640625 -1.53125 -0.640625q-2.0625 0 -3.84375 1.90625q-1.765625 1.90625 -2.578125 4.125q-0.265625 0.8125 -0.5625 1.9375q-0.296875 1.109375 -0.453125 1.765625zm21.831604 12.765625q-2.328125 0 -3.921875 -0.859375q-1.59375 -0.859375 -2.40625 -2.21875q-0.8125 -1.375 -0.8125 -2.90625q0 -1.15625 0.703125 -2.25q0.71875 -1.09375 2.078125 -1.09375q0.765625 0 1.3125 0.53125q0.5625 0.53125 0.5625 1.453125q0 1.265625 -1.0625 1.625q-0.609375 0.203125 -0.96875 0.5625q-0.34375 0.34375 -0.34375 1.15625q0 1.46875 1.6875 2.125q1.703125 0.65625 3.46875 0.65625q2.6875 0 4.109375 -1.21875q1.421875 -1.21875 1.421875 -3.03125q0 -1.015625 -0.40625 -1.90625q-0.40625 -0.890625 -1.21875 -1.484375l-4.203125 -3.203125q-2.375 -1.515625 -2.375 -4.609375q0 -2.21875 1.125 -3.8125q1.140625 -1.609375 2.9375 -2.40625q1.8125 -0.8125 3.734375 -0.8125q2.03125 0 3.46875 0.984375q1.4375 0.984375 2.171875 2.328125q0.734375 1.34375 0.734375 2.359375q0 1.15625 -0.65625 2.03125q-0.65625 0.859375 -1.96875 0.859375q-0.765625 0 -1.40625 -0.53125q-0.625 -0.546875 -0.625 -1.34375q0 -0.96875 0.65625 -1.53125q0.203125 -0.203125 0.71875 -0.5q0.59375 -0.359375 0.59375 -0.8125q0 -1.171875 -1.296875 -1.90625q-1.28125 -0.734375 -2.703125 -0.734375q-2.015625 0 -3.546875 1.171875q-1.515625 1.171875 -1.515625 3.25q0 1.265625 0.328125 1.765625q0.328125 0.5 1.140625 1.0625l4.71875 3.546875q1.109375 0.8125 1.765625 1.75q0.65625 0.9375 0.65625 2.453125q0 1.875 -1.046875 3.59375q-1.03125 1.71875 -3.0 2.8125q-1.96875 1.09375 -4.609375 1.09375zm19.10382 0q-1.375 0 -2.265625 -0.890625q-0.875 -0.890625 -0.875 -2.25q0 -1.375 0.875 -2.25q0.890625 -0.890625 2.265625 -0.890625q1.359375 0 2.25 0.890625q0.890625 0.875 0.890625 2.25q0 1.359375 -0.890625 2.25q-0.890625 0.890625 -2.25 0.890625z" fill-rule="nonzero"/><path fill="#000000" d="m742.1825 171.3706q1.875 -1.421875 3.0625 -3.4375q1.1875 -2.03125 1.1875 -4.0625q0 -0.546875 -0.203125 -0.875q-0.203125 -0.34375 -0.703125 -0.640625q-0.359375 -0.203125 -1.71875 -0.203125q-1.125 0 -1.84375 -0.78125q-0.703125 -0.796875 -0.703125 -1.859375q0 -1.359375 0.90625 -2.140625q0.921875 -0.796875 2.03125 -0.796875q1.984375 0 3.09375 1.625q0.96875 1.3125 0.96875 3.59375q0 3.140625 -1.578125 5.953125q-1.5625 2.8125 -3.796875 4.4375l-0.703125 -0.8125zm9.421875 0q1.875 -1.421875 3.0625 -3.4375q1.1875 -2.03125 1.1875 -4.0625q0 -0.546875 -0.203125 -0.875q-0.203125 -0.34375 -0.703125 -0.640625q-0.359375 -0.203125 -1.71875 -0.203125q-1.125 0 -1.84375 -0.78125q-0.703125 -0.796875 -0.703125 -1.859375q0 -1.359375 0.90625 -2.140625q0.921875 -0.796875 2.03125 -0.796875q1.984375 0 3.09375 1.625q0.96875 1.3125 0.96875 3.59375q0 3.140625 -1.578125 5.953125q-1.5625 2.8125 -3.796875 4.4375l-0.703125 -0.8125z" fill-rule="nonzero"/></g></svg>