<svg xmlns="http://www.w3.org/2000/svg" xmlns:xlink="http://www.w3.org/1999/xlink" width="400" height="116pt" viewBox="0 0 299.54 116"><g id="graph0" class="graph" transform="scale(1 1) rotate(0) translate(4 112)"><title>tennis_known_structure</title><polygon fill="#fff" stroke="transparent" points="-4 4 -4 -112 295.541 -112 295.541 4 -4 4"/><g id="node1" class="node"><title>Outlook</title><ellipse cx="39.647" cy="-90" fill="none" stroke="#000" rx="39.794" ry="18"/><text x="39.647" y="-86.3" fill="#000" font-family="Times,serif" font-size="14" text-anchor="middle">Outlook</text></g><g id="node3" class="node"><title>PlayTennis</title><ellipse cx="81.647" cy="-18" fill="none" stroke="#000" rx="50.091" ry="18"/><text x="81.647" y="-14.3" fill="#000" font-family="Times,serif" font-size="14" text-anchor="middle">PlayTennis</text></g><g id="edge1" class="edge"><title>Outlook-&gt;PlayTennis</title><path fill="none" stroke="#000" d="M49.8135,-72.5708C54.6933,-64.2055 60.6477,-53.998 66.0809,-44.6839"/><polygon fill="#000" stroke="#000" points="69.266 -46.17 71.281 -35.769 63.219 -42.643 69.266 -46.17"/></g><g id="node2" class="node"><title>Wind</title><ellipse cx="127.647" cy="-90" fill="none" stroke="#000" rx="30.595" ry="18"/><text x="127.647" y="-86.3" fill="#000" font-family="Times,serif" font-size="14" text-anchor="middle">Wind</text></g><g id="edge2" class="edge"><title>Wind-&gt;PlayTennis</title><path fill="none" stroke="#000" d="M116.7451,-72.937C111.253,-64.3407 104.4743,-53.7304 98.3431,-44.1338"/><polygon fill="#000" stroke="#000" points="101.283 -42.235 92.95 -35.692 95.385 -46.004 101.283 -42.235"/></g><g id="node4" class="node"><title>Temperature</title><ellipse cx="235.647" cy="-90" fill="none" stroke="#000" rx="55.79" ry="18"/><text x="235.647" y="-86.3" fill="#000" font-family="Times,serif" font-size="14" text-anchor="middle">Temperature</text></g><g id="node5" class="node"><title>Humidity</title><ellipse cx="235.647" cy="-18" fill="none" stroke="#000" rx="44.693" ry="18"/><text x="235.647" y="-14.3" fill="#000" font-family="Times,serif" font-size="14" text-anchor="middle">Humidity</text></g><g id="edge3" class="edge"><title>Temperature-&gt;Humidity</title><path fill="none" stroke="#000" d="M235.6465,-71.8314C235.6465,-64.131 235.6465,-54.9743 235.6465,-46.4166"/><polygon fill="#000" stroke="#000" points="239.147 -46.413 235.647 -36.413 232.147 -46.413 239.147 -46.413"/></g></g></svg>