<?xml version="1.0" encoding="UTF-8" standalone="no"?>
<!DOCTYPE svg PUBLIC "-//W3C//DTD SVG 1.1//EN"
 "http://www.w3.org/Graphics/SVG/1.1/DTD/svg11.dtd">
<!-- Generated by graphviz version 2.40.1 (20161225.0304)
 -->
<!-- Title: tennis_learned_structure Pages: 1 -->
<svg width="341pt" height="116pt"
 viewBox="0.00 0.00 340.59 116.00" xmlns="http://www.w3.org/2000/svg" xmlns:xlink="http://www.w3.org/1999/xlink">
<g id="graph0" class="graph" transform="scale(1 1) rotate(0) translate(4 112)">
<title>tennis_learned_structure</title>
<polygon fill="#ffffff" stroke="transparent" points="-4,4 -4,-112 336.5928,-112 336.5928,4 -4,4"/>
<!-- Humidity -->
<g id="node1" class="node">
<title>Humidity</title>
<ellipse fill="none" stroke="#000000" cx="112.0456" cy="-90" rx="44.6926" ry="18"/>
<text text-anchor="middle" x="112.0456" y="-86.3" font-family="Times,serif" font-size="14.00" fill="#000000">Humidity</text>
</g>
<!-- PlayTennis -->
<g id="node2" class="node">
<title>PlayTennis</title>
<ellipse fill="none" stroke="#000000" cx="50.0456" cy="-18" rx="50.0912" ry="18"/>
<text text-anchor="middle" x="50.0456" y="-14.3" font-family="Times,serif" font-size="14.00" fill="#000000">PlayTennis</text>
</g>
<!-- Humidity&#45;&gt;PlayTennis -->
<g id="edge1" class="edge">
<title>Humidity&#45;&gt;PlayTennis</title>
<path fill="none" stroke="#000000" d="M97.3524,-72.937C89.6669,-64.0119 80.112,-52.9159 71.6055,-43.0373"/>
<polygon fill="#000000" stroke="#000000" points="74.2414,-40.7345 65.0639,-35.4407 68.937,-45.3022 74.2414,-40.7345"/>
</g>
<!-- Temperature -->
<g id="node3" class="node">
<title>Temperature</title>
<ellipse fill="none" stroke="#000000" cx="174.0456" cy="-18" rx="55.7903" ry="18"/>
<text text-anchor="middle" x="174.0456" y="-14.3" font-family="Times,serif" font-size="14.00" fill="#000000">Temperature</text>
</g>
<!-- Humidity&#45;&gt;Temperature -->
<g id="edge2" class="edge">
<title>Humidity&#45;&gt;Temperature</title>
<path fill="none" stroke="#000000" d="M126.7387,-72.937C134.4242,-64.0119 143.9791,-52.9159 152.4856,-43.0373"/>
<polygon fill="#000000" stroke="#000000" points="155.1541,-45.3022 159.0272,-35.4407 149.8497,-40.7345 155.1541,-45.3022"/>
</g>
<!-- Outlook -->
<g id="node4" class="node">
<title>Outlook</title>
<ellipse fill="none" stroke="#000000" cx="214.0456" cy="-90" rx="39.7935" ry="18"/>
<text text-anchor="middle" x="214.0456" y="-86.3" font-family="Times,serif" font-size="14.00" fill="#000000">Outlook</text>
</g>
<!-- Wind -->
<g id="node5" class="node">
<title>Wind</title>
<ellipse fill="none" stroke="#000000" cx="302.0456" cy="-90" rx="30.5947" ry="18"/>
<text text-anchor="middle" x="302.0456" y="-86.3" font-family="Times,serif" font-size="14.00" fill="#000000">Wind</text>
</g>
</g>
</svg>
