<svg xmlns="http://www.w3.org/2000/svg" xmlns:xlink="http://www.w3.org/1999/xlink" width="404pt" height="116pt" viewBox="0 0 404.19 116"><g id="graph0" class="graph" transform="scale(1 1) rotate(0) translate(4 112)"><title>tennis_naive_bayes</title><polygon fill="#fff" stroke="transparent" points="-4 4 -4 -112 400.194 -112 400.194 4 -4 4"/><g id="node1" class="node"><title>PlayTennis</title><ellipse cx="212.647" cy="-90" fill="none" stroke="#000" rx="50.091" ry="18"/><text x="212.647" y="-86.3" fill="#000" font-family="Times,serif" font-size="14" text-anchor="middle">PlayTennis</text></g><g id="node2" class="node"><title>Outlook</title><ellipse cx="39.647" cy="-18" fill="none" stroke="#000" rx="39.794" ry="18"/><text x="39.647" y="-14.3" fill="#000" font-family="Times,serif" font-size="14" text-anchor="middle">Outlook</text></g><g id="edge1" class="edge"><title>PlayTennis-&gt;Outlook</title><path fill="none" stroke="#000" d="M179.6993,-76.2879C150.8607,-64.2857 108.9291,-46.8344 78.4689,-34.1573"/><polygon fill="#000" stroke="#000" points="79.591 -30.833 69.013 -30.222 76.901 -37.296 79.591 -30.833"/></g><g id="node3" class="node"><title>Temperature</title><ellipse cx="153.647" cy="-18" fill="none" stroke="#000" rx="55.79" ry="18"/><text x="153.647" y="-14.3" fill="#000" font-family="Times,serif" font-size="14" text-anchor="middle">Temperature</text></g><g id="edge2" class="edge"><title>PlayTennis-&gt;Temperature</title><path fill="none" stroke="#000" d="M198.3642,-72.5708C191.1704,-63.7919 182.314,-52.9841 174.386,-43.3093"/><polygon fill="#000" stroke="#000" points="177.047 -41.035 168.002 -35.518 171.633 -45.471 177.047 -41.035"/></g><g id="node4" class="node"><title>Humidity</title><ellipse cx="272.647" cy="-18" fill="none" stroke="#000" rx="44.693" ry="18"/><text x="272.647" y="-14.3" fill="#000" font-family="Times,serif" font-size="14" text-anchor="middle">Humidity</text></g><g id="edge3" class="edge"><title>PlayTennis-&gt;Humidity</title><path fill="none" stroke="#000" d="M227.1708,-72.5708C234.5407,-63.7269 243.6266,-52.8239 251.7344,-43.0945"/><polygon fill="#000" stroke="#000" points="254.543 -45.192 258.256 -35.269 249.165 -40.71 254.543 -45.192"/></g><g id="node5" class="node"><title>Wind</title><ellipse cx="365.647" cy="-18" fill="none" stroke="#000" rx="30.595" ry="18"/><text x="365.647" y="-14.3" fill="#000" font-family="Times,serif" font-size="14" text-anchor="middle">Wind</text></g><g id="edge4" class="edge"><title>PlayTennis-&gt;Wind</title><path fill="none" stroke="#000" d="M243.2406,-75.6028C269.0262,-63.4684 305.8539,-46.1377 332.3696,-33.6597"/><polygon fill="#000" stroke="#000" points="334.075 -36.726 341.632 -29.301 331.094 -30.392 334.075 -36.726"/></g></g></svg>