<svg xmlns="http://www.w3.org/2000/svg" xmlns:xlink="http://www.w3.org/1999/xlink" width="341pt" height="116pt" viewBox="0 0 340.59 116"><g id="graph0" class="graph" transform="scale(1 1) rotate(0) translate(4 112)"><title>tennis_learned_structure</title><polygon fill="#fff" stroke="transparent" points="-4 4 -4 -112 336.593 -112 336.593 4 -4 4"/><g id="node1" class="node"><title>Humidity</title><ellipse cx="112.046" cy="-90" fill="none" stroke="#000" rx="44.693" ry="18"/><text x="112.046" y="-86.3" fill="#000" font-family="Times,serif" font-size="14" text-anchor="middle">Humidity</text></g><g id="node2" class="node"><title>PlayTennis</title><ellipse cx="50.046" cy="-18" fill="none" stroke="#000" rx="50.091" ry="18"/><text x="50.046" y="-14.3" fill="#000" font-family="Times,serif" font-size="14" text-anchor="middle">PlayTennis</text></g><g id="edge1" class="edge"><title>Humidity-&gt;PlayTennis</title><path fill="none" stroke="#000" d="M97.3524,-72.937C89.6669,-64.0119 80.112,-52.9159 71.6055,-43.0373"/><polygon fill="#000" stroke="#000" points="74.241 -40.734 65.064 -35.441 68.937 -45.302 74.241 -40.734"/></g><g id="node3" class="node"><title>Temperature</title><ellipse cx="174.046" cy="-18" fill="none" stroke="#000" rx="55.79" ry="18"/><text x="174.046" y="-14.3" fill="#000" font-family="Times,serif" font-size="14" text-anchor="middle">Temperature</text></g><g id="edge2" class="edge"><title>Humidity-&gt;Temperature</title><path fill="none" stroke="#000" d="M126.7387,-72.937C134.4242,-64.0119 143.9791,-52.9159 152.4856,-43.0373"/><polygon fill="#000" stroke="#000" points="155.154 -45.302 159.027 -35.441 149.85 -40.734 155.154 -45.302"/></g><g id="node4" class="node"><title>Outlook</title><ellipse cx="214.046" cy="-90" fill="none" stroke="#000" rx="39.794" ry="18"/><text x="214.046" y="-86.3" fill="#000" font-family="Times,serif" font-size="14" text-anchor="middle">Outlook</text></g><g id="node5" class="node"><title>Wind</title><ellipse cx="302.046" cy="-90" fill="none" stroke="#000" rx="30.595" ry="18"/><text x="302.046" y="-86.3" fill="#000" font-family="Times,serif" font-size="14" text-anchor="middle">Wind</text></g></g></svg>