<?xml version="1.0" encoding="UTF-8" standalone="no"?>
<!DOCTYPE svg PUBLIC "-//W3C//DTD SVG 1.1//EN"
 "http://www.w3.org/Graphics/SVG/1.1/DTD/svg11.dtd">
<!-- Generated by graphviz version 2.40.1 (20161225.0304)
 -->
<!-- Title: tennis_naive_bayes Pages: 1 -->
<svg width="404pt" height="116pt"
 viewBox="0.00 0.00 404.19 116.00" xmlns="http://www.w3.org/2000/svg" xmlns:xlink="http://www.w3.org/1999/xlink">
<g id="graph0" class="graph" transform="scale(1 1) rotate(0) translate(4 112)">
<title>tennis_naive_bayes</title>
<polygon fill="#ffffff" stroke="transparent" points="-4,4 -4,-112 400.1938,-112 400.1938,4 -4,4"/>
<!-- PlayTennis -->
<g id="node1" class="node">
<title>PlayTennis</title>
<ellipse fill="none" stroke="#000000" cx="212.6465" cy="-90" rx="50.0912" ry="18"/>
<text text-anchor="middle" x="212.6465" y="-86.3" font-family="Times,serif" font-size="14.00" fill="#000000">PlayTennis</text>
</g>
<!-- Outlook -->
<g id="node2" class="node">
<title>Outlook</title>
<ellipse fill="none" stroke="#000000" cx="39.6465" cy="-18" rx="39.7935" ry="18"/>
<text text-anchor="middle" x="39.6465" y="-14.3" font-family="Times,serif" font-size="14.00" fill="#000000">Outlook</text>
</g>
<!-- PlayTennis&#45;&gt;Outlook -->
<g id="edge1" class="edge">
<title>PlayTennis&#45;&gt;Outlook</title>
<path fill="none" stroke="#000000" d="M179.6993,-76.2879C150.8607,-64.2857 108.9291,-46.8344 78.4689,-34.1573"/>
<polygon fill="#000000" stroke="#000000" points="79.5907,-30.8332 69.0135,-30.2221 76.901,-37.2958 79.5907,-30.8332"/>
</g>
<!-- Temperature -->
<g id="node3" class="node">
<title>Temperature</title>
<ellipse fill="none" stroke="#000000" cx="153.6465" cy="-18" rx="55.7903" ry="18"/>
<text text-anchor="middle" x="153.6465" y="-14.3" font-family="Times,serif" font-size="14.00" fill="#000000">Temperature</text>
</g>
<!-- PlayTennis&#45;&gt;Temperature -->
<g id="edge2" class="edge">
<title>PlayTennis&#45;&gt;Temperature</title>
<path fill="none" stroke="#000000" d="M198.3642,-72.5708C191.1704,-63.7919 182.314,-52.9841 174.386,-43.3093"/>
<polygon fill="#000000" stroke="#000000" points="177.0471,-41.0347 168.0017,-35.5182 171.6328,-45.4714 177.0471,-41.0347"/>
</g>
<!-- Humidity -->
<g id="node4" class="node">
<title>Humidity</title>
<ellipse fill="none" stroke="#000000" cx="272.6465" cy="-18" rx="44.6926" ry="18"/>
<text text-anchor="middle" x="272.6465" y="-14.3" font-family="Times,serif" font-size="14.00" fill="#000000">Humidity</text>
</g>
<!-- PlayTennis&#45;&gt;Humidity -->
<g id="edge3" class="edge">
<title>PlayTennis&#45;&gt;Humidity</title>
<path fill="none" stroke="#000000" d="M227.1708,-72.5708C234.5407,-63.7269 243.6266,-52.8239 251.7344,-43.0945"/>
<polygon fill="#000000" stroke="#000000" points="254.5428,-45.1916 258.2559,-35.2687 249.1652,-40.7103 254.5428,-45.1916"/>
</g>
<!-- Wind -->
<g id="node5" class="node">
<title>Wind</title>
<ellipse fill="none" stroke="#000000" cx="365.6465" cy="-18" rx="30.5947" ry="18"/>
<text text-anchor="middle" x="365.6465" y="-14.3" font-family="Times,serif" font-size="14.00" fill="#000000">Wind</text>
</g>
<!-- PlayTennis&#45;&gt;Wind -->
<g id="edge4" class="edge">
<title>PlayTennis&#45;&gt;Wind</title>
<path fill="none" stroke="#000000" d="M243.2406,-75.6028C269.0262,-63.4684 305.8539,-46.1377 332.3696,-33.6597"/>
<polygon fill="#000000" stroke="#000000" points="334.0746,-36.7256 341.6325,-29.3007 331.094,-30.3919 334.0746,-36.7256"/>
</g>
</g>
</svg>
