<?xml version="1.0" encoding="UTF-8" standalone="no"?>
<!DOCTYPE svg PUBLIC "-//W3C//DTD SVG 1.1//EN"
 "http://www.w3.org/Graphics/SVG/1.1/DTD/svg11.dtd">
<!-- Generated by graphviz version 2.40.1 (20161225.0304)
 -->
<!-- Title: tennis_known_structure Pages: 1 -->
<svg width="300pt" height="116pt"
 viewBox="0.00 0.00 299.54 116.00" xmlns="http://www.w3.org/2000/svg" xmlns:xlink="http://www.w3.org/1999/xlink">
<g id="graph0" class="graph" transform="scale(1 1) rotate(0) translate(4 112)">
<title>tennis_known_structure</title>
<polygon fill="#ffffff" stroke="transparent" points="-4,4 -4,-112 295.5415,-112 295.5415,4 -4,4"/>
<!-- Outlook -->
<g id="node1" class="node">
<title>Outlook</title>
<ellipse fill="none" stroke="#000000" cx="39.6465" cy="-90" rx="39.7935" ry="18"/>
<text text-anchor="middle" x="39.6465" y="-86.3" font-family="Times,serif" font-size="14.00" fill="#000000">Outlook</text>
</g>
<!-- PlayTennis -->
<g id="node3" class="node">
<title>PlayTennis</title>
<ellipse fill="none" stroke="#000000" cx="81.6465" cy="-18" rx="50.0912" ry="18"/>
<text text-anchor="middle" x="81.6465" y="-14.3" font-family="Times,serif" font-size="14.00" fill="#000000">PlayTennis</text>
</g>
<!-- Outlook&#45;&gt;PlayTennis -->
<g id="edge1" class="edge">
<title>Outlook&#45;&gt;PlayTennis</title>
<path fill="none" stroke="#000000" d="M49.8135,-72.5708C54.6933,-64.2055 60.6477,-53.998 66.0809,-44.6839"/>
<polygon fill="#000000" stroke="#000000" points="69.2658,-46.1702 71.2813,-35.7689 63.2193,-42.6431 69.2658,-46.1702"/>
</g>
<!-- Wind -->
<g id="node2" class="node">
<title>Wind</title>
<ellipse fill="none" stroke="#000000" cx="127.6465" cy="-90" rx="30.5947" ry="18"/>
<text text-anchor="middle" x="127.6465" y="-86.3" font-family="Times,serif" font-size="14.00" fill="#000000">Wind</text>
</g>
<!-- Wind&#45;&gt;PlayTennis -->
<g id="edge2" class="edge">
<title>Wind&#45;&gt;PlayTennis</title>
<path fill="none" stroke="#000000" d="M116.7451,-72.937C111.253,-64.3407 104.4743,-53.7304 98.3431,-44.1338"/>
<polygon fill="#000000" stroke="#000000" points="101.2834,-42.235 92.95,-35.6924 95.3845,-46.0038 101.2834,-42.235"/>
</g>
<!-- Temperature -->
<g id="node4" class="node">
<title>Temperature</title>
<ellipse fill="none" stroke="#000000" cx="235.6465" cy="-90" rx="55.7903" ry="18"/>
<text text-anchor="middle" x="235.6465" y="-86.3" font-family="Times,serif" font-size="14.00" fill="#000000">Temperature</text>
</g>
<!-- Humidity -->
<g id="node5" class="node">
<title>Humidity</title>
<ellipse fill="none" stroke="#000000" cx="235.6465" cy="-18" rx="44.6926" ry="18"/>
<text text-anchor="middle" x="235.6465" y="-14.3" font-family="Times,serif" font-size="14.00" fill="#000000">Humidity</text>
</g>
<!-- Temperature&#45;&gt;Humidity -->
<g id="edge3" class="edge">
<title>Temperature&#45;&gt;Humidity</title>
<path fill="none" stroke="#000000" d="M235.6465,-71.8314C235.6465,-64.131 235.6465,-54.9743 235.6465,-46.4166"/>
<polygon fill="#000000" stroke="#000000" points="239.1466,-46.4132 235.6465,-36.4133 232.1466,-46.4133 239.1466,-46.4132"/>
</g>
</g>
</svg>
