<svg version="1.1" xmlns="http://www.w3.org/2000/svg" viewBox="0 0 961.0685898045275 560.823029338158" width="961.0685898045275" height="560.823029338158">
  <!-- svg-source:excalidraw -->
  
  <defs>
    <style class="style-fonts">
      @font-face {
        font-family: "Virgil";
        src: url("https://excalidraw.com/Virgil.woff2");
      }
      @font-face {
        font-family: "Cascadia";
        src: url("https://excalidraw.com/Cascadia.woff2");
      }
    </style>
  </defs>
  <rect x="0" y="0" width="961.0685898045275" height="560.823029338158" fill="#ffffff"></rect><g stroke-linecap="round" transform="translate(10 70.35660372377006) rotate(0 156.30363466189584 240.23321280719398)"><path d="M0 0 C0 0, 0 0, 0 0 M0 0 C0 0, 0 0, 0 0 M0.09 6 C1.79 4.17, 4.06 1.4, 4.32 0.78 M-0.32 6.33 C1.36 4.21, 3.58 1.72, 4.65 0.2 M1.64 11.19 C2.95 8.51, 5.59 7.07, 9.55 0.28 M0.09 11.82 C2.59 8.74, 5.14 5.56, 10.76 0.57 M0.23 18.07 C1.85 13.76, 5.87 10.27, 14.55 0.63 M0.42 19.14 C5.45 11, 11.26 4.95, 15.6 0.68 M0.07 24.49 C6.59 17.36, 10.21 12.45, 19.98 -0.18 M0.89 24.03 C8.68 14.63, 17.47 4.98, 21.1 0.28 M-0.39 32.05 C7.86 24.16, 13.67 13.31, 24.44 -1.18 M1 29.8 C9.08 20.04, 17.26 9.29, 26.74 0.06 M1.47 38.55 C9.65 23.66, 19.73 13.25, 32.77 1.01 M-1.24 37.63 C10.16 24.56, 21.91 12.63, 32.7 -0.06 M1.65 41.3 C9.62 31.75, 18.95 22.65, 37.32 -0.48 M-0.72 42.11 C8.91 32.22, 17.86 22.03, 37.3 0.71 M-1.68 48.65 C15.13 31.37, 33.92 9.93, 41.91 0.49 M-0.53 48.91 C14.98 31.32, 31.88 14.41, 42.86 -0.72 M-0.88 55.91 C9.86 41.72, 19.46 33.28, 47.37 -1.64 M1.26 54.87 C10.78 41.85, 22.14 28.76, 47.07 0.16 M-1.32 60.7 C18.29 39.51, 36.27 19.38, 51.53 -1 M0.92 61.4 C15.49 42.71, 29.89 24.56, 52.89 0.78 M-2.02 66.85 C14.61 49.06, 32.35 33.22, 58.68 -0.88 M0.36 66.59 C13.71 51.11, 27.2 33.44, 57.9 0.89 M1.11 71.97 C24.93 42.59, 51.79 16.23, 63.64 1.37 M-0.29 72.83 C13.12 57.3, 25.46 42.71, 64.18 -0.1 M0.05 78.94 C21.08 57.6, 40.17 30.68, 69.18 1.7 M0.03 78.46 C17.17 59.44, 34.11 41.57, 69.71 0.31 M2.05 83.88 C15.71 68.07, 30.57 50.85, 74.11 0.55 M0.51 85.86 C20.37 60.47, 41.94 36.85, 74.2 -0.99 M-0.94 91.41 C16.36 70.38, 35.87 49.02, 78.69 -1.87 M-0.17 90.86 C25.66 63.57, 50.32 33.48, 78.49 0.75 M-0.84 98.69 C18.16 71.82, 39.32 48.21, 84.71 1.64 M-0.6 98.83 C18.52 75.79, 38.54 53.43, 84.44 -0.57 M-0.73 102.85 C32.17 64.42, 65.46 28.3, 88.91 0.56 M0 104.34 C21.31 79.2, 42.7 54.3, 90.27 -0.48 M-2.04 108.55 C33.31 69.77, 68.63 28.66, 95.06 -2.15 M0.48 110.77 C37.97 68.71, 73.73 26.73, 96.48 -0.59 M-1.2 115.95 C20.13 92.41, 40.19 68.9, 99.4 1.26 M0.89 116.42 C28.58 83.15, 56.53 52.18, 101.18 0.82 M-0.15 119.99 C22.84 92.72, 47.64 65.35, 106.67 -1.48 M-0.05 121.92 C24.47 92.05, 49.24 64.53, 105.97 0.13 M1 126.33 C31.28 90.7, 66.22 53.66, 111.6 0.64 M0.21 128.3 C44.38 77.27, 87.19 26.06, 111.36 -0.18 M0.77 134.9 C38.46 90.68, 79.51 42.7, 118.27 1.87 M0.73 134.66 C37.39 91.21, 75.38 48.51, 115.94 0.49 M1.07 139.42 C41.35 91.71, 83.46 43.65, 120.84 -0.78 M-0.27 139.82 C31.54 104.25, 62.32 67.26, 121.06 0.61 M-1.45 147.33 C46.01 94.01, 89.16 45.92, 128.42 -0.03 M-0.2 146.37 C41.2 99.85, 80.28 55.52, 127.48 0.04 M-1.69 151.22 C42.55 104.85, 80.91 58.16, 132.33 1.47 M-0.62 152.12 C26.76 122.39, 53.56 90.97, 132.57 0.2 M0.17 160 C49 101.08, 101.16 43.59, 135.82 -0.59 M-0.42 158.15 C47.93 101.84, 96.73 45.62, 137.71 -0.37 M1.54 164.51 C46.21 109.26, 92.09 59.38, 144.83 0.6 M-0.4 164.34 C41.82 119.24, 80.53 73.03, 142.37 0.55 M0.56 170.26 C40.4 124.18, 84.47 75.98, 148.71 1.47 M0.34 171.37 C41.68 123.06, 82.19 74.49, 148.55 -0.03 M-0.39 175.29 C50.73 119.83, 99.89 61.9, 152.35 1.06 M0.88 176.69 C34.36 135.32, 68.82 96.34, 154.4 0.63 M-1.1 184.22 C62.67 113.37, 123.09 42.29, 158.9 0.94 M0.73 183.38 C38.8 137.5, 77.64 95.02, 158.19 0.93 M0 190.64 C43.37 136.01, 89.22 83.39, 164.19 0.3 M-0.22 189.21 C45.57 135.41, 90.72 83.91, 163.94 0.34 M-0.33 193.93 C67.14 118.44, 135.03 42.91, 170.47 -0.28 M0.18 195.16 C42.62 148.41, 83.2 100.65, 169.96 -0.13 M-0.01 202.05 C61.93 130.63, 122.18 62.39, 174.18 -0.64 M-0.05 202.07 C60.64 132.53, 121.73 61.35, 174.83 0.34 M-1.09 208.07 C39.84 161.73, 80.97 112.85, 179.09 -0.4 M-0.22 206.76 C39.2 161.98, 78.88 116.63, 180.61 -0.08 M-0.11 213.4 C54.87 149.63, 106.02 86.7, 184.46 -0.78 M-0.22 213.64 C49.2 155.3, 99.37 98.63, 185.87 0.37 M-0.1 220.03 C74.98 133.23, 151.64 45.04, 191.46 -0.76 M-0.12 219.68 C75.16 135.01, 149.84 48.32, 190.36 -0.01 M-1.01 224.59 C56.83 161.55, 112.95 95.88, 195.33 0.83 M-0.04 225.46 C66.11 147.34, 133.89 68.86, 196.06 -0.54 M0.06 230.71 C46.49 175.94, 92.59 124.09, 200.23 0.43 M-0.19 232.3 C52.66 170.59, 104.89 110.39, 200.89 -0.21 M0.82 238.45 C66.49 163.97, 128.37 89.79, 208.37 -0.57 M-0.29 238.13 C80.97 145.07, 160.42 53.91, 207.42 0.26 M-0.54 243.01 C54.69 178.83, 109.44 116.18, 211.53 -0.75 M0.02 244.51 C47.38 186.18, 97.05 129.58, 212.29 -0.24 M0.86 250.05 C76.08 163.15, 152.57 76.22, 218 -0.82 M-0.89 250.83 C64.07 176.65, 127.1 102.77, 217.65 0.2 M-0.03 256.21 C51.94 196.03, 102.44 138.91, 223.83 0.45 M0.19 256.21 C43.25 203.56, 88.91 151.62, 222.03 -0.46 M0.94 263.58 C89.9 156.87, 183.49 51.76, 228.59 -1.48 M0.14 262.63 C59.35 194.32, 119.07 125.74, 228.74 -0.94 M-0.72 267.16 C64.8 191.39, 129.71 117.75, 234.45 0.44 M0.06 267.93 C86.19 168.83, 170.7 71.33, 233.09 -0.56 M-0.44 274.69 C60.29 206.97, 121.63 135.73, 239.34 -0.57 M0.24 274.09 C89.85 171.15, 178.59 68.8, 237.99 0.47 M0.83 281.43 C88.29 179.16, 174.56 80.69, 244.73 1.17 M0.05 280.21 C49 223.28, 99.54 165.9, 244.38 0.29 M-0.48 286.33 C80.03 196.26, 158.72 106, 247.72 -0.88 M0.24 286.85 C53.34 224.91, 106.09 164.28, 248.66 -0.09 M1.06 292.22 C57.66 225.52, 115.99 159.95, 254.58 -0.32 M0.03 293.09 C76.63 204.58, 152.72 117.27, 254.98 -0.19 M-0.34 298.8 C52.93 239.06, 105.08 177.78, 260.22 -0.35 M0.86 298.18 C67.16 219.66, 134.86 142.71, 259.45 0.76 M0.78 304.91 C66.03 227.5, 132.14 149.97, 264.97 0.28 M0.43 304.65 C83.74 207.16, 167.37 109.14, 265.31 -0.02 M-0.62 310.93 C87.99 210.63, 177.52 109.9, 270.54 -0.04 M-0.08 311.51 C75.34 224.05, 148.98 138.53, 269.86 0.2 M0.1 317 C108.45 190.16, 219.13 62.71, 275.57 0.23 M0.06 316.39 C65.33 243.94, 128.76 170.12, 275.75 -0.24 M-1.09 323.89 C86.46 222.68, 173.18 122.44, 280.8 -0.76 M-0.44 322.78 C91.46 217.58, 184.34 110.7, 280.54 0.6 M0.07 328.52 C69.08 246.17, 139.32 166.16, 287.06 -0.68 M0 328.99 C85.2 232.49, 169.15 135, 286.62 -0.22 M-0.35 334.72 C114.07 207.51, 225.73 77.57, 291.65 0.86 M-0.13 335.09 C108.16 210.97, 217.08 85.59, 291.07 0.38 M-0.14 342.25 C111.53 212.71, 222.01 85.77, 297.01 -0.57 M-0.46 341.33 C79.93 251.95, 158.78 161.28, 297.29 0.02 M0.35 348 C118.32 213.8, 234.63 79.33, 302.63 0.1 M0.52 347.03 C79.24 255.64, 158.05 164.3, 302.09 0.59 M-0.35 352.88 C115.54 222.12, 230.84 90.22, 307.99 0.25 M-0.02 353.55 C120.66 216.32, 240.23 79.35, 307.24 0.01 M0.85 358.59 C108.48 231.85, 218.86 105.11, 312.42 0.3 M0.37 359.66 C103.91 238.51, 209.1 117.32, 312.35 -0.17 M0.44 365.08 C76.32 277.98, 152.05 191.68, 311.79 6.7 M-0.21 365.54 C63.12 291.99, 125.94 219.23, 311.91 6.54 M-0.52 371.51 C104.08 250.08, 210.01 130.02, 311.89 12.99 M-0.42 372.47 C73.4 288.92, 145.73 205.57, 312.91 11.93 M1.07 377.13 C116.25 243.28, 233.81 108.9, 311.89 19.07 M-0.03 377.81 C109.03 254.46, 217.88 129.94, 312.1 18.5 M0.77 384.12 C123.6 242.85, 246.25 102.64, 313.63 23.91 M0.18 384.01 C88.05 280.8, 178.1 177.9, 313.14 24.3 M-0.52 389.3 C120.29 252.85, 240.15 114.48, 312.32 30.36 M0.61 389.54 C109.97 265.79, 218.4 140.85, 312.85 30.51 M-0.64 396.09 C117.39 261.66, 235.05 126.05, 312.89 36.94 M-0.35 396.39 C99.37 281.71, 198.9 166.07, 312.2 36.72 M-0.92 402.63 C85.83 301.58, 174.61 200.45, 313.37 42.4 M-0.58 402.81 C69.87 319.77, 141 238.47, 312.88 42.92 M0.12 408.19 C111.66 279.64, 223.14 150.12, 312.98 48.51 M0.56 407.86 C78.53 315.97, 158.21 224.27, 312.09 48.87 M0.74 414.19 C88.4 310.61, 177.49 206.31, 312.61 55.35 M-0.36 414.35 C94.87 307.48, 189.14 199.74, 312.69 54.69 M-0.66 420.22 C67.05 343.73, 133.95 267.15, 312.57 60.86 M-0.45 421.34 C93.99 311.84, 188.56 202.96, 312.91 61.35 M0.73 426.88 C69.9 343.34, 141.58 261.95, 313.08 66.65 M-0.1 427.06 C118.95 291.26, 237.05 155.52, 312.15 67.75 M-0.41 433.29 C69.01 354.6, 137.21 275.64, 313.55 73.79 M-0.31 433.5 C114.29 299.47, 229.25 166.65, 312.76 72.68 M0.28 439.4 C106.13 319.55, 212.11 198.39, 311.81 80.33 M0.43 439.13 C115.51 307.59, 229.1 176.41, 312.24 79.5 M0.54 445.56 C80.67 351.6, 161.28 257.23, 313.39 85.38 M0.31 445.47 C81.23 353.63, 160.86 262.21, 312.45 85.28 M-0.96 451.26 C79.09 361.91, 158.15 272.16, 313.46 92.17 M-0.08 451.64 C80.21 360.54, 159.87 268.39, 312.9 91.82 M-0.15 458 C71.63 375.21, 142.58 294.65, 313.19 98.05 M-0.31 457.13 C80.14 366.36, 159.97 274.68, 312.13 98.36 M-0.56 463.26 C68.83 384.98, 137.58 305.46, 311.9 104.31 M-0.04 463.85 C107.02 341.34, 214.6 217.57, 312.98 103.56 M-0.52 469.87 C69.16 388.15, 138.43 307.55, 311.62 110.24 M0.54 469.67 C112.99 340.55, 223.49 212.28, 312.19 110.15 M-0.73 475.01 C90.02 371.89, 179.52 268.48, 312.34 115.41 M0.18 475.93 C64.41 398.74, 130.09 323.66, 313.11 115.79 M0.48 480.51 C109.37 354.44, 218.18 229.33, 313.22 122.72 M0.3 481.16 C75.76 395.96, 151.57 309.79, 312.86 122.43 M5.44 480.37 C101.39 369.62, 197.68 257.09, 313.17 128.45 M5.93 480.9 C109.13 363.29, 212.17 244.86, 312.43 128.05 M11.75 480.7 C107.19 370.03, 202.1 259.78, 313.49 133.79 M11.37 481.55 C95.39 384.34, 181.26 286.19, 312.37 134.01 M16.78 481.72 C125.32 355.02, 234.31 229.43, 311.88 140.74 M16.22 480.48 C104.08 381.16, 190.34 281.19, 312.97 140.77 M21.87 482.16 C90.92 399.71, 160.7 319.37, 312.03 145.27 M21.55 480.86 C124.72 363.76, 228.01 246.22, 312.55 145.84 M27.84 481.38 C116.77 377.51, 207.64 274.04, 312.17 151.66 M26.88 480.67 C126.66 367.77, 225.78 253.73, 312.98 152.48 M32.72 480.3 C102.31 401.78, 170.4 323.1, 312.8 158.22 M31.95 481.19 C90.94 411.86, 150.71 342.75, 311.93 159.34 M38.52 480.1 C102.79 407.19, 164.75 335.7, 311.87 163.93 M37.38 480.72 C108.57 397.68, 179.93 315.46, 313.26 164.14 M43.26 480.6 C114.13 399.01, 185.69 317.75, 312.85 171.54 M42.84 481.3 C129.14 382.68, 214.92 283.51, 313 171 M47.55 481.11 C102.2 420.1, 155.52 358.45, 313.81 176.41 M48.28 480.25 C123.18 396.46, 197.44 310.66, 312.6 176.34 M53.3 480.57 C112.89 414.29, 170.4 345.34, 311.97 181.92 M53.44 481.32 C110.33 413.45, 167.46 347.51, 313.15 183.15 M59.21 481.32 C139.94 388.78, 219.1 298.17, 312.47 188.53 M59.04 480.52 C150.72 376.96, 242.32 271.86, 312.46 189.92 M63.76 482.11 C134.42 399.9, 202.78 322.16, 311.9 194.22 M64.07 480.79 C156.02 375.19, 248.23 269.52, 312.43 194.65 M69.93 479.54 C132.46 407.77, 195.74 335.66, 311.83 202.22 M70.35 481.16 C151.81 385.08, 233.72 290.97, 313.04 201.58 M74.38 479.98 C162.69 381.13, 250.58 281.02, 313.33 206.75 M75.13 481.01 C144.09 400.87, 213.03 320.74, 313.52 207.23 M79.2 479.63 C159.25 388.58, 239.85 296.85, 313.12 214.66 M80.43 481.04 C162.58 388.81, 243 296.51, 312.34 213.12 M86.11 481.19 C140.46 418.78, 195.46 355.21, 312.41 220.98 M85.81 481.51 C135.08 421.75, 187.2 362.08, 312.38 220.38 M89.76 481.61 C152.26 411.9, 214.22 342.58, 311.74 224.41 M90.66 481.53 C139.29 424.71, 187.21 369.78, 312.91 225.06 M95.82 480.44 C157.31 412.42, 215.81 343.23, 313.45 230.82 M96.59 481 C160.72 408.28, 224.9 334.69, 311.85 231.73 M99.81 480.38 C178.01 391.78, 253.34 303.55, 311.96 238.23 M100.54 481.14 C159.25 414.62, 216.93 349.54, 313.56 237.29 M106.93 480.13 C152.72 429.06, 196.61 378.06, 312.07 243.18 M106.64 481.49 C170.99 404.34, 237.38 328.38, 313.13 244.56 M112.22 481.28 C179.46 402.92, 244.06 328.66, 313.7 250.41 M111.74 481.3 C175.86 406.88, 241.09 331.9, 312.29 249.66 M115.9 480.19 C167.36 421.07, 216.25 364.08, 314.22 256.44 M116.54 481.57 C158.35 435.15, 199.04 386.95, 312.5 256.58 M123.47 480.76 C182.83 415.79, 238.13 347.93, 311.3 260.98 M122.47 480.53 C177.43 418.53, 232.33 355.96, 311.91 261.79 M129.3 480.63 C195.79 402.46, 264.07 322.12, 312.91 268.81 M128.53 480.36 C198.97 401.23, 268.82 320.24, 313.36 267.38 M134.06 481 C173.76 439.33, 211.56 394.37, 313.1 275.75 M132.28 480.93 C200.2 404.35, 265.87 329.85, 312.02 274.96 M137.12 481.57 C196.27 413.17, 253.77 346.46, 313.58 282.25 M138.88 480.71 C194.78 417.44, 250.11 354.35, 312.68 281.17 M142.86 481.39 C178.99 441.51, 213.41 401.67, 311.6 287.68 M143.91 480.84 C186.48 432.39, 228.9 382.98, 312.91 287.25 M149.12 479.95 C203.29 414.99, 260.77 350.36, 312.96 293.46 M149.95 480.15 C186.69 437.71, 223.64 393.83, 312.38 292.99 M153.49 481.34 C188.74 444.32, 222.56 405.55, 313.12 298.83 M153.91 480.81 C207.65 421.25, 260.51 360.37, 313.34 298.94 M161.06 479.18 C191.77 442.25, 225.71 404.81, 313.53 304.64 M159.37 480.02 C219.18 411.86, 279.12 342.58, 312.55 305.48 M164.8 480.31 C225.48 414.51, 282.69 345.63, 312.07 312.42 M165.26 480.55 C209.04 430.28, 254.05 377.69, 312.99 311.89 M169.8 479.76 C216.47 427.03, 260.39 372.67, 313.52 317.56 M169.79 480.89 C227.41 415.87, 282.87 350.19, 312.35 316.41 M177.13 481.32 C218.77 433.71, 260.79 383.67, 312.88 322.77 M176.08 480.58 C222.2 427.2, 267.62 373.07, 311.83 323.18 M180.64 482.33 C218.65 437.3, 258.73 389.37, 312.58 330.74 M180.63 480.68 C221.65 433.67, 262.45 385.79, 312.69 329.48 M185.22 480.53 C227.33 434.28, 266.3 386.91, 312.87 337.12 M186.14 480.43 C223.98 435.32, 262.76 391.07, 313.3 334.52 M190.08 480.31 C232.96 431.29, 277.26 384.85, 311.36 343.47 M191.29 479.68 C228.52 437.56, 264.41 396.15, 312.1 341.17 M196.46 481.52 C239.38 432.31, 284.68 380.38, 311.35 347.22 M197.11 480.69 C240.51 429.69, 284.9 378.28, 312.41 348.27 M204.18 481.84 C234.23 442.3, 266.33 405.29, 310.82 352.14 M203.2 481.36 C230.27 449.7, 258.16 416.45, 313.1 353.89 M209.02 480.2 C237.26 445.99, 268.42 408.74, 313.76 360.46 M207.01 480.7 C228.03 454.84, 250.61 428.08, 313.78 359.54 M214.12 480.81 C251.64 434.75, 291.09 391.96, 311.61 364.23 M213.1 480.85 C241.05 448.18, 269.78 413.65, 312.21 365.54 M218.71 480.61 C238.09 458.12, 260.68 430.42, 310.68 373.19 M217.8 480.8 C253.51 440.46, 286.35 401.16, 311.5 373.15 M222.96 480.82 C242.61 455.43, 265.58 433.68, 312.9 378.38 M223.83 481.95 C248.28 451.72, 274.34 420.84, 312.75 378.17 M227.24 482.89 C258.01 446.68, 292.88 406.78, 312.58 383.6 M229.55 480.28 C250.32 453.82, 272.93 429.29, 311.72 384.59 M233.68 479.81 C257.67 453.17, 280.72 429.44, 311.77 389.38 M234.3 481.68 C264.17 446.68, 293.77 412.2, 312.06 390.73 M238.16 479.32 C265.67 455.53, 288.86 424.99, 313.78 396.29 M238.34 481.36 C259.32 456.82, 281.21 432.99, 312.66 396.56 M243.78 483.15 C259.27 465.2, 273.87 447.23, 310.51 400.88 M244.15 481.21 C257.14 464.51, 270.98 448.43, 312.9 401.89 M248.92 482.29 C268.78 461.33, 286.9 437.34, 311.19 407.22 M250.36 481.19 C264.77 463.44, 279.39 445.86, 313.28 407.94 M256.66 480.28 C268.98 464.24, 284.03 448.4, 311.24 414.4 M255.08 480.69 C272.51 460.43, 289.52 442.03, 312.08 415 M258.84 480.35 C274.73 464.01, 286.34 448.77, 311.54 420.48 M259.83 479.89 C272.38 465.12, 285.47 451.24, 312.59 420.54 M265.55 480.79 C275.18 468.24, 287.11 457.88, 312 425.83 M264.85 481.17 C278.95 466.59, 290.35 452.33, 312.48 426.59 M269.11 482.12 C282.99 467.71, 294.4 456.72, 310.82 433.04 M271.04 480.47 C285.96 464.06, 299.49 446.81, 313.01 433.86 M277.59 482.4 C286.49 468.77, 296.9 458.6, 313.36 438.46 M275.29 480.67 C285.34 470.27, 294.79 458.49, 313.71 439.38 M282.81 480.4 C293.36 468.42, 302.69 458.32, 312.85 443.72 M282.36 480.92 C290.51 470.64, 298.84 461.74, 312.99 446.09 M285.8 482.94 C291.03 474.33, 298.79 467.45, 313.77 451.69 M286.28 480.11 C293.7 473.25, 301.49 465.17, 313.43 451.02 M292.87 480.08 C299.25 476.25, 303.18 466.92, 313.34 457.75 M292.2 480.14 C301 470.57, 308.41 463.16, 313.07 456.62 M297.04 480.38 C301.55 475.99, 306.29 470.71, 312.88 461.79 M297.78 481.38 C300.77 477.98, 303.45 474.37, 312.71 462.89 M302.32 481.8 C307.33 476.47, 308.99 473.66, 314.12 468.11 M303.03 480.15 C304.95 477.71, 307.59 475.93, 312.59 469.09 M308 480.95 C309.14 479.65, 311.64 477.7, 313.13 475.45 M307.9 481.12 C308.94 479.85, 310.59 478.34, 312.59 475.48" stroke="#ced4da" stroke-width="0.5" fill="none"></path><path d="M-0.01 0.54 C115.85 2.24, 230.6 1.49, 313.02 0.14 M0.2 0.1 C118.75 -0.1, 238.15 -0.94, 312.02 -0.7 M312.25 -0.67 C314.09 158.42, 313.77 315.55, 313.15 481.31 M312.68 0.25 C314.55 130.45, 314.31 261.2, 312.57 480.66 M312.68 480.34 C196.73 478.66, 79.54 478.12, 0.82 481.05 M312.68 480.7 C244.29 482.15, 176.03 481.62, -0.05 480.69 M0.09 481.27 C-0.29 331.75, 0.05 181.35, 0.85 0.59 M0.43 480.38 C-0.86 293.79, -0.91 106.82, 0.14 -0.05" stroke="#000000" stroke-width="1" fill="none"></path></g><g stroke-linecap="round" transform="translate(77.22009933557536 141.63556587958587) rotate(0 33.59301112059137 196.4460867704149)"><path d="M0 0 C0 0, 0 0, 0 0 M0 0 C0 0, 0 0, 0 0 M-0.5 6.8 C1.23 5.51, 2.26 3.56, 5.77 -0.13 M0.05 6.22 C1.21 4.32, 3.05 1.9, 4.86 0.28 M-1.43 13.36 C1.43 10.27, 4.55 5.53, 9.05 -1.16 M0.55 12.27 C2.49 9.1, 5.53 4.97, 10.03 -0.17 M1.78 18.69 C7.68 13.54, 11.12 6.66, 17.19 2.31 M0.49 18.34 C2.93 14.46, 7.29 9.98, 15.11 0.55 M1 22.61 C3.62 19.19, 9.03 14.72, 21.92 0.18 M-0.4 25.01 C4.86 18.35, 8.93 14.31, 21.12 -0.62 M0.34 29.41 C9.01 22.73, 17.66 10.57, 26.4 0.93 M0.73 31.21 C10.02 18.08, 20.72 7.37, 25.42 -0.59 M1.19 38.8 C9.89 24.55, 18.13 15.27, 32.47 -0.41 M-1.08 37.71 C8.92 26.54, 15.24 17.74, 32.14 -0.68 M-1.49 41.73 C14.7 25.75, 27.36 11.2, 37.7 0.71 M0.27 42.85 C11.92 27.19, 25.78 13.42, 37.43 0.75 M1.69 47.94 C15.27 28.75, 33.25 11.8, 43.39 1.57 M0.5 48.17 C11.78 34.49, 25.74 19.59, 43.29 -0.4 M1.86 53.91 C20.21 35.61, 37.59 12.9, 48.1 -0.51 M0.23 54.49 C16.03 35.27, 32.58 17.63, 47.02 -0.5 M1.37 62.13 C15.43 42.54, 32.03 27.88, 51.61 -0.99 M0.32 61.33 C14.36 45.77, 28.27 28.57, 53 -0.88 M1.17 69.11 C18.9 47.42, 35.81 26.56, 56.47 -0.78 M-0.89 67.02 C17.63 47.08, 35.72 25.26, 58.15 -0.44 M1.59 72.84 C21.38 47.91, 43.31 22.27, 63.95 0.94 M1.07 72.32 C24.11 44.91, 47.19 17.96, 63.74 -0.28 M-0.92 80.35 C13.67 61.75, 32.11 42.03, 66.92 2.76 M-0.54 80.05 C19.02 56.67, 39.73 33.6, 68.17 0.47 M1.61 83.65 C19.18 64.04, 40 42.53, 66.54 8.06 M-0.47 85.21 C25.52 56.12, 49.63 27.51, 67.5 7.74 M-1.87 91.04 C18.92 71.7, 35.51 49.8, 68.89 14.88 M-0.09 92.36 C26.53 60.85, 52.81 32.08, 67.97 12.58 M-2.09 99.04 C19.64 73.64, 42.43 49.12, 68.58 18.61 M-0.15 97.75 C16.97 78.1, 35.33 55.94, 67.51 19.88 M-0.62 103.94 C23.51 74.81, 48.21 51.41, 68.73 26.6 M-0.17 102.93 C15.45 84.7, 30.71 66.32, 67.54 25.23 M-1.19 109.32 C27.12 78.34, 51.91 47.83, 66.44 29.49 M0.25 110.38 C24.33 80.76, 49.1 52.4, 68.37 32.28 M1.77 113.97 C26.4 85.37, 51.71 56.44, 68.16 37.14 M0.63 115.65 C21.64 89.36, 45.44 63.63, 68.41 36.83 M0.53 123.22 C21.59 100.89, 39.36 77.71, 66.45 42.2 M1.01 122.73 C20.18 99.62, 41.5 75.91, 68.82 42.52 M1.47 128.89 C22.18 104.82, 40.54 79.92, 68.76 51.57 M-0.86 128.14 C18.61 106.37, 37.69 83.81, 68.17 50.42 M1.82 132.82 C27.57 102.61, 53.4 69.01, 68.79 54.4 M1.15 134.6 C23.71 106.87, 46.8 79.98, 67.65 55.14 M-1.52 142.35 C19.39 119.35, 35.79 99.23, 67.99 61.36 M0.21 140.66 C25.49 109.76, 53.81 78.24, 68.47 62.26 M-0.68 146.34 C21.04 120.93, 43.79 98.59, 66.88 68.62 M-0.26 146.77 C18.98 124.36, 39.41 101.77, 67.06 68.37 M0.72 154.39 C15.95 136.79, 27.69 119.38, 69.87 73.36 M0.79 152.7 C16.12 132.59, 33.54 113.74, 67.71 74.79 M-1.12 156.87 C16.83 141.38, 33.32 122.92, 69.98 81.26 M-0.74 159.67 C17.32 141.02, 33.83 121.56, 67.27 81.11 M-1.37 164.39 C18.98 141.82, 37.48 118.39, 68.26 86.51 M0.56 163.92 C21.76 138.18, 44.82 113.5, 68.34 85.39 M-1.81 171.36 C25.47 140.41, 51.64 114.31, 67.25 91.09 M0.23 170.41 C26.62 141.09, 52.34 110.9, 68.63 91.47 M0.53 175.9 C17.71 158.2, 33.51 136.42, 66.29 100.68 M1.23 176.9 C13.74 158.83, 29.63 142.97, 68.21 99.13 M-1.15 183.16 C20.27 157.05, 43.52 133.29, 66.37 104.25 M-0.74 183.33 C24.58 154.34, 49.29 123.75, 68.16 103.71 M-0.05 189.3 C16.65 171.37, 31.75 150.7, 66.88 109.55 M-0.04 189.94 C26.25 159.8, 52.43 129.76, 67.22 111.75 M0.99 192.98 C19.06 173.02, 39.41 151.74, 68.93 115.04 M-0.34 194.92 C26.23 164.2, 53.82 135.16, 68.99 117.07 M-1.72 202.87 C21.06 179.46, 38.74 159.42, 68.88 121.23 M-0.08 202 C26.39 169.75, 53.86 139.01, 67.34 122.2 M-1.39 205.65 C24.09 178.84, 44.71 153.81, 69.7 130.6 M0.82 206.62 C20.8 185.27, 40.2 161.63, 67.61 128.46 M0.8 213.26 C20.61 188.41, 42.52 167.42, 69.69 135.16 M0.35 213.25 C22.41 188.63, 43.97 163.73, 67.27 135.61 M-1.05 218.9 C17.02 201.54, 35.93 178.37, 67.32 139.95 M-0.45 219.57 C16.84 202.02, 32.84 181.59, 68.57 141.47 M-0.67 224.5 C21.3 203.21, 43.71 178.23, 68.54 146.96 M-0.75 226.03 C20.6 203.34, 41.12 180.68, 67.78 146.04 M1.07 232.3 C20.18 208.78, 40.64 182.5, 68.32 154.49 M0.66 231.57 C20.88 208.56, 39.72 186.78, 68.52 152.88 M-0.44 236.74 C16.97 215.27, 38.99 193.55, 65.93 161.07 M0.65 237.63 C24.67 208.36, 49.57 178.82, 67.03 159.25 M-0.06 243.82 C22.64 217.91, 43.13 194.9, 69.77 165 M-0.92 243.63 C25.07 215.81, 49.94 185.18, 68.8 165.67 M0.41 251.01 C14.18 234.26, 26.97 215.99, 66.15 171.83 M0.02 251.02 C20.44 226.91, 41.81 202.78, 67.23 171.66 M1.07 254.8 C25.14 230.93, 45.25 201, 66.62 178.38 M0.43 254.94 C23.43 228.68, 47.08 203.34, 68.84 177.75 M0.64 262.2 C22.08 236.62, 41.78 212.02, 69.45 183.96 M0.82 261.85 C22.81 238.41, 43.62 212.31, 68.67 182.93 M-0.16 266.7 C16.15 249.33, 31.2 233.06, 67.03 190.41 M0.43 267.63 C22.04 244.35, 42.55 219.28, 67.46 190.72 M-1.11 275.59 C26.8 244.67, 52.42 216.03, 66.58 197.54 M0.64 274.97 C23.26 247.19, 47.4 220.97, 68.36 194.85 M0.85 281.87 C18.55 261.56, 35.91 241.73, 67 202.72 M0.18 281.51 C20.58 255.05, 42.99 231.41, 67.52 202.85 M0.38 287.82 C15.67 266.33, 33.32 247.75, 70.16 208.79 M-0.23 285.43 C27.19 255.4, 53.68 225.09, 69.38 208.18 M0.55 292.5 C18.55 271.12, 37.85 252.69, 66.45 215.36 M0.81 293.09 C19.83 270.19, 37.61 249.14, 67.97 213.62 M0.16 299.69 C18.34 274.31, 38.4 252.36, 66.05 218.8 M0.57 299.18 C26.53 268.05, 53.99 238.46, 68.2 221.36 M-0.73 305.19 C23.32 278.98, 47.17 248.17, 67.81 227.73 M-0.44 304.06 C13.09 290.13, 27.41 274.48, 68.48 226.68 M-1.47 312.83 C25.17 278.52, 50.57 249.88, 67.94 234.53 M-1.21 311.89 C22.86 282.74, 46.93 256.97, 67.35 233.53 M-0.08 317.91 C25.36 286.17, 53.92 257.86, 67.42 239.33 M0.38 316.29 C26.9 284.56, 54.42 253.96, 68.77 238.64 M-0.4 322.77 C22.5 294.17, 47.98 266.55, 69.44 245.3 M0.24 323.91 C25.29 294.89, 49.49 266.7, 67.43 244.98 M-0.77 328.73 C17.66 309.5, 32.98 290.91, 66.79 250.59 M1.28 328.6 C18.66 308.26, 37.54 288.55, 67.99 251.79 M-0.57 335.41 C14.67 320.47, 29.62 303.49, 66.66 255.85 M0.8 334.76 C15.97 316.6, 33.83 297.29, 67.76 256.24 M-0.81 340.64 C14.12 321.99, 32.43 304.06, 67.33 263.77 M-0.32 341.5 C20.47 316.97, 41.71 293.5, 67.31 263.08 M0.58 348.02 C15.27 330.61, 29.59 311.86, 69.61 267.01 M1.07 348.18 C19.16 325.16, 37.65 305.08, 67.73 268.73 M1.61 354.45 C17.42 334.49, 33.35 315.91, 66.31 275.52 M-0.98 354.16 C20.28 329.89, 40.46 306.2, 67.98 274.68 M-0.5 358.02 C16 343.59, 33.13 323.68, 69.53 280.49 M-0.27 358.82 C16.01 340.7, 30.85 323.2, 68.13 281.6 M0.22 365.38 C25.74 336.56, 51.01 302.82, 67.54 285.86 M0.86 364.98 C23.28 340.23, 45.3 314.15, 67.99 286.94 M-2.17 371.67 C19.74 347.75, 39.29 327.45, 69.48 291.87 M-1.16 373.03 C13.65 356, 27.97 341.67, 67.8 294.64 M-0.73 376.03 C24.88 349.61, 49.27 320.1, 68.73 298.96 M-0.54 378.52 C24.32 349.27, 50.03 321.48, 69.39 299.14 M1.1 385.12 C21.47 364.17, 37.13 340.66, 68.43 307.12 M0.53 383.83 C23.58 357.58, 47.38 327.9, 67.64 304.86 M0.9 389.1 C22.01 367.4, 40.9 343.74, 68.79 311.83 M1.14 390.27 C20.43 367.87, 39.1 346.43, 67.62 312.26 M0.03 395.39 C17.43 372.88, 35.28 355.22, 67.9 319.58 M2.29 393.95 C24.95 367.95, 48.72 338.91, 67.3 317.47 M7.67 395.89 C26.93 374.7, 44.3 349.9, 66.47 323.37 M6.84 395.14 C22.15 376.38, 37.56 358.92, 68.17 323.94 M10.42 395.32 C27.82 373.35, 44.41 356.75, 67.25 330.71 M12.93 394.73 C33.49 369.9, 55.15 346.37, 68.47 330.57 M18.83 394.37 C35.42 375.87, 48.56 355.3, 68.44 334.87 M18.4 393.52 C34.15 376.51, 49.82 357.92, 68.6 337.05 M20.92 393.51 C34.7 377.62, 49.28 364.38, 67.09 342.86 M22.23 394.1 C34.39 380.31, 45.55 367.58, 68.27 342 M30.21 396.17 C40.79 380.74, 51.15 366.88, 67.88 346.96 M28.4 394.25 C36.61 384.12, 46.64 374.02, 69.22 348.6 M35.22 396.1 C43.71 381.94, 56.43 369.66, 67.87 356.22 M33.25 394.32 C45.64 380.77, 56.36 366.63, 67.84 354.24 M39.44 392.5 C49.03 384.55, 57.83 372.17, 67.87 360.43 M39.4 394.59 C44.87 385.43, 51.87 378.62, 68.38 360.58 M42.88 393.37 C51.65 387.92, 58.53 379.95, 69.93 365.39 M43.08 394.63 C50.6 386.46, 56.95 378.52, 68.39 367 M50.03 394.69 C51.53 391.1, 58.22 386.92, 68.69 372.92 M50.04 394.72 C54.33 389.01, 59.19 382.19, 67.85 372.65 M55.36 395.72 C58.33 388.71, 62.7 385.56, 68.16 380.34 M54.9 395.19 C56.96 390.73, 61.15 386.99, 67.88 378.14 M59.67 394.19 C62.28 391.98, 64.55 388.67, 67.1 384.42 M60.69 393.93 C63.59 390.75, 65.81 387.77, 67.66 385.13 M65.36 394.31 C65.84 393.38, 66.31 392.96, 68.15 390.84 M65.35 394.66 C66.21 393.4, 67.33 391.65, 68.41 390.68" stroke="#868e96" stroke-width="0.5" fill="none"></path><path d="M1.99 -0.26 C20.24 -0.86, 37.24 1.34, 66.48 -1.55 M-0.6 -0.55 C24.16 -0.7, 47.15 -0.33, 66.65 -0.54 M67.62 0.51 C68.78 113.86, 67.48 229.14, 67.45 393.17 M67.19 -0.08 C66.22 155.93, 65.57 311.39, 67.6 392.35 M68.8 392.04 C43.52 391.19, 24.63 391.1, 1.72 391.04 M67.16 393.35 C42.15 391.8, 16.31 392.66, 0.25 393.35 M-0.58 392.43 C-1.15 296.22, -2.31 200.42, 0.02 0.83 M0.12 393.09 C-1.68 293.87, -0.89 195.54, 0 0.46" stroke="#000000" stroke-width="1" fill="none"></path></g><g transform="translate(99.12858484900448 153.32009148674808) rotate(0 10 185)"><text x="0" y="26" font-family="Virgil, Segoe UI Emoji" font-size="29.211314017905558px" fill="#000000" text-anchor="start" style="white-space: pre;" direction="ltr">a</text><text x="0" y="63" font-family="Virgil, Segoe UI Emoji" font-size="29.211314017905558px" fill="#000000" text-anchor="start" style="white-space: pre;" direction="ltr">a</text><text x="0" y="100" font-family="Virgil, Segoe UI Emoji" font-size="29.211314017905558px" fill="#000000" text-anchor="start" style="white-space: pre;" direction="ltr">a</text><text x="0" y="137" font-family="Virgil, Segoe UI Emoji" font-size="29.211314017905558px" fill="#000000" text-anchor="start" style="white-space: pre;" direction="ltr">a</text><text x="0" y="174" font-family="Virgil, Segoe UI Emoji" font-size="29.211314017905558px" fill="#000000" text-anchor="start" style="white-space: pre;" direction="ltr">a</text><text x="0" y="211" font-family="Virgil, Segoe UI Emoji" font-size="29.211314017905558px" fill="#000000" text-anchor="start" style="white-space: pre;" direction="ltr">b</text><text x="0" y="248" font-family="Virgil, Segoe UI Emoji" font-size="29.211314017905558px" fill="#000000" text-anchor="start" style="white-space: pre;" direction="ltr">b</text><text x="0" y="285" font-family="Virgil, Segoe UI Emoji" font-size="29.211314017905558px" fill="#000000" text-anchor="start" style="white-space: pre;" direction="ltr">b</text><text x="0" y="322" font-family="Virgil, Segoe UI Emoji" font-size="29.211314017905558px" fill="#000000" text-anchor="start" style="white-space: pre;" direction="ltr">b</text><text x="0" y="359" font-family="Virgil, Segoe UI Emoji" font-size="29.211314017905558px" fill="#000000" text-anchor="start" style="white-space: pre;" direction="ltr">b</text></g><g stroke-linecap="round" transform="translate(194.06535540719756 139.44471732824294) rotate(0 33.59301112059137 196.4460867704149)"><path d="M0 0 C0 0, 0 0, 0 0 M0 0 C0 0, 0 0, 0 0 M0.29 6.78 C0.87 4.08, 2.69 2.38, 4.92 0.9 M-0.04 6.8 C1.32 4.09, 3.34 2.21, 5.2 0.48 M1.73 11.19 C3.34 6.74, 7.18 2.79, 10.35 1.11 M0.17 12.04 C3.48 6.95, 8.3 3.43, 10.41 -0.55 M0.64 17.31 C4.02 12.28, 8.82 8.82, 16.66 1.77 M0.39 17.49 C4.54 13.76, 9.8 8.51, 16.08 1.25 M-0.11 24.3 C4.93 18.4, 8.45 14.75, 23 -0.87 M1.13 23.65 C7.1 16.52, 14.86 7, 21.65 -0.49 M1.49 29.04 C9.86 18.59, 19 7.8, 25.99 1.63 M0.62 31.18 C5.47 23.77, 12.89 17.04, 26.44 -0.46 M-0.72 37.25 C8.98 26.03, 19.23 13.15, 30.45 -1.99 M-0.87 36.87 C8.97 27.36, 18.53 15.24, 30.9 -0.2 M-1.38 44.23 C14.26 25.49, 29.4 9.51, 37.33 -1.58 M0.36 42.51 C13.93 26.89, 26.51 12.58, 36.68 0.36 M-0.35 47.94 C11.57 35.3, 25.82 21.64, 42.22 -0.91 M0.83 49.77 C13.68 34.26, 26.62 18.51, 43.2 -0.45 M-0.86 54.44 C10.1 41.75, 24.99 26.75, 47.34 -0.85 M-0.09 53.57 C12.12 39.19, 26.51 26.02, 47.84 0.59 M-1.52 62.65 C19.31 41.24, 39 16.98, 52.03 1.31 M-0.13 60.73 C11.96 47.32, 23.94 34.8, 52.53 0.18 M1.58 65.87 C19.45 44.88, 36.29 24.93, 56.78 0.7 M-0.11 67.3 C19.52 42, 41.66 17.48, 57.9 1.18 M2.06 72.75 C25.77 42.95, 49.05 17.25, 65.71 1.5 M-0.54 73.46 C20.93 49.33, 41.33 25.01, 63.85 -0.83 M-1.39 80.32 C19.64 58.05, 40.48 36.7, 69.91 2.58 M-0.21 78.41 C16.24 59.64, 32.96 40.17, 69.1 1.9 M0.78 83.49 C23.44 56.15, 49.01 29.36, 66.67 5.9 M-0.24 85.72 C26.76 53.69, 54.79 23.31, 68.46 7.62 M1.02 91.76 C24 65.75, 46.17 37.07, 66.56 11.99 M0.08 91.96 C21.67 67.13, 43.66 42.31, 68.11 12.4 M0.51 98.77 C24.33 68.02, 49.94 39.49, 67.61 20.05 M-0.79 98.08 C27.11 65.83, 53.03 35.02, 67.81 20.11 M0.42 103.24 C22 79.7, 44.36 52.05, 69.72 24.11 M0.83 104.3 C14.65 87.44, 26.96 70.4, 67.55 24.49 M1.21 110.07 C24.36 80.71, 51.89 48.87, 66.69 29.86 M-0.83 108.94 C20.35 87.05, 41 63.56, 67.59 31.79 M0.5 115.72 C17.4 95.76, 35.51 76.17, 68.02 36.08 M1.04 115.84 C21.81 90.14, 45.06 64.64, 68.49 38.12 M1.01 121.04 C18.25 99.8, 33.64 79.38, 70.24 43.67 M-0.06 120.99 C17.57 101.23, 36 79.25, 68.49 44.37 M0.46 128.75 C24.54 102.72, 47.36 73.12, 68.16 48.65 M0 127.84 C20.89 104.1, 43.94 79.84, 68.9 49.05 M-1.19 132.43 C23.73 104.87, 46.43 80.42, 68.73 55.65 M-0.57 134.24 C19.98 109.11, 41.93 86.81, 68.13 55.67 M1.57 141.53 C22.68 113.18, 49.04 83.21, 67.02 62.69 M-0.1 141.31 C14.23 123.58, 28.66 107.8, 67.73 61.36 M1.62 146.87 C22.23 124.48, 40.84 98.04, 68.09 66.64 M0.5 146.77 C25.57 115.87, 51.69 87.18, 68.42 68.28 M-0.75 153.38 C24.18 122.18, 51.49 93.4, 70.24 72.23 M-0.11 151.63 C16.46 135.35, 31.46 115.64, 67.49 74.44 M-0.05 157.62 C17.11 136.1, 35.8 115.54, 68.34 81.07 M0.26 159.48 C20.79 136.18, 40.39 112.86, 68.19 80.62 M1.73 164.74 C17.3 143.03, 38.11 117.45, 67.61 85.13 M0.73 163.45 C17.57 143.13, 34.89 122.6, 67.68 85.73 M-1.62 169.55 C20.42 148.63, 38.56 125.34, 67.66 91.51 M0.76 171.05 C17.37 150.3, 34.65 129.75, 67.21 91.43 M1.33 177.94 C23.6 146.23, 49.42 119.55, 68.35 99.91 M0.11 175.52 C22.48 151.53, 44.25 124.87, 68.03 99.5 M-0.35 183.68 C19.19 160.58, 36.86 140.92, 69.03 103.65 M0.99 182.5 C17.74 162.9, 37.58 142.24, 68.86 104.74 M-2.12 189.91 C20.18 162.91, 43.91 139.09, 67.83 110.68 M0 189.38 C20.41 166.08, 40.82 143.76, 67.22 109.82 M-0.7 194.13 C20.09 173.08, 36.28 151.23, 67.52 117.06 M-0.45 194.16 C22.23 168.28, 46.34 142.16, 67.45 116.67 M1.26 201.22 C24.02 171.41, 52.18 141.65, 67.52 123.72 M-0.72 200.37 C15.12 181.99, 33.19 161.55, 68.85 123.09 M0.97 208.92 C15.32 191.79, 28.56 174.25, 69.69 129.95 M-0.02 206.41 C20.67 184.28, 40.2 160.27, 67.6 130.14 M-0.47 212.57 C18.21 190.86, 33.36 172.18, 69.7 134.4 M-0.21 214.18 C15.89 194.72, 32.73 175.34, 68.17 135 M-0.22 218.66 C17.1 199.25, 38.02 177.17, 68.2 140.11 M0.1 220.46 C23.36 192, 49.39 161.85, 68.79 141.87 M1.54 225.78 C25.63 194.78, 49.47 167.86, 68.77 147.98 M0.98 225.78 C23.48 197.31, 48.55 169.5, 69.33 147.31 M0.94 233.63 C25.13 203.37, 50.76 173.52, 69.85 153.51 M0.61 231.31 C26.31 203.27, 51.8 173.14, 67.49 152.9 M0.24 236.53 C16.15 222.48, 27.56 206.94, 66.61 160.33 M1.23 238.21 C18.54 216.01, 38.56 192.79, 68.76 160.6 M-0.17 244.18 C21.78 216.58, 44.86 193.04, 70.22 165.2 M-0.77 244.29 C24.6 214.4, 51.28 185.77, 67.79 165.61 M0.07 251.15 C26.94 222.17, 53.13 190.11, 67.17 170.97 M-0.82 249.35 C21.79 225.34, 42.84 199.74, 67.82 171.26 M0.59 257.85 C16.36 238.24, 33.23 221.54, 69.04 176.13 M-0.78 256.05 C26.42 227.42, 52.99 196.83, 68.66 176.39 M-0.45 263.58 C24.21 235.5, 52.43 203.26, 68.57 183.52 M0.42 262.84 C24.12 235.21, 49.72 206.51, 68.82 183.98 M-0.5 267.99 C18.19 249.85, 35.03 231.77, 69.48 189.87 M0.81 267.27 C19.89 247.07, 38.61 225.53, 67.41 190.5 M-0.64 275.88 C23.28 245.83, 48.72 214.9, 69.72 194.74 M-0.53 274.67 C19.42 250.99, 39.63 227.37, 67.66 196.79 M0.3 282.64 C18.94 260.77, 35.51 239.65, 68.81 201.61 M0.5 281.48 C19.55 255.51, 40.72 231.8, 68.23 202.97 M0.97 287.26 C16.75 265.29, 33.48 246.52, 69.64 207.26 M0.46 286.14 C17.46 267.47, 34.79 247.98, 69.21 207.75 M0.83 293.39 C17.7 270.52, 36.79 249, 66.48 214.66 M-0.29 291.99 C23.3 265.53, 45.28 240.34, 68.26 215.15 M1.96 298.78 C24.47 268.77, 50.89 239.9, 66.82 222.35 M0.45 298.61 C21.7 272.47, 45.34 246.86, 68.57 219.76 M1.09 304.03 C22.74 276.66, 45.19 249.6, 66.69 225.48 M0.8 304.45 C16.84 285.44, 31.21 268.03, 68.26 225.71 M-0.6 310.13 C16.7 292.4, 34.71 272.05, 69.86 232.86 M-1.2 310.24 C19 287.85, 38.82 266.42, 67.8 233.51 M1.84 315.42 C14 298.82, 29.66 281.5, 69.77 236.38 M-0.24 317.81 C19.86 294.58, 36.96 273.14, 67.94 237.39 M0.42 324.63 C26.18 295.27, 54.31 262.78, 69.49 243.82 M-0.25 323.01 C14.53 306.22, 29.46 289.48, 67.88 244.01 M0 330.33 C28.16 299.69, 50.97 269.65, 67.55 252.32 M-0.51 329.07 C23.14 302.03, 46.97 274.83, 67.24 251.74 M-1.66 333.73 C17.27 312.26, 36.19 293.43, 69.24 257.36 M0.53 335.22 C17.7 314.24, 35.05 293.38, 67.43 257.6 M-0.07 342.14 C22.19 315.33, 45.33 286.39, 69.91 261.83 M-0.82 342.07 C23.04 316.91, 46.6 290.74, 67.06 264.1 M-0.75 345.99 C13.37 328.97, 30.61 310.14, 68.77 269.47 M-0.05 346.47 C24.91 316.66, 50.95 287.03, 67.96 268.65 M0.09 351.84 C26.36 324, 52.11 293.46, 68.92 273.64 M-1.07 354.44 C22.56 328.68, 46.55 302.26, 67.24 276.15 M1.36 359.86 C20.84 337.78, 41.74 314.13, 67.18 282.8 M-0.23 358.44 C20.21 335.06, 40.71 311.61, 67.3 282.38 M1.1 364.58 C15.67 350.08, 29.86 329.36, 69.4 285.55 M-0.19 366.13 C16.87 347.33, 33.39 327.45, 69.22 286.86 M-1.66 372.4 C17.39 352.19, 32.95 334.85, 69.7 295.6 M0.02 371.61 C26.03 340.54, 52.46 309.31, 68.17 293.78 M0.37 378.6 C23.2 354.96, 42.28 331.43, 68.33 301.26 M0.46 378.4 C25.92 349.12, 51.97 319.05, 69.38 299.29 M-2.01 384.31 C17.68 361.99, 37.08 340.66, 67.69 306.24 M-0.36 384.26 C14.1 367.04, 28.26 350.81, 68.26 306.19 M-0.59 390.04 C23.44 364.98, 46.09 337.64, 66.14 311.09 M0.5 390.58 C17.14 370.19, 32.28 352.11, 68.38 311.29 M-0.47 394.9 C22.44 371.93, 40.52 346.45, 69.31 318.23 M1.85 395.5 C24.25 369.2, 45.29 344.14, 68.86 318.25 M6.44 393.36 C28.57 368.36, 50.07 342.67, 69.35 324.97 M7.01 394.51 C28.93 370.34, 50 344.67, 67.78 324.52 M13.55 393.05 C31.99 370.24, 52.8 346.59, 66.82 328.96 M12.03 394.19 C28.33 374.39, 46.9 354.39, 68.18 330.65 M16.61 395.45 C29.25 379.18, 42.46 362.6, 66.65 336.99 M16.84 394.67 C30.23 379.79, 44.38 365.58, 68.12 336.97 M21.72 393.15 C38.73 375.19, 54.83 358.23, 67.98 342.44 M23.43 394.87 C37.73 377.03, 51.57 361.25, 68.73 342.91 M27.88 394.61 C40.55 382.35, 48.47 369.23, 67.48 346.32 M28.46 395.08 C39.5 382.61, 48.93 369.16, 67.53 347.93 M34.98 392.89 C41.71 381.51, 51.54 372.79, 66.62 354.28 M33.43 395.59 C45.81 379.37, 60.02 364.35, 67.91 354.35 M38.29 394.45 C49.02 385.74, 53.8 375.2, 69.46 362.04 M39.23 393.32 C48.83 381.89, 58.3 371.25, 69.06 360.76 M44.44 395.85 C49.37 387.45, 54.67 379.63, 66.73 368.24 M44.34 394.46 C50.73 387.27, 57.07 380.32, 68.11 366.61 M49.97 392.5 C54.88 386.2, 59.56 383.5, 69.62 371.86 M49.42 395.04 C57.36 385.12, 64.61 377.32, 68.08 373.63 M53.29 395.45 C57.27 390.94, 61.74 385.88, 69.09 377.22 M55.43 393.64 C58.44 389.25, 64.62 382.58, 69.3 378.65 M60.79 395.33 C62.17 390.17, 66.96 388.11, 67.49 386.28 M60.22 394.02 C62.03 392.31, 63.45 389.91, 68.51 384.75 M65.09 394.65 C65.85 393.31, 67.2 392.34, 67.98 391.05 M65.09 394.73 C66.27 393.44, 67.06 392.37, 68.42 390.92" stroke="#868e96" stroke-width="0.5" fill="none"></path><path d="M0.49 0.16 C26.15 -0.6, 53.18 -1.48, 66.97 0.34 M0.37 -0.41 C16.65 -0.28, 34.1 -1.57, 66.19 0.72 M66.82 0.56 C64.75 145.67, 65.54 294.42, 67.4 393.73 M67.29 -0.13 C68.84 155.5, 68.42 311.25, 67.38 392.42 M65.33 392.75 C41.91 391.25, 16.69 393.79, 1.95 391.27 M67.98 392.32 C50.11 392.61, 32.67 392.57, 0.76 393.02 M0.28 393.45 C2.64 262.46, 3.04 131.96, -0.18 1.05 M0.16 393.21 C1.14 294.75, 0.87 195.34, -0.44 0.36" stroke="#000000" stroke-width="1" fill="none"></path></g><g transform="translate(218.8949723224173 154.3565813023171) rotate(0 8 185)"><text x="0" y="26" font-family="Virgil, Segoe UI Emoji" font-size="29.211314017905554px" fill="#000000" text-anchor="start" style="white-space: pre;" direction="ltr">y</text><text x="0" y="63" font-family="Virgil, Segoe UI Emoji" font-size="29.211314017905554px" fill="#000000" text-anchor="start" style="white-space: pre;" direction="ltr">y</text><text x="0" y="100" font-family="Virgil, Segoe UI Emoji" font-size="29.211314017905554px" fill="#000000" text-anchor="start" style="white-space: pre;" direction="ltr">y</text><text x="0" y="137" font-family="Virgil, Segoe UI Emoji" font-size="29.211314017905554px" fill="#000000" text-anchor="start" style="white-space: pre;" direction="ltr">y</text><text x="0" y="174" font-family="Virgil, Segoe UI Emoji" font-size="29.211314017905554px" fill="#000000" text-anchor="start" style="white-space: pre;" direction="ltr">n</text><text x="0" y="211" font-family="Virgil, Segoe UI Emoji" font-size="29.211314017905554px" fill="#000000" text-anchor="start" style="white-space: pre;" direction="ltr">y</text><text x="0" y="248" font-family="Virgil, Segoe UI Emoji" font-size="29.211314017905554px" fill="#000000" text-anchor="start" style="white-space: pre;" direction="ltr">n</text><text x="0" y="285" font-family="Virgil, Segoe UI Emoji" font-size="29.211314017905554px" fill="#000000" text-anchor="start" style="white-space: pre;" direction="ltr">n</text><text x="0" y="322" font-family="Virgil, Segoe UI Emoji" font-size="29.211314017905554px" fill="#000000" text-anchor="start" style="white-space: pre;" direction="ltr">n</text><text x="0" y="359" font-family="Virgil, Segoe UI Emoji" font-size="29.211314017905554px" fill="#000000" text-anchor="start" style="white-space: pre;" direction="ltr">n</text></g><g stroke-linecap="round" transform="translate(491.83100186611 82.89120176229247) rotate(0 105.36001896987176 79.25311161450537)"><path d="M-0.74 0.55 C85.1 1.3, 168.97 2.19, 212.28 1.76 M0.04 -0.56 C51.91 1.95, 104.9 1.74, 210.9 0.04 M210.93 1.93 C208.86 46.23, 208.73 95.84, 211.53 159.28 M211.03 0.05 C211.26 39.36, 210.66 77.36, 210.47 159.03 M212.04 159.59 C168.26 161.21, 122.96 160.59, -0.64 158.18 M210.09 159.3 C145.96 158.02, 80.1 157.88, 0.4 159.27 M-0.29 158.13 C1.72 116.93, 2.26 76.08, -0.11 1.49 M-0.17 158.19 C-0.22 123, -0.78 85.92, 0.46 0.62" stroke="#000000" stroke-width="1" fill="none"></path></g><g transform="translate(564.2334911577142 93.13333002084701) rotate(0 33.5 17.5)"><text x="33.5" y="25" font-family="Virgil, Segoe UI Emoji" font-size="28px" fill="#000000" text-anchor="middle" style="white-space: pre;" direction="ltr">Node</text></g><g transform="translate(502.57154341568446 144.02324924752043) rotate(0 27 12.5)"><text x="0" y="18" font-family="Virgil, Segoe UI Emoji" font-size="20px" fill="#000000" text-anchor="start" style="white-space: pre;" direction="ltr">index:</text></g><g transform="translate(502.1265838023477 175.75122073216434) rotate(0 50 12.5)"><text x="0" y="18" font-family="Virgil, Segoe UI Emoji" font-size="20px" fill="#000000" text-anchor="start" style="white-space: pre;" direction="ltr">conditions:</text></g><g transform="translate(499.6391538672784 204.6552967327485) rotate(0 45 12.5)"><text x="0" y="18" font-family="Virgil, Segoe UI Emoji" font-size="20px" fill="#000000" text-anchor="start" style="white-space: pre;" direction="ltr">branches:</text></g><g stroke-linecap="round" transform="translate(617.7035909009124 138.8345746666492) rotate(0 34.49841329102003 17.5)"><path d="M-1.48 0.49 C15.67 -1.32, 33.13 1.92, 69.65 1.83 M0.96 -0.67 C14.6 0.1, 30.05 -0.32, 69.64 0.17 M70.72 -1.44 C69.56 9.7, 67.77 23.32, 70.45 34.49 M69.48 0.84 C69.82 10.41, 70.2 22.28, 69.36 34.45 M69.45 35.01 C47.35 35.34, 20.51 36.51, -1.1 34.21 M68.24 35.67 C52.22 35.15, 35.21 34.32, -0.92 35.11 M-0.1 35.42 C1.28 28.09, -1.87 21.63, -0.25 1.13 M0.03 34.61 C0.25 23.66, -0.87 14.18, -0.54 0.99" stroke="#000000" stroke-width="1" fill="none"></path></g><g transform="translate(644.2020041919326 143.8345746666492) rotate(0 8 12.5)"><text x="8" y="18" font-family="Virgil, Segoe UI Emoji" font-size="20px" fill="#000000" text-anchor="middle" style="white-space: pre;" direction="ltr">0</text></g><g stroke-linecap="round" transform="translate(618.6359804493183 170.53581931245137) rotate(0 34.49841329102003 17.5)"><path d="M0.23 -1.62 C26.69 2.22, 50.18 1.06, 70.54 0.75 M0.56 0.01 C15.87 -0.64, 30.38 -0.3, 69.49 -0.79 M70.98 -1.68 C67.79 9.55, 67.11 16.36, 67.45 36.83 M68.24 0.53 C68.63 13.27, 69.39 25.91, 68.41 34.74 M69.34 35.76 C53.46 34.18, 36.87 35.58, 1.37 36.42 M69.19 35.31 C47.17 35.81, 25.77 35.79, 0.15 34 M-0.78 34.18 C-0.69 21.37, 1.53 9.95, -1.98 -0.69 M-0.71 34.78 C0.02 26.57, 0.98 17.85, -0.64 0.57" stroke="#000000" stroke-width="1" fill="none"></path></g><g transform="translate(632.6343937403384 175.53581931245137) rotate(0 20.5 12.5)"><text x="20.5" y="18" font-family="Virgil, Segoe UI Emoji" font-size="20px" fill="#000000" text-anchor="middle" style="white-space: pre;" direction="ltr">a, b</text></g><g stroke-linecap="round" transform="translate(617.7035909009122 199.43989531303563) rotate(0 34.49841329102003 14.918232774495124)"><path d="M-0.18 -1.22 C13.85 0.58, 30.07 0.25, 69.85 0.19 M0.01 -0.6 C16.81 0.91, 33.23 0.32, 68.38 0.5 M69.32 0.02 C69.6 11.62, 69 23.59, 69.46 31.41 M68.52 -0.68 C68.31 9, 68.27 18.55, 69.68 30.41 M67.84 27.84 C53.69 28.94, 40.85 28.91, 1.56 28.32 M69.04 29.44 C52.49 29.56, 36.01 30.01, 0.76 30.7 M-0.13 28.87 C-1.86 18.41, 1.25 10.73, 0.71 1.04 M0.01 29.76 C0.43 19.29, 0.44 7.43, 0.38 -0.18" stroke="#000000" stroke-width="1" fill="none"></path></g><g stroke-linecap="round" transform="translate(627.8906918584693 207.85071475902075) rotate(0 9.775187770666435 9.775187770666463)"><path d="M4.37 1.14 C4.37 1.14, 4.37 1.14, 4.37 1.14 M4.37 1.14 C4.37 1.14, 4.37 1.14, 4.37 1.14 M2.06 9.83 C4.92 9.16, 4.6 6.34, 10.32 -0.48 M2.09 10.31 C4.88 6.55, 8.4 1.86, 10.65 0.47 M1.2 15.21 C5.6 11.05, 9.86 3.59, 15.22 0.98 M1.74 15.18 C5.43 12.52, 8.38 9.5, 14.12 2.21 M4.53 19.46 C7.69 12.66, 11.59 12, 16.12 4.15 M5.12 18.95 C9.32 15.07, 12.81 10.46, 18.88 4.59 M8.05 19.22 C10.73 16.64, 15.99 13.64, 20.54 8.34 M8.16 19.91 C12.18 16.99, 15.41 12.95, 20.42 7.21" stroke="#4c6ef5" stroke-width="0.5" fill="none"></path><path d="M10.86 0.02 C12.81 -0.11, 14.45 0.71, 15.98 2.29 C17.51 3.87, 19.68 7.33, 20.03 9.5 C20.37 11.67, 19.39 13.58, 18.04 15.3 C16.69 17.01, 13.9 19.2, 11.95 19.79 C9.99 20.38, 8.09 19.68, 6.32 18.85 C4.55 18.01, 2.49 16.56, 1.34 14.81 C0.19 13.06, -1.07 10.6, -0.57 8.32 C-0.06 6.04, 2.23 2.41, 4.36 1.15 C6.49 -0.12, 10.77 0.91, 12.22 0.74 C13.67 0.58, 13.23 -0.03, 13.06 0.15 M9.98 -0.07 C12 0.37, 15.28 2.02, 17.02 3.72 C18.75 5.41, 20.17 7.96, 20.39 10.11 C20.6 12.27, 19.59 15.27, 18.32 16.66 C17.06 18.06, 14.86 18.11, 12.8 18.48 C10.74 18.84, 7.81 19.38, 5.95 18.84 C4.1 18.3, 2.5 16.98, 1.67 15.24 C0.83 13.49, 0.61 10.69, 0.95 8.38 C1.29 6.06, 1.96 2.53, 3.72 1.37 C5.47 0.21, 10.44 1.45, 11.48 1.42 C12.52 1.38, 10.25 1.09, 9.95 1.17" stroke="#000000" stroke-width="1" fill="none"></path></g><g stroke-linecap="round" transform="translate(658.8454531322467 207.8507147590208) rotate(0 9.775187770666435 9.775187770666463)"><path d="M1.93 5.65 C1.93 5.65, 1.93 5.65, 1.93 5.65 M1.93 5.65 C1.93 5.65, 1.93 5.65, 1.93 5.65 M0.59 13.51 C4.2 11.48, 5.78 8.32, 8.15 3.97 M0.81 13.09 C3.34 11.48, 4.54 8.4, 9.45 3.37 M4.33 15.34 C6.76 14.9, 7.67 11.49, 14.87 2.42 M3.4 16.49 C6.18 13.79, 9.08 11.2, 14.39 3.15 M5.22 19.96 C10.14 16.32, 13.24 10.63, 18.78 6.44 M7.1 18.16 C10.73 13.58, 13.95 9.95, 17.71 5.16 M11.8 18.51 C13.45 16.06, 15.08 12.93, 20.41 9.77 M11.96 19.23 C13.75 16.34, 15.8 14.85, 19.07 10.15" stroke="#4c6ef5" stroke-width="0.5" fill="none"></path><path d="M7.1 1.01 C8.85 0.33, 10.77 0.42, 12.49 1.07 C14.21 1.73, 16.3 3.18, 17.44 4.93 C18.58 6.67, 19.6 9.39, 19.33 11.57 C19.05 13.74, 17.19 16.79, 15.78 17.98 C14.37 19.17, 12.79 18.82, 10.87 18.7 C8.96 18.57, 6.13 18.22, 4.29 17.22 C2.46 16.21, 0.24 14.63, -0.13 12.68 C-0.5 10.72, 0.71 7.62, 2.05 5.51 C3.39 3.4, 6.93 0.86, 7.9 0.03 C8.87 -0.8, 8 0.43, 7.87 0.54 M9.55 0.97 C11.18 0.54, 13.37 0.73, 14.8 2.01 C16.24 3.29, 17.81 6.79, 18.16 8.65 C18.52 10.51, 17.52 11.7, 16.92 13.17 C16.33 14.64, 16.43 16.44, 14.58 17.48 C12.73 18.52, 7.82 20.07, 5.81 19.39 C3.8 18.7, 3.56 15.2, 2.54 13.37 C1.51 11.54, -0.6 10.16, -0.34 8.41 C-0.08 6.65, 2.25 4.11, 4.09 2.84 C5.94 1.56, 9.91 1.31, 10.72 0.77 C11.52 0.22, 9.21 -0.52, 8.94 -0.43" stroke="#000000" stroke-width="1" fill="none"></path></g><g stroke-linecap="round" transform="translate(445.9249415324134 334.120028877005) rotate(0 105.36001896987176 101.75596952302735)"><path d="M0.41 -0.49 C76.5 -0.88, 150.97 1.54, 209.53 0.59 M0.35 -0.18 C44.81 1.68, 88.78 0.28, 211.53 -0.68 M209.54 -1.78 C211.09 61.45, 209.87 123.08, 211.3 204.9 M209.97 -0.7 C212.02 67.71, 212.04 135.94, 210.56 204.24 M209.07 203.75 C151.87 203.7, 92.8 204.34, -1.4 204.07 M211.36 202.99 C164.26 202.36, 117.02 200.86, 0.82 203.55 M0.45 203.6 C2.79 139.06, 2.8 73.21, 1.06 0.07 M-0.82 203.63 C-0.65 122.22, -0.5 40.22, 0.68 -0.7" stroke="#000000" stroke-width="1" fill="none"></path></g><g transform="translate(518.8274308240179 344.3621571355595) rotate(0 33 17.5)"><text x="33" y="25" font-family="Virgil, Segoe UI Emoji" font-size="28px" fill="#000000" text-anchor="middle" style="white-space: pre;" direction="ltr">Leaf</text></g><g transform="translate(456.665483081988 395.25207636223286) rotate(0 27 12.5)"><text x="0" y="18" font-family="Virgil, Segoe UI Emoji" font-size="20px" fill="#000000" text-anchor="start" style="white-space: pre;" direction="ltr">index:</text></g><g transform="translate(456.2205234686512 426.9800478468768) rotate(0 50 12.5)"><text x="0" y="18" font-family="Virgil, Segoe UI Emoji" font-size="20px" fill="#000000" text-anchor="start" style="white-space: pre;" direction="ltr">conditions:</text></g><g transform="translate(453.7330935335817 455.88412384746096) rotate(0 45 12.5)"><text x="0" y="18" font-family="Virgil, Segoe UI Emoji" font-size="20px" fill="#000000" text-anchor="start" style="white-space: pre;" direction="ltr">branches:</text></g><g stroke-linecap="round" transform="translate(571.7975305672161 390.0634017813617) rotate(0 34.49841329102003 17.5)"><path d="M1.89 -1.35 C22.46 -1.25, 42.21 -0.64, 69.79 -0.4 M-0.96 0.92 C26.26 -0.6, 54.55 -1.09, 68.33 -0.99 M69.35 0.65 C70.57 10.23, 70.81 18.59, 67.32 33.44 M68.54 -0.18 C69.62 8.93, 67.96 18.4, 68.06 35.13 M69.76 33.42 C50.29 33.09, 28.78 32.66, 1.45 33.82 M68.08 35.93 C45.14 35.22, 20.44 35.56, 0.25 35.05 M-0.71 36.18 C0 23.75, -0.01 7.41, -1.83 0.27 M-0.59 35.76 C-0.82 27.34, -0.08 19.13, -0.59 0.44" stroke="#000000" stroke-width="1" fill="none"></path></g><g transform="translate(598.295943858236 395.0634017813617) rotate(0 8 12.5)"><text x="8" y="18" font-family="Virgil, Segoe UI Emoji" font-size="20px" fill="#000000" text-anchor="middle" style="white-space: pre;" direction="ltr">-1</text></g><g stroke-linecap="round" transform="translate(572.7299201156219 421.7646464271638) rotate(0 34.49841329102003 17.5)"><path d="M0.66 -1.82 C13.56 -0.75, 30.67 0.07, 70.83 1.25 M-0.77 0.02 C27.36 -1.1, 53.11 -1.63, 68.72 0.04 M70.55 0.7 C70.86 6.68, 67.38 12.72, 68.23 33.95 M69.81 -0.22 C67.99 9.35, 67.9 18.68, 68.8 35.02 M69.63 33.45 C50.35 32.47, 36.23 33.28, 0.93 36.56 M69.04 35.19 C47.15 36.16, 27.07 35.69, 0.79 35.21 M0.08 37 C0.19 20.63, -1.7 8.73, -1.32 0.21 M-0.78 35.54 C0.17 26.72, -0.38 17.84, 0.86 -0.05" stroke="#000000" stroke-width="1" fill="none"></path></g><g stroke-linecap="round" transform="translate(571.7975305672156 450.6687224277481) rotate(0 34.49841329102003 17.5)"><path d="M-1.38 -1.22 C16.84 0.23, 33.93 1.88, 70.79 -1.92 M0.48 -0.47 C26.38 -1.01, 53.81 0.03, 68.04 0.18 M70.8 -0.47 C67.59 10.07, 68.5 22.22, 68.29 34.09 M68.15 0.08 C68.34 10.02, 69.08 19.78, 68.48 35.38 M67.46 33.02 C55.21 33.29, 39.45 36.03, 0.11 33.17 M68.23 35.52 C42.16 35.18, 15.62 35.34, 0.79 34.64 M0.07 33.91 C-1.84 22.7, -1.33 10.07, -0.97 -1.18 M-0.04 35.52 C-0.32 22.29, 1.14 8.67, -0.78 0.56" stroke="#000000" stroke-width="1" fill="none"></path></g><g stroke-linecap="round" transform="translate(731.7720555055306 329.2545460859732) rotate(0 105.36001896987182 104.18871091854325)"><path d="M-0.26 -0.61 C69.72 -0.09, 139.03 1.64, 212 0.92 M-0.62 -0.69 C45.95 -0.66, 93.24 -1.38, 209.94 -0.21 M211.39 1.26 C211.75 69.46, 209.15 136.74, 209.52 209.42 M210.53 0.8 C209.48 47.79, 210.2 97.82, 210.9 208.6 M212.46 207.03 C154.42 205.49, 96.72 206.23, 0.66 208.4 M211.53 208.85 C139.92 209.1, 69.17 208.39, -0.46 208.09 M-1.33 206.94 C1.15 129.37, 1.05 54.32, 1.3 -1.06 M-0.67 208.03 C0.25 139.52, 0.16 71.6, 0.44 -0.37" stroke="#000000" stroke-width="1" fill="none"></path></g><g transform="translate(804.6745447971347 339.4966743445277) rotate(0 33 17.5)"><text x="33" y="25" font-family="Virgil, Segoe UI Emoji" font-size="28px" fill="#000000" text-anchor="middle" style="white-space: pre;" direction="ltr">Leaf</text></g><g transform="translate(742.5125970551052 390.38659357120105) rotate(0 27 12.5)"><text x="0" y="18" font-family="Virgil, Segoe UI Emoji" font-size="20px" fill="#000000" text-anchor="start" style="white-space: pre;" direction="ltr">index:</text></g><g transform="translate(742.0676374417684 422.114565055845) rotate(0 50 12.5)"><text x="0" y="18" font-family="Virgil, Segoe UI Emoji" font-size="20px" fill="#000000" text-anchor="start" style="white-space: pre;" direction="ltr">conditions:</text></g><g transform="translate(739.5802075066989 451.01864105642915) rotate(0 45 12.5)"><text x="0" y="18" font-family="Virgil, Segoe UI Emoji" font-size="20px" fill="#000000" text-anchor="start" style="white-space: pre;" direction="ltr">branches:</text></g><g stroke-linecap="round" transform="translate(857.6446445403329 383.9815482925719) rotate(0 34.49841329102003 17.5)"><path d="M1.73 1.45 C21 -1.29, 40.61 1.78, 67.59 -1.56 M-0.02 -0.88 C17.68 -0.19, 35.6 0.03, 69.37 0.71 M68.25 -1.36 C70.33 12.06, 68.74 25.51, 68.56 36.8 M69.56 0.2 C68.9 6.76, 69.43 13.44, 69.98 34.24 M68.16 35.75 C48.73 35.09, 29.99 35.08, 1.85 36.06 M68.27 34.47 C47.89 35.79, 27.63 35.51, -0.75 34.19 M1.65 36.47 C-0.95 22.08, 0.41 6.48, -1.52 -0.78 M0.59 35.49 C-0.34 22.23, 1.07 10.7, -0.08 -0.23" stroke="#000000" stroke-width="1" fill="none"></path></g><g transform="translate(884.1430578313533 388.9815482925719) rotate(0 8 12.5)"><text x="8" y="18" font-family="Virgil, Segoe UI Emoji" font-size="20px" fill="#000000" text-anchor="middle" style="white-space: pre;" direction="ltr">-1</text></g><g stroke-linecap="round" transform="translate(858.5770340887387 416.899163636132) rotate(0 34.49841329102003 17.5)"><path d="M1.05 -1.6 C18.3 0.96, 33.76 -2.06, 68.19 1.6 M-0.24 0.3 C25.3 1.12, 51.44 1.32, 69.82 0.43 M70.18 -1.33 C68.46 6.98, 68.43 18.27, 67.05 33.03 M69.24 -0.33 C69.97 9.17, 70.18 19.1, 68.94 34.16 M69.02 35.72 C56.15 35.96, 42 36.32, 0.02 35.14 M68.68 35.73 C47.94 35.09, 25.74 33.83, 0.86 34.3 M-1.2 35.59 C-0.13 20.18, -1.81 7.59, 0.9 -0.47 M-0.42 34.3 C0.78 23.15, -0.28 11.38, 0.51 -0.82" stroke="#000000" stroke-width="1" fill="none"></path></g><g stroke-linecap="round" transform="translate(857.6446445403329 445.8032396367163) rotate(0 34.49841329102003 17.5)"><path d="M0.71 1.46 C24.3 -1.01, 50.62 2.15, 70.4 -0.04 M-0.23 0.51 C14.98 0.51, 30.03 0.22, 68.35 -0.37 M68.59 -1.26 C68.76 9.93, 67.26 14.29, 68.67 36.13 M69.78 -0.76 C70.07 10.43, 69.02 21.54, 68.09 34.58 M70.57 35.7 C47.55 36.31, 22.43 35.39, 0.16 33.55 M69.2 35.45 C51.17 34.69, 35.71 34.8, 0.8 35.83 M0.16 33.5 C-1.31 21.15, 1.11 8.39, 0.68 1.17 M0.98 34.84 C0.07 22.54, 0.66 9.71, -0.02 0.47" stroke="#000000" stroke-width="1" fill="none"></path></g><g stroke-linecap="round"><g transform="translate(633.9981679498259 226.05205303678693) rotate(0 -39.25853487160987 54.028760770138746)"><path d="M-1.18 1.03 C-14.36 18.49, -65.49 88.31, -78.34 105.94 M0.4 0.52 C-12.93 18.71, -65.74 90.12, -78.92 107.54" stroke="#000000" stroke-width="1" fill="none"></path></g><g transform="translate(633.9981679498259 226.05205303678693) rotate(0 -39.25853487160987 54.028760770138746)"><path d="M-68.56 80.01 C-72.9 90.32, -74.53 97.52, -78.89 108.85 M-70.04 78.22 C-71.52 85.33, -73.45 91.46, -78.27 106.87" stroke="#000000" stroke-width="1" fill="none"></path></g><g transform="translate(633.9981679498259 226.05205303678693) rotate(0 -39.25853487160987 54.028760770138746)"><path d="M-52.12 92.28 C-62.46 98.03, -69.98 100.84, -78.89 108.85 M-53.59 90.49 C-58.93 94.94, -64.63 98.27, -78.27 106.87" stroke="#000000" stroke-width="1" fill="none"></path></g></g><g stroke-linecap="round"><g transform="translate(671.7056595803223 223.61931164127103) rotate(0 55.07288091943553 52.877197193054855)"><path d="M0.78 -0.82 C19.1 16.91, 92.46 88.61, 110.41 106.57 M-0.27 1.36 C17.93 18.74, 91.44 87.53, 109.96 104.85" stroke="#000000" stroke-width="1" fill="none"></path></g><g transform="translate(671.7056595803223 223.61931164127103) rotate(0 55.07288091943553 52.877197193054855)"><path d="M81 94.65 C93.07 95.3, 103.17 100.29, 108.64 103.57 M83.07 92.42 C88.1 96.41, 93.44 97.62, 109.73 105.03" stroke="#000000" stroke-width="1" fill="none"></path></g><g transform="translate(671.7056595803223 223.61931164127103) rotate(0 55.07288091943553 52.877197193054855)"><path d="M95.02 79.66 C102.31 85.53, 107.63 95.64, 108.64 103.57 M97.09 77.44 C99.37 84.42, 101.86 88.67, 109.73 105.03" stroke="#000000" stroke-width="1" fill="none"></path></g></g><g transform="translate(453.9810204986942 488.4518307300823) rotate(0 26.5 12.5)"><text x="0" y="18" font-family="Virgil, Segoe UI Emoji" font-size="20px" fill="#000000" text-anchor="start" style="white-space: pre;" direction="ltr">mode:</text></g><g stroke-linecap="round" transform="translate(571.5232286103735 487.10094282335615) rotate(0 34.498413291020086 17.5)"><path d="M0 0 C0 0, 0 0, 0 0 M0 0 C0 0, 0 0, 0 0 M-0.34 6.6 C1.8 5.03, 3 2.59, 5.69 1.02 M-0.1 6.53 C1.05 4.55, 2.7 2.3, 5.37 0.76 M-1.11 11.99 C2.18 8.22, 4.04 5.28, 10.9 0.14 M-0.31 12.47 C3.71 9.55, 5.96 5.57, 11.16 0.06 M-1.07 18.7 C3.36 14.54, 8.54 10.59, 17.51 -1.43 M-0.15 19.33 C4.18 12.01, 10.24 7.11, 15.91 0.23 M0.6 25.4 C8.12 16.91, 16.86 8.15, 21.41 -1.45 M-0.07 24.53 C7.54 14.71, 14.8 7.49, 21.93 0.1 M-0.79 32.28 C6.37 25.37, 11.97 15.29, 24.61 0.16 M0.22 31.09 C6.78 22.77, 13.13 14.72, 25.3 1.02 M1.17 33.42 C9.56 22.81, 21.85 11.88, 30.45 -1.24 M1.88 35.16 C9.78 26.18, 18.32 13.95, 32.4 -0.06 M6.31 34.48 C12.85 29.54, 19.47 18.06, 35.63 1.86 M5.5 35.77 C15.46 24.95, 25.78 12.81, 36.18 0.06 M10.55 35.05 C22.63 23.16, 33.9 13.83, 40.75 1.82 M11.96 35 C24.02 21.43, 37.15 6.89, 42.75 -0.52 M15.06 34.31 C28.17 23.38, 37.29 8.79, 46.28 0.61 M17.66 35.54 C28.08 23.06, 38.69 10.25, 47.55 -0.21 M23.46 37.8 C30.61 26.24, 35.9 17.59, 55.08 -1.4 M21.91 35.31 C32.99 23.53, 45.26 9.49, 53.94 0.69 M29.14 34.44 C35.67 26.81, 42.28 22.7, 56.4 -0.76 M26.32 36.37 C34.87 27.8, 42.55 18.3, 57.36 0.67 M30.54 37.49 C39.06 27.86, 45.97 20.59, 64.34 -2.14 M32.23 35.8 C42.39 25.81, 51.95 13.59, 63.89 -0.43 M36.96 34.12 C45.23 25.62, 52.35 18.26, 69.94 -1.58 M38.65 35.03 C44.81 27.11, 52.2 20.37, 68.47 -0.74 M44.6 34.07 C50.11 30.03, 53.3 21.43, 72.94 1.26 M42.4 36.52 C52.1 26.4, 60.93 15.55, 70.82 3.22 M47.04 34.48 C56.33 27.76, 63.21 19.58, 71.78 9.04 M48.74 36.34 C56.87 26.64, 65.86 15.43, 71.5 8.46 M55.24 36.6 C60.86 29.39, 64.94 21.37, 70.77 15.33 M53.48 36.82 C59.55 29.56, 64.25 22.14, 71.26 15.82 M59.99 34.58 C62.19 29.26, 67.09 26.23, 73.33 19.84 M59.61 35.2 C62.35 30.56, 66.37 25.87, 72.43 21.17 M64.17 35.98 C65.51 32.67, 68.32 32.05, 72.61 25.98 M63.76 36.05 C66.37 34.3, 68.35 31.88, 71.91 26.64" stroke="#fd7e14" stroke-width="0.5" fill="none"></path><path d="M-0.96 0.42 C25.16 -0.8, 48 -1.72, 68.92 -1.88 M-0.51 -0.75 C15.6 1.48, 32.78 0.36, 68.42 0.98 M69.45 1.18 C68.47 7.35, 70.08 17.36, 69.71 35.7 M69.48 0.67 C69.22 8.27, 68.33 16.82, 69.99 34.75 M69.57 33.37 C49.61 34.56, 31.58 35.52, -1.43 33.28 M68.33 35.88 C42.36 34.15, 15.89 35.71, 0.73 35.26 M1.52 33.77 C1.65 24.05, 0.95 14.03, -1.54 0.92 M0.05 35.41 C-0.13 22.77, -0.66 9.16, -0.08 -0.32" stroke="#000000" stroke-width="1" fill="none"></path></g><g transform="translate(593.5216419013935 492.10094282335615) rotate(0 12.5 12.5)"><text x="12.5" y="18" font-family="Virgil, Segoe UI Emoji" font-size="20px" fill="#000000" text-anchor="middle" style="white-space: pre;" direction="ltr">"y"</text></g><g stroke-linecap="round" transform="translate(858.5867132812481 479.80271863680844) rotate(0 34.49841329102003 17.5)"><path d="M0 0 C0 0, 0 0, 0 0 M0 0 C0 0, 0 0, 0 0 M-0.52 6.64 C0.78 4.66, 2.4 4.61, 5.72 0.6 M-0.43 6 C1.55 4.4, 2.89 2.64, 5.16 0.44 M0.55 12.45 C2.56 7.53, 9.39 1.75, 9.57 0.2 M0.69 11.99 C3.63 8.14, 7.65 3.99, 11.34 0.38 M0.75 19.51 C7.23 10.67, 13.26 4.52, 13.72 0.78 M-0.88 18.61 C5.4 12.33, 10.53 7.3, 16.55 0.43 M-0.77 25.01 C6.85 19.01, 11.29 13.86, 21.23 0.42 M0.67 25 C5.82 18.15, 9.68 11.41, 21.06 0 M-0.19 31.78 C7.98 22.11, 17.5 10.28, 28.12 -0.52 M-0.71 30.38 C5.31 24.54, 9.76 18.22, 27.23 -0.05 M1.26 36.17 C8.28 25.91, 15.5 18.83, 32.34 1.36 M1.37 35.32 C7.28 27.42, 14.09 20.9, 31.61 0.77 M8.02 33.85 C18.71 22.03, 29.95 6.92, 37.44 1.32 M6.65 35.4 C14.86 24.79, 23.08 15.48, 37.12 -0.63 M12.86 34.2 C20.54 28.89, 26.13 18.84, 43.11 -0.75 M11.03 35.38 C21.17 24.98, 32.33 13.51, 41.79 -0.38 M18.03 33.92 C23.29 28.62, 28.34 19.18, 49.19 0.42 M15.78 34.74 C25.97 25.21, 35.14 13.92, 46.81 1.04 M20.53 35.82 C32.62 19.81, 48.49 7.35, 54.13 0.18 M20.99 36.34 C29.57 25.46, 39.31 16.54, 53.18 -0.61 M27.35 33.84 C36.48 23.03, 49.03 10.84, 59.03 0.79 M26.9 35.28 C34.61 27.52, 39.93 19.86, 57.83 -0.67 M30.75 34.03 C41.92 24.63, 53.66 9.38, 62.1 0.08 M31.35 35.82 C43.23 25.03, 52.49 12.67, 64.27 -1 M38.17 36.05 C47.19 25.57, 54.88 17.84, 70.72 0.3 M37.75 34.69 C48.87 22.37, 59.21 11.2, 68.66 0.7 M44.14 37.95 C49.48 27.52, 59.66 18.53, 73.24 3.79 M43.18 35.78 C49.08 29.09, 56.91 21.15, 71.88 2.46 M48.84 36.87 C56.25 28.52, 62.42 22.52, 72.96 7.02 M49.03 34.7 C55.05 28.7, 60.53 20.43, 71.49 7.95 M54.09 37.85 C59.54 29.89, 64.9 20.31, 71.27 13.05 M53.14 35.48 C57.89 30.3, 63.25 24.04, 71.14 14.84 M57.89 34.56 C62 29.07, 68.66 26.16, 72.97 22.73 M58.42 35.13 C62.27 30.57, 66.89 26.55, 71.94 21.87 M65.35 37.08 C65.68 32.61, 67.71 30.41, 72.71 27.76 M64.56 36.11 C66.95 32.29, 70.11 29.77, 71.57 26.46" stroke="#be4bdb" stroke-width="0.5" fill="none"></path><path d="M-1.04 0.48 C24.16 0.72, 51.52 0.03, 68.19 -1.51 M-0.21 0.12 C16.44 0.46, 33.22 0.1, 68.98 0.54 M70.83 1.11 C67.98 10.77, 70.52 24.94, 67.84 36.84 M69.19 0.79 C69.66 14.68, 68.64 28.81, 69.1 35.61 M70.11 35.35 C44.37 35.42, 19.08 35.17, 0.43 33.8 M69.95 35.39 C55 35.51, 39.96 34.24, 0.26 35.4 M1.54 35.98 C0.01 23.42, -2.09 12.92, 1.79 1.22 M0.24 34 C0.47 26.77, 0.46 19.12, 0.75 -0.25" stroke="#000000" stroke-width="1" fill="none"></path></g><g transform="translate(881.0851265722682 484.80271863680844) rotate(0 12 12.5)"><text x="12" y="18" font-family="Virgil, Segoe UI Emoji" font-size="20px" fill="#000000" text-anchor="middle" style="white-space: pre;" direction="ltr">"n"</text></g><g transform="translate(743.7316860987156 483.5863479390505) rotate(0 26.5 12.5)"><text x="0" y="18" font-family="Virgil, Segoe UI Emoji" font-size="20px" fill="#000000" text-anchor="start" style="white-space: pre;" direction="ltr">mode:</text></g><g transform="translate(68.38579349238148 87.492850270292) rotate(0 38.5 17.5)"><text x="0" y="25" font-family="Virgil, Segoe UI Emoji" font-size="28px" fill="#000000" text-anchor="start" style="white-space: pre;" direction="ltr">Data</text></g><g transform="translate(185.6064034113325 84.15745963787785) rotate(0 45 17.5)"><text x="0" y="25" font-family="Virgil, Segoe UI Emoji" font-size="28px" fill="#000000" text-anchor="start" style="white-space: pre;" direction="ltr">Labels</text></g><g transform="translate(50.14023302601231 10) rotate(0 126 22.5)"><text x="0" y="32" font-family="Virgil, Segoe UI Emoji" font-size="36px" fill="#000000" text-anchor="start" style="white-space: pre;" direction="ltr">Training Data</text></g><g transform="translate(424.0685898045275 11.365482791031724) rotate(0 263.5 22.5)"><text x="0" y="32" font-family="Virgil, Segoe UI Emoji" font-size="36px" fill="#000000" text-anchor="start" style="white-space: pre;" direction="ltr">Tree approximating this data</text></g></svg>