<svg version="1.1" xmlns="http://www.w3.org/2000/svg" viewBox="0 0 1105.600902582783 748.6628680403392" width="1105.600902582783" height="748.6628680403392">
  <!-- svg-source:excalidraw -->
  
  <defs>
    <style class="style-fonts">
      @font-face {
        font-family: "Virgil";
        src: url("https://excalidraw.com/Virgil.woff2");
      }
      @font-face {
        font-family: "Cascadia";
        src: url("https://excalidraw.com/Cascadia.woff2");
      }
    </style>
  </defs>
  <rect x="0" y="0" width="1105.600902582783" height="748.6628680403392" fill="#ffffff"></rect><g stroke-linecap="round" transform="translate(437.6313009115411 10) rotate(0 105.36001896987182 79.25311161450539)"><path d="M-1.52 1.21 C82.22 -2.64, 163.38 -0.71, 209.35 0.44 M-0.23 -0.51 C57.32 0.28, 116.85 0.29, 209.88 0.46 M210.3 1.97 C208.27 56.02, 210.61 114.01, 212.45 160.25 M209.86 -0.72 C210.99 39.91, 210.26 77.4, 210.02 157.69 M211.56 159.21 C145.9 156.67, 83.1 159.74, -1.37 158.04 M209.94 157.89 C153.8 159.15, 97.91 159.12, -0.41 158.99 M-1.16 157.06 C-0.54 114.07, -0.93 73.66, 0.88 -1.54 M0.22 159.39 C-0.15 102.63, -0.71 46.24, 0.72 0.69" stroke="#000000" stroke-width="1" fill="none"></path></g><g transform="translate(510.0337902031456 20.242128258554544) rotate(0 33.5 17.5)"><text x="33.5" y="25" font-family="Virgil, Segoe UI Emoji" font-size="28px" fill="#000000" text-anchor="middle" style="white-space: pre;" direction="ltr">Node</text></g><g transform="translate(448.37184246111565 71.13204748522799) rotate(0 27 12.5)"><text x="0" y="18" font-family="Virgil, Segoe UI Emoji" font-size="20px" fill="#000000" text-anchor="start" style="white-space: pre;" direction="ltr">index:</text></g><g transform="translate(447.92688284777887 102.86001896987187) rotate(0 50 12.5)"><text x="0" y="18" font-family="Virgil, Segoe UI Emoji" font-size="20px" fill="#000000" text-anchor="start" style="white-space: pre;" direction="ltr">conditions:</text></g><g transform="translate(445.43945291270984 131.76409497045603) rotate(0 45 12.5)"><text x="0" y="18" font-family="Virgil, Segoe UI Emoji" font-size="20px" fill="#000000" text-anchor="start" style="white-space: pre;" direction="ltr">branches:</text></g><g stroke-linecap="round" transform="translate(563.5038899463439 65.94337290435669) rotate(0 34.49841329102014 17.5)"><path d="M0.49 -1.55 C20.41 0.09, 38.63 0.83, 68.48 -1.17 M0.6 -0.95 C14.47 0.24, 27.59 0.11, 68.79 0.99 M68.5 1.73 C70.52 6, 68.93 12.99, 67.27 33.56 M68.24 -0.7 C68.47 11.11, 70.2 21.94, 69.47 35.4 M70.76 33.45 C49.39 34.82, 28.87 36.78, -1.76 33.6 M68.31 34.53 C53.26 34.62, 35.85 35.15, -0.58 34.27 M0.78 35.88 C-1.26 28.18, 0.06 19.96, 0.45 1.76 M0.93 35.72 C0.44 25.52, -0.67 15.33, -0.33 -0.4" stroke="#000000" stroke-width="1" fill="none"></path></g><g transform="translate(590.0023032373633 70.94337290435669) rotate(0 8 12.5)"><text x="8" y="18" font-family="Virgil, Segoe UI Emoji" font-size="20px" fill="#000000" text-anchor="middle" style="white-space: pre;" direction="ltr">0</text></g><g stroke-linecap="round" transform="translate(564.4362794947497 97.6446175501589) rotate(0 34.49841329102014 17.5)"><path d="M0.5 -0.48 C13.79 0.79, 29.48 -0.63, 67.04 1.17 M0.52 0.61 C24.12 1.14, 48.66 1.64, 68.02 -0.62 M70.74 -1.07 C69.06 10.02, 67.18 20.91, 69.32 36.67 M68.18 0.06 C69.65 8.32, 69.21 17.39, 68.76 34.15 M68.47 34.35 C41.66 35.78, 16.49 33.06, -1.28 33.7 M69.55 34.7 C48.5 34.91, 28.57 33.95, -0.73 34.19 M-1.54 36.14 C-0.36 28.6, 0.31 22.2, -0.65 1.45 M0.69 34.88 C-0.74 26.67, -0.66 19.85, -0.37 -0.24" stroke="#000000" stroke-width="1" fill="none"></path></g><g transform="translate(580.93469278577 102.6446175501589) rotate(0 18 12.5)"><text x="18" y="18" font-family="Virgil, Segoe UI Emoji" font-size="20px" fill="#000000" text-anchor="middle" style="white-space: pre;" direction="ltr">0, 1</text></g><g stroke-linecap="round" transform="translate(563.5038899463439 126.54869355074317) rotate(0 34.49841329102014 14.918232774495124)"><path d="M-1.2 0.26 C14.83 -1, 28.73 1.34, 70.08 1.19 M-0.31 0.48 C13.94 0.56, 27.31 -1.04, 69.19 -0.25 M69.14 -1.16 C67.53 10.09, 69.58 24.73, 67.85 28.33 M69.91 -0.18 C69.23 7.24, 68.52 12.84, 69.67 30.72 M67.03 31.15 C51.87 28.21, 37 28.31, -0.22 28.46 M68.42 30.06 C50.93 28.9, 33.29 28.82, -0.92 30.23 M-0.23 30.71 C0.68 21.33, -0.42 10.76, -1.78 1.86 M-0.42 28.88 C-0.54 18.35, -0.57 7.41, 0.92 0.4" stroke="#000000" stroke-width="1" fill="none"></path></g><g stroke-linecap="round" transform="translate(573.6909909039009 134.95951299672828) rotate(0 9.775187770666435 9.775187770666463)"><path d="M2.11 3.16 C2.11 3.16, 2.11 3.16, 2.11 3.16 M2.11 3.16 C2.11 3.16, 2.11 3.16, 2.11 3.16 M0.71 10 C4.16 8.86, 4.48 5.03, 9.26 -0.2 M0.56 9.81 C3.81 6.51, 7.97 2.48, 9.35 0.37 M0.8 13.73 C6.18 9.15, 8.23 7.71, 12.94 1.38 M3.06 15.37 C7.75 9.84, 10.85 5.4, 15.03 0.82 M5.62 19.26 C9.88 11.74, 13.65 9.15, 16.55 1.22 M5.99 17.16 C10.59 11.63, 16.07 5.52, 18.68 3.41 M7.54 21.8 C14.59 16.2, 18.87 10.42, 18.91 7.37 M9.14 20.7 C12.79 15.75, 16.78 12.18, 19.58 7.62" stroke="#4c6ef5" stroke-width="0.5" fill="none"></path><path d="M9.11 0.62 C11.26 0.25, 13.89 -0.55, 15.64 0.59 C17.4 1.74, 19.15 5.23, 19.63 7.47 C20.1 9.71, 19.41 12.03, 18.48 14.02 C17.56 16.02, 16.03 18.66, 14.06 19.44 C12.09 20.22, 8.63 19.36, 6.66 18.7 C4.68 18.03, 3.16 16.88, 2.2 15.46 C1.23 14.04, 0.9 12.23, 0.87 10.2 C0.85 8.16, 0.68 5.07, 2.05 3.23 C3.42 1.38, 7.75 -0.39, 9.09 -0.86 C10.43 -1.33, 9.84 0.2, 10.08 0.41 M6.26 2.06 C8.2 1.53, 10.52 0.84, 12.6 1.21 C14.67 1.59, 17.77 2.47, 18.7 4.3 C19.62 6.14, 18.35 10.28, 18.16 12.22 C17.98 14.16, 19.01 14.78, 17.59 15.92 C16.17 17.06, 12.21 18.64, 9.65 19.06 C7.09 19.47, 4.02 19.81, 2.23 18.42 C0.43 17.02, -0.79 13.06, -1.12 10.69 C-1.46 8.31, -0.97 5.99, 0.22 4.15 C1.41 2.31, 5.12 0.07, 6.01 -0.34 C6.9 -0.75, 5.54 1.51, 5.55 1.69" stroke="#000000" stroke-width="1" fill="none"></path></g><g stroke-linecap="round" transform="translate(604.6457521776779 134.95951299672834) rotate(0 9.775187770666435 9.775187770666463)"><path d="M1.54 3.99 C1.54 3.99, 1.54 3.99, 1.54 3.99 M1.54 3.99 C1.54 3.99, 1.54 3.99, 1.54 3.99 M1.01 11.39 C3.68 8, 4.06 5.59, 7.9 2.98 M0.85 9.85 C3.38 8.2, 5.31 5.16, 8.39 2.09 M1.01 15.5 C4.61 9.67, 11.01 4.97, 13.95 3.51 M2.48 16.1 C5.12 11.38, 8.72 8.75, 13.44 2.3 M5.48 20.39 C6.81 15.13, 13.08 7, 15.64 6.15 M3.37 19.67 C8.33 14.63, 12.73 9.05, 17.84 5.21 M10.37 21.42 C13.09 17.66, 15.63 11.65, 21.34 6.68 M9.27 20.53 C13.43 15.18, 18.97 8.42, 21.59 6" stroke="#4c6ef5" stroke-width="0.5" fill="none"></path><path d="M7.51 1.01 C9.38 0.31, 10.76 0.64, 12.69 1.32 C14.63 2, 17.94 3.32, 19.12 5.07 C20.3 6.82, 20.19 9.89, 19.77 11.82 C19.35 13.74, 18.46 15.32, 16.6 16.63 C14.74 17.95, 10.89 19.54, 8.59 19.73 C6.3 19.91, 4.1 19.31, 2.82 17.75 C1.55 16.19, 1.13 12.7, 0.94 10.38 C0.75 8.06, 0.63 5.65, 1.68 3.83 C2.73 2, 5.94 -0.11, 7.22 -0.57 C8.51 -1.04, 9.32 0.89, 9.4 1.04 M7.77 0.33 C9.92 -0.38, 12.12 0.63, 13.8 1.17 C15.49 1.71, 16.77 1.65, 17.87 3.58 C18.98 5.51, 20.91 10.56, 20.42 12.77 C19.93 14.98, 16.77 15.96, 14.92 16.84 C13.07 17.73, 11.06 18.22, 9.32 18.08 C7.58 17.93, 6.2 17.22, 4.5 15.96 C2.8 14.7, -0.2 12.41, -0.9 10.54 C-1.6 8.68, -0.72 6.52, 0.32 4.75 C1.37 2.97, 4.21 0.64, 5.37 -0.1 C6.53 -0.83, 7.21 0.01, 7.29 0.34" stroke="#000000" stroke-width="1" fill="none"></path></g><g stroke-linecap="round" transform="translate(599.033750669922 532.324571081276) rotate(0 105.36001896987182 101.75596952302732)"><path d="M-1.03 -1.73 C51.59 1.43, 102.16 -1.2, 211.64 1.08 M0.87 -0.86 C56.07 0.56, 113.02 1.15, 211.49 -0.47 M209.43 0.29 C211.16 61.5, 208.32 123.79, 209.25 203.61 M211.07 -0.21 C209.63 80.24, 211.19 158.57, 210.48 203.22 M209.48 202.38 C167.06 201.67, 124.47 201.05, 0.97 202.98 M210.08 202.87 C158.92 201.63, 108.9 202.83, -0.68 204.02 M1.57 202.93 C0.5 143.16, 0.87 87.28, 1.24 -0.21 M-0.35 203.18 C1.52 151.78, 2.09 98.24, -0.89 -0.32" stroke="#000000" stroke-width="1" fill="none"></path></g><g transform="translate(671.936239961527 542.5666993398306) rotate(0 33 17.5)"><text x="33" y="25" font-family="Virgil, Segoe UI Emoji" font-size="28px" fill="#000000" text-anchor="middle" style="white-space: pre;" direction="ltr">Leaf</text></g><g transform="translate(609.774292219497 593.456618566504) rotate(0 27 12.5)"><text x="0" y="18" font-family="Virgil, Segoe UI Emoji" font-size="20px" fill="#000000" text-anchor="start" style="white-space: pre;" direction="ltr">index:</text></g><g transform="translate(609.3293326061598 625.1845900511478) rotate(0 50 12.5)"><text x="0" y="18" font-family="Virgil, Segoe UI Emoji" font-size="20px" fill="#000000" text-anchor="start" style="white-space: pre;" direction="ltr">conditions:</text></g><g transform="translate(606.8419026710912 654.0886660517319) rotate(0 45 12.5)"><text x="0" y="18" font-family="Virgil, Segoe UI Emoji" font-size="20px" fill="#000000" text-anchor="start" style="white-space: pre;" direction="ltr">branches:</text></g><g stroke-linecap="round" transform="translate(724.9063397047253 588.2679439856327) rotate(0 34.49841329102014 17.5)"><path d="M-1.9 1.04 C25.97 -1.04, 50.47 -0.83, 70.97 -1.96 M0.86 0.87 C15.9 0.24, 32.29 -0.69, 68.28 0.16 M67.59 -1.64 C68.91 15.24, 68.44 27.78, 69.79 34.53 M68.22 -0.27 C68.91 6.53, 69.89 14.14, 68.29 34.36 M68.07 36.1 C52.18 33.37, 37.01 33.37, -1.45 33.55 M69.44 34.23 C54.46 35.16, 39.22 35.49, 0.88 34.67 M1.43 36.38 C0.07 21.12, -1.59 8.25, -0.79 -0.73 M-0.18 34 C-0.68 24.81, 0.49 15.7, 0.99 -0.97" stroke="#000000" stroke-width="1" fill="none"></path></g><g transform="translate(751.4047529957447 593.2679439856327) rotate(0 8 12.5)"><text x="8" y="18" font-family="Virgil, Segoe UI Emoji" font-size="20px" fill="#000000" text-anchor="middle" style="white-space: pre;" direction="ltr">-1</text></g><g stroke-linecap="round" transform="translate(725.8387292531311 619.9691886314349) rotate(0 34.49841329102014 17.5)"><path d="M1.22 -0.63 C25.77 -0.78, 51.58 -2.32, 67.76 0.39 M-0.53 0.07 C18.42 -1.46, 37.28 -0.44, 69.83 -0.57 M69.11 1.83 C68.4 8.81, 69.54 15.25, 67.29 36.35 M68.67 -0.98 C69.38 12.71, 68.02 26.54, 68.35 34.89 M68.4 33.85 C53.5 34.22, 35.63 33.93, -1.62 33.16 M69.57 34.89 C46.05 34.69, 23.11 34.14, 0.73 34.11 M-0.24 34.16 C-2.16 20.58, -1.04 6.75, -0.48 1.83 M-0.36 34.46 C0.88 23.09, 1.06 10.21, -0.77 -0.97" stroke="#000000" stroke-width="1" fill="none"></path></g><g stroke-linecap="round" transform="translate(724.9063397047253 648.8732646320191) rotate(0 34.49841329102014 17.5)"><path d="M-0.63 0.97 C13.73 1.55, 26.33 -1.66, 69.38 -0.49 M0.07 -0.58 C25.8 -0.35, 53.49 1.2, 68.42 -0.75 M70.82 -0.35 C69.66 8.83, 68.24 14.36, 70.35 36.77 M68.01 0.66 C68.02 7.09, 68.26 14.93, 68.88 34.31 M67.85 35.46 C50.35 33.34, 32.56 33.17, -1.84 35.78 M68.88 35.44 C45.49 36.27, 21.21 36.12, -0.89 35.93 M-0.84 33.1 C-0.91 21.2, -0.97 8.49, 1.83 0.81 M-0.54 35.81 C0.35 26.12, -0.62 14.49, -0.97 0.04" stroke="#000000" stroke-width="1" fill="none"></path></g><g stroke-linecap="round" transform="translate(884.8808646430393 527.4590882902442) rotate(0 105.36001896987182 104.18871091854328)"><path d="M0.85 -0.37 C75.92 -1.15, 147.28 0.92, 210.29 1.53 M-0.51 -0.76 C80.93 0.01, 163.87 -0.64, 210.06 -0.62 M210.41 0.84 C211.53 44.99, 209.31 92.01, 212.29 207.01 M211.3 -0.78 C209.5 56.42, 209.54 113.87, 210.11 207.97 M211.12 207.36 C134.65 206.03, 59.71 205.68, 0.69 209.15 M211.11 208.58 C164.5 207.88, 117.36 207.38, 0.82 209.01 M-1.69 207.79 C-0.48 130.79, -0.21 56.12, 0.71 -0.32 M0.72 208.38 C1.54 165.79, -0.03 124.06, 0.04 0.37" stroke="#000000" stroke-width="1" fill="none"></path></g><g transform="translate(957.7833539346434 537.7012165487987) rotate(0 33 17.5)"><text x="33" y="25" font-family="Virgil, Segoe UI Emoji" font-size="28px" fill="#000000" text-anchor="middle" style="white-space: pre;" direction="ltr">Leaf</text></g><g transform="translate(895.6214061926144 588.5911357754721) rotate(0 27 12.5)"><text x="0" y="18" font-family="Virgil, Segoe UI Emoji" font-size="20px" fill="#000000" text-anchor="start" style="white-space: pre;" direction="ltr">index:</text></g><g transform="translate(895.1764465792771 620.319107260116) rotate(0 50 12.5)"><text x="0" y="18" font-family="Virgil, Segoe UI Emoji" font-size="20px" fill="#000000" text-anchor="start" style="white-space: pre;" direction="ltr">conditions:</text></g><g transform="translate(892.6890166442086 649.2231832607001) rotate(0 45 12.5)"><text x="0" y="18" font-family="Virgil, Segoe UI Emoji" font-size="20px" fill="#000000" text-anchor="start" style="white-space: pre;" direction="ltr">branches:</text></g><g stroke-linecap="round" transform="translate(1010.7534536778426 582.186090496843) rotate(0 34.49841329102014 17.5)"><path d="M0.39 -0.49 C29.23 2.17, 53.92 0.57, 67.84 -1.73 M-0.57 -0.75 C15.02 -1.4, 31.51 0.34, 68.82 0.48 M70.35 1.77 C67.37 11.36, 68.26 21.81, 70.31 33.24 M68.88 -0.69 C68.31 8.59, 68.47 15.51, 69.23 34.42 M67.16 35.78 C54.18 32.9, 38.75 34.22, 0.88 35.45 M68.11 35.93 C42.94 36.19, 15.34 35.08, -0.95 34.67 M1.83 35.81 C-0.23 23.89, -0.58 15.69, 1.63 0 M-0.97 35.04 C0.76 20.62, -0.22 6.85, 0.01 0.43" stroke="#000000" stroke-width="1" fill="none"></path></g><g transform="translate(1037.251866968862 587.186090496843) rotate(0 8 12.5)"><text x="8" y="18" font-family="Virgil, Segoe UI Emoji" font-size="20px" fill="#000000" text-anchor="middle" style="white-space: pre;" direction="ltr">-1</text></g><g stroke-linecap="round" transform="translate(1011.6858432262475 615.1037058404031) rotate(0 34.49841329102014 17.5)"><path d="M1.73 1.74 C15.37 0.31, 31.71 -1.56, 67.56 0.32 M-0.7 -0.82 C26.5 1.43, 52.72 1, 69.39 -0.23 M67.45 -0.53 C68.58 5.55, 70.54 13.26, 67.59 33.72 M68.53 0.55 C68.66 7.65, 69.19 15.88, 68.27 34.27 M69.88 33.46 C55.03 35.04, 39.66 35.72, 1.76 34.35 M69.71 35.69 C43.17 35.22, 16.63 35.31, -0.4 34.63 M-0.36 33.01 C-1.03 24.27, 1.31 15.7, 1.99 -1.94 M0.42 34.6 C-0.22 27.02, 0.35 19.86, -0.38 -0.76" stroke="#000000" stroke-width="1" fill="none"></path></g><g stroke-linecap="round" transform="translate(1010.7534536778426 644.0077818409873) rotate(0 34.49841329102014 17.5)"><path d="M1.74 -1.07 C22.18 -1.75, 42.34 -2.04, 69.32 1.67 M-0.82 0.06 C17.67 0.31, 33.98 0.88, 68.76 -0.85 M68.47 -0.65 C67.34 14.18, 67.54 24.33, 67.72 33.7 M69.55 -0.3 C68.18 10.34, 68.18 19.49, 68.27 34.19 M67.46 36.14 C54.42 36.18, 40.74 37.06, -0.65 36.45 M69.69 34.88 C54.03 34.54, 39.57 35.1, -0.37 34.76 M-1.99 34.29 C-1.22 22.92, -0.14 9.57, -1.94 -1.55 M-0.4 34.44 C-0.21 27.9, 0.42 20.41, -0.76 -0.77" stroke="#000000" stroke-width="1" fill="none"></path></g><g transform="translate(607.0898296362034 686.6563729343534) rotate(0 26.5 12.5)"><text x="0" y="18" font-family="Virgil, Segoe UI Emoji" font-size="20px" fill="#000000" text-anchor="start" style="white-space: pre;" direction="ltr">mode:</text></g><g stroke-linecap="round" transform="translate(724.6320377478828 685.3054850276271) rotate(0 34.49841329102014 17.5)"><path d="M0 0 C0 0, 0 0, 0 0 M0 0 C0 0, 0 0, 0 0 M-0.87 7.13 C1.98 4.91, 4.01 1.68, 5.2 0.22 M0.01 6.76 C1.48 4.49, 3.37 2.34, 5.36 0.61 M0.58 12.48 C5.53 8.31, 9.47 3.52, 11.99 -0.37 M0.81 11.88 C3.98 6.58, 7.65 2.32, 11.37 -0.48 M1.75 18.89 C5.62 12.75, 6.83 7.99, 15.51 1.55 M0.71 18.47 C3.66 13.91, 6.21 10.11, 15.56 0.32 M-1.71 25.28 C5.02 17.75, 8.6 10.74, 22.52 -0.26 M0.27 24.67 C9 15.1, 16.75 7.08, 21.97 -0.26 M-1.63 32.32 C8.61 18.39, 19.31 5.88, 27.23 -1.04 M-0.01 31.09 C9.9 19.5, 20.35 8, 26.89 0.46 M0.33 34.89 C12.4 24.41, 20.5 10.42, 32.39 -0.09 M1.18 35.32 C11.77 22.87, 22.07 12.07, 31.12 0.63 M7.41 36 C15.66 25.02, 26.22 13.54, 37.65 -0.08 M6.84 35.62 C16.39 22.82, 27.9 9.69, 36.27 0.43 M10.46 37.05 C21.48 25.07, 31.39 11.48, 42 1.67 M12.52 35.02 C19.1 26.75, 25.03 20.68, 43.37 0.64 M17.06 35.57 C25.2 26.73, 29.83 19.82, 47.84 1.99 M17.54 34.91 C25.28 24.2, 36.38 12.41, 47.02 -0.66 M20.77 35.9 C32.62 23.59, 39.09 14.36, 51.47 0.54 M22.36 35.69 C28.04 28.33, 36.6 19.75, 54 0.43 M28.39 34.3 C33.99 25.37, 44.62 18.56, 59.04 0.63 M28.02 35.62 C36.63 24.69, 47.14 11.63, 57.39 0.36 M31.28 35.88 C41.76 25.79, 50.81 16.61, 65.1 -2.11 M31.51 35.75 C41.33 24.98, 51.32 15.48, 63.23 0.69 M39.17 36.1 C48.18 22.78, 63.24 8.51, 68.57 1.14 M37.76 35.21 C47.28 23.71, 58.67 11.94, 68.58 0.73 M44.18 37.55 C53.12 23, 64.62 10.33, 72.64 4.01 M43.76 35.92 C50.15 29.17, 55.9 20.46, 71.59 3.2 M47.31 34.7 C51.87 28.83, 57.31 25.05, 70.68 7.02 M49.17 35.17 C53.87 28.59, 61.53 21.86, 71.49 8.04 M54.44 34.62 C56.41 32.64, 61.01 27, 73.39 14.05 M54.48 36.26 C57.07 30.92, 60.7 26.65, 71.94 14.82 M58.84 33.84 C61.92 32.35, 64.91 28.43, 70.3 19.66 M59.58 35.13 C61.41 32.31, 65.84 28.91, 72.43 21.84 M64.75 35.15 C67.12 34.5, 69.43 30.28, 71.94 26.32 M64.07 36.49 C65.88 33.54, 67.45 31.76, 71.53 27.18" stroke="#fd7e14" stroke-width="0.5" fill="none"></path><path d="M0.14 -1.16 C24.94 -1.07, 53.65 2.04, 67.85 -1.51 M0.91 -0.18 C16.31 0.36, 31.44 -0.89, 69.67 0.88 M67.03 1.31 C67.14 6.39, 67.62 14.28, 68.77 33.63 M68.42 0.23 C68.61 8.15, 68.46 16.93, 68.08 35.39 M68.77 35.88 C45.71 37.15, 20.88 36.85, -1.78 36.86 M68.58 34.05 C43.01 34.52, 17.33 34.68, 0.92 35.4 M-1.08 36.63 C0.35 27.12, -1.59 13.71, -1.94 0.09 M-0.19 35.01 C0.57 22.65, -0.62 10.28, 0.13 -0.94" stroke="#000000" stroke-width="1" fill="none"></path></g><g transform="translate(755.6304510389023 690.3054850276271) rotate(0 3.5 12.5)"><text x="3.5" y="18" font-family="Virgil, Segoe UI Emoji" font-size="20px" fill="#000000" text-anchor="middle" style="white-space: pre;" direction="ltr">1</text></g><g stroke-linecap="round" transform="translate(1011.6955224187573 678.0072608410794) rotate(0 34.49841329102014 17.5)"><path d="M0 0 C0 0, 0 0, 0 0 M0 0 C0 0, 0 0, 0 0 M0.14 6.98 C1.46 4.56, 2.18 3.69, 5.46 0.06 M-0.43 6.68 C1.27 4.66, 3.53 2.61, 5.28 0.5 M1.65 12.76 C4.09 9.63, 6.38 6.01, 12.22 1.18 M-0.12 11.35 C1.82 8.99, 5.88 5.74, 10.42 0.47 M1.43 17.76 C3.41 11.87, 10.08 7.56, 13.64 -0.71 M0.4 17.68 C5.67 10.57, 11.75 4.53, 14.96 0.4 M0.12 23.56 C6.79 13.14, 17.31 5.88, 22.75 0.07 M1.15 24 C5.76 19.46, 10.42 12.9, 22.13 -1.06 M-1.84 30.25 C8.6 18.07, 20.54 6.7, 27.6 -1.71 M-0.06 30.52 C7.71 21.94, 14.58 14.46, 26.65 -0.38 M1.66 36.31 C6.81 25.94, 16.52 18.39, 32.46 0.5 M1.76 34.49 C10.89 24.99, 18.26 15.39, 32.13 -0.88 M5.41 36.6 C16.06 24.69, 27.19 11.62, 38.22 2.12 M5.4 35.67 C12.76 27.01, 20.07 18.77, 37.08 -0.01 M11.51 36.63 C22.98 21.22, 33.82 11.07, 40.94 0.2 M12.35 34.48 C19.35 26.94, 28.57 17.43, 41.6 -0.7 M18.58 34.27 C27.48 22.39, 38.46 12.73, 47.77 2.15 M15.97 35.57 C29.01 21.43, 39.7 7.65, 47.47 -0.77 M22.94 34.48 C31.36 23.21, 42.38 11.21, 51.53 -1.5 M20.91 36.48 C33.95 22.56, 45.52 10.01, 52.75 -0.29 M25.92 34.35 C35.15 29.15, 41.63 20.64, 58.65 -0.36 M26.5 36.48 C38.37 21.57, 49.61 9.04, 57.97 1.09 M33.16 36.1 C43.38 25.82, 53.61 11.34, 63.7 0.59 M32.15 35.5 C40.61 28.18, 47.03 19.74, 64.7 0.66 M36.4 36.55 C46.96 27.11, 53.15 18.55, 69.38 1.72 M37.36 35.45 C47.94 24.81, 56.46 14.87, 69.69 -0.61 M41.53 35.89 C48.68 27.76, 57.96 20.44, 70.41 4.55 M43.77 36.88 C51.52 25.55, 60.36 15.81, 70.89 3.51 M47.09 34.42 C53.51 29.82, 58.78 21.01, 71.41 9.7 M47.87 35.58 C55.15 29.19, 59.61 21.61, 71.45 8.34 M52.22 37.34 C57.16 31.32, 64.13 24.71, 70.13 13.38 M53.05 35.24 C56.85 30.48, 61.84 26.15, 71.08 14.71 M59.22 35.43 C63.08 30.64, 64.95 25.96, 70.82 22.61 M58.33 36.01 C63.55 31.68, 67.99 26.92, 71.5 22.05 M64.97 37.07 C67.42 32.68, 68.85 29.88, 71.16 28.04 M64.2 35.54 C65.98 33.46, 67.61 31.63, 71.46 27.37" stroke="#be4bdb" stroke-width="0.5" fill="none"></path><path d="M-1.73 -1.44 C17.33 2.07, 32.88 -1.11, 67.59 -1.64 M0.48 0.4 C20.85 -0.73, 42.85 1.01, 68.22 -0.27 M67.23 -1.4 C67.37 8.06, 68.43 17.35, 68.07 36.1 M68.42 -0.73 C68.07 8.64, 67.88 19.3, 69.44 34.23 M69.45 36.76 C43.71 36.75, 17.94 37.16, 1.43 36.38 M68.66 34.6 C48.75 34.1, 30.15 34.75, -0.18 34 M0 36.99 C-1.75 24.19, -1.75 16.57, 0.84 -0.79 M0.43 34.62 C-0.69 25.7, 0.2 17, -0.76 0.57" stroke="#000000" stroke-width="1" fill="none"></path></g><g transform="translate(1038.1939357097776 683.0072608410794) rotate(0 8 12.5)"><text x="8" y="18" font-family="Virgil, Segoe UI Emoji" font-size="20px" fill="#000000" text-anchor="middle" style="white-space: pre;" direction="ltr">0</text></g><g transform="translate(896.8404952362248 681.7908901433216) rotate(0 26.5 12.5)"><text x="0" y="18" font-family="Virgil, Segoe UI Emoji" font-size="20px" fill="#000000" text-anchor="start" style="white-space: pre;" direction="ltr">mode:</text></g><g stroke-linecap="round" transform="translate(10 535.1509289942844) rotate(0 105.36001896987182 101.75596952302732)"><path d="M1.47 -1.01 C43.69 -1.54, 88.6 -0.2, 212.33 -0.31 M-0.75 0.6 C74.02 -0.25, 146.24 0.15, 209.85 0.58 M209.56 -0.2 C208.21 42.26, 210.42 85.65, 209.69 203.92 M210 -0.82 C209.75 49.68, 208.71 99.09, 210.62 203.9 M212 201.94 C144.41 204.17, 76.05 202.7, -0.74 201.83 M210.51 204.32 C154.88 202.67, 97.45 202.52, -0.47 204.23 M-1.39 201.78 C-1.73 143.21, -2.52 80.39, -0.34 0.01 M-0.69 203.63 C-0.16 133, 1.2 63.02, 0.25 0.56" stroke="#000000" stroke-width="1" fill="none"></path></g><g transform="translate(82.90248929160407 545.3930572528391) rotate(0 33 17.5)"><text x="33" y="25" font-family="Virgil, Segoe UI Emoji" font-size="28px" fill="#000000" text-anchor="middle" style="white-space: pre;" direction="ltr">Leaf</text></g><g transform="translate(20.740541549574118 596.2829764795124) rotate(0 27 12.5)"><text x="0" y="18" font-family="Virgil, Segoe UI Emoji" font-size="20px" fill="#000000" text-anchor="start" style="white-space: pre;" direction="ltr">index:</text></g><g transform="translate(20.295581936237795 628.0109479641562) rotate(0 50 12.5)"><text x="0" y="18" font-family="Virgil, Segoe UI Emoji" font-size="20px" fill="#000000" text-anchor="start" style="white-space: pre;" direction="ltr">conditions:</text></g><g transform="translate(17.8081520011674 656.9150239647404) rotate(0 45 12.5)"><text x="0" y="18" font-family="Virgil, Segoe UI Emoji" font-size="20px" fill="#000000" text-anchor="start" style="white-space: pre;" direction="ltr">branches:</text></g><g stroke-linecap="round" transform="translate(135.87258903480233 591.0943018986411) rotate(0 34.49841329102003 17.5)"><path d="M0.11 1.83 C15.14 1.52, 31.79 0.1, 67.29 1.35 M-0.33 -0.98 C27.45 -0.7, 52.89 -0.46, 68.35 -0.11 M68.4 -1.15 C69.29 6.94, 67.38 14.74, 67.38 33.16 M69.57 -0.11 C69.59 12.09, 70.03 23.4, 69.72 34.11 M68.76 34.16 C39.97 34.81, 13.97 34.75, -0.48 36.83 M68.64 34.46 C46.33 34.31, 23.04 33.34, -0.77 34.03 M-1.13 34.62 C-0.13 25.21, -0.9 12.19, -1.55 0.27 M-0.93 35.28 C0.89 27.4, -0.19 21.44, 0.18 0.97" stroke="#000000" stroke-width="1" fill="none"></path></g><g transform="translate(162.3710023258227 596.0943018986411) rotate(0 8 12.5)"><text x="8" y="18" font-family="Virgil, Segoe UI Emoji" font-size="20px" fill="#000000" text-anchor="middle" style="white-space: pre;" direction="ltr">-1</text></g><g stroke-linecap="round" transform="translate(136.80497858320814 622.7955465444434) rotate(0 34.49841329102003 17.5)"><path d="M-0.35 0.95 C15.83 -1.1, 28.36 0.72, 70.76 -1.55 M0.66 -0.88 C18.17 0.04, 37.09 0.57, 68.31 -0.47 M69.45 -1.16 C67.44 10.97, 67.27 23, 69.78 35.88 M69.44 0.22 C70.08 7.48, 69.92 14.72, 69.93 35.72 M67.09 34.33 C42.73 33.98, 17.56 36.54, 0.81 34.64 M69.81 35 C56.17 33.66, 40.59 33.66, 0.04 35.42 M0.01 35.86 C-0.55 24.38, -1.35 17.05, -1.88 -1.52 M0.63 34.62 C-0.13 23.35, 0.5 10.95, -0.22 -0.52" stroke="#000000" stroke-width="1" fill="none"></path></g><g stroke-linecap="round" transform="translate(135.87258903480142 651.6996225450275) rotate(0 34.49841329102003 17.5)"><path d="M0.95 0.79 C20.62 -1.58, 43.53 1.89, 67.45 -0.53 M-0.88 -0.7 C17.81 -1.1, 36.79 -1.14, 68.53 0.55 M67.84 -1.45 C67.34 7.83, 66.96 19.69, 69.88 33.46 M69.22 0.88 C68.63 13.22, 68.07 25.93, 69.71 35.69 M68.33 34.21 C48.38 33.86, 31.07 35.15, -0.36 33.01 M69 35.99 C49.78 34.79, 31.53 35.6, 0.42 34.6 M0.86 34.25 C-1.45 24.92, 0.34 16.06, -1.52 1.15 M-0.38 34.54 C0.77 27.93, 0.88 20.28, -0.52 0.58" stroke="#000000" stroke-width="1" fill="none"></path></g><g stroke-linecap="round" transform="translate(295.8471139731173 530.2854462032526) rotate(0 105.36001896987182 104.18871091854328)"><path d="M0.7 -0.41 C80.95 0.31, 166.47 -2.25, 210.25 -0.57 M-0.62 -0.56 C41.94 1.54, 84.43 1.23, 211.2 -0.26 M209.43 -1.29 C209.71 48.88, 211.83 101.81, 209.36 209.39 M211.5 -0.29 C212.17 59.37, 212.35 120.96, 211.33 208.27 M210.02 207.73 C155.88 209.37, 102.6 207.44, -1.76 207.75 M211.6 207.52 C158.17 207.52, 107.02 208.75, -0.35 207.88 M-0.67 207.04 C-1.39 150.11, -1.68 90.02, 1.02 -1.65 M-0.41 209.14 C-1.01 140.98, -1.36 71.39, 0.52 0.3" stroke="#000000" stroke-width="1" fill="none"></path></g><g transform="translate(368.7496032647214 540.5275744618073) rotate(0 33 17.5)"><text x="33" y="25" font-family="Virgil, Segoe UI Emoji" font-size="28px" fill="#000000" text-anchor="middle" style="white-space: pre;" direction="ltr">Leaf</text></g><g transform="translate(306.5876555226914 591.4174936884806) rotate(0 27 12.5)"><text x="0" y="18" font-family="Virgil, Segoe UI Emoji" font-size="20px" fill="#000000" text-anchor="start" style="white-space: pre;" direction="ltr">index:</text></g><g transform="translate(306.1426959093551 623.1454651731244) rotate(0 50 12.5)"><text x="0" y="18" font-family="Virgil, Segoe UI Emoji" font-size="20px" fill="#000000" text-anchor="start" style="white-space: pre;" direction="ltr">conditions:</text></g><g transform="translate(303.6552659742847 652.0495411737086) rotate(0 45 12.5)"><text x="0" y="18" font-family="Virgil, Segoe UI Emoji" font-size="20px" fill="#000000" text-anchor="start" style="white-space: pre;" direction="ltr">branches:</text></g><g stroke-linecap="round" transform="translate(421.7197030079187 585.0124484098515) rotate(0 34.49841329102014 17.5)"><path d="M-1.55 -0.53 C14.16 -2.57, 30.93 -2.37, 67.59 -1.28 M-0.47 0.55 C15.92 -0.1, 32.68 -0.1, 68.27 -0.73 M69.88 -1.54 C69.82 7.44, 69.55 15.78, 70.76 34.35 M69.71 0.69 C68.57 12.62, 67.73 25.75, 68.6 34.63 M68.64 33.01 C49.26 34.2, 32.57 35.28, 1.99 33.06 M69.42 34.6 C53.08 34.84, 38.3 35.46, -0.38 34.24 M-1.52 36.15 C-1.91 27.76, 1.21 18.66, -0.92 1.73 M-0.52 35.58 C0 23.84, -0.51 13.27, 0.45 0.18" stroke="#000000" stroke-width="1" fill="none"></path></g><g transform="translate(448.21811629894 590.0124484098515) rotate(0 8 12.5)"><text x="8" y="18" font-family="Virgil, Segoe UI Emoji" font-size="20px" fill="#000000" text-anchor="middle" style="white-space: pre;" direction="ltr">-1</text></g><g stroke-linecap="round" transform="translate(422.65209255632544 617.9300637534116) rotate(0 34.49841329102014 17.5)"><path d="M-0.65 -1.96 C28.11 -1.58, 52.19 -1.1, 67.7 -0.22 M-0.3 -0.58 C16.19 -0.96, 31.19 -1.11, 68.19 -0.92 M70.14 -0.23 C70.03 12.31, 70.91 23.07, 70.45 33.22 M68.88 -0.42 C68.3 13.42, 68.85 27.15, 68.75 35.92 M68.29 33.92 C47.15 34.31, 24.03 32.37, -1.55 33.06 M68.43 34.81 C48.01 35.16, 26.64 33.97, -0.77 35.13 M-1.86 35.55 C1.52 27.02, -0.65 22.3, 0.35 1.95 M0.34 34.95 C0.02 25.78, 0.63 15.74, 0.72 0.49" stroke="#000000" stroke-width="1" fill="none"></path></g><g stroke-linecap="round" transform="translate(421.7197030079187 646.8341397539957) rotate(0 34.49841329102014 17.5)"><path d="M-1.96 1.31 C13.59 -1.18, 29.44 -1.07, 68.77 -1.37 M-0.58 0.23 C16.91 -0.52, 34.25 -0.6, 68.08 0.39 M68.77 0.88 C69.18 13.8, 68.08 25.53, 67.21 36.86 M68.58 -0.95 C68.91 12.62, 68.87 25.78, 69.91 35.4 M67.92 36.63 C49.54 36.74, 28.15 33.21, -1.94 35.09 M68.8 35.01 C45.82 34.24, 21.03 33.84, 0.13 34.06 M0.55 36.26 C-0.97 26.24, 1.52 19.67, 1.95 -0.45 M-0.05 34.84 C0.29 26.78, -0.02 18.38, 0.49 -0.87" stroke="#000000" stroke-width="1" fill="none"></path></g><g transform="translate(18.056078966280438 689.4827308473618) rotate(0 26.5 12.5)"><text x="0" y="18" font-family="Virgil, Segoe UI Emoji" font-size="20px" fill="#000000" text-anchor="start" style="white-space: pre;" direction="ltr">mode:</text></g><g stroke-linecap="round" transform="translate(135.59828707795987 688.1318429406356) rotate(0 34.49841329102003 17.5)"><path d="M0 0 C0 0, 0 0, 0 0 M0 0 C0 0, 0 0, 0 0 M0.5 6.76 C1.72 5.19, 2.86 3.38, 5.78 0.97 M-0.39 6.05 C0.58 4.87, 2.61 3.25, 4.88 0.61 M1.38 11.49 C2.29 7.6, 6.92 4.95, 9.05 -0.86 M0.56 11.44 C3.99 6.68, 8.05 2.77, 10.11 0.03 M-0.28 17.92 C4.39 9.77, 12.97 4.74, 17.11 0.47 M0.75 18.35 C4.18 15.21, 7.66 10.01, 16.49 -0.67 M-1.58 23.85 C6.88 13.94, 16.89 4.79, 22.62 -2.07 M0.2 24.12 C6.58 17.18, 12.06 11.3, 21.67 -0.74 M0.61 31.42 C4.63 22.31, 13.24 16.03, 26.81 0.89 M0.7 29.6 C8.51 21.64, 14.53 13.58, 26.48 -0.49 M0.42 36.24 C11.08 24.33, 22.21 11.26, 33.23 1.76 M0.42 35.31 C7.77 26.65, 15.08 18.41, 32.09 -0.37 M5.87 37.02 C17.34 21.62, 28.18 11.46, 35.29 0.59 M6.71 34.87 C13.71 27.33, 22.93 17.82, 35.96 -0.31 M13.59 33.91 C22.49 22.03, 33.47 12.37, 42.78 1.79 M10.98 35.21 C24.02 21.07, 34.71 7.29, 42.48 -1.13 M17.95 34.12 C26.14 23.11, 36.93 11.38, 45.89 -1.11 M15.92 36.12 C28.72 22.48, 40.05 10.21, 47.11 0.11 M20.28 34.75 C29.64 29.38, 36.27 20.71, 53.66 -0.72 M20.85 36.88 C32.97 21.68, 44.46 8.86, 52.99 0.73 M28.17 35.74 C38.18 25.7, 48.21 11.45, 58.06 0.98 M27.17 35.14 C35.46 28, 41.72 19.73, 59.06 1.05 M30.75 36.94 C41.48 27.31, 47.84 18.56, 64.4 1.36 M31.71 35.84 C42.49 24.98, 51.22 14.81, 64.71 -0.97 M36.55 35.53 C44.17 26.82, 53.94 18.93, 67.39 1.93 M38.78 36.52 C47.13 24.49, 56.58 14.05, 67.87 0.88 M41.45 34.82 C49.19 28.76, 55.74 18.48, 71.01 4.05 M42.23 35.97 C50.79 28.09, 56.57 18.99, 71.05 2.69 M47.24 36.98 C53.46 29.48, 61.75 21.36, 70.39 6.98 M48.06 34.88 C53.02 28.71, 59.22 22.99, 71.34 8.31 M53.58 35.82 C59.15 29.11, 62.61 22.46, 71.04 16.28 M52.64 36.43 C59.82 29.93, 66.2 22.97, 71.75 15.7 M60.45 37.38 C64.32 30.44, 66.59 26, 70.24 23.08 M59.22 34.96 C62.04 31.67, 64.62 28.76, 70.73 22.02 M64.36 36.72 C67.07 31.74, 70.95 28.98, 71.57 26.19 M64.16 36.24 C66.28 34.45, 67.95 31.38, 72.37 26.94" stroke="#be4bdb" stroke-width="0.5" fill="none"></path><path d="M-1.76 -1.4 C17.17 -1.75, 36.68 -1.83, 68.07 1.1 M-0.58 -0.73 C17.91 -0.97, 36.35 0.23, 69.44 -0.77 M69.45 1.76 C68.31 13.95, 67.17 26.86, 70.43 36.38 M68.66 -0.4 C68.48 9.84, 69.77 20.57, 68.82 34 M69 36.99 C48.81 34.01, 30.56 35.65, 0.84 34.21 M69.43 34.62 C51.42 34.23, 35.5 34.07, -0.76 35.57 M-0.77 34.08 C1.63 28.1, 1.85 20.06, -1.05 1.17 M0.49 35.45 C0.2 24.04, 0.5 10.77, 0.51 -0.03" stroke="#000000" stroke-width="1" fill="none"></path></g><g transform="translate(162.09670036898024 693.1318429406356) rotate(0 8 12.5)"><text x="8" y="18" font-family="Virgil, Segoe UI Emoji" font-size="20px" fill="#000000" text-anchor="middle" style="white-space: pre;" direction="ltr">0</text></g><g stroke-linecap="round" transform="translate(422.6617717488343 680.8336187540879) rotate(0 34.49841329102014 17.5)"><path d="M0 0 C0 0, 0 0, 0 0 M0 0 C0 0, 0 0, 0 0 M0.5 6.62 C2.08 4.23, 3.91 3.03, 4.53 1.03 M-0.65 6.33 C1.6 4.54, 2.58 3.32, 5.12 0.74 M-1.1 11.64 C3.34 9.16, 5.23 3.46, 11.97 1.3 M0.06 11.31 C3.2 8.46, 5.9 4.87, 11.19 -0.82 M-1.62 16.57 C6.81 11.77, 12.72 5.58, 14.12 0.33 M0.64 19.38 C6.07 11.76, 11.89 4.45, 16.3 -0.49 M-1.04 23.02 C9.7 13.31, 18.31 3.17, 20.57 -0.09 M1 23.72 C8.49 15.53, 15.83 5.98, 20.67 -0.43 M-1.79 29.51 C7.67 22.03, 14.98 14.27, 26.09 0.54 M0.88 30.45 C6.78 22.51, 15.55 12.08, 26.59 0.97 M1.01 36.24 C11.61 23.77, 21.86 14.85, 30.73 1.49 M0.6 35.2 C9.61 25.28, 19.35 14.57, 32.53 -0.72 M5.9 34.79 C17.45 23.65, 28.29 8.48, 36.17 1.92 M5.84 36.63 C14.94 27.24, 21.46 16.36, 37.37 0.45 M11.8 34.39 C20.74 26.91, 29.71 16.65, 44.24 1.59 M12.42 34.53 C18.29 26.62, 25.58 18.63, 43.05 -0.59 M15.1 35.62 C23.79 26.27, 32.86 13.85, 48.89 1.62 M17.58 35.47 C25.92 26.81, 32.81 16.74, 46.72 0.77 M22.89 37.17 C30.12 28.28, 37.05 18.89, 54.71 1.26 M21.32 35.36 C30.54 25.23, 40.46 15.21, 53.3 -0.68 M28.29 36.84 C37.5 23.35, 45.14 15.65, 56.9 -1.37 M27.84 36.37 C35.21 27.04, 45.09 17.33, 57.67 0.81 M33.72 36.58 C42.56 25.14, 53.56 14, 63.83 -0.55 M32.9 35.81 C40.44 27.3, 49.69 16.6, 63.27 0.42 M36.71 35.91 C50.71 23.44, 60.14 10.56, 68.97 1.83 M37.86 35.48 C46.49 25.35, 54.86 15.23, 68.21 -0.47 M41.92 36.75 C49.03 26.27, 57.14 20.46, 70.83 4 M43.72 36.34 C49.92 27.02, 57.34 18.74, 71.29 3.22 M47.67 36.13 C55.73 28.31, 57.98 21.3, 70.79 10.29 M47.83 35.05 C56.54 26.76, 63.51 17.64, 72.02 8.24 M53.89 34.95 C55.97 29.89, 60.36 28.57, 72.41 15.64 M53.94 36.71 C59.23 31.13, 62.93 25.98, 71.98 15.29 M60.57 34.75 C61.87 31.19, 63.58 30.52, 70.71 20.88 M58.9 35.38 C63.29 30.46, 68.13 25.08, 72.21 20.29 M64.16 34.95 C67.27 33.02, 67.79 30.47, 71.15 26.27 M64.47 36.41 C66.03 33.42, 67.82 32.14, 72.04 27.06" stroke="#fd7e14" stroke-width="0.5" fill="none"></path><path d="M-1.28 -1.3 C25 -0.89, 49.51 1.58, 68.4 -1.15 M-0.73 -0.81 C21.35 0.89, 44.99 -0.27, 69.57 -0.11 M68.34 1.45 C67.29 13.9, 70.51 25.46, 68.76 34.16 M68.63 -0.24 C69.8 7.57, 68.7 13.34, 68.64 34.46 M67.06 33.45 C40.75 35.77, 17.21 34.89, -1.13 34.62 M68.24 34.23 C48.38 33.8, 26.74 35.32, -0.93 35.28 M1.73 35.35 C2.08 21.85, -0.91 10.76, 0.67 -0.09 M0.18 35.72 C0.32 24.2, 0.34 15.12, -0.92 -0.76" stroke="#000000" stroke-width="1" fill="none"></path></g><g transform="translate(453.6601850398547 685.8336187540879) rotate(0 3.5 12.5)"><text x="3.5" y="18" font-family="Virgil, Segoe UI Emoji" font-size="20px" fill="#000000" text-anchor="middle" style="white-space: pre;" direction="ltr">1</text></g><g transform="translate(307.80674456630186 684.61724805633) rotate(0 26.5 12.5)"><text x="0" y="18" font-family="Virgil, Segoe UI Emoji" font-size="20px" fill="#000000" text-anchor="start" style="white-space: pre;" direction="ltr">mode:</text></g><g stroke-linecap="round" transform="translate(175.70471194173115 246.53639586469086) rotate(0 105.36001896987182 79.25311161450539)"><path d="M-1.21 -0.82 C50.7 -0.32, 98.45 0.61, 209.7 -1.28 M0.34 0.39 C47.23 2.21, 95.71 2.1, 210.92 0.78 M212.58 1.43 C213.26 42.15, 211.04 82.86, 210.05 157.72 M211.12 -0.18 C209.34 41.39, 209.8 84.3, 210.72 159.5 M210.8 159.25 C167.23 155.71, 124.81 156.72, 0.76 157.84 M209.89 157.84 C163.96 157.94, 116.43 159.31, -0.34 158.1 M-0.45 157.46 C0.89 97.95, -0.37 35.72, 0.99 0.9 M-0.87 159.01 C-1.17 107.15, -1.9 58.55, 0.5 0.73" stroke="#000000" stroke-width="1" fill="none"></path></g><g transform="translate(248.10720123333613 256.7785241232454) rotate(0 33.5 17.5)"><text x="33.5" y="25" font-family="Virgil, Segoe UI Emoji" font-size="28px" fill="#000000" text-anchor="middle" style="white-space: pre;" direction="ltr">Node</text></g><g transform="translate(186.44525349130618 307.66844334991885) rotate(0 27 12.5)"><text x="0" y="18" font-family="Virgil, Segoe UI Emoji" font-size="20px" fill="#000000" text-anchor="start" style="white-space: pre;" direction="ltr">index:</text></g><g transform="translate(186.00029387796894 339.39641483456273) rotate(0 50 12.5)"><text x="0" y="18" font-family="Virgil, Segoe UI Emoji" font-size="20px" fill="#000000" text-anchor="start" style="white-space: pre;" direction="ltr">conditions:</text></g><g transform="translate(183.51286394290037 368.3004908351469) rotate(0 45 12.5)"><text x="0" y="18" font-family="Virgil, Segoe UI Emoji" font-size="20px" fill="#000000" text-anchor="start" style="white-space: pre;" direction="ltr">branches:</text></g><g stroke-linecap="round" transform="translate(301.5773009765344 302.47976876904755) rotate(0 34.49841329102014 17.5)"><path d="M0.46 -1.16 C23.04 -1.06, 47.36 -1.44, 69.78 0.88 M0.44 0.22 C16.27 -0.25, 31.5 -0.81, 69.93 0.72 M67.09 -0.67 C68.17 12.19, 68.47 27.68, 69.8 34.64 M69.81 0 C69.87 6.04, 68.1 13.05, 69.04 35.42 M69.01 35.86 C50.29 33.35, 31.53 35.13, -1.88 33.48 M69.63 34.62 C43.88 36.05, 19.85 36.17, -0.22 34.48 M-0.33 35.99 C0.78 22.82, 1.32 10.89, -1.74 1.02 M0.92 35.5 C1.05 25.33, -0.34 14.46, -0.18 0.6" stroke="#000000" stroke-width="1" fill="none"></path></g><g transform="translate(332.57571426755385 307.47976876904755) rotate(0 3.5 12.5)"><text x="3.5" y="18" font-family="Virgil, Segoe UI Emoji" font-size="20px" fill="#000000" text-anchor="middle" style="white-space: pre;" direction="ltr">1</text></g><g stroke-linecap="round" transform="translate(302.5096905249402 334.18101341484976) rotate(0 34.49841329102014 17.5)"><path d="M-1.45 -1.45 C15.11 -1.44, 34.23 1.28, 67.46 1.14 M0.88 -0.33 C20.65 -1.05, 40.77 0.56, 69.69 -0.12 M68.21 -0.73 C68.18 10.87, 69.47 17.72, 67 34.29 M69.99 -0.97 C68.51 7.65, 69.32 17.65, 68.6 34.44 M68.25 33.49 C48.08 35.57, 28.37 33.78, 1.15 33.14 M68.54 35.86 C46.57 35.71, 23.57 34.21, 0.58 35.34 M0.9 35.36 C1.5 25.64, -1.69 15.34, -0.06 -1.84 M0.73 35.73 C-0.99 27.41, -0.5 19.89, -0.38 0.3" stroke="#000000" stroke-width="1" fill="none"></path></g><g transform="translate(319.00810381596057 339.18101341484976) rotate(0 18 12.5)"><text x="18" y="18" font-family="Virgil, Segoe UI Emoji" font-size="20px" fill="#000000" text-anchor="middle" style="white-space: pre;" direction="ltr">0, 1</text></g><g stroke-linecap="round" transform="translate(301.5773009765344 363.085089415434) rotate(0 34.49841329102014 14.918232774495124)"><path d="M-1.62 -1.84 C17.49 1.38, 31.88 1.64, 68.77 0.88 M0.73 -0.89 C23.18 0.94, 45.19 0.11, 68.58 -0.95 M68.51 1.83 C69.68 7.6, 66.88 15.2, 67.92 31.46 M68.22 -0.97 C69.34 9.37, 68.9 17.34, 68.8 29.84 M67.45 30.1 C43.44 27.8, 22.8 27.46, 0.55 31.09 M69.17 30.81 C50.72 29.91, 33.48 30.77, -0.05 29.67 M1.44 30.81 C-1.88 20.43, -0.19 7.15, -1.51 1.84 M-0.66 30.1 C-0.4 20, -0.6 9.27, 0.68 0.89" stroke="#000000" stroke-width="1" fill="none"></path></g><g stroke-linecap="round" transform="translate(311.76440193409144 371.49590886141914) rotate(0 9.775187770666435 9.775187770666463)"><path d="M0.46 5.7 C0.46 5.7, 0.46 5.7, 0.46 5.7 M0.46 5.7 C0.46 5.7, 0.46 5.7, 0.46 5.7 M-0.22 12.43 C3.32 10.33, 4.45 7.41, 6.96 4.62 M0.39 11.74 C3.13 8.94, 6.33 5.78, 7.94 3.95 M3.93 14.46 C8.66 9.76, 11.11 3.33, 12.64 1.58 M3.12 15.77 C8.12 10.37, 12.61 4.53, 13.68 1.67 M4.6 19.69 C10.75 14.05, 13.84 8.34, 17.87 2.04 M5.65 18.77 C8.31 14.53, 12.84 9.5, 17.33 2.87 M10.02 18.09 C13.5 15.92, 18.39 10.8, 20.9 9.3 M9.16 19.72 C12.97 15.63, 16.53 10.65, 19.26 7.5" stroke="#4c6ef5" stroke-width="0.5" fill="none"></path><path d="M12.24 0.07 C14.21 0.5, 16.46 2.27, 17.83 3.87 C19.19 5.46, 20.42 7.74, 20.43 9.65 C20.43 11.55, 19.23 13.56, 17.86 15.32 C16.49 17.07, 14.28 19.7, 12.21 20.15 C10.13 20.6, 7.43 19.38, 5.41 18.02 C3.39 16.66, 0.95 14.01, 0.11 11.98 C-0.74 9.95, -0.44 7.69, 0.33 5.85 C1.09 4.02, 2.59 1.83, 4.69 0.97 C6.8 0.11, 11.71 0.91, 12.96 0.67 C14.21 0.43, 12.44 -0.45, 12.19 -0.44 M12.19 -0.36 C13.82 0.07, 15.77 3.48, 17.05 5.45 C18.34 7.41, 20.3 9.45, 19.92 11.43 C19.54 13.41, 16.56 15.87, 14.77 17.32 C12.99 18.78, 11.27 20.44, 9.22 20.18 C7.18 19.92, 4.23 17.26, 2.51 15.75 C0.79 14.24, -0.71 13.2, -1.1 11.12 C-1.48 9.03, -1.29 5.28, 0.2 3.27 C1.68 1.25, 5.52 -0.73, 7.83 -0.98 C10.14 -1.24, 13.2 1.53, 14.06 1.74 C14.92 1.95, 12.91 0.25, 12.99 0.29" stroke="#000000" stroke-width="1" fill="none"></path></g><g stroke-linecap="round" transform="translate(342.7191632078684 371.4959088614192) rotate(0 9.775187770666435 9.775187770666463)"><path d="M0.38 5.63 C0.38 5.63, 0.38 5.63, 0.38 5.63 M0.38 5.63 C0.38 5.63, 0.38 5.63, 0.38 5.63 M-0.18 13.6 C2.7 9.74, 4.69 7.21, 8.23 4.83 M-0.93 12.95 C2.41 10.04, 5.37 6.76, 7.5 4.24 M1.52 16.84 C5.11 11.2, 7.1 6.53, 13.34 4.15 M2.76 16.2 C5.43 12.86, 7.68 8.4, 13.42 2.53 M7.01 19.54 C9.95 14.14, 12.8 8.11, 15.67 4.34 M6.13 17.14 C9.67 13.88, 12.43 9.2, 16.47 5.01 M7.9 19.9 C13.32 17.66, 15.41 13.74, 21.92 8.27 M9.75 19.21 C12.98 15.62, 15.23 12.24, 19.88 7.49" stroke="#4c6ef5" stroke-width="0.5" fill="none"></path><path d="M11.79 0.67 C13.93 1.04, 16.53 3, 17.76 4.72 C19 6.43, 19.49 8.84, 19.21 10.94 C18.93 13.04, 17.32 15.78, 16.08 17.32 C14.84 18.86, 13.7 20.12, 11.75 20.16 C9.81 20.21, 6.43 18.89, 4.39 17.59 C2.35 16.29, 0.17 14.36, -0.5 12.37 C-1.18 10.38, -0.57 7.38, 0.35 5.65 C1.28 3.93, 2.86 2.9, 5.03 2.01 C7.2 1.13, 12.06 0.56, 13.37 0.36 C14.69 0.15, 13.13 0.46, 12.92 0.78 M8.61 -1.45 C10.37 -1.23, 14.42 1.47, 16.12 2.92 C17.82 4.37, 18.5 5.28, 18.81 7.23 C19.11 9.19, 18.79 12.81, 17.95 14.67 C17.11 16.53, 15.87 17.88, 13.76 18.4 C11.65 18.92, 7.34 18.66, 5.3 17.8 C3.25 16.94, 2.56 14.73, 1.51 13.25 C0.46 11.78, -1.09 10.7, -0.99 8.94 C-0.89 7.18, 0.15 4.29, 2.1 2.7 C4.05 1.11, 9.56 -0.37, 10.72 -0.58 C11.88 -0.78, 9.2 0.99, 9.09 1.49" stroke="#000000" stroke-width="1" fill="none"></path></g><g stroke-linecap="round" transform="translate(725.8696041091684 246.53639586469086) rotate(0 105.36001896987182 79.25311161450539)"><path d="M0.78 -1.36 C47.15 -0.92, 93.06 -0.33, 212.27 -0.58 M0.63 0.61 C78.41 -2.1, 156.19 -2.02, 210.37 -0.32 M210.36 -1.99 C211.46 42.63, 213.8 87.42, 212.71 156.57 M211.14 -0.4 C208.62 35.08, 209.19 70.97, 210.34 157.75 M209.38 159.52 C162.19 157.25, 118.06 156.08, -0.81 160.03 M210.26 159.02 C144.11 158.05, 76.76 158.53, 0.4 158.67 M1.02 158.45 C-2.61 98.02, 1.06 41.56, 1.46 1.47 M0.6 158.13 C-0.12 122.16, 0.48 84.01, 0.7 -0.41" stroke="#000000" stroke-width="1" fill="none"></path></g><g transform="translate(798.2720934007743 256.7785241232454) rotate(0 33.5 17.5)"><text x="33.5" y="25" font-family="Virgil, Segoe UI Emoji" font-size="28px" fill="#000000" text-anchor="middle" style="white-space: pre;" direction="ltr">Node</text></g><g transform="translate(736.6101456587444 307.66844334991885) rotate(0 27 12.5)"><text x="0" y="18" font-family="Virgil, Segoe UI Emoji" font-size="20px" fill="#000000" text-anchor="start" style="white-space: pre;" direction="ltr">index:</text></g><g transform="translate(736.1651860454062 339.39641483456273) rotate(0 50 12.5)"><text x="0" y="18" font-family="Virgil, Segoe UI Emoji" font-size="20px" fill="#000000" text-anchor="start" style="white-space: pre;" direction="ltr">conditions:</text></g><g transform="translate(733.6777561103377 368.3004908351469) rotate(0 45 12.5)"><text x="0" y="18" font-family="Virgil, Segoe UI Emoji" font-size="20px" fill="#000000" text-anchor="start" style="white-space: pre;" direction="ltr">branches:</text></g><g stroke-linecap="round" transform="translate(851.7421931439717 302.47976876904755) rotate(0 34.49841329102014 17.5)"><path d="M0.45 1.76 C23.99 1.15, 47.49 1.56, 70.43 1.38 M-0.33 -0.4 C19.51 0.41, 40.68 1.06, 68.82 -1 M69 1.99 C66.87 7.71, 66.87 18.6, 69.84 34.21 M69.43 -0.38 C68.17 7.76, 69.06 16.12, 68.24 35.57 M68.23 34.08 C56.43 35.78, 42.37 34.99, -1.05 36.17 M69.49 35.45 C46.16 35.61, 23.44 34.02, 0.51 34.97 M1 36.46 C1.73 26.39, 0.79 20.07, 1.19 -0.76 M-0.43 35.7 C-0.65 24.19, 0.68 12.51, 0.74 0.35" stroke="#000000" stroke-width="1" fill="none"></path></g><g transform="translate(882.7406064349912 307.47976876904755) rotate(0 3.5 12.5)"><text x="3.5" y="18" font-family="Virgil, Segoe UI Emoji" font-size="20px" fill="#000000" text-anchor="middle" style="white-space: pre;" direction="ltr">1</text></g><g stroke-linecap="round" transform="translate(852.6745826923784 334.18101341484976) rotate(0 34.49841329102014 17.5)"><path d="M-0.65 1.45 C21.94 1.25, 48.89 0.78, 68.76 -0.84 M-0.37 -0.24 C15.05 0.68, 28.08 -0.72, 68.64 -0.54 M67.06 -1.55 C67.06 13.43, 69.84 25.9, 67.87 34.62 M68.24 -0.77 C69.28 9.59, 68.39 21.62, 68.07 35.28 M70.72 35.35 C45.91 34.24, 17.87 35.85, 0.67 34.91 M69.18 35.72 C49.92 34.44, 30.37 35.28, -0.92 34.24 M1.47 33.67 C0.35 20.92, 1.02 6.81, 0.6 1.37 M-0.41 35.75 C1.07 21.99, 0.89 8.09, -0.66 0.28" stroke="#000000" stroke-width="1" fill="none"></path></g><g transform="translate(869.1729959833979 339.18101341484976) rotate(0 18 12.5)"><text x="18" y="18" font-family="Virgil, Segoe UI Emoji" font-size="20px" fill="#000000" text-anchor="middle" style="white-space: pre;" direction="ltr">0, 1</text></g><g stroke-linecap="round" transform="translate(851.7421931439717 363.085089415434) rotate(0 34.49841329102014 14.918232774495124)"><path d="M-1.78 1.86 C28.21 0.88, 53.3 -1.34, 67.09 -0.67 M0.92 0.4 C17.79 -0.83, 35.59 -0.37, 69.81 0 M67.06 0.09 C69.55 11.12, 67.58 23.45, 69.01 30.7 M69.13 -0.94 C68.01 8.4, 67.84 15.94, 69.63 29.45 M70.95 29.39 C50.43 31.12, 34.62 29.87, -0.33 30.83 M69.49 28.96 C45.7 30.31, 20.46 29.58, 0.92 30.33 M0.53 29.47 C0.97 17.96, 0.38 8.96, 1.79 -0.86 M0.92 30.46 C0.86 19.14, -0.53 8.02, 0.28 0.95" stroke="#000000" stroke-width="1" fill="none"></path></g><g stroke-linecap="round" transform="translate(861.9292941015287 371.49590886141914) rotate(0 9.775187770666435 9.775187770666463)"><path d="M5.69 -0.35 C5.69 -0.35, 5.69 -0.35, 5.69 -0.35 M5.69 -0.35 C5.69 -0.35, 5.69 -0.35, 5.69 -0.35 M4.91 6.27 C7.51 4.6, 9.55 2.42, 10.9 0.69 M5.21 6.38 C6.75 4.2, 7.95 2.25, 10.61 0.38 M4.42 15.55 C7 12.07, 8.77 6.3, 14.59 1.03 M4.57 14.67 C8.04 9.83, 11.4 4.66, 14.24 1.07 M6.25 16.97 C9.88 14.39, 11.98 8.81, 15.6 5.7 M4.2 18.85 C8.98 15.51, 11.96 11.23, 18.26 5.17 M10.98 17.9 C14.22 14.43, 15.5 11.48, 19.55 7.91 M9.62 19.19 C12.75 16.44, 14.75 14.26, 20.1 7.64 M15.78 17.8 C17.46 16.62, 19.41 14.11, 20.45 12.95 M16.17 18.1 C17.55 16.7, 18.63 15.17, 20.78 12.5" stroke="#4c6ef5" stroke-width="0.5" fill="none"></path><path d="M12.79 -0.33 C14.53 0.21, 16.92 2.63, 17.95 4.57 C18.99 6.52, 19.19 9.13, 19.02 11.32 C18.84 13.52, 18.49 16.52, 16.9 17.73 C15.32 18.93, 11.81 18.73, 9.5 18.55 C7.19 18.38, 4.49 17.86, 3.06 16.66 C1.64 15.47, 1.07 13.52, 0.95 11.38 C0.83 9.24, 1.55 5.8, 2.35 3.84 C3.15 1.87, 3.71 -0.05, 5.75 -0.41 C7.78 -0.78, 12.98 1.31, 14.55 1.64 C16.13 1.98, 15.31 1.53, 15.2 1.6 M10.7 0.43 C12.53 0.73, 14.49 1.27, 16.11 2.67 C17.72 4.06, 20.19 6.34, 20.4 8.78 C20.62 11.22, 19.06 15.64, 17.41 17.3 C15.76 18.97, 12.43 18.61, 10.5 18.77 C8.57 18.94, 7.27 19.36, 5.84 18.3 C4.41 17.23, 2.9 14.3, 1.92 12.4 C0.94 10.51, -0.69 8.83, -0.05 6.93 C0.59 5.04, 3.8 2.04, 5.74 1.05 C7.69 0.05, 10.49 1.03, 11.62 0.97 C12.75 0.91, 12.31 0.53, 12.5 0.69" stroke="#000000" stroke-width="1" fill="none"></path></g><g stroke-linecap="round" transform="translate(892.8840553753057 371.4959088614192) rotate(0 9.775187770666435 9.775187770666463)"><path d="M0.27 4.21 C0.27 4.21, 0.27 4.21, 0.27 4.21 M0.27 4.21 C0.27 4.21, 0.27 4.21, 0.27 4.21 M0.32 10.91 C3.72 8.04, 6.43 4.75, 8.16 2.07 M0.47 10.49 C2.65 6.85, 5.18 3.92, 7.73 2 M3.96 14.37 C6.66 9.86, 7.07 6.51, 13.43 2.2 M3.08 14.01 C5.13 10.67, 6.84 7.96, 13.47 1.15 M1.44 20.07 C6.33 14.72, 8.07 9.83, 17.79 3.59 M3.42 19.46 C9.21 13.23, 14.01 8.6, 17.24 3.59 M7.02 20.8 C11.28 13.99, 16.06 8.33, 20.39 5.27 M8.4 19.75 C12.58 14.58, 17.36 9.52, 20.1 6.54 M10.99 21.57 C14.53 19.38, 15.77 15.15, 19.6 12.81 M11.5 21.83 C14.4 18.36, 17.09 15.9, 18.83 13.24" stroke="#4c6ef5" stroke-width="0.5" fill="none"></path><path d="M12.14 0.25 C14.01 0.81, 16.66 2.48, 17.83 4.5 C19 6.52, 19.39 10.27, 19.16 12.36 C18.94 14.46, 18.21 15.93, 16.48 17.06 C14.76 18.2, 11.06 19.02, 8.81 19.2 C6.55 19.37, 4.42 19.21, 2.98 18.1 C1.53 16.98, 0.6 14.82, 0.15 12.49 C-0.29 10.17, -0.55 6.11, 0.33 4.14 C1.21 2.16, 2.81 1.07, 5.44 0.64 C8.06 0.21, 14.15 1.01, 16.07 1.56 C17.99 2.12, 17.13 3.69, 16.97 3.96 M8.15 -1.24 C10.08 -1.39, 11.85 0.78, 13.41 2.11 C14.97 3.43, 16.43 5.01, 17.52 6.72 C18.61 8.44, 20.52 10.3, 19.95 12.42 C19.37 14.55, 16 18.06, 14.08 19.47 C12.17 20.88, 10.48 21.57, 8.47 20.89 C6.46 20.2, 3.3 17.12, 2.04 15.37 C0.77 13.63, 0.86 12.41, 0.88 10.41 C0.89 8.4, 0.83 4.94, 2.14 3.35 C3.44 1.75, 7.67 1.16, 8.69 0.85 C9.71 0.53, 8.23 1.61, 8.26 1.44" stroke="#000000" stroke-width="1" fill="none"></path></g><g stroke-linecap="round"><g transform="translate(572.663514337823 148.0964988288437) rotate(0 -91.84618921672268 60.29777178432385)"><path d="M0.86 0.83 C-29.55 20.49, -152.63 99.37, -183.53 119.1 M-0.15 0.22 C-30.63 20.56, -154.2 100.36, -184.55 120.37" stroke="#000000" stroke-width="1" fill="none"></path></g><g transform="translate(572.663514337823 148.0964988288437) rotate(0 -91.84618921672268 60.29777178432385)"><path d="M-165.16 96.15 C-170.95 99.67, -174.58 105.84, -185.29 119.89 M-167.54 96.03 C-174.04 106.56, -180.55 116.14, -185.52 119.6" stroke="#000000" stroke-width="1" fill="none"></path></g><g transform="translate(572.663514337823 148.0964988288437) rotate(0 -91.84618921672268 60.29777178432385)"><path d="M-153.95 113.34 C-162.27 113.31, -168.26 115.86, -185.29 119.89 M-156.33 113.22 C-167.29 117, -178.19 119.84, -185.52 119.6" stroke="#000000" stroke-width="1" fill="none"></path></g></g><g stroke-linecap="round"><g transform="translate(623.9211129869632 150.37461432436103) rotate(0 49.77186437455293 47.6760798249751)"><path d="M0.83 -0.14 C17.27 15.66, 83.23 79.6, 99.74 95.68 M-0.19 -1.26 C15.94 14.57, 82.02 80.17, 98.52 96.61" stroke="#000000" stroke-width="1" fill="none"></path></g><g transform="translate(623.9211129869632 150.37461432436103) rotate(0 49.77186437455293 47.6760798249751)"><path d="M71.06 83.18 C80.18 88.11, 92 93, 98.04 98.45 M70.94 83.48 C81.35 88.58, 90.8 91.89, 97.75 95.65" stroke="#000000" stroke-width="1" fill="none"></path></g><g transform="translate(623.9211129869632 150.37461432436103) rotate(0 49.77186437455293 47.6760798249751)"><path d="M85.53 68.63 C89.07 79.38, 95.2 89.99, 98.04 98.45 M85.41 68.92 C90.87 78.83, 95.39 87.1, 97.75 95.65" stroke="#000000" stroke-width="1" fill="none"></path></g></g><g stroke-linecap="round"><g transform="translate(310.68023235332885 387.2986258581644) rotate(0 -70.69453352500045 73.02820113967391)"><path d="M-0.14 -0.5 C-23.83 23.78, -117.84 122.04, -141.25 146.54 M-1.68 -1.81 C-25.08 22.57, -115.82 122.97, -139.13 147.87" stroke="#000000" stroke-width="1" fill="none"></path></g><g transform="translate(310.68023235332885 387.2986258581644) rotate(0 -70.69453352500045 73.02820113967391)"><path d="M-128.46 118.26 C-132.38 129.66, -136.72 140.26, -137.3 148.67 M-128.16 120.98 C-131.14 128.93, -135.36 134.97, -140.1 147.91" stroke="#000000" stroke-width="1" fill="none"></path></g><g transform="translate(310.68023235332885 387.2986258581644) rotate(0 -70.69453352500045 73.02820113967391)"><path d="M-113.34 132.14 C-122.98 138.36, -132.94 143.81, -137.3 148.67 M-113.05 134.86 C-120.15 138.84, -128.63 140.97, -140.1 147.91" stroke="#000000" stroke-width="1" fill="none"></path></g></g><g stroke-linecap="round"><g transform="translate(355.103484515917 391.8548568491991) rotate(0 25.178350640175722 68.7487891885065)"><path d="M-0.5 -1.14 C7.84 21.77, 42.3 114.24, 50.86 137.35 M1.44 0.87 C9.51 23.96, 41.64 115.67, 49.7 138.64" stroke="#000000" stroke-width="1" fill="none"></path></g><g transform="translate(355.103484515917 391.8548568491991) rotate(0 25.178350640175722 68.7487891885065)"><path d="M28.79 114.77 C36.89 123.35, 44.22 134.48, 50.51 138.28 M31.5 115.43 C35.41 119.21, 37.45 123.86, 49.74 139.06" stroke="#000000" stroke-width="1" fill="none"></path></g><g transform="translate(355.103484515917 391.8548568491991) rotate(0 25.178350640175722 68.7487891885065)"><path d="M48.15 107.98 C49.1 118.98, 49.27 132.63, 50.51 138.28 M50.87 108.64 C50.87 113.68, 49.03 119.69, 49.74 139.06" stroke="#000000" stroke-width="1" fill="none"></path></g></g><g stroke-linecap="round"><g transform="translate(865.4013555118013 388.4376836059231) rotate(0 -75.78428115875658 71.36659965669065)"><path d="M-1.14 -0.4 C-26.26 23.53, -125.91 118.91, -150.83 143.08 M0.46 -1.66 C-24.84 22.49, -126.69 120.3, -152.03 144.39" stroke="#000000" stroke-width="1" fill="none"></path></g><g transform="translate(865.4013555118013 388.4376836059231) rotate(0 -75.78428115875658 71.36659965669065)"><path d="M-139.41 116.7 C-143.42 124.63, -144.68 133.67, -152.39 142.39 M-138.74 118.48 C-143.37 123.94, -146.88 131.87, -151.61 143.99" stroke="#000000" stroke-width="1" fill="none"></path></g><g transform="translate(865.4013555118013 388.4376836059231) rotate(0 -75.78428115875658 71.36659965669065)"><path d="M-125.23 131.53 C-133.26 135.05, -138.61 139.82, -152.39 142.39 M-124.56 133.32 C-132.86 134.96, -140.12 138.97, -151.61 143.99" stroke="#000000" stroke-width="1" fill="none"></path></g></g><g stroke-linecap="round"><g transform="translate(908.6855499266308 387.2986258581644) rotate(0 42.86455565742176 68.00612580971195)"><path d="M-0.4 -0.47 C14.04 22.45, 71.45 113.46, 86.13 136.4 M1.59 -1.77 C15.88 21.43, 70.64 114.97, 84.95 137.78" stroke="#000000" stroke-width="1" fill="none"></path></g><g transform="translate(908.6855499266308 387.2986258581644) rotate(0 42.86455565742176 68.00612580971195)"><path d="M60.81 118.22 C66.96 125.72, 74.28 128.39, 82.96 137.07 M62.59 117.98 C66.72 122.61, 73.29 128.64, 84.55 137.22" stroke="#000000" stroke-width="1" fill="none"></path></g><g transform="translate(908.6855499266308 387.2986258581644) rotate(0 42.86455565742176 68.00612580971195)"><path d="M78.38 107.61 C79.9 117.8, 82.68 123.21, 82.96 137.07 M80.16 107.37 C80.05 114.62, 82.3 123.26, 84.55 137.22" stroke="#000000" stroke-width="1" fill="none"></path></g></g></svg>