<svg xmlns="http://www.w3.org/2000/svg" xmlns:xlink="http://www.w3.org/1999/xlink" width="98pt" height="116pt" viewBox="0 0 98 116"><g id="graph0" class="graph" transform="scale(1 1) rotate(0) translate(4 112)"><title>G</title><polygon fill="#fff" stroke="transparent" points="-4 4 -4 -112 94 -112 94 4 -4 4"/><g id="node1" class="node"><title>X1</title><ellipse cx="18" cy="-90" fill="none" stroke="#000" rx="18" ry="18"/><text x="18" y="-86.3" fill="#000" font-family="Times,serif" font-size="14" text-anchor="middle">X1</text></g><g id="node3" class="node"><title>T</title><ellipse cx="45" cy="-18" fill="none" stroke="#000" rx="18" ry="18"/><text x="45" y="-14.3" fill="#000" font-family="Times,serif" font-size="14" text-anchor="middle">T</text></g><g id="edge1" class="edge"><title>X1-&gt;T</title><path fill="none" stroke="#000" d="M24.3986,-72.937C27.593,-64.4186 31.529,-53.9227 35.1018,-44.3952"/><polygon fill="#000" stroke="#000" points="38.413 -45.533 38.647 -34.941 31.859 -43.075 38.413 -45.533"/></g><g id="node2" class="node"><title>X2</title><ellipse cx="72" cy="-90" fill="none" stroke="#000" rx="18" ry="18"/><text x="72" y="-86.3" fill="#000" font-family="Times,serif" font-size="14" text-anchor="middle">X2</text></g><g id="edge2" class="edge"><title>X2-&gt;T</title><path fill="none" stroke="#000" d="M65.6014,-72.937C62.407,-64.4186 58.471,-53.9227 54.8982,-44.3952"/><polygon fill="#000" stroke="#000" points="58.141 -43.075 51.353 -34.941 51.587 -45.533 58.141 -43.075"/></g></g></svg>