<?xml version="1.0" encoding="UTF-8" standalone="no"?>
<!DOCTYPE svg PUBLIC "-//W3C//DTD SVG 1.1//EN"
 "http://www.w3.org/Graphics/SVG/1.1/DTD/svg11.dtd">
<!-- Generated by graphviz version 2.40.1 (20161225.0304)
 -->
<!-- Title: G Pages: 1 -->
<svg width="98pt" height="116pt"
 viewBox="0.00 0.00 98.00 116.00" xmlns="http://www.w3.org/2000/svg" xmlns:xlink="http://www.w3.org/1999/xlink">
<g id="graph0" class="graph" transform="scale(1 1) rotate(0) translate(4 112)">
<title>G</title>
<polygon fill="#ffffff" stroke="transparent" points="-4,4 -4,-112 94,-112 94,4 -4,4"/>
<!-- X1 -->
<g id="node1" class="node">
<title>X1</title>
<ellipse fill="none" stroke="#000000" cx="18" cy="-90" rx="18" ry="18"/>
<text text-anchor="middle" x="18" y="-86.3" font-family="Times,serif" font-size="14.00" fill="#000000">X1</text>
</g>
<!-- T -->
<g id="node3" class="node">
<title>T</title>
<ellipse fill="none" stroke="#000000" cx="45" cy="-18" rx="18" ry="18"/>
<text text-anchor="middle" x="45" y="-14.3" font-family="Times,serif" font-size="14.00" fill="#000000">T</text>
</g>
<!-- X1&#45;&gt;T -->
<g id="edge1" class="edge">
<title>X1&#45;&gt;T</title>
<path fill="none" stroke="#000000" d="M24.3986,-72.937C27.593,-64.4186 31.529,-53.9227 35.1018,-44.3952"/>
<polygon fill="#000000" stroke="#000000" points="38.4132,-45.5328 38.6473,-34.9405 31.8589,-43.0749 38.4132,-45.5328"/>
</g>
<!-- X2 -->
<g id="node2" class="node">
<title>X2</title>
<ellipse fill="none" stroke="#000000" cx="72" cy="-90" rx="18" ry="18"/>
<text text-anchor="middle" x="72" y="-86.3" font-family="Times,serif" font-size="14.00" fill="#000000">X2</text>
</g>
<!-- X2&#45;&gt;T -->
<g id="edge2" class="edge">
<title>X2&#45;&gt;T</title>
<path fill="none" stroke="#000000" d="M65.6014,-72.937C62.407,-64.4186 58.471,-53.9227 54.8982,-44.3952"/>
<polygon fill="#000000" stroke="#000000" points="58.1411,-43.0749 51.3527,-34.9405 51.5868,-45.5328 58.1411,-43.0749"/>
</g>
</g>
</svg>
