<?xml version="1.0" encoding="UTF-8" standalone="no"?>
<!DOCTYPE svg PUBLIC "-//W3C//DTD SVG 1.1//EN"
 "http://www.w3.org/Graphics/SVG/1.1/DTD/svg11.dtd">
<!-- Generated by graphviz version 2.40.1 (20161225.0304)
 -->
<!-- Title: G Pages: 1 -->
<svg width="152pt" height="116pt"
 viewBox="0.00 0.00 152.00 116.00" xmlns="http://www.w3.org/2000/svg" xmlns:xlink="http://www.w3.org/1999/xlink">
<g id="graph0" class="graph" transform="scale(1 1) rotate(0) translate(4 112)">
<title>G</title>
<polygon fill="#ffffff" stroke="transparent" points="-4,4 -4,-112 148,-112 148,4 -4,4"/>
<!-- X2 -->
<g id="node1" class="node">
<title>X2</title>
<ellipse fill="none" stroke="#000000" cx="18" cy="-90" rx="18" ry="18"/>
<text text-anchor="middle" x="18" y="-86.3" font-family="Times,serif" font-size="14.00" fill="#000000">X2</text>
</g>
<!-- T -->
<g id="node4" class="node">
<title>T</title>
<ellipse fill="none" stroke="#000000" cx="72" cy="-18" rx="18" ry="18"/>
<text text-anchor="middle" x="72" y="-14.3" font-family="Times,serif" font-size="14.00" fill="#000000">T</text>
</g>
<!-- X2&#45;&gt;T -->
<g id="edge1" class="edge">
<title>X2&#45;&gt;T</title>
<path fill="none" stroke="#000000" d="M28.9277,-75.4297C36.3934,-65.4754 46.4368,-52.0842 54.9474,-40.7368"/>
<polygon fill="#000000" stroke="#000000" points="57.8885,-42.6486 61.0885,-32.5486 52.2885,-38.4486 57.8885,-42.6486"/>
</g>
<!-- X3 -->
<g id="node2" class="node">
<title>X3</title>
<ellipse fill="none" stroke="#000000" cx="72" cy="-90" rx="18" ry="18"/>
<text text-anchor="middle" x="72" y="-86.3" font-family="Times,serif" font-size="14.00" fill="#000000">X3</text>
</g>
<!-- X3&#45;&gt;T -->
<g id="edge2" class="edge">
<title>X3&#45;&gt;T</title>
<path fill="none" stroke="#000000" d="M72,-71.8314C72,-64.131 72,-54.9743 72,-46.4166"/>
<polygon fill="#000000" stroke="#000000" points="75.5001,-46.4132 72,-36.4133 68.5001,-46.4133 75.5001,-46.4132"/>
</g>
<!-- X5 -->
<g id="node3" class="node">
<title>X5</title>
<ellipse fill="none" stroke="#000000" cx="126" cy="-90" rx="18" ry="18"/>
<text text-anchor="middle" x="126" y="-86.3" font-family="Times,serif" font-size="14.00" fill="#000000">X5</text>
</g>
<!-- X5&#45;&gt;T -->
<g id="edge3" class="edge">
<title>X5&#45;&gt;T</title>
<path fill="none" stroke="#000000" d="M115.0723,-75.4297C107.6066,-65.4754 97.5632,-52.0842 89.0526,-40.7368"/>
<polygon fill="#000000" stroke="#000000" points="91.7115,-38.4486 82.9115,-32.5486 86.1115,-42.6486 91.7115,-38.4486"/>
</g>
</g>
</svg>
