<svg xmlns="http://www.w3.org/2000/svg" xmlns:xlink="http://www.w3.org/1999/xlink" width="152pt" height="116pt" viewBox="0 0 152 116"><g id="graph0" class="graph" transform="scale(1 1) rotate(0) translate(4 112)"><title>G</title><polygon fill="#fff" stroke="transparent" points="-4 4 -4 -112 148 -112 148 4 -4 4"/><g id="node1" class="node"><title>X2</title><ellipse cx="18" cy="-90" fill="none" stroke="#000" rx="18" ry="18"/><text x="18" y="-86.3" fill="#000" font-family="Times,serif" font-size="14" text-anchor="middle">X2</text></g><g id="node4" class="node"><title>T</title><ellipse cx="72" cy="-18" fill="none" stroke="#000" rx="18" ry="18"/><text x="72" y="-14.3" fill="#000" font-family="Times,serif" font-size="14" text-anchor="middle">T</text></g><g id="edge1" class="edge"><title>X2-&gt;T</title><path fill="none" stroke="#000" d="M28.9277,-75.4297C36.3934,-65.4754 46.4368,-52.0842 54.9474,-40.7368"/><polygon fill="#000" stroke="#000" points="57.889 -42.649 61.089 -32.549 52.288 -38.449 57.889 -42.649"/></g><g id="node2" class="node"><title>X3</title><ellipse cx="72" cy="-90" fill="none" stroke="#000" rx="18" ry="18"/><text x="72" y="-86.3" fill="#000" font-family="Times,serif" font-size="14" text-anchor="middle">X3</text></g><g id="edge2" class="edge"><title>X3-&gt;T</title><path fill="none" stroke="#000" d="M72,-71.8314C72,-64.131 72,-54.9743 72,-46.4166"/><polygon fill="#000" stroke="#000" points="75.5 -46.413 72 -36.413 68.5 -46.413 75.5 -46.413"/></g><g id="node3" class="node"><title>X5</title><ellipse cx="126" cy="-90" fill="none" stroke="#000" rx="18" ry="18"/><text x="126" y="-86.3" fill="#000" font-family="Times,serif" font-size="14" text-anchor="middle">X5</text></g><g id="edge3" class="edge"><title>X5-&gt;T</title><path fill="none" stroke="#000" d="M115.0723,-75.4297C107.6066,-65.4754 97.5632,-52.0842 89.0526,-40.7368"/><polygon fill="#000" stroke="#000" points="91.712 -38.449 82.912 -32.549 86.112 -42.649 91.712 -38.449"/></g></g></svg>