<svg xmlns="http://www.w3.org/2000/svg" xmlns:xlink="http://www.w3.org/1999/xlink" width="200pt" height="131pt" viewBox="0 0 200 131"><g id="graph0" class="graph" transform="scale(1 1) rotate(0) translate(4 127)"><title>G</title><polygon fill="#fff" stroke="transparent" points="-4 4 -4 -127 196 -127 196 4 -4 4"/><g id="node1" class="node"><title>1</title><ellipse cx="95.5" cy="-105" fill="none" stroke="#000" rx="55.79" ry="18"/><text x="95.5" y="-101.3" fill="#000" font-family="Times,serif" font-size="14" text-anchor="middle">[smokes(A)]</text></g><g id="node2" class="node"><title>2</title><polygon fill="none" stroke="#000" points="87 -36 0 -36 0 0 87 0 87 -36"/><text x="43.5" y="-14.3" fill="#000" font-family="Times,serif" font-size="14" text-anchor="middle">0.858(0.702)</text></g><g id="edge1" class="edge"><title>1-&gt;2</title><path fill="none" stroke="#000" d="M84.7256,-86.9735C77.4744,-74.8418 67.7838,-58.6287 59.6199,-44.9698"/><polygon fill="#000" stroke="#000" points="62.395 -42.791 54.261 -36.003 56.387 -46.383 62.395 -42.791"/><text x="86.5" y="-57.8" fill="#000" font-family="Times,serif" font-size="14" text-anchor="middle">True</text></g><g id="node3" class="node"><title>3</title><polygon fill="none" stroke="#000" points="192 -36 105 -36 105 0 192 0 192 -36"/><text x="148.5" y="-14.3" fill="#000" font-family="Times,serif" font-size="14" text-anchor="middle">0.191(0.548)</text></g><g id="edge2" class="edge"><title>1-&gt;3</title><path fill="none" stroke="#000" d="M106.4816,-86.9735C113.9433,-74.7252 123.9394,-58.3165 132.3097,-44.5766"/><polygon fill="#000" stroke="#000" points="135.319 -46.364 137.532 -36.003 129.341 -42.722 135.319 -46.364"/><text x="139" y="-57.8" fill="#000" font-family="Times,serif" font-size="14" text-anchor="middle">False</text></g></g></svg>