<?xml version="1.0" encoding="UTF-8" standalone="no"?>
<!DOCTYPE svg PUBLIC "-//W3C//DTD SVG 1.1//EN"
 "http://www.w3.org/Graphics/SVG/1.1/DTD/svg11.dtd">
<!-- Generated by graphviz version 2.40.1 (20161225.0304)
 -->
<!-- Title: G Pages: 1 -->
<svg width="200pt" height="131pt"
 viewBox="0.00 0.00 200.00 131.00" xmlns="http://www.w3.org/2000/svg" xmlns:xlink="http://www.w3.org/1999/xlink">
<g id="graph0" class="graph" transform="scale(1 1) rotate(0) translate(4 127)">
<title>G</title>
<polygon fill="#ffffff" stroke="transparent" points="-4,4 -4,-127 196,-127 196,4 -4,4"/>
<!-- 1 -->
<g id="node1" class="node">
<title>1</title>
<ellipse fill="none" stroke="#000000" cx="95.5" cy="-105" rx="55.7903" ry="18"/>
<text text-anchor="middle" x="95.5" y="-101.3" font-family="Times,serif" font-size="14.00" fill="#000000">[smokes(A)]</text>
</g>
<!-- 2 -->
<g id="node2" class="node">
<title>2</title>
<polygon fill="none" stroke="#000000" points="87,-36 0,-36 0,0 87,0 87,-36"/>
<text text-anchor="middle" x="43.5" y="-14.3" font-family="Times,serif" font-size="14.00" fill="#000000">0.858(0.702)</text>
</g>
<!-- 1&#45;&gt;2 -->
<g id="edge1" class="edge">
<title>1&#45;&gt;2</title>
<path fill="none" stroke="#000000" d="M84.7256,-86.9735C77.4744,-74.8418 67.7838,-58.6287 59.6199,-44.9698"/>
<polygon fill="#000000" stroke="#000000" points="62.3954,-42.7913 54.2606,-36.0034 56.3868,-46.3827 62.3954,-42.7913"/>
<text text-anchor="middle" x="86.5" y="-57.8" font-family="Times,serif" font-size="14.00" fill="#000000">True</text>
</g>
<!-- 3 -->
<g id="node3" class="node">
<title>3</title>
<polygon fill="none" stroke="#000000" points="192,-36 105,-36 105,0 192,0 192,-36"/>
<text text-anchor="middle" x="148.5" y="-14.3" font-family="Times,serif" font-size="14.00" fill="#000000">0.191(0.548)</text>
</g>
<!-- 1&#45;&gt;3 -->
<g id="edge2" class="edge">
<title>1&#45;&gt;3</title>
<path fill="none" stroke="#000000" d="M106.4816,-86.9735C113.9433,-74.7252 123.9394,-58.3165 132.3097,-44.5766"/>
<polygon fill="#000000" stroke="#000000" points="135.3188,-46.3644 137.5324,-36.0034 129.3408,-42.7225 135.3188,-46.3644"/>
<text text-anchor="middle" x="139" y="-57.8" font-family="Times,serif" font-size="14.00" fill="#000000">False</text>
</g>
</g>
</svg>
