<?xml version="1.0" encoding="UTF-8" standalone="no"?>
<!DOCTYPE svg PUBLIC "-//W3C//DTD SVG 1.1//EN"
 "http://www.w3.org/Graphics/SVG/1.1/DTD/svg11.dtd">
<!-- Generated by graphviz version 2.40.1 (20161225.0304)
 -->
<!-- Title: adult_constrained Pages: 1 -->
<svg width="274pt" height="404pt"
 viewBox="0.00 0.00 274.04 404.00" xmlns="http://www.w3.org/2000/svg" xmlns:xlink="http://www.w3.org/1999/xlink">
<g id="graph0" class="graph" transform="scale(1 1) rotate(0) translate(4 400)">
<title>adult_constrained</title>
<polygon fill="#ffffff" stroke="transparent" points="-4,4 -4,-400 270.0421,-400 270.0421,4 -4,4"/>
<!-- MaritalStatus -->
<g id="node1" class="node">
<title>MaritalStatus</title>
<ellipse fill="none" stroke="#000000" cx="94.3454" cy="-378" rx="58.4896" ry="18"/>
<text text-anchor="middle" x="94.3454" y="-374.3" font-family="Times,serif" font-size="14.00" fill="#000000">MaritalStatus</text>
</g>
<!-- Gender -->
<g id="node2" class="node">
<title>Gender</title>
<ellipse fill="none" stroke="#000000" cx="53.3454" cy="-234" rx="36.2938" ry="18"/>
<text text-anchor="middle" x="53.3454" y="-230.3" font-family="Times,serif" font-size="14.00" fill="#000000">Gender</text>
</g>
<!-- MaritalStatus&#45;&gt;Gender -->
<g id="edge1" class="edge">
<title>MaritalStatus&#45;&gt;Gender</title>
<path fill="none" stroke="#000000" d="M85.9799,-359.8016C81.4719,-349.467 76.084,-336.195 72.3454,-324 66.1144,-303.6744 61.2259,-280.1504 57.9686,-262.2509"/>
<polygon fill="#000000" stroke="#000000" points="61.3753,-261.4142 56.1978,-252.1706 54.4809,-262.6254 61.3753,-261.4142"/>
</g>
<!-- Relationship -->
<g id="node3" class="node">
<title>Relationship</title>
<ellipse fill="none" stroke="#000000" cx="136.3454" cy="-306" rx="55.4913" ry="18"/>
<text text-anchor="middle" x="136.3454" y="-302.3" font-family="Times,serif" font-size="14.00" fill="#000000">Relationship</text>
</g>
<!-- MaritalStatus&#45;&gt;Relationship -->
<g id="edge2" class="edge">
<title>MaritalStatus&#45;&gt;Relationship</title>
<path fill="none" stroke="#000000" d="M104.7275,-360.2022C109.5737,-351.8944 115.4437,-341.8316 120.8039,-332.6427"/>
<polygon fill="#000000" stroke="#000000" points="123.9218,-334.2439 125.9373,-323.8425 117.8753,-330.7168 123.9218,-334.2439"/>
</g>
<!-- Occupation -->
<g id="node4" class="node">
<title>Occupation</title>
<ellipse fill="none" stroke="#000000" cx="51.3454" cy="-162" rx="51.1914" ry="18"/>
<text text-anchor="middle" x="51.3454" y="-158.3" font-family="Times,serif" font-size="14.00" fill="#000000">Occupation</text>
</g>
<!-- Gender&#45;&gt;Occupation -->
<g id="edge7" class="edge">
<title>Gender&#45;&gt;Occupation</title>
<path fill="none" stroke="#000000" d="M52.8408,-215.8314C52.6269,-208.131 52.3725,-198.9743 52.1348,-190.4166"/>
<polygon fill="#000000" stroke="#000000" points="55.6333,-190.3122 51.8569,-180.4133 48.636,-190.5066 55.6333,-190.3122"/>
</g>
<!-- Relationship&#45;&gt;Gender -->
<g id="edge3" class="edge">
<title>Relationship&#45;&gt;Gender</title>
<path fill="none" stroke="#000000" d="M116.6756,-288.937C105.4289,-279.1808 91.1919,-266.8307 79.0665,-256.3123"/>
<polygon fill="#000000" stroke="#000000" points="81.3034,-253.6193 71.456,-249.7103 76.7164,-258.907 81.3034,-253.6193"/>
</g>
<!-- Relationship&#45;&gt;Occupation -->
<g id="edge4" class="edge">
<title>Relationship&#45;&gt;Occupation</title>
<path fill="none" stroke="#000000" d="M130.6209,-287.9367C124.2442,-269.1594 112.8906,-239.3106 98.3454,-216 91.9984,-205.828 83.7608,-195.6541 75.9588,-186.9243"/>
<polygon fill="#000000" stroke="#000000" points="78.3334,-184.3363 68.9829,-179.3545 73.1859,-189.08 78.3334,-184.3363"/>
</g>
<!-- Race -->
<g id="node5" class="node">
<title>Race</title>
<ellipse fill="none" stroke="#000000" cx="178.3454" cy="-234" rx="28.6953" ry="18"/>
<text text-anchor="middle" x="178.3454" y="-230.3" font-family="Times,serif" font-size="14.00" fill="#000000">Race</text>
</g>
<!-- Relationship&#45;&gt;Race -->
<g id="edge5" class="edge">
<title>Relationship&#45;&gt;Race</title>
<path fill="none" stroke="#000000" d="M146.7275,-288.2022C151.683,-279.7071 157.709,-269.3767 163.1658,-260.0223"/>
<polygon fill="#000000" stroke="#000000" points="166.3565,-261.4986 168.3721,-251.0972 160.3101,-257.9715 166.3565,-261.4986"/>
</g>
<!-- Income -->
<g id="node6" class="node">
<title>Income</title>
<ellipse fill="none" stroke="#000000" cx="228.3454" cy="-18" rx="37.8943" ry="18"/>
<text text-anchor="middle" x="228.3454" y="-14.3" font-family="Times,serif" font-size="14.00" fill="#000000">Income</text>
</g>
<!-- Relationship&#45;&gt;Income -->
<g id="edge6" class="edge">
<title>Relationship&#45;&gt;Income</title>
<path fill="none" stroke="#000000" d="M165.9223,-290.6907C182.2468,-281.1753 202.0472,-267.7623 216.3454,-252 240.7969,-225.045 246.4048,-215.2776 255.3454,-180 267.1652,-133.3622 251.673,-77.8234 239.7381,-45.3796"/>
<polygon fill="#000000" stroke="#000000" points="242.8745,-43.783 236.0273,-35.698 236.3382,-46.2883 242.8745,-43.783"/>
</g>
<!-- WorkClass -->
<g id="node8" class="node">
<title>WorkClass</title>
<ellipse fill="none" stroke="#000000" cx="51.3454" cy="-90" rx="50.0912" ry="18"/>
<text text-anchor="middle" x="51.3454" y="-86.3" font-family="Times,serif" font-size="14.00" fill="#000000">WorkClass</text>
</g>
<!-- Occupation&#45;&gt;WorkClass -->
<g id="edge9" class="edge">
<title>Occupation&#45;&gt;WorkClass</title>
<path fill="none" stroke="#000000" d="M51.3454,-143.8314C51.3454,-136.131 51.3454,-126.9743 51.3454,-118.4166"/>
<polygon fill="#000000" stroke="#000000" points="54.8455,-118.4132 51.3454,-108.4133 47.8455,-118.4133 54.8455,-118.4132"/>
</g>
<!-- Education -->
<g id="node9" class="node">
<title>Education</title>
<ellipse fill="none" stroke="#000000" cx="183.3454" cy="-90" rx="46.2923" ry="18"/>
<text text-anchor="middle" x="183.3454" y="-86.3" font-family="Times,serif" font-size="14.00" fill="#000000">Education</text>
</g>
<!-- Occupation&#45;&gt;Education -->
<g id="edge10" class="edge">
<title>Occupation&#45;&gt;Education</title>
<path fill="none" stroke="#000000" d="M79.3392,-146.7307C99.2049,-135.8949 126.0392,-121.258 147.4747,-109.5658"/>
<polygon fill="#000000" stroke="#000000" points="149.1918,-112.6161 156.2948,-104.7549 145.8398,-106.4708 149.1918,-112.6161"/>
</g>
<!-- NativeCountry -->
<g id="node7" class="node">
<title>NativeCountry</title>
<ellipse fill="none" stroke="#000000" cx="183.3454" cy="-162" rx="63.0888" ry="18"/>
<text text-anchor="middle" x="183.3454" y="-158.3" font-family="Times,serif" font-size="14.00" fill="#000000">NativeCountry</text>
</g>
<!-- Race&#45;&gt;NativeCountry -->
<g id="edge8" class="edge">
<title>Race&#45;&gt;NativeCountry</title>
<path fill="none" stroke="#000000" d="M179.6072,-215.8314C180.1419,-208.131 180.7778,-198.9743 181.3721,-190.4166"/>
<polygon fill="#000000" stroke="#000000" points="184.8655,-190.6317 182.0667,-180.4133 177.8823,-190.1467 184.8655,-190.6317"/>
</g>
<!-- Education&#45;&gt;Income -->
<g id="edge11" class="edge">
<title>Education&#45;&gt;Income</title>
<path fill="none" stroke="#000000" d="M194.469,-72.2022C199.7944,-63.6817 206.2736,-53.315 212.1339,-43.9385"/>
<polygon fill="#000000" stroke="#000000" points="215.173,-45.6796 217.5051,-35.3446 209.237,-41.9696 215.173,-45.6796"/>
</g>
</g>
</svg>
