<svg xmlns="http://www.w3.org/2000/svg" xmlns:xlink="http://www.w3.org/1999/xlink" width="274pt" height="404pt" viewBox="0 0 274.04 404"><g id="graph0" class="graph" transform="scale(1 1) rotate(0) translate(4 400)"><title>adult_constrained</title><polygon fill="#fff" stroke="transparent" points="-4 4 -4 -400 270.042 -400 270.042 4 -4 4"/><g id="node1" class="node"><title>MaritalStatus</title><ellipse cx="94.345" cy="-378" fill="none" stroke="#000" rx="58.49" ry="18"/><text x="94.345" y="-374.3" fill="#000" font-family="Times,serif" font-size="14" text-anchor="middle">MaritalStatus</text></g><g id="node2" class="node"><title>Gender</title><ellipse cx="53.345" cy="-234" fill="none" stroke="#000" rx="36.294" ry="18"/><text x="53.345" y="-230.3" fill="#000" font-family="Times,serif" font-size="14" text-anchor="middle">Gender</text></g><g id="edge1" class="edge"><title>MaritalStatus-&gt;Gender</title><path fill="none" stroke="#000" d="M85.9799,-359.8016C81.4719,-349.467 76.084,-336.195 72.3454,-324 66.1144,-303.6744 61.2259,-280.1504 57.9686,-262.2509"/><polygon fill="#000" stroke="#000" points="61.375 -261.414 56.198 -252.171 54.481 -262.625 61.375 -261.414"/></g><g id="node3" class="node"><title>Relationship</title><ellipse cx="136.345" cy="-306" fill="none" stroke="#000" rx="55.491" ry="18"/><text x="136.345" y="-302.3" fill="#000" font-family="Times,serif" font-size="14" text-anchor="middle">Relationship</text></g><g id="edge2" class="edge"><title>MaritalStatus-&gt;Relationship</title><path fill="none" stroke="#000" d="M104.7275,-360.2022C109.5737,-351.8944 115.4437,-341.8316 120.8039,-332.6427"/><polygon fill="#000" stroke="#000" points="123.922 -334.244 125.937 -323.842 117.875 -330.717 123.922 -334.244"/></g><g id="node4" class="node"><title>Occupation</title><ellipse cx="51.345" cy="-162" fill="none" stroke="#000" rx="51.191" ry="18"/><text x="51.345" y="-158.3" fill="#000" font-family="Times,serif" font-size="14" text-anchor="middle">Occupation</text></g><g id="edge7" class="edge"><title>Gender-&gt;Occupation</title><path fill="none" stroke="#000" d="M52.8408,-215.8314C52.6269,-208.131 52.3725,-198.9743 52.1348,-190.4166"/><polygon fill="#000" stroke="#000" points="55.633 -190.312 51.857 -180.413 48.636 -190.507 55.633 -190.312"/></g><g id="edge3" class="edge"><title>Relationship-&gt;Gender</title><path fill="none" stroke="#000" d="M116.6756,-288.937C105.4289,-279.1808 91.1919,-266.8307 79.0665,-256.3123"/><polygon fill="#000" stroke="#000" points="81.303 -253.619 71.456 -249.71 76.716 -258.907 81.303 -253.619"/></g><g id="edge4" class="edge"><title>Relationship-&gt;Occupation</title><path fill="none" stroke="#000" d="M130.6209,-287.9367C124.2442,-269.1594 112.8906,-239.3106 98.3454,-216 91.9984,-205.828 83.7608,-195.6541 75.9588,-186.9243"/><polygon fill="#000" stroke="#000" points="78.333 -184.336 68.983 -179.355 73.186 -189.08 78.333 -184.336"/></g><g id="node5" class="node"><title>Race</title><ellipse cx="178.345" cy="-234" fill="none" stroke="#000" rx="28.695" ry="18"/><text x="178.345" y="-230.3" fill="#000" font-family="Times,serif" font-size="14" text-anchor="middle">Race</text></g><g id="edge5" class="edge"><title>Relationship-&gt;Race</title><path fill="none" stroke="#000" d="M146.7275,-288.2022C151.683,-279.7071 157.709,-269.3767 163.1658,-260.0223"/><polygon fill="#000" stroke="#000" points="166.357 -261.499 168.372 -251.097 160.31 -257.971 166.357 -261.499"/></g><g id="node6" class="node"><title>Income</title><ellipse cx="228.345" cy="-18" fill="none" stroke="#000" rx="37.894" ry="18"/><text x="228.345" y="-14.3" fill="#000" font-family="Times,serif" font-size="14" text-anchor="middle">Income</text></g><g id="edge6" class="edge"><title>Relationship-&gt;Income</title><path fill="none" stroke="#000" d="M165.9223,-290.6907C182.2468,-281.1753 202.0472,-267.7623 216.3454,-252 240.7969,-225.045 246.4048,-215.2776 255.3454,-180 267.1652,-133.3622 251.673,-77.8234 239.7381,-45.3796"/><polygon fill="#000" stroke="#000" points="242.875 -43.783 236.027 -35.698 236.338 -46.288 242.875 -43.783"/></g><g id="node8" class="node"><title>WorkClass</title><ellipse cx="51.345" cy="-90" fill="none" stroke="#000" rx="50.091" ry="18"/><text x="51.345" y="-86.3" fill="#000" font-family="Times,serif" font-size="14" text-anchor="middle">WorkClass</text></g><g id="edge9" class="edge"><title>Occupation-&gt;WorkClass</title><path fill="none" stroke="#000" d="M51.3454,-143.8314C51.3454,-136.131 51.3454,-126.9743 51.3454,-118.4166"/><polygon fill="#000" stroke="#000" points="54.846 -118.413 51.345 -108.413 47.846 -118.413 54.846 -118.413"/></g><g id="node9" class="node"><title>Education</title><ellipse cx="183.345" cy="-90" fill="none" stroke="#000" rx="46.292" ry="18"/><text x="183.345" y="-86.3" fill="#000" font-family="Times,serif" font-size="14" text-anchor="middle">Education</text></g><g id="edge10" class="edge"><title>Occupation-&gt;Education</title><path fill="none" stroke="#000" d="M79.3392,-146.7307C99.2049,-135.8949 126.0392,-121.258 147.4747,-109.5658"/><polygon fill="#000" stroke="#000" points="149.192 -112.616 156.295 -104.755 145.84 -106.471 149.192 -112.616"/></g><g id="node7" class="node"><title>NativeCountry</title><ellipse cx="183.345" cy="-162" fill="none" stroke="#000" rx="63.089" ry="18"/><text x="183.345" y="-158.3" fill="#000" font-family="Times,serif" font-size="14" text-anchor="middle">NativeCountry</text></g><g id="edge8" class="edge"><title>Race-&gt;NativeCountry</title><path fill="none" stroke="#000" d="M179.6072,-215.8314C180.1419,-208.131 180.7778,-198.9743 181.3721,-190.4166"/><polygon fill="#000" stroke="#000" points="184.865 -190.632 182.067 -180.413 177.882 -190.147 184.865 -190.632"/></g><g id="edge11" class="edge"><title>Education-&gt;Income</title><path fill="none" stroke="#000" d="M194.469,-72.2022C199.7944,-63.6817 206.2736,-53.315 212.1339,-43.9385"/><polygon fill="#000" stroke="#000" points="215.173 -45.68 217.505 -35.345 209.237 -41.97 215.173 -45.68"/></g></g></svg>