<svg xmlns="http://www.w3.org/2000/svg" xmlns:xlink="http://www.w3.org/1999/xlink" width="442pt" height="332pt" viewBox="0 0 442.19 332"><g id="graph0" class="graph" transform="scale(1 1) rotate(0) translate(4 328)"><title>adult_unconstrained</title><polygon fill="#fff" stroke="transparent" points="-4 4 -4 -328 438.19 -328 438.19 4 -4 4"/><g id="node1" class="node"><title>Income</title><ellipse cx="286.044" cy="-306" fill="none" stroke="#000" rx="37.894" ry="18"/><text x="286.044" y="-302.3" fill="#000" font-family="Times,serif" font-size="14" text-anchor="middle">Income</text></g><g id="node2" class="node"><title>Relationship</title><ellipse cx="203.044" cy="-234" fill="none" stroke="#000" rx="55.491" ry="18"/><text x="203.044" y="-230.3" fill="#000" font-family="Times,serif" font-size="14" text-anchor="middle">Relationship</text></g><g id="edge1" class="edge"><title>Income-&gt;Relationship</title><path fill="none" stroke="#000" d="M267.624,-290.0209C256.6544,-280.5051 242.5303,-268.2528 230.2896,-257.6344"/><polygon fill="#000" stroke="#000" points="232.417 -254.847 222.57 -250.938 227.83 -260.134 232.417 -254.847"/></g><g id="node3" class="node"><title>Gender</title><ellipse cx="267.044" cy="-162" fill="none" stroke="#000" rx="36.294" ry="18"/><text x="267.044" y="-158.3" fill="#000" font-family="Times,serif" font-size="14" text-anchor="middle">Gender</text></g><g id="edge2" class="edge"><title>Income-&gt;Gender</title><path fill="none" stroke="#000" d="M283.638,-287.7623C280.3973,-263.201 274.5979,-219.2474 270.7856,-190.3541"/><polygon fill="#000" stroke="#000" points="274.209 -189.546 269.431 -180.09 267.269 -190.462 274.209 -189.546"/></g><g id="node4" class="node"><title>Occupation</title><ellipse cx="331.044" cy="-90" fill="none" stroke="#000" rx="51.191" ry="18"/><text x="331.044" y="-86.3" fill="#000" font-family="Times,serif" font-size="14" text-anchor="middle">Occupation</text></g><g id="edge3" class="edge"><title>Income-&gt;Occupation</title><path fill="none" stroke="#000" d="M289.8037,-287.9555C297.6456,-250.3144 315.7972,-163.1867 325.1851,-118.1246"/><polygon fill="#000" stroke="#000" points="328.651 -118.649 327.264 -108.145 321.798 -117.221 328.651 -118.649"/></g><g id="edge6" class="edge"><title>Relationship-&gt;Gender</title><path fill="none" stroke="#000" d="M218.537,-216.5708C226.5936,-207.5071 236.5727,-196.2807 245.3811,-186.3713"/><polygon fill="#000" stroke="#000" points="248.107 -188.572 252.135 -178.773 242.875 -183.922 248.107 -188.572"/></g><g id="node5" class="node"><title>Race</title><ellipse cx="105.044" cy="-162" fill="none" stroke="#000" rx="28.695" ry="18"/><text x="105.044" y="-158.3" fill="#000" font-family="Times,serif" font-size="14" text-anchor="middle">Race</text></g><g id="edge4" class="edge"><title>Relationship-&gt;Race</title><path fill="none" stroke="#000" d="M180.3149,-217.3008C165.9458,-206.7439 147.2976,-193.0432 132.1579,-181.9201"/><polygon fill="#000" stroke="#000" points="133.839 -178.812 123.708 -175.712 129.695 -184.453 133.839 -178.812"/></g><g id="node6" class="node"><title>MaritalStatus</title><ellipse cx="203.044" cy="-90" fill="none" stroke="#000" rx="58.49" ry="18"/><text x="203.044" y="-86.3" fill="#000" font-family="Times,serif" font-size="14" text-anchor="middle">MaritalStatus</text></g><g id="edge5" class="edge"><title>Relationship-&gt;MaritalStatus</title><path fill="none" stroke="#000" d="M203.0444,-215.7623C203.0444,-191.201 203.0444,-147.2474 203.0444,-118.3541"/><polygon fill="#000" stroke="#000" points="206.544 -118.09 203.044 -108.09 199.544 -118.09 206.544 -118.09"/></g><g id="edge7" class="edge"><title>Gender-&gt;Occupation</title><path fill="none" stroke="#000" d="M281.8882,-145.3008C289.8135,-136.3848 299.7321,-125.2264 308.5802,-115.2722"/><polygon fill="#000" stroke="#000" points="311.361 -117.413 315.388 -107.613 306.129 -112.762 311.361 -117.413"/></g><g id="edge8" class="edge"><title>Gender-&gt;MaritalStatus</title><path fill="none" stroke="#000" d="M252.2007,-145.3008C244.2754,-136.3848 234.3567,-125.2264 225.5086,-115.2722"/><polygon fill="#000" stroke="#000" points="227.96 -112.762 218.701 -107.613 222.728 -117.413 227.96 -112.762"/></g><g id="node8" class="node"><title>WorkClass</title><ellipse cx="274.044" cy="-18" fill="none" stroke="#000" rx="50.091" ry="18"/><text x="274.044" y="-14.3" fill="#000" font-family="Times,serif" font-size="14" text-anchor="middle">WorkClass</text></g><g id="edge10" class="edge"><title>Occupation-&gt;WorkClass</title><path fill="none" stroke="#000" d="M317.2463,-72.5708C310.3659,-63.8797 301.9111,-53.2001 294.3109,-43.5998"/><polygon fill="#000" stroke="#000" points="296.864 -41.186 287.913 -35.518 291.376 -45.531 296.864 -41.186"/></g><g id="node9" class="node"><title>Education</title><ellipse cx="388.044" cy="-18" fill="none" stroke="#000" rx="46.292" ry="18"/><text x="388.044" y="-14.3" fill="#000" font-family="Times,serif" font-size="14" text-anchor="middle">Education</text></g><g id="edge11" class="edge"><title>Occupation-&gt;Education</title><path fill="none" stroke="#000" d="M344.8425,-72.5708C351.7739,-63.8153 360.303,-53.0418 367.9466,-43.3867"/><polygon fill="#000" stroke="#000" points="370.911 -45.282 374.373 -35.269 365.422 -40.937 370.911 -45.282"/></g><g id="node7" class="node"><title>NativeCountry</title><ellipse cx="63.044" cy="-90" fill="none" stroke="#000" rx="63.089" ry="18"/><text x="63.044" y="-86.3" fill="#000" font-family="Times,serif" font-size="14" text-anchor="middle">NativeCountry</text></g><g id="edge9" class="edge"><title>Race-&gt;NativeCountry</title><path fill="none" stroke="#000" d="M95.091,-144.937C90.1644,-136.4914 84.1039,-126.1019 78.5842,-116.6396"/><polygon fill="#000" stroke="#000" points="81.575 -114.82 73.513 -107.945 75.528 -118.347 81.575 -114.82"/></g></g></svg>