<?xml version="1.0" encoding="UTF-8" standalone="no"?>
<!DOCTYPE svg PUBLIC "-//W3C//DTD SVG 1.1//EN"
 "http://www.w3.org/Graphics/SVG/1.1/DTD/svg11.dtd">
<!-- Generated by graphviz version 2.40.1 (20161225.0304)
 -->
<!-- Title: adult_unconstrained Pages: 1 -->
<svg width="442pt" height="332pt"
 viewBox="0.00 0.00 442.19 332.00" xmlns="http://www.w3.org/2000/svg" xmlns:xlink="http://www.w3.org/1999/xlink">
<g id="graph0" class="graph" transform="scale(1 1) rotate(0) translate(4 328)">
<title>adult_unconstrained</title>
<polygon fill="#ffffff" stroke="transparent" points="-4,4 -4,-328 438.1903,-328 438.1903,4 -4,4"/>
<!-- Income -->
<g id="node1" class="node">
<title>Income</title>
<ellipse fill="none" stroke="#000000" cx="286.0444" cy="-306" rx="37.8943" ry="18"/>
<text text-anchor="middle" x="286.0444" y="-302.3" font-family="Times,serif" font-size="14.00" fill="#000000">Income</text>
</g>
<!-- Relationship -->
<g id="node2" class="node">
<title>Relationship</title>
<ellipse fill="none" stroke="#000000" cx="203.0444" cy="-234" rx="55.4913" ry="18"/>
<text text-anchor="middle" x="203.0444" y="-230.3" font-family="Times,serif" font-size="14.00" fill="#000000">Relationship</text>
</g>
<!-- Income&#45;&gt;Relationship -->
<g id="edge1" class="edge">
<title>Income&#45;&gt;Relationship</title>
<path fill="none" stroke="#000000" d="M267.624,-290.0209C256.6544,-280.5051 242.5303,-268.2528 230.2896,-257.6344"/>
<polygon fill="#000000" stroke="#000000" points="232.4172,-254.8466 222.5698,-250.9377 227.8302,-260.1343 232.4172,-254.8466"/>
</g>
<!-- Gender -->
<g id="node3" class="node">
<title>Gender</title>
<ellipse fill="none" stroke="#000000" cx="267.0444" cy="-162" rx="36.2938" ry="18"/>
<text text-anchor="middle" x="267.0444" y="-158.3" font-family="Times,serif" font-size="14.00" fill="#000000">Gender</text>
</g>
<!-- Income&#45;&gt;Gender -->
<g id="edge2" class="edge">
<title>Income&#45;&gt;Gender</title>
<path fill="none" stroke="#000000" d="M283.638,-287.7623C280.3973,-263.201 274.5979,-219.2474 270.7856,-190.3541"/>
<polygon fill="#000000" stroke="#000000" points="274.2093,-189.5458 269.4312,-180.0896 267.2695,-190.4616 274.2093,-189.5458"/>
</g>
<!-- Occupation -->
<g id="node4" class="node">
<title>Occupation</title>
<ellipse fill="none" stroke="#000000" cx="331.0444" cy="-90" rx="51.1914" ry="18"/>
<text text-anchor="middle" x="331.0444" y="-86.3" font-family="Times,serif" font-size="14.00" fill="#000000">Occupation</text>
</g>
<!-- Income&#45;&gt;Occupation -->
<g id="edge3" class="edge">
<title>Income&#45;&gt;Occupation</title>
<path fill="none" stroke="#000000" d="M289.8037,-287.9555C297.6456,-250.3144 315.7972,-163.1867 325.1851,-118.1246"/>
<polygon fill="#000000" stroke="#000000" points="328.651,-118.6487 327.2642,-108.1451 321.7981,-117.221 328.651,-118.6487"/>
</g>
<!-- Relationship&#45;&gt;Gender -->
<g id="edge6" class="edge">
<title>Relationship&#45;&gt;Gender</title>
<path fill="none" stroke="#000000" d="M218.537,-216.5708C226.5936,-207.5071 236.5727,-196.2807 245.3811,-186.3713"/>
<polygon fill="#000000" stroke="#000000" points="248.1074,-188.5723 252.1352,-178.7729 242.8755,-183.9217 248.1074,-188.5723"/>
</g>
<!-- Race -->
<g id="node5" class="node">
<title>Race</title>
<ellipse fill="none" stroke="#000000" cx="105.0444" cy="-162" rx="28.6953" ry="18"/>
<text text-anchor="middle" x="105.0444" y="-158.3" font-family="Times,serif" font-size="14.00" fill="#000000">Race</text>
</g>
<!-- Relationship&#45;&gt;Race -->
<g id="edge4" class="edge">
<title>Relationship&#45;&gt;Race</title>
<path fill="none" stroke="#000000" d="M180.3149,-217.3008C165.9458,-206.7439 147.2976,-193.0432 132.1579,-181.9201"/>
<polygon fill="#000000" stroke="#000000" points="133.8392,-178.8123 123.7081,-175.7121 129.6947,-184.4535 133.8392,-178.8123"/>
</g>
<!-- MaritalStatus -->
<g id="node6" class="node">
<title>MaritalStatus</title>
<ellipse fill="none" stroke="#000000" cx="203.0444" cy="-90" rx="58.4896" ry="18"/>
<text text-anchor="middle" x="203.0444" y="-86.3" font-family="Times,serif" font-size="14.00" fill="#000000">MaritalStatus</text>
</g>
<!-- Relationship&#45;&gt;MaritalStatus -->
<g id="edge5" class="edge">
<title>Relationship&#45;&gt;MaritalStatus</title>
<path fill="none" stroke="#000000" d="M203.0444,-215.7623C203.0444,-191.201 203.0444,-147.2474 203.0444,-118.3541"/>
<polygon fill="#000000" stroke="#000000" points="206.5445,-118.0896 203.0444,-108.0896 199.5445,-118.0897 206.5445,-118.0896"/>
</g>
<!-- Gender&#45;&gt;Occupation -->
<g id="edge7" class="edge">
<title>Gender&#45;&gt;Occupation</title>
<path fill="none" stroke="#000000" d="M281.8882,-145.3008C289.8135,-136.3848 299.7321,-125.2264 308.5802,-115.2722"/>
<polygon fill="#000000" stroke="#000000" points="311.3605,-117.4126 315.3882,-107.6132 306.1286,-112.762 311.3605,-117.4126"/>
</g>
<!-- Gender&#45;&gt;MaritalStatus -->
<g id="edge8" class="edge">
<title>Gender&#45;&gt;MaritalStatus</title>
<path fill="none" stroke="#000000" d="M252.2007,-145.3008C244.2754,-136.3848 234.3567,-125.2264 225.5086,-115.2722"/>
<polygon fill="#000000" stroke="#000000" points="227.9602,-112.762 218.7006,-107.6132 222.7283,-117.4126 227.9602,-112.762"/>
</g>
<!-- WorkClass -->
<g id="node8" class="node">
<title>WorkClass</title>
<ellipse fill="none" stroke="#000000" cx="274.0444" cy="-18" rx="50.0912" ry="18"/>
<text text-anchor="middle" x="274.0444" y="-14.3" font-family="Times,serif" font-size="14.00" fill="#000000">WorkClass</text>
</g>
<!-- Occupation&#45;&gt;WorkClass -->
<g id="edge10" class="edge">
<title>Occupation&#45;&gt;WorkClass</title>
<path fill="none" stroke="#000000" d="M317.2463,-72.5708C310.3659,-63.8797 301.9111,-53.2001 294.3109,-43.5998"/>
<polygon fill="#000000" stroke="#000000" points="296.8642,-41.1862 287.913,-35.5182 291.3759,-45.5312 296.8642,-41.1862"/>
</g>
<!-- Education -->
<g id="node9" class="node">
<title>Education</title>
<ellipse fill="none" stroke="#000000" cx="388.0444" cy="-18" rx="46.2923" ry="18"/>
<text text-anchor="middle" x="388.0444" y="-14.3" font-family="Times,serif" font-size="14.00" fill="#000000">Education</text>
</g>
<!-- Occupation&#45;&gt;Education -->
<g id="edge11" class="edge">
<title>Occupation&#45;&gt;Education</title>
<path fill="none" stroke="#000000" d="M344.8425,-72.5708C351.7739,-63.8153 360.303,-53.0418 367.9466,-43.3867"/>
<polygon fill="#000000" stroke="#000000" points="370.9105,-45.2816 374.3734,-35.2687 365.4221,-40.9367 370.9105,-45.2816"/>
</g>
<!-- NativeCountry -->
<g id="node7" class="node">
<title>NativeCountry</title>
<ellipse fill="none" stroke="#000000" cx="63.0444" cy="-90" rx="63.0888" ry="18"/>
<text text-anchor="middle" x="63.0444" y="-86.3" font-family="Times,serif" font-size="14.00" fill="#000000">NativeCountry</text>
</g>
<!-- Race&#45;&gt;NativeCountry -->
<g id="edge9" class="edge">
<title>Race&#45;&gt;NativeCountry</title>
<path fill="none" stroke="#000000" d="M95.091,-144.937C90.1644,-136.4914 84.1039,-126.1019 78.5842,-116.6396"/>
<polygon fill="#000000" stroke="#000000" points="81.5745,-114.8195 73.5125,-107.9453 75.528,-118.3466 81.5745,-114.8195"/>
</g>
</g>
</svg>
